solid CATIA STL
  facet normal -7.372774e-01  6.755900e-01  0.000000e+00
    outer loop
      vertex -2.707107e+01  7.071068e+00  4.500000e+02
      vertex -2.707107e+01  7.071068e+00  1.000000e+01
      vertex -2.766044e+01  6.427876e+00  4.500000e+02
    endloop
  endfacet
  facet normal -7.372774e-01  6.755900e-01  0.000000e+00
    outer loop
      vertex -2.766044e+01  6.427876e+00  4.500000e+02
      vertex -2.707107e+01  7.071068e+00  1.000000e+01
      vertex -2.766044e+01  6.427876e+00  1.000000e+01
    endloop
  endfacet
  facet normal -7.933530e-01  6.087618e-01  0.000000e+00
    outer loop
      vertex -2.766044e+01  6.427876e+00  4.500000e+02
      vertex -2.766044e+01  6.427876e+00  1.000000e+01
      vertex -2.819152e+01  5.735765e+00  4.500000e+02
    endloop
  endfacet
  facet normal -7.933530e-01  6.087618e-01  0.000000e+00
    outer loop
      vertex -2.819152e+01  5.735765e+00  4.500000e+02
      vertex -2.766044e+01  6.427876e+00  1.000000e+01
      vertex -2.819152e+01  5.735765e+00  1.000000e+01
    endloop
  endfacet
  facet normal -8.433920e-01  5.372989e-01  0.000000e+00
    outer loop
      vertex -2.819152e+01  5.735765e+00  4.500000e+02
      vertex -2.819152e+01  5.735765e+00  1.000000e+01
      vertex -2.866025e+01  5.000000e+00  4.500000e+02
    endloop
  endfacet
  facet normal -8.433920e-01  5.372989e-01  0.000000e+00
    outer loop
      vertex -2.866025e+01  5.000000e+00  4.500000e+02
      vertex -2.819152e+01  5.735765e+00  1.000000e+01
      vertex -2.866025e+01  5.000000e+00  1.000000e+01
    endloop
  endfacet
  facet normal -8.870106e-01  4.617491e-01  0.000000e+00
    outer loop
      vertex -2.866025e+01  5.000000e+00  4.500000e+02
      vertex -2.866025e+01  5.000000e+00  1.000000e+01
      vertex -2.906308e+01  4.226182e+00  4.500000e+02
    endloop
  endfacet
  facet normal -8.870106e-01  4.617491e-01  0.000000e+00
    outer loop
      vertex -2.906308e+01  4.226182e+00  4.500000e+02
      vertex -2.866025e+01  5.000000e+00  1.000000e+01
      vertex -2.906308e+01  4.226182e+00  1.000000e+01
    endloop
  endfacet
  facet normal -9.238792e-01  3.826841e-01  0.000000e+00
    outer loop
      vertex -2.906308e+01  4.226182e+00  4.500000e+02
      vertex -2.906308e+01  4.226182e+00  1.000000e+01
      vertex -2.939693e+01  3.420202e+00  4.500000e+02
    endloop
  endfacet
  facet normal -9.238792e-01  3.826841e-01  0.000000e+00
    outer loop
      vertex -2.939693e+01  3.420202e+00  4.500000e+02
      vertex -2.906308e+01  4.226182e+00  1.000000e+01
      vertex -2.939693e+01  3.420202e+00  1.000000e+01
    endloop
  endfacet
  facet normal -9.537174e-01  3.007047e-01  0.000000e+00
    outer loop
      vertex -2.939693e+01  3.420202e+00  4.500000e+02
      vertex -2.939693e+01  3.420202e+00  1.000000e+01
      vertex -2.965926e+01  2.588191e+00  4.500000e+02
    endloop
  endfacet
  facet normal -9.537174e-01  3.007047e-01  0.000000e+00
    outer loop
      vertex -2.965926e+01  2.588191e+00  4.500000e+02
      vertex -2.939693e+01  3.420202e+00  1.000000e+01
      vertex -2.965926e+01  2.588191e+00  1.000000e+01
    endloop
  endfacet
  facet normal -9.762959e-01  2.164403e-01  0.000000e+00
    outer loop
      vertex -2.965926e+01  2.588191e+00  4.500000e+02
      vertex -2.965926e+01  2.588191e+00  1.000000e+01
      vertex -2.984808e+01  1.736482e+00  4.500000e+02
    endloop
  endfacet
  facet normal -9.762959e-01  2.164403e-01  0.000000e+00
    outer loop
      vertex -2.984808e+01  1.736482e+00  4.500000e+02
      vertex -2.965926e+01  2.588191e+00  1.000000e+01
      vertex -2.984808e+01  1.736482e+00  1.000000e+01
    endloop
  endfacet
  facet normal -9.914449e-01  1.305254e-01  0.000000e+00
    outer loop
      vertex -2.984808e+01  1.736482e+00  4.500000e+02
      vertex -2.984808e+01  1.736482e+00  1.000000e+01
      vertex -2.996195e+01  8.715574e-01  4.500000e+02
    endloop
  endfacet
  facet normal -9.914449e-01  1.305254e-01  0.000000e+00
    outer loop
      vertex -2.996195e+01  8.715574e-01  4.500000e+02
      vertex -2.984808e+01  1.736482e+00  1.000000e+01
      vertex -2.996195e+01  8.715574e-01  1.000000e+01
    endloop
  endfacet
  facet normal -9.990482e-01  4.361995e-02  0.000000e+00
    outer loop
      vertex -2.996195e+01  8.715574e-01  4.500000e+02
      vertex -2.996195e+01  8.715574e-01  1.000000e+01
      vertex -3.000000e+01  2.097981e-14  4.500000e+02
    endloop
  endfacet
  facet normal -9.990482e-01  4.361995e-02  0.000000e+00
    outer loop
      vertex -3.000000e+01  2.097981e-14  4.500000e+02
      vertex -2.996195e+01  8.715574e-01  1.000000e+01
      vertex -3.000000e+01  2.097981e-14  1.000000e+01
    endloop
  endfacet
  facet normal -9.990482e-01 -4.361995e-02  0.000000e+00
    outer loop
      vertex -3.000000e+01  2.097981e-14  4.500000e+02
      vertex -3.000000e+01  2.097981e-14  1.000000e+01
      vertex -2.996195e+01 -8.715574e-01  4.500000e+02
    endloop
  endfacet
  facet normal -9.990482e-01 -4.361995e-02  -0.000000e+00
    outer loop
      vertex -2.996195e+01 -8.715574e-01  4.500000e+02
      vertex -3.000000e+01  2.097981e-14  1.000000e+01
      vertex -2.996195e+01 -8.715574e-01  1.000000e+01
    endloop
  endfacet
  facet normal -9.914449e-01 -1.305254e-01  0.000000e+00
    outer loop
      vertex -2.996195e+01 -8.715574e-01  4.500000e+02
      vertex -2.996195e+01 -8.715574e-01  1.000000e+01
      vertex -2.984808e+01 -1.736482e+00  4.500000e+02
    endloop
  endfacet
  facet normal -9.914449e-01 -1.305254e-01  -0.000000e+00
    outer loop
      vertex -2.984808e+01 -1.736482e+00  4.500000e+02
      vertex -2.996195e+01 -8.715574e-01  1.000000e+01
      vertex -2.984808e+01 -1.736482e+00  1.000000e+01
    endloop
  endfacet
  facet normal -9.762959e-01 -2.164403e-01  0.000000e+00
    outer loop
      vertex -2.984808e+01 -1.736482e+00  4.500000e+02
      vertex -2.984808e+01 -1.736482e+00  1.000000e+01
      vertex -2.965926e+01 -2.588191e+00  4.500000e+02
    endloop
  endfacet
  facet normal -9.762959e-01 -2.164403e-01  -0.000000e+00
    outer loop
      vertex -2.965926e+01 -2.588191e+00  4.500000e+02
      vertex -2.984808e+01 -1.736482e+00  1.000000e+01
      vertex -2.965926e+01 -2.588191e+00  1.000000e+01
    endloop
  endfacet
  facet normal -9.537174e-01 -3.007047e-01  0.000000e+00
    outer loop
      vertex -2.965926e+01 -2.588191e+00  4.500000e+02
      vertex -2.965926e+01 -2.588191e+00  1.000000e+01
      vertex -2.939693e+01 -3.420202e+00  4.500000e+02
    endloop
  endfacet
  facet normal -9.537174e-01 -3.007047e-01  -0.000000e+00
    outer loop
      vertex -2.939693e+01 -3.420202e+00  4.500000e+02
      vertex -2.965926e+01 -2.588191e+00  1.000000e+01
      vertex -2.939693e+01 -3.420202e+00  1.000000e+01
    endloop
  endfacet
  facet normal -9.238792e-01 -3.826841e-01  0.000000e+00
    outer loop
      vertex -2.939693e+01 -3.420202e+00  4.500000e+02
      vertex -2.939693e+01 -3.420202e+00  1.000000e+01
      vertex -2.906308e+01 -4.226182e+00  4.500000e+02
    endloop
  endfacet
  facet normal -9.238792e-01 -3.826841e-01  -0.000000e+00
    outer loop
      vertex -2.906308e+01 -4.226182e+00  4.500000e+02
      vertex -2.939693e+01 -3.420202e+00  1.000000e+01
      vertex -2.906308e+01 -4.226182e+00  1.000000e+01
    endloop
  endfacet
  facet normal -8.870106e-01 -4.617491e-01  0.000000e+00
    outer loop
      vertex -2.906308e+01 -4.226182e+00  4.500000e+02
      vertex -2.906308e+01 -4.226182e+00  1.000000e+01
      vertex -2.866025e+01 -5.000000e+00  4.500000e+02
    endloop
  endfacet
  facet normal -8.870106e-01 -4.617491e-01  -0.000000e+00
    outer loop
      vertex -2.866025e+01 -5.000000e+00  4.500000e+02
      vertex -2.906308e+01 -4.226182e+00  1.000000e+01
      vertex -2.866025e+01 -5.000000e+00  1.000000e+01
    endloop
  endfacet
  facet normal -8.433920e-01 -5.372989e-01  0.000000e+00
    outer loop
      vertex -2.866025e+01 -5.000000e+00  4.500000e+02
      vertex -2.866025e+01 -5.000000e+00  1.000000e+01
      vertex -2.819152e+01 -5.735765e+00  4.500000e+02
    endloop
  endfacet
  facet normal -8.433920e-01 -5.372989e-01  -0.000000e+00
    outer loop
      vertex -2.819152e+01 -5.735765e+00  4.500000e+02
      vertex -2.866025e+01 -5.000000e+00  1.000000e+01
      vertex -2.819152e+01 -5.735765e+00  1.000000e+01
    endloop
  endfacet
  facet normal -7.933530e-01 -6.087618e-01  0.000000e+00
    outer loop
      vertex -2.819152e+01 -5.735765e+00  4.500000e+02
      vertex -2.819152e+01 -5.735765e+00  1.000000e+01
      vertex -2.766044e+01 -6.427876e+00  4.500000e+02
    endloop
  endfacet
  facet normal -7.933530e-01 -6.087618e-01  -0.000000e+00
    outer loop
      vertex -2.766044e+01 -6.427876e+00  4.500000e+02
      vertex -2.819152e+01 -5.735765e+00  1.000000e+01
      vertex -2.766044e+01 -6.427876e+00  1.000000e+01
    endloop
  endfacet
  facet normal -7.372774e-01 -6.755900e-01  0.000000e+00
    outer loop
      vertex -2.766044e+01 -6.427876e+00  4.500000e+02
      vertex -2.766044e+01 -6.427876e+00  1.000000e+01
      vertex -2.707107e+01 -7.071068e+00  4.500000e+02
    endloop
  endfacet
  facet normal -7.372774e-01 -6.755900e-01  -0.000000e+00
    outer loop
      vertex -2.707107e+01 -7.071068e+00  4.500000e+02
      vertex -2.766044e+01 -6.427876e+00  1.000000e+01
      vertex -2.707107e+01 -7.071068e+00  1.000000e+01
    endloop
  endfacet
  facet normal -6.755897e-01 -7.372777e-01  0.000000e+00
    outer loop
      vertex -2.707107e+01 -7.071068e+00  4.500000e+02
      vertex -2.707107e+01 -7.071068e+00  1.000000e+01
      vertex -2.642788e+01 -7.660444e+00  4.500000e+02
    endloop
  endfacet
  facet normal -6.755897e-01 -7.372777e-01  -0.000000e+00
    outer loop
      vertex -2.642788e+01 -7.660444e+00  4.500000e+02
      vertex -2.707107e+01 -7.071068e+00  1.000000e+01
      vertex -2.642788e+01 -7.660444e+00  1.000000e+01
    endloop
  endfacet
  facet normal -6.087616e-01 -7.933532e-01  0.000000e+00
    outer loop
      vertex -2.642788e+01 -7.660444e+00  4.500000e+02
      vertex -2.642788e+01 -7.660444e+00  1.000000e+01
      vertex -2.573576e+01 -8.191521e+00  4.500000e+02
    endloop
  endfacet
  facet normal -6.087616e-01 -7.933532e-01  -0.000000e+00
    outer loop
      vertex -2.573576e+01 -8.191521e+00  4.500000e+02
      vertex -2.642788e+01 -7.660444e+00  1.000000e+01
      vertex -2.573576e+01 -8.191521e+00  1.000000e+01
    endloop
  endfacet
  facet normal -5.373002e-01 -8.433911e-01  0.000000e+00
    outer loop
      vertex -2.573576e+01 -8.191521e+00  4.500000e+02
      vertex -2.573576e+01 -8.191521e+00  1.000000e+01
      vertex -2.500000e+01 -8.660254e+00  4.500000e+02
    endloop
  endfacet
  facet normal -5.373002e-01 -8.433911e-01  -0.000000e+00
    outer loop
      vertex -2.500000e+01 -8.660254e+00  4.500000e+02
      vertex -2.573576e+01 -8.191521e+00  1.000000e+01
      vertex -2.500000e+01 -8.660254e+00  1.000000e+01
    endloop
  endfacet
  facet normal -4.617484e-01 -8.870109e-01  0.000000e+00
    outer loop
      vertex -2.500000e+01 -8.660254e+00  4.500000e+02
      vertex -2.500000e+01 -8.660254e+00  1.000000e+01
      vertex -2.422618e+01 -9.063078e+00  4.500000e+02
    endloop
  endfacet
  facet normal -4.617484e-01 -8.870109e-01  -0.000000e+00
    outer loop
      vertex -2.422618e+01 -9.063078e+00  4.500000e+02
      vertex -2.500000e+01 -8.660254e+00  1.000000e+01
      vertex -2.422618e+01 -9.063078e+00  1.000000e+01
    endloop
  endfacet
  facet normal -3.826833e-01 -9.238796e-01  0.000000e+00
    outer loop
      vertex -2.422618e+01 -9.063078e+00  4.500000e+02
      vertex -2.422618e+01 -9.063078e+00  1.000000e+01
      vertex -2.342020e+01 -9.396926e+00  4.500000e+02
    endloop
  endfacet
  facet normal -3.826833e-01 -9.238796e-01  -0.000000e+00
    outer loop
      vertex -2.342020e+01 -9.396926e+00  4.500000e+02
      vertex -2.422618e+01 -9.063078e+00  1.000000e+01
      vertex -2.342020e+01 -9.396926e+00  1.000000e+01
    endloop
  endfacet
  facet normal -3.007053e-01 -9.537172e-01  0.000000e+00
    outer loop
      vertex -2.342020e+01 -9.396926e+00  4.500000e+02
      vertex -2.342020e+01 -9.396926e+00  1.000000e+01
      vertex -2.258819e+01 -9.659258e+00  4.500000e+02
    endloop
  endfacet
  facet normal -3.007053e-01 -9.537172e-01  -0.000000e+00
    outer loop
      vertex -2.258819e+01 -9.659258e+00  4.500000e+02
      vertex -2.342020e+01 -9.396926e+00  1.000000e+01
      vertex -2.258819e+01 -9.659258e+00  1.000000e+01
    endloop
  endfacet
  facet normal -2.164406e-01 -9.762959e-01  0.000000e+00
    outer loop
      vertex -2.258819e+01 -9.659258e+00  4.500000e+02
      vertex -2.258819e+01 -9.659258e+00  1.000000e+01
      vertex -2.173648e+01 -9.848078e+00  4.500000e+02
    endloop
  endfacet
  facet normal -2.164406e-01 -9.762959e-01  -0.000000e+00
    outer loop
      vertex -2.173648e+01 -9.848078e+00  4.500000e+02
      vertex -2.258819e+01 -9.659258e+00  1.000000e+01
      vertex -2.173648e+01 -9.848078e+00  1.000000e+01
    endloop
  endfacet
  facet normal -1.305263e-01 -9.914448e-01  0.000000e+00
    outer loop
      vertex -2.173648e+01 -9.848078e+00  4.500000e+02
      vertex -2.173648e+01 -9.848078e+00  1.000000e+01
      vertex -2.087156e+01 -9.961947e+00  4.500000e+02
    endloop
  endfacet
  facet normal -1.305263e-01 -9.914448e-01  -0.000000e+00
    outer loop
      vertex -2.087156e+01 -9.961947e+00  4.500000e+02
      vertex -2.173648e+01 -9.848078e+00  1.000000e+01
      vertex -2.087156e+01 -9.961947e+00  1.000000e+01
    endloop
  endfacet
  facet normal -4.361887e-02 -9.990482e-01  0.000000e+00
    outer loop
      vertex -2.087156e+01 -9.961947e+00  4.500000e+02
      vertex -2.087156e+01 -9.961947e+00  1.000000e+01
      vertex -2.000000e+01 -1.000000e+01  4.500000e+02
    endloop
  endfacet
  facet normal -4.361887e-02 -9.990482e-01  -0.000000e+00
    outer loop
      vertex -2.000000e+01 -1.000000e+01  4.500000e+02
      vertex -2.087156e+01 -9.961947e+00  1.000000e+01
      vertex -2.000000e+01 -1.000000e+01  1.000000e+01
    endloop
  endfacet
  facet normal  4.361887e-02 -9.990482e-01  0.000000e+00
    outer loop
      vertex -2.000000e+01 -1.000000e+01  4.500000e+02
      vertex -2.000000e+01 -1.000000e+01  1.000000e+01
      vertex -1.912844e+01 -9.961947e+00  4.500000e+02
    endloop
  endfacet
  facet normal  4.361887e-02 -9.990482e-01  0.000000e+00
    outer loop
      vertex -1.912844e+01 -9.961947e+00  4.500000e+02
      vertex -2.000000e+01 -1.000000e+01  1.000000e+01
      vertex -1.912844e+01 -9.961947e+00  1.000000e+01
    endloop
  endfacet
  facet normal  1.305263e-01 -9.914448e-01  0.000000e+00
    outer loop
      vertex -1.912844e+01 -9.961947e+00  4.500000e+02
      vertex -1.912844e+01 -9.961947e+00  1.000000e+01
      vertex -1.826352e+01 -9.848078e+00  4.500000e+02
    endloop
  endfacet
  facet normal  1.305263e-01 -9.914448e-01  0.000000e+00
    outer loop
      vertex -1.826352e+01 -9.848078e+00  4.500000e+02
      vertex -1.912844e+01 -9.961947e+00  1.000000e+01
      vertex -1.826352e+01 -9.848078e+00  1.000000e+01
    endloop
  endfacet
  facet normal  2.164406e-01 -9.762959e-01  0.000000e+00
    outer loop
      vertex -1.826352e+01 -9.848078e+00  4.500000e+02
      vertex -1.826352e+01 -9.848078e+00  1.000000e+01
      vertex -1.741181e+01 -9.659258e+00  4.500000e+02
    endloop
  endfacet
  facet normal  2.164406e-01 -9.762959e-01  0.000000e+00
    outer loop
      vertex -1.741181e+01 -9.659258e+00  4.500000e+02
      vertex -1.826352e+01 -9.848078e+00  1.000000e+01
      vertex -1.741181e+01 -9.659258e+00  1.000000e+01
    endloop
  endfacet
  facet normal  3.007053e-01 -9.537172e-01  0.000000e+00
    outer loop
      vertex -1.741181e+01 -9.659258e+00  4.500000e+02
      vertex -1.741181e+01 -9.659258e+00  1.000000e+01
      vertex -1.657980e+01 -9.396926e+00  4.500000e+02
    endloop
  endfacet
  facet normal  3.007053e-01 -9.537172e-01  0.000000e+00
    outer loop
      vertex -1.657980e+01 -9.396926e+00  4.500000e+02
      vertex -1.741181e+01 -9.659258e+00  1.000000e+01
      vertex -1.657980e+01 -9.396926e+00  1.000000e+01
    endloop
  endfacet
  facet normal  3.826833e-01 -9.238796e-01  0.000000e+00
    outer loop
      vertex -1.657980e+01 -9.396926e+00  4.500000e+02
      vertex -1.657980e+01 -9.396926e+00  1.000000e+01
      vertex -1.577382e+01 -9.063078e+00  4.500000e+02
    endloop
  endfacet
  facet normal  3.826833e-01 -9.238796e-01  0.000000e+00
    outer loop
      vertex -1.577382e+01 -9.063078e+00  4.500000e+02
      vertex -1.657980e+01 -9.396926e+00  1.000000e+01
      vertex -1.577382e+01 -9.063078e+00  1.000000e+01
    endloop
  endfacet
  facet normal  4.617484e-01 -8.870109e-01  0.000000e+00
    outer loop
      vertex -1.577382e+01 -9.063078e+00  4.500000e+02
      vertex -1.577382e+01 -9.063078e+00  1.000000e+01
      vertex -1.500000e+01 -8.660254e+00  4.500000e+02
    endloop
  endfacet
  facet normal  4.617484e-01 -8.870109e-01  0.000000e+00
    outer loop
      vertex -1.500000e+01 -8.660254e+00  4.500000e+02
      vertex -1.577382e+01 -9.063078e+00  1.000000e+01
      vertex -1.500000e+01 -8.660254e+00  1.000000e+01
    endloop
  endfacet
  facet normal  5.372997e-01 -8.433914e-01  0.000000e+00
    outer loop
      vertex -1.500000e+01 -8.660254e+00  4.500000e+02
      vertex -1.500000e+01 -8.660254e+00  1.000000e+01
      vertex -1.426424e+01 -8.191521e+00  4.500000e+02
    endloop
  endfacet
  facet normal  5.372997e-01 -8.433914e-01  0.000000e+00
    outer loop
      vertex -1.426424e+01 -8.191521e+00  4.500000e+02
      vertex -1.500000e+01 -8.660254e+00  1.000000e+01
      vertex -1.426424e+01 -8.191521e+00  1.000000e+01
    endloop
  endfacet
  facet normal  6.087616e-01 -7.933532e-01  0.000000e+00
    outer loop
      vertex -1.426424e+01 -8.191521e+00  4.500000e+02
      vertex -1.426424e+01 -8.191521e+00  1.000000e+01
      vertex -1.357212e+01 -7.660444e+00  4.500000e+02
    endloop
  endfacet
  facet normal  6.087616e-01 -7.933532e-01  0.000000e+00
    outer loop
      vertex -1.357212e+01 -7.660444e+00  4.500000e+02
      vertex -1.426424e+01 -8.191521e+00  1.000000e+01
      vertex -1.357212e+01 -7.660444e+00  1.000000e+01
    endloop
  endfacet
  facet normal  6.755903e-01 -7.372772e-01  0.000000e+00
    outer loop
      vertex -1.357212e+01 -7.660444e+00  4.500000e+02
      vertex -1.357212e+01 -7.660444e+00  1.000000e+01
      vertex -1.292893e+01 -7.071068e+00  4.500000e+02
    endloop
  endfacet
  facet normal  6.755903e-01 -7.372772e-01  0.000000e+00
    outer loop
      vertex -1.292893e+01 -7.071068e+00  4.500000e+02
      vertex -1.357212e+01 -7.660444e+00  1.000000e+01
      vertex -1.292893e+01 -7.071068e+00  1.000000e+01
    endloop
  endfacet
  facet normal  7.372774e-01 -6.755900e-01  0.000000e+00
    outer loop
      vertex -1.292893e+01 -7.071068e+00  4.500000e+02
      vertex -1.292893e+01 -7.071068e+00  1.000000e+01
      vertex -1.233956e+01 -6.427876e+00  4.500000e+02
    endloop
  endfacet
  facet normal  7.372774e-01 -6.755900e-01  0.000000e+00
    outer loop
      vertex -1.233956e+01 -6.427876e+00  4.500000e+02
      vertex -1.292893e+01 -7.071068e+00  1.000000e+01
      vertex -1.233956e+01 -6.427876e+00  1.000000e+01
    endloop
  endfacet
  facet normal  7.933530e-01 -6.087618e-01  0.000000e+00
    outer loop
      vertex -1.233956e+01 -6.427876e+00  4.500000e+02
      vertex -1.233956e+01 -6.427876e+00  1.000000e+01
      vertex -1.180848e+01 -5.735765e+00  4.500000e+02
    endloop
  endfacet
  facet normal  7.933530e-01 -6.087618e-01  0.000000e+00
    outer loop
      vertex -1.180848e+01 -5.735765e+00  4.500000e+02
      vertex -1.233956e+01 -6.427876e+00  1.000000e+01
      vertex -1.180848e+01 -5.735765e+00  1.000000e+01
    endloop
  endfacet
  facet normal  8.433914e-01 -5.372997e-01  0.000000e+00
    outer loop
      vertex -1.180848e+01 -5.735765e+00  4.500000e+02
      vertex -1.180848e+01 -5.735765e+00  1.000000e+01
      vertex -1.133975e+01 -5.000000e+00  4.500000e+02
    endloop
  endfacet
  facet normal  8.433914e-01 -5.372997e-01  0.000000e+00
    outer loop
      vertex -1.133975e+01 -5.000000e+00  4.500000e+02
      vertex -1.180848e+01 -5.735765e+00  1.000000e+01
      vertex -1.133975e+01 -5.000000e+00  1.000000e+01
    endloop
  endfacet
  facet normal  8.870110e-01 -4.617482e-01  0.000000e+00
    outer loop
      vertex -1.133975e+01 -5.000000e+00  4.500000e+02
      vertex -1.133975e+01 -5.000000e+00  1.000000e+01
      vertex -1.093692e+01 -4.226182e+00  4.500000e+02
    endloop
  endfacet
  facet normal  8.870110e-01 -4.617482e-01  0.000000e+00
    outer loop
      vertex -1.093692e+01 -4.226182e+00  4.500000e+02
      vertex -1.133975e+01 -5.000000e+00  1.000000e+01
      vertex -1.093692e+01 -4.226182e+00  1.000000e+01
    endloop
  endfacet
  facet normal  9.238796e-01 -3.826832e-01  0.000000e+00
    outer loop
      vertex -1.093692e+01 -4.226182e+00  4.500000e+02
      vertex -1.093692e+01 -4.226182e+00  1.000000e+01
      vertex -1.060307e+01 -3.420202e+00  4.500000e+02
    endloop
  endfacet
  facet normal  9.238796e-01 -3.826832e-01  0.000000e+00
    outer loop
      vertex -1.060307e+01 -3.420202e+00  4.500000e+02
      vertex -1.093692e+01 -4.226182e+00  1.000000e+01
      vertex -1.060307e+01 -3.420202e+00  1.000000e+01
    endloop
  endfacet
  facet normal  9.537170e-01 -3.007057e-01  0.000000e+00
    outer loop
      vertex -1.060307e+01 -3.420202e+00  4.500000e+02
      vertex -1.060307e+01 -3.420202e+00  1.000000e+01
      vertex -1.034074e+01 -2.588191e+00  4.500000e+02
    endloop
  endfacet
  facet normal  9.537170e-01 -3.007057e-01  0.000000e+00
    outer loop
      vertex -1.034074e+01 -2.588191e+00  4.500000e+02
      vertex -1.060307e+01 -3.420202e+00  1.000000e+01
      vertex -1.034074e+01 -2.588191e+00  1.000000e+01
    endloop
  endfacet
  facet normal  9.762959e-01 -2.164403e-01  0.000000e+00
    outer loop
      vertex -1.034074e+01 -2.588191e+00  4.500000e+02
      vertex -1.034074e+01 -2.588191e+00  1.000000e+01
      vertex -1.015192e+01 -1.736482e+00  4.500000e+02
    endloop
  endfacet
  facet normal  9.762959e-01 -2.164403e-01  0.000000e+00
    outer loop
      vertex -1.015192e+01 -1.736482e+00  4.500000e+02
      vertex -1.034074e+01 -2.588191e+00  1.000000e+01
      vertex -1.015192e+01 -1.736482e+00  1.000000e+01
    endloop
  endfacet
  facet normal  9.914448e-01 -1.305264e-01  0.000000e+00
    outer loop
      vertex -1.015192e+01 -1.736482e+00  4.500000e+02
      vertex -1.015192e+01 -1.736482e+00  1.000000e+01
      vertex -1.003805e+01 -8.715574e-01  4.500000e+02
    endloop
  endfacet
  facet normal  9.914448e-01 -1.305264e-01  0.000000e+00
    outer loop
      vertex -1.003805e+01 -8.715574e-01  4.500000e+02
      vertex -1.015192e+01 -1.736482e+00  1.000000e+01
      vertex -1.003805e+01 -8.715574e-01  1.000000e+01
    endloop
  endfacet
  facet normal  9.990482e-01 -4.361886e-02  0.000000e+00
    outer loop
      vertex -1.003805e+01 -8.715574e-01  4.500000e+02
      vertex -1.003805e+01 -8.715574e-01  1.000000e+01
      vertex -1.000000e+01 -1.531427e-14  4.500000e+02
    endloop
  endfacet
  facet normal  9.990482e-01 -4.361886e-02  0.000000e+00
    outer loop
      vertex -1.000000e+01 -1.531427e-14  4.500000e+02
      vertex -1.003805e+01 -8.715574e-01  1.000000e+01
      vertex -1.000000e+01 -1.531427e-14  1.000000e+01
    endloop
  endfacet
  facet normal  9.990482e-01  4.361886e-02  -0.000000e+00
    outer loop
      vertex -1.000000e+01 -1.531427e-14  4.500000e+02
      vertex -1.000000e+01 -1.531427e-14  1.000000e+01
      vertex -1.003805e+01  8.715574e-01  4.500000e+02
    endloop
  endfacet
  facet normal  9.990482e-01  4.361886e-02  0.000000e+00
    outer loop
      vertex -1.003805e+01  8.715574e-01  4.500000e+02
      vertex -1.000000e+01 -1.531427e-14  1.000000e+01
      vertex -1.003805e+01  8.715574e-01  1.000000e+01
    endloop
  endfacet
  facet normal  9.914448e-01  1.305264e-01  -0.000000e+00
    outer loop
      vertex -1.003805e+01  8.715574e-01  4.500000e+02
      vertex -1.003805e+01  8.715574e-01  1.000000e+01
      vertex -1.015192e+01  1.736482e+00  4.500000e+02
    endloop
  endfacet
  facet normal  9.914448e-01  1.305264e-01  0.000000e+00
    outer loop
      vertex -1.015192e+01  1.736482e+00  4.500000e+02
      vertex -1.003805e+01  8.715574e-01  1.000000e+01
      vertex -1.015192e+01  1.736482e+00  1.000000e+01
    endloop
  endfacet
  facet normal  9.762959e-01  2.164403e-01  -0.000000e+00
    outer loop
      vertex -1.015192e+01  1.736482e+00  4.500000e+02
      vertex -1.015192e+01  1.736482e+00  1.000000e+01
      vertex -1.034074e+01  2.588191e+00  4.500000e+02
    endloop
  endfacet
  facet normal  9.762959e-01  2.164403e-01  0.000000e+00
    outer loop
      vertex -1.034074e+01  2.588191e+00  4.500000e+02
      vertex -1.015192e+01  1.736482e+00  1.000000e+01
      vertex -1.034074e+01  2.588191e+00  1.000000e+01
    endloop
  endfacet
  facet normal  9.537170e-01  3.007057e-01  -0.000000e+00
    outer loop
      vertex -1.034074e+01  2.588191e+00  4.500000e+02
      vertex -1.034074e+01  2.588191e+00  1.000000e+01
      vertex -1.060307e+01  3.420202e+00  4.500000e+02
    endloop
  endfacet
  facet normal  9.537170e-01  3.007057e-01  0.000000e+00
    outer loop
      vertex -1.060307e+01  3.420202e+00  4.500000e+02
      vertex -1.034074e+01  2.588191e+00  1.000000e+01
      vertex -1.060307e+01  3.420202e+00  1.000000e+01
    endloop
  endfacet
  facet normal  9.238796e-01  3.826832e-01  -0.000000e+00
    outer loop
      vertex -1.060307e+01  3.420202e+00  4.500000e+02
      vertex -1.060307e+01  3.420202e+00  1.000000e+01
      vertex -1.093692e+01  4.226182e+00  4.500000e+02
    endloop
  endfacet
  facet normal  9.238796e-01  3.826832e-01  0.000000e+00
    outer loop
      vertex -1.093692e+01  4.226182e+00  4.500000e+02
      vertex -1.060307e+01  3.420202e+00  1.000000e+01
      vertex -1.093692e+01  4.226182e+00  1.000000e+01
    endloop
  endfacet
  facet normal  8.870110e-01  4.617482e-01  -0.000000e+00
    outer loop
      vertex -1.093692e+01  4.226182e+00  4.500000e+02
      vertex -1.093692e+01  4.226182e+00  1.000000e+01
      vertex -1.133975e+01  5.000000e+00  4.500000e+02
    endloop
  endfacet
  facet normal  8.870110e-01  4.617482e-01  0.000000e+00
    outer loop
      vertex -1.133975e+01  5.000000e+00  4.500000e+02
      vertex -1.093692e+01  4.226182e+00  1.000000e+01
      vertex -1.133975e+01  5.000000e+00  1.000000e+01
    endloop
  endfacet
  facet normal  8.433914e-01  5.372997e-01  -0.000000e+00
    outer loop
      vertex -1.133975e+01  5.000000e+00  4.500000e+02
      vertex -1.133975e+01  5.000000e+00  1.000000e+01
      vertex -1.180848e+01  5.735765e+00  4.500000e+02
    endloop
  endfacet
  facet normal  8.433914e-01  5.372997e-01  0.000000e+00
    outer loop
      vertex -1.180848e+01  5.735765e+00  4.500000e+02
      vertex -1.133975e+01  5.000000e+00  1.000000e+01
      vertex -1.180848e+01  5.735765e+00  1.000000e+01
    endloop
  endfacet
  facet normal  7.933530e-01  6.087618e-01  -0.000000e+00
    outer loop
      vertex -1.180848e+01  5.735765e+00  4.500000e+02
      vertex -1.180848e+01  5.735765e+00  1.000000e+01
      vertex -1.233956e+01  6.427876e+00  4.500000e+02
    endloop
  endfacet
  facet normal  7.933530e-01  6.087618e-01  0.000000e+00
    outer loop
      vertex -1.233956e+01  6.427876e+00  4.500000e+02
      vertex -1.180848e+01  5.735765e+00  1.000000e+01
      vertex -1.233956e+01  6.427876e+00  1.000000e+01
    endloop
  endfacet
  facet normal  7.372774e-01  6.755900e-01  -0.000000e+00
    outer loop
      vertex -1.233956e+01  6.427876e+00  4.500000e+02
      vertex -1.233956e+01  6.427876e+00  1.000000e+01
      vertex -1.292893e+01  7.071068e+00  4.500000e+02
    endloop
  endfacet
  facet normal  7.372774e-01  6.755900e-01  0.000000e+00
    outer loop
      vertex -1.292893e+01  7.071068e+00  4.500000e+02
      vertex -1.233956e+01  6.427876e+00  1.000000e+01
      vertex -1.292893e+01  7.071068e+00  1.000000e+01
    endloop
  endfacet
  facet normal  6.755903e-01  7.372772e-01  -0.000000e+00
    outer loop
      vertex -1.292893e+01  7.071068e+00  4.500000e+02
      vertex -1.292893e+01  7.071068e+00  1.000000e+01
      vertex -1.357212e+01  7.660444e+00  4.500000e+02
    endloop
  endfacet
  facet normal  6.755903e-01  7.372772e-01  0.000000e+00
    outer loop
      vertex -1.357212e+01  7.660444e+00  4.500000e+02
      vertex -1.292893e+01  7.071068e+00  1.000000e+01
      vertex -1.357212e+01  7.660444e+00  1.000000e+01
    endloop
  endfacet
  facet normal  6.087616e-01  7.933532e-01  -0.000000e+00
    outer loop
      vertex -1.357212e+01  7.660444e+00  4.500000e+02
      vertex -1.357212e+01  7.660444e+00  1.000000e+01
      vertex -1.426424e+01  8.191521e+00  4.500000e+02
    endloop
  endfacet
  facet normal  6.087616e-01  7.933532e-01  0.000000e+00
    outer loop
      vertex -1.426424e+01  8.191521e+00  4.500000e+02
      vertex -1.357212e+01  7.660444e+00  1.000000e+01
      vertex -1.426424e+01  8.191521e+00  1.000000e+01
    endloop
  endfacet
  facet normal  5.372997e-01  8.433914e-01  -0.000000e+00
    outer loop
      vertex -1.426424e+01  8.191521e+00  4.500000e+02
      vertex -1.426424e+01  8.191521e+00  1.000000e+01
      vertex -1.500000e+01  8.660254e+00  4.500000e+02
    endloop
  endfacet
  facet normal  5.372997e-01  8.433914e-01  0.000000e+00
    outer loop
      vertex -1.500000e+01  8.660254e+00  4.500000e+02
      vertex -1.426424e+01  8.191521e+00  1.000000e+01
      vertex -1.500000e+01  8.660254e+00  1.000000e+01
    endloop
  endfacet
  facet normal  4.617484e-01  8.870109e-01  -0.000000e+00
    outer loop
      vertex -1.500000e+01  8.660254e+00  4.500000e+02
      vertex -1.500000e+01  8.660254e+00  1.000000e+01
      vertex -1.577382e+01  9.063078e+00  4.500000e+02
    endloop
  endfacet
  facet normal  4.617484e-01  8.870109e-01  0.000000e+00
    outer loop
      vertex -1.577382e+01  9.063078e+00  4.500000e+02
      vertex -1.500000e+01  8.660254e+00  1.000000e+01
      vertex -1.577382e+01  9.063078e+00  1.000000e+01
    endloop
  endfacet
  facet normal  3.826833e-01  9.238796e-01  -0.000000e+00
    outer loop
      vertex -1.577382e+01  9.063078e+00  4.500000e+02
      vertex -1.577382e+01  9.063078e+00  1.000000e+01
      vertex -1.657980e+01  9.396926e+00  4.500000e+02
    endloop
  endfacet
  facet normal  3.826833e-01  9.238796e-01  0.000000e+00
    outer loop
      vertex -1.657980e+01  9.396926e+00  4.500000e+02
      vertex -1.577382e+01  9.063078e+00  1.000000e+01
      vertex -1.657980e+01  9.396926e+00  1.000000e+01
    endloop
  endfacet
  facet normal  3.007053e-01  9.537172e-01  -0.000000e+00
    outer loop
      vertex -1.657980e+01  9.396926e+00  4.500000e+02
      vertex -1.657980e+01  9.396926e+00  1.000000e+01
      vertex -1.741181e+01  9.659258e+00  4.500000e+02
    endloop
  endfacet
  facet normal  3.007053e-01  9.537172e-01  0.000000e+00
    outer loop
      vertex -1.741181e+01  9.659258e+00  4.500000e+02
      vertex -1.657980e+01  9.396926e+00  1.000000e+01
      vertex -1.741181e+01  9.659258e+00  1.000000e+01
    endloop
  endfacet
  facet normal  2.164406e-01  9.762959e-01  -0.000000e+00
    outer loop
      vertex -1.741181e+01  9.659258e+00  4.500000e+02
      vertex -1.741181e+01  9.659258e+00  1.000000e+01
      vertex -1.826352e+01  9.848078e+00  4.500000e+02
    endloop
  endfacet
  facet normal  2.164406e-01  9.762959e-01  0.000000e+00
    outer loop
      vertex -1.826352e+01  9.848078e+00  4.500000e+02
      vertex -1.741181e+01  9.659258e+00  1.000000e+01
      vertex -1.826352e+01  9.848078e+00  1.000000e+01
    endloop
  endfacet
  facet normal  1.305263e-01  9.914448e-01  -0.000000e+00
    outer loop
      vertex -1.826352e+01  9.848078e+00  4.500000e+02
      vertex -1.826352e+01  9.848078e+00  1.000000e+01
      vertex -1.912844e+01  9.961947e+00  4.500000e+02
    endloop
  endfacet
  facet normal  1.305263e-01  9.914448e-01  0.000000e+00
    outer loop
      vertex -1.912844e+01  9.961947e+00  4.500000e+02
      vertex -1.826352e+01  9.848078e+00  1.000000e+01
      vertex -1.912844e+01  9.961947e+00  1.000000e+01
    endloop
  endfacet
  facet normal  4.361887e-02  9.990482e-01  -0.000000e+00
    outer loop
      vertex -1.912844e+01  9.961947e+00  4.500000e+02
      vertex -1.912844e+01  9.961947e+00  1.000000e+01
      vertex -2.000000e+01  1.000000e+01  4.500000e+02
    endloop
  endfacet
  facet normal  4.361887e-02  9.990482e-01  0.000000e+00
    outer loop
      vertex -2.000000e+01  1.000000e+01  4.500000e+02
      vertex -1.912844e+01  9.961947e+00  1.000000e+01
      vertex -2.000000e+01  1.000000e+01  1.000000e+01
    endloop
  endfacet
  facet normal -4.361887e-02  9.990482e-01  0.000000e+00
    outer loop
      vertex -2.000000e+01  1.000000e+01  4.500000e+02
      vertex -2.000000e+01  1.000000e+01  1.000000e+01
      vertex -2.087156e+01  9.961947e+00  4.500000e+02
    endloop
  endfacet
  facet normal -4.361887e-02  9.990482e-01  0.000000e+00
    outer loop
      vertex -2.087156e+01  9.961947e+00  4.500000e+02
      vertex -2.000000e+01  1.000000e+01  1.000000e+01
      vertex -2.087156e+01  9.961947e+00  1.000000e+01
    endloop
  endfacet
  facet normal -1.305263e-01  9.914448e-01  0.000000e+00
    outer loop
      vertex -2.087156e+01  9.961947e+00  4.500000e+02
      vertex -2.087156e+01  9.961947e+00  1.000000e+01
      vertex -2.173648e+01  9.848078e+00  4.500000e+02
    endloop
  endfacet
  facet normal -1.305263e-01  9.914448e-01  0.000000e+00
    outer loop
      vertex -2.173648e+01  9.848078e+00  4.500000e+02
      vertex -2.087156e+01  9.961947e+00  1.000000e+01
      vertex -2.173648e+01  9.848078e+00  1.000000e+01
    endloop
  endfacet
  facet normal -2.164406e-01  9.762959e-01  0.000000e+00
    outer loop
      vertex -2.173648e+01  9.848078e+00  4.500000e+02
      vertex -2.173648e+01  9.848078e+00  1.000000e+01
      vertex -2.258819e+01  9.659258e+00  4.500000e+02
    endloop
  endfacet
  facet normal -2.164406e-01  9.762959e-01  0.000000e+00
    outer loop
      vertex -2.258819e+01  9.659258e+00  4.500000e+02
      vertex -2.173648e+01  9.848078e+00  1.000000e+01
      vertex -2.258819e+01  9.659258e+00  1.000000e+01
    endloop
  endfacet
  facet normal -3.007053e-01  9.537172e-01  0.000000e+00
    outer loop
      vertex -2.258819e+01  9.659258e+00  4.500000e+02
      vertex -2.258819e+01  9.659258e+00  1.000000e+01
      vertex -2.342020e+01  9.396926e+00  4.500000e+02
    endloop
  endfacet
  facet normal -3.007053e-01  9.537172e-01  0.000000e+00
    outer loop
      vertex -2.342020e+01  9.396926e+00  4.500000e+02
      vertex -2.258819e+01  9.659258e+00  1.000000e+01
      vertex -2.342020e+01  9.396926e+00  1.000000e+01
    endloop
  endfacet
  facet normal -3.826833e-01  9.238796e-01  0.000000e+00
    outer loop
      vertex -2.342020e+01  9.396926e+00  4.500000e+02
      vertex -2.342020e+01  9.396926e+00  1.000000e+01
      vertex -2.422618e+01  9.063078e+00  4.500000e+02
    endloop
  endfacet
  facet normal -3.826833e-01  9.238796e-01  0.000000e+00
    outer loop
      vertex -2.422618e+01  9.063078e+00  4.500000e+02
      vertex -2.342020e+01  9.396926e+00  1.000000e+01
      vertex -2.422618e+01  9.063078e+00  1.000000e+01
    endloop
  endfacet
  facet normal -4.617484e-01  8.870109e-01  0.000000e+00
    outer loop
      vertex -2.422618e+01  9.063078e+00  4.500000e+02
      vertex -2.422618e+01  9.063078e+00  1.000000e+01
      vertex -2.500000e+01  8.660254e+00  4.500000e+02
    endloop
  endfacet
  facet normal -4.617484e-01  8.870109e-01  0.000000e+00
    outer loop
      vertex -2.500000e+01  8.660254e+00  4.500000e+02
      vertex -2.422618e+01  9.063078e+00  1.000000e+01
      vertex -2.500000e+01  8.660254e+00  1.000000e+01
    endloop
  endfacet
  facet normal -5.373002e-01  8.433911e-01  0.000000e+00
    outer loop
      vertex -2.500000e+01  8.660254e+00  4.500000e+02
      vertex -2.500000e+01  8.660254e+00  1.000000e+01
      vertex -2.573576e+01  8.191521e+00  4.500000e+02
    endloop
  endfacet
  facet normal -5.373002e-01  8.433911e-01  0.000000e+00
    outer loop
      vertex -2.573576e+01  8.191521e+00  4.500000e+02
      vertex -2.500000e+01  8.660254e+00  1.000000e+01
      vertex -2.573576e+01  8.191521e+00  1.000000e+01
    endloop
  endfacet
  facet normal -6.087616e-01  7.933532e-01  0.000000e+00
    outer loop
      vertex -2.573576e+01  8.191521e+00  4.500000e+02
      vertex -2.573576e+01  8.191521e+00  1.000000e+01
      vertex -2.642788e+01  7.660444e+00  4.500000e+02
    endloop
  endfacet
  facet normal -6.087616e-01  7.933532e-01  0.000000e+00
    outer loop
      vertex -2.642788e+01  7.660444e+00  4.500000e+02
      vertex -2.573576e+01  8.191521e+00  1.000000e+01
      vertex -2.642788e+01  7.660444e+00  1.000000e+01
    endloop
  endfacet
  facet normal -6.755897e-01  7.372777e-01  0.000000e+00
    outer loop
      vertex -2.642788e+01  7.660444e+00  4.500000e+02
      vertex -2.642788e+01  7.660444e+00  1.000000e+01
      vertex -2.707107e+01  7.071068e+00  4.500000e+02
    endloop
  endfacet
  facet normal -6.755897e-01  7.372777e-01  0.000000e+00
    outer loop
      vertex -2.707107e+01  7.071068e+00  4.500000e+02
      vertex -2.642788e+01  7.660444e+00  1.000000e+01
      vertex -2.707107e+01  7.071068e+00  1.000000e+01
    endloop
  endfacet
  facet normal  0.000000e+00  0.000000e+00  9.999999e-01
    outer loop
      vertex -2.000000e+01 -1.000000e+01  4.500000e+02
      vertex -1.912844e+01 -9.961947e+00  4.500000e+02
      vertex -2.087156e+01 -9.961947e+00  4.500000e+02
    endloop
  endfacet
  facet normal  0.000000e+00  0.000000e+00  9.999999e-01
    outer loop
      vertex -2.000000e+01  1.000000e+01  4.500000e+02
      vertex -2.087156e+01  9.961947e+00  4.500000e+02
      vertex -1.912844e+01  9.961947e+00  4.500000e+02
    endloop
  endfacet
  facet normal  0.000000e+00  0.000000e+00  1.000000e+00
    outer loop
      vertex -1.912844e+01  9.961947e+00  4.500000e+02
      vertex -2.087156e+01  9.961947e+00  4.500000e+02
      vertex -2.173648e+01  9.848078e+00  4.500000e+02
    endloop
  endfacet
  facet normal  0.000000e+00  0.000000e+00  1.000000e+00
    outer loop
      vertex -1.912844e+01  9.961947e+00  4.500000e+02
      vertex -2.173648e+01  9.848078e+00  4.500000e+02
      vertex -1.826352e+01  9.848078e+00  4.500000e+02
    endloop
  endfacet
  facet normal  0.000000e+00  0.000000e+00  1.000000e+00
    outer loop
      vertex -1.826352e+01  9.848078e+00  4.500000e+02
      vertex -2.173648e+01  9.848078e+00  4.500000e+02
      vertex -2.258819e+01  9.659258e+00  4.500000e+02
    endloop
  endfacet
  facet normal  0.000000e+00  0.000000e+00  1.000000e+00
    outer loop
      vertex -1.826352e+01  9.848078e+00  4.500000e+02
      vertex -2.258819e+01  9.659258e+00  4.500000e+02
      vertex -1.741181e+01  9.659258e+00  4.500000e+02
    endloop
  endfacet
  facet normal  0.000000e+00  0.000000e+00  1.000000e+00
    outer loop
      vertex -1.741181e+01  9.659258e+00  4.500000e+02
      vertex -2.258819e+01  9.659258e+00  4.500000e+02
      vertex -2.342020e+01  9.396926e+00  4.500000e+02
    endloop
  endfacet
  facet normal  0.000000e+00  0.000000e+00  1.000000e+00
    outer loop
      vertex -1.741181e+01  9.659258e+00  4.500000e+02
      vertex -2.342020e+01  9.396926e+00  4.500000e+02
      vertex -1.657980e+01  9.396926e+00  4.500000e+02
    endloop
  endfacet
  facet normal  0.000000e+00  0.000000e+00  1.000000e+00
    outer loop
      vertex -1.657980e+01  9.396926e+00  4.500000e+02
      vertex -2.342020e+01  9.396926e+00  4.500000e+02
      vertex -2.422618e+01  9.063078e+00  4.500000e+02
    endloop
  endfacet
  facet normal  0.000000e+00  0.000000e+00  1.000000e+00
    outer loop
      vertex -1.657980e+01  9.396926e+00  4.500000e+02
      vertex -2.422618e+01  9.063078e+00  4.500000e+02
      vertex -1.577382e+01  9.063078e+00  4.500000e+02
    endloop
  endfacet
  facet normal  0.000000e+00  0.000000e+00  9.999999e-01
    outer loop
      vertex -1.577382e+01  9.063078e+00  4.500000e+02
      vertex -2.422618e+01  9.063078e+00  4.500000e+02
      vertex -2.500000e+01  8.660254e+00  4.500000e+02
    endloop
  endfacet
  facet normal  0.000000e+00  0.000000e+00  1.000000e+00
    outer loop
      vertex -1.577382e+01  9.063078e+00  4.500000e+02
      vertex -2.500000e+01  8.660254e+00  4.500000e+02
      vertex -1.500000e+01  8.660254e+00  4.500000e+02
    endloop
  endfacet
  facet normal  0.000000e+00  0.000000e+00  1.000000e+00
    outer loop
      vertex -1.500000e+01  8.660254e+00  4.500000e+02
      vertex -2.500000e+01  8.660254e+00  4.500000e+02
      vertex -2.573576e+01  8.191521e+00  4.500000e+02
    endloop
  endfacet
  facet normal  0.000000e+00  0.000000e+00  1.000000e+00
    outer loop
      vertex -1.500000e+01  8.660254e+00  4.500000e+02
      vertex -2.573576e+01  8.191521e+00  4.500000e+02
      vertex -1.426424e+01  8.191521e+00  4.500000e+02
    endloop
  endfacet
  facet normal  0.000000e+00  0.000000e+00  1.000000e+00
    outer loop
      vertex -1.426424e+01  8.191521e+00  4.500000e+02
      vertex -2.573576e+01  8.191521e+00  4.500000e+02
      vertex -2.642788e+01  7.660444e+00  4.500000e+02
    endloop
  endfacet
  facet normal  0.000000e+00  0.000000e+00  1.000000e+00
    outer loop
      vertex -1.426424e+01  8.191521e+00  4.500000e+02
      vertex -2.642788e+01  7.660444e+00  4.500000e+02
      vertex -1.357212e+01  7.660444e+00  4.500000e+02
    endloop
  endfacet
  facet normal  0.000000e+00  0.000000e+00  1.000000e+00
    outer loop
      vertex -1.357212e+01  7.660444e+00  4.500000e+02
      vertex -2.642788e+01  7.660444e+00  4.500000e+02
      vertex -2.707107e+01  7.071068e+00  4.500000e+02
    endloop
  endfacet
  facet normal  0.000000e+00  0.000000e+00  1.000000e+00
    outer loop
      vertex -1.357212e+01  7.660444e+00  4.500000e+02
      vertex -2.707107e+01  7.071068e+00  4.500000e+02
      vertex -1.292893e+01  7.071068e+00  4.500000e+02
    endloop
  endfacet
  facet normal  0.000000e+00  0.000000e+00  1.000000e+00
    outer loop
      vertex -1.292893e+01  7.071068e+00  4.500000e+02
      vertex -2.707107e+01  7.071068e+00  4.500000e+02
      vertex -2.766044e+01  6.427876e+00  4.500000e+02
    endloop
  endfacet
  facet normal  0.000000e+00  0.000000e+00  1.000000e+00
    outer loop
      vertex -1.292893e+01  7.071068e+00  4.500000e+02
      vertex -2.766044e+01  6.427876e+00  4.500000e+02
      vertex -1.233956e+01  6.427876e+00  4.500000e+02
    endloop
  endfacet
  facet normal  0.000000e+00  0.000000e+00  1.000000e+00
    outer loop
      vertex -1.233956e+01  6.427876e+00  4.500000e+02
      vertex -2.766044e+01  6.427876e+00  4.500000e+02
      vertex -2.819152e+01  5.735765e+00  4.500000e+02
    endloop
  endfacet
  facet normal  0.000000e+00  0.000000e+00  1.000000e+00
    outer loop
      vertex -1.233956e+01  6.427876e+00  4.500000e+02
      vertex -2.819152e+01  5.735765e+00  4.500000e+02
      vertex -1.180848e+01  5.735765e+00  4.500000e+02
    endloop
  endfacet
  facet normal  0.000000e+00  0.000000e+00  1.000000e+00
    outer loop
      vertex -1.180848e+01  5.735765e+00  4.500000e+02
      vertex -2.819152e+01  5.735765e+00  4.500000e+02
      vertex -2.866025e+01  5.000000e+00  4.500000e+02
    endloop
  endfacet
  facet normal  0.000000e+00  0.000000e+00  1.000000e+00
    outer loop
      vertex -1.180848e+01  5.735765e+00  4.500000e+02
      vertex -2.866025e+01  5.000000e+00  4.500000e+02
      vertex -1.133975e+01  5.000000e+00  4.500000e+02
    endloop
  endfacet
  facet normal  0.000000e+00  0.000000e+00  1.000000e+00
    outer loop
      vertex -1.133975e+01  5.000000e+00  4.500000e+02
      vertex -2.866025e+01  5.000000e+00  4.500000e+02
      vertex -2.906308e+01  4.226182e+00  4.500000e+02
    endloop
  endfacet
  facet normal  0.000000e+00  0.000000e+00  1.000000e+00
    outer loop
      vertex -1.133975e+01  5.000000e+00  4.500000e+02
      vertex -2.906308e+01  4.226182e+00  4.500000e+02
      vertex -1.093692e+01  4.226182e+00  4.500000e+02
    endloop
  endfacet
  facet normal  0.000000e+00  0.000000e+00  9.999999e-01
    outer loop
      vertex -1.093692e+01  4.226182e+00  4.500000e+02
      vertex -2.906308e+01  4.226182e+00  4.500000e+02
      vertex -2.939693e+01  3.420202e+00  4.500000e+02
    endloop
  endfacet
  facet normal  0.000000e+00  0.000000e+00  9.999999e-01
    outer loop
      vertex -1.093692e+01  4.226182e+00  4.500000e+02
      vertex -2.939693e+01  3.420202e+00  4.500000e+02
      vertex -1.060307e+01  3.420202e+00  4.500000e+02
    endloop
  endfacet
  facet normal  0.000000e+00  0.000000e+00  1.000000e+00
    outer loop
      vertex -1.060307e+01  3.420202e+00  4.500000e+02
      vertex -2.939693e+01  3.420202e+00  4.500000e+02
      vertex -2.965926e+01  2.588191e+00  4.500000e+02
    endloop
  endfacet
  facet normal  0.000000e+00  0.000000e+00  1.000000e+00
    outer loop
      vertex -1.060307e+01  3.420202e+00  4.500000e+02
      vertex -2.965926e+01  2.588191e+00  4.500000e+02
      vertex -1.034074e+01  2.588191e+00  4.500000e+02
    endloop
  endfacet
  facet normal  0.000000e+00  0.000000e+00  1.000000e+00
    outer loop
      vertex -1.034074e+01  2.588191e+00  4.500000e+02
      vertex -2.965926e+01  2.588191e+00  4.500000e+02
      vertex -2.984808e+01  1.736482e+00  4.500000e+02
    endloop
  endfacet
  facet normal  0.000000e+00  0.000000e+00  1.000000e+00
    outer loop
      vertex -1.034074e+01  2.588191e+00  4.500000e+02
      vertex -2.984808e+01  1.736482e+00  4.500000e+02
      vertex -1.015192e+01  1.736482e+00  4.500000e+02
    endloop
  endfacet
  facet normal  0.000000e+00  0.000000e+00  1.000000e+00
    outer loop
      vertex -1.015192e+01  1.736482e+00  4.500000e+02
      vertex -2.984808e+01  1.736482e+00  4.500000e+02
      vertex -2.996195e+01  8.715574e-01  4.500000e+02
    endloop
  endfacet
  facet normal  0.000000e+00  0.000000e+00  1.000000e+00
    outer loop
      vertex -1.015192e+01  1.736482e+00  4.500000e+02
      vertex -2.996195e+01  8.715574e-01  4.500000e+02
      vertex -1.003805e+01  8.715574e-01  4.500000e+02
    endloop
  endfacet
  facet normal  0.000000e+00  0.000000e+00  1.000000e+00
    outer loop
      vertex -1.003805e+01  8.715574e-01  4.500000e+02
      vertex -2.996195e+01  8.715574e-01  4.500000e+02
      vertex -3.000000e+01  2.097981e-14  4.500000e+02
    endloop
  endfacet
  facet normal  -0.000000e+00  0.000000e+00  1.000000e+00
    outer loop
      vertex -1.003805e+01  8.715574e-01  4.500000e+02
      vertex -3.000000e+01  2.097981e-14  4.500000e+02
      vertex -1.000000e+01 -1.531427e-14  4.500000e+02
    endloop
  endfacet
  facet normal  0.000000e+00  0.000000e+00  1.000000e+00
    outer loop
      vertex -1.000000e+01 -1.531427e-14  4.500000e+02
      vertex -3.000000e+01  2.097981e-14  4.500000e+02
      vertex -2.996195e+01 -8.715574e-01  4.500000e+02
    endloop
  endfacet
  facet normal  0.000000e+00  0.000000e+00  1.000000e+00
    outer loop
      vertex -1.000000e+01 -1.531427e-14  4.500000e+02
      vertex -2.996195e+01 -8.715574e-01  4.500000e+02
      vertex -1.003805e+01 -8.715574e-01  4.500000e+02
    endloop
  endfacet
  facet normal  0.000000e+00  0.000000e+00  1.000000e+00
    outer loop
      vertex -1.003805e+01 -8.715574e-01  4.500000e+02
      vertex -2.996195e+01 -8.715574e-01  4.500000e+02
      vertex -2.984808e+01 -1.736482e+00  4.500000e+02
    endloop
  endfacet
  facet normal  0.000000e+00  0.000000e+00  1.000000e+00
    outer loop
      vertex -1.003805e+01 -8.715574e-01  4.500000e+02
      vertex -2.984808e+01 -1.736482e+00  4.500000e+02
      vertex -1.015192e+01 -1.736482e+00  4.500000e+02
    endloop
  endfacet
  facet normal  0.000000e+00  0.000000e+00  1.000000e+00
    outer loop
      vertex -1.015192e+01 -1.736482e+00  4.500000e+02
      vertex -2.984808e+01 -1.736482e+00  4.500000e+02
      vertex -2.965926e+01 -2.588191e+00  4.500000e+02
    endloop
  endfacet
  facet normal  0.000000e+00  0.000000e+00  1.000000e+00
    outer loop
      vertex -1.015192e+01 -1.736482e+00  4.500000e+02
      vertex -2.965926e+01 -2.588191e+00  4.500000e+02
      vertex -1.034074e+01 -2.588191e+00  4.500000e+02
    endloop
  endfacet
  facet normal  0.000000e+00  0.000000e+00  1.000000e+00
    outer loop
      vertex -1.034074e+01 -2.588191e+00  4.500000e+02
      vertex -2.965926e+01 -2.588191e+00  4.500000e+02
      vertex -2.939693e+01 -3.420202e+00  4.500000e+02
    endloop
  endfacet
  facet normal  0.000000e+00  0.000000e+00  1.000000e+00
    outer loop
      vertex -1.034074e+01 -2.588191e+00  4.500000e+02
      vertex -2.939693e+01 -3.420202e+00  4.500000e+02
      vertex -1.060307e+01 -3.420202e+00  4.500000e+02
    endloop
  endfacet
  facet normal  0.000000e+00  0.000000e+00  9.999999e-01
    outer loop
      vertex -1.060307e+01 -3.420202e+00  4.500000e+02
      vertex -2.939693e+01 -3.420202e+00  4.500000e+02
      vertex -2.906308e+01 -4.226182e+00  4.500000e+02
    endloop
  endfacet
  facet normal  0.000000e+00  0.000000e+00  9.999999e-01
    outer loop
      vertex -1.060307e+01 -3.420202e+00  4.500000e+02
      vertex -2.906308e+01 -4.226182e+00  4.500000e+02
      vertex -1.093692e+01 -4.226182e+00  4.500000e+02
    endloop
  endfacet
  facet normal  0.000000e+00  0.000000e+00  1.000000e+00
    outer loop
      vertex -1.093692e+01 -4.226182e+00  4.500000e+02
      vertex -2.906308e+01 -4.226182e+00  4.500000e+02
      vertex -2.866025e+01 -5.000000e+00  4.500000e+02
    endloop
  endfacet
  facet normal  0.000000e+00  0.000000e+00  1.000000e+00
    outer loop
      vertex -1.093692e+01 -4.226182e+00  4.500000e+02
      vertex -2.866025e+01 -5.000000e+00  4.500000e+02
      vertex -1.133975e+01 -5.000000e+00  4.500000e+02
    endloop
  endfacet
  facet normal  0.000000e+00  0.000000e+00  1.000000e+00
    outer loop
      vertex -1.133975e+01 -5.000000e+00  4.500000e+02
      vertex -2.866025e+01 -5.000000e+00  4.500000e+02
      vertex -2.819152e+01 -5.735765e+00  4.500000e+02
    endloop
  endfacet
  facet normal  0.000000e+00  0.000000e+00  1.000000e+00
    outer loop
      vertex -1.133975e+01 -5.000000e+00  4.500000e+02
      vertex -2.819152e+01 -5.735765e+00  4.500000e+02
      vertex -1.180848e+01 -5.735765e+00  4.500000e+02
    endloop
  endfacet
  facet normal  0.000000e+00  0.000000e+00  1.000000e+00
    outer loop
      vertex -1.180848e+01 -5.735765e+00  4.500000e+02
      vertex -2.819152e+01 -5.735765e+00  4.500000e+02
      vertex -2.766044e+01 -6.427876e+00  4.500000e+02
    endloop
  endfacet
  facet normal  0.000000e+00  0.000000e+00  1.000000e+00
    outer loop
      vertex -1.180848e+01 -5.735765e+00  4.500000e+02
      vertex -2.766044e+01 -6.427876e+00  4.500000e+02
      vertex -1.233956e+01 -6.427876e+00  4.500000e+02
    endloop
  endfacet
  facet normal  0.000000e+00  0.000000e+00  1.000000e+00
    outer loop
      vertex -1.233956e+01 -6.427876e+00  4.500000e+02
      vertex -2.766044e+01 -6.427876e+00  4.500000e+02
      vertex -2.707107e+01 -7.071068e+00  4.500000e+02
    endloop
  endfacet
  facet normal  0.000000e+00  0.000000e+00  1.000000e+00
    outer loop
      vertex -1.233956e+01 -6.427876e+00  4.500000e+02
      vertex -2.707107e+01 -7.071068e+00  4.500000e+02
      vertex -1.292893e+01 -7.071068e+00  4.500000e+02
    endloop
  endfacet
  facet normal  0.000000e+00  0.000000e+00  1.000000e+00
    outer loop
      vertex -1.292893e+01 -7.071068e+00  4.500000e+02
      vertex -2.707107e+01 -7.071068e+00  4.500000e+02
      vertex -2.642788e+01 -7.660444e+00  4.500000e+02
    endloop
  endfacet
  facet normal  0.000000e+00  0.000000e+00  1.000000e+00
    outer loop
      vertex -1.292893e+01 -7.071068e+00  4.500000e+02
      vertex -2.642788e+01 -7.660444e+00  4.500000e+02
      vertex -1.357212e+01 -7.660444e+00  4.500000e+02
    endloop
  endfacet
  facet normal  0.000000e+00  0.000000e+00  1.000000e+00
    outer loop
      vertex -1.357212e+01 -7.660444e+00  4.500000e+02
      vertex -2.642788e+01 -7.660444e+00  4.500000e+02
      vertex -2.573576e+01 -8.191521e+00  4.500000e+02
    endloop
  endfacet
  facet normal  0.000000e+00  0.000000e+00  1.000000e+00
    outer loop
      vertex -1.357212e+01 -7.660444e+00  4.500000e+02
      vertex -2.573576e+01 -8.191521e+00  4.500000e+02
      vertex -1.426424e+01 -8.191521e+00  4.500000e+02
    endloop
  endfacet
  facet normal  0.000000e+00  0.000000e+00  1.000000e+00
    outer loop
      vertex -1.426424e+01 -8.191521e+00  4.500000e+02
      vertex -2.573576e+01 -8.191521e+00  4.500000e+02
      vertex -2.500000e+01 -8.660254e+00  4.500000e+02
    endloop
  endfacet
  facet normal  0.000000e+00  0.000000e+00  1.000000e+00
    outer loop
      vertex -1.426424e+01 -8.191521e+00  4.500000e+02
      vertex -2.500000e+01 -8.660254e+00  4.500000e+02
      vertex -1.500000e+01 -8.660254e+00  4.500000e+02
    endloop
  endfacet
  facet normal  0.000000e+00  0.000000e+00  1.000000e+00
    outer loop
      vertex -1.500000e+01 -8.660254e+00  4.500000e+02
      vertex -2.500000e+01 -8.660254e+00  4.500000e+02
      vertex -2.422618e+01 -9.063078e+00  4.500000e+02
    endloop
  endfacet
  facet normal  0.000000e+00  0.000000e+00  9.999999e-01
    outer loop
      vertex -1.500000e+01 -8.660254e+00  4.500000e+02
      vertex -2.422618e+01 -9.063078e+00  4.500000e+02
      vertex -1.577382e+01 -9.063078e+00  4.500000e+02
    endloop
  endfacet
  facet normal  0.000000e+00  0.000000e+00  1.000000e+00
    outer loop
      vertex -1.577382e+01 -9.063078e+00  4.500000e+02
      vertex -2.422618e+01 -9.063078e+00  4.500000e+02
      vertex -2.342020e+01 -9.396926e+00  4.500000e+02
    endloop
  endfacet
  facet normal  0.000000e+00  0.000000e+00  1.000000e+00
    outer loop
      vertex -1.577382e+01 -9.063078e+00  4.500000e+02
      vertex -2.342020e+01 -9.396926e+00  4.500000e+02
      vertex -1.657980e+01 -9.396926e+00  4.500000e+02
    endloop
  endfacet
  facet normal  0.000000e+00  0.000000e+00  1.000000e+00
    outer loop
      vertex -1.657980e+01 -9.396926e+00  4.500000e+02
      vertex -2.342020e+01 -9.396926e+00  4.500000e+02
      vertex -2.258819e+01 -9.659258e+00  4.500000e+02
    endloop
  endfacet
  facet normal  0.000000e+00  0.000000e+00  1.000000e+00
    outer loop
      vertex -1.657980e+01 -9.396926e+00  4.500000e+02
      vertex -2.258819e+01 -9.659258e+00  4.500000e+02
      vertex -1.741181e+01 -9.659258e+00  4.500000e+02
    endloop
  endfacet
  facet normal  0.000000e+00  0.000000e+00  1.000000e+00
    outer loop
      vertex -1.741181e+01 -9.659258e+00  4.500000e+02
      vertex -2.258819e+01 -9.659258e+00  4.500000e+02
      vertex -2.173648e+01 -9.848078e+00  4.500000e+02
    endloop
  endfacet
  facet normal  0.000000e+00  0.000000e+00  1.000000e+00
    outer loop
      vertex -1.741181e+01 -9.659258e+00  4.500000e+02
      vertex -2.173648e+01 -9.848078e+00  4.500000e+02
      vertex -1.826352e+01 -9.848078e+00  4.500000e+02
    endloop
  endfacet
  facet normal  0.000000e+00  0.000000e+00  1.000000e+00
    outer loop
      vertex -1.826352e+01 -9.848078e+00  4.500000e+02
      vertex -2.173648e+01 -9.848078e+00  4.500000e+02
      vertex -2.087156e+01 -9.961947e+00  4.500000e+02
    endloop
  endfacet
  facet normal  0.000000e+00  0.000000e+00  1.000000e+00
    outer loop
      vertex -1.826352e+01 -9.848078e+00  4.500000e+02
      vertex -2.087156e+01 -9.961947e+00  4.500000e+02
      vertex -1.912844e+01 -9.961947e+00  4.500000e+02
    endloop
  endfacet
  facet normal  -0.000000e+00  0.000000e+00 -9.999999e-01
    outer loop
      vertex -2.087156e+01 -9.961947e+00  1.000000e+01
      vertex -1.912844e+01 -9.961947e+00  1.000000e+01
      vertex -2.000000e+01 -1.000000e+01  1.000000e+01
    endloop
  endfacet
  facet normal  0.000000e+00  0.000000e+00 -1.000000e+00
    outer loop
      vertex -1.912844e+01 -9.961947e+00  1.000000e+01
      vertex -2.087156e+01 -9.961947e+00  1.000000e+01
      vertex -1.826352e+01 -9.848078e+00  1.000000e+01
    endloop
  endfacet
  facet normal  -0.000000e+00  0.000000e+00 -1.000000e+00
    outer loop
      vertex -1.826352e+01 -9.848078e+00  1.000000e+01
      vertex -2.087156e+01 -9.961947e+00  1.000000e+01
      vertex -2.173648e+01 -9.848078e+00  1.000000e+01
    endloop
  endfacet
  facet normal  0.000000e+00  0.000000e+00 -1.000000e+00
    outer loop
      vertex -1.826352e+01 -9.848078e+00  1.000000e+01
      vertex -2.173648e+01 -9.848078e+00  1.000000e+01
      vertex -1.741181e+01 -9.659258e+00  1.000000e+01
    endloop
  endfacet
  facet normal  -0.000000e+00  0.000000e+00 -1.000000e+00
    outer loop
      vertex -1.741181e+01 -9.659258e+00  1.000000e+01
      vertex -2.173648e+01 -9.848078e+00  1.000000e+01
      vertex -2.258819e+01 -9.659258e+00  1.000000e+01
    endloop
  endfacet
  facet normal  0.000000e+00  0.000000e+00 -1.000000e+00
    outer loop
      vertex -1.741181e+01 -9.659258e+00  1.000000e+01
      vertex -2.258819e+01 -9.659258e+00  1.000000e+01
      vertex -1.657980e+01 -9.396926e+00  1.000000e+01
    endloop
  endfacet
  facet normal  -0.000000e+00  0.000000e+00 -1.000000e+00
    outer loop
      vertex -1.657980e+01 -9.396926e+00  1.000000e+01
      vertex -2.258819e+01 -9.659258e+00  1.000000e+01
      vertex -2.342020e+01 -9.396926e+00  1.000000e+01
    endloop
  endfacet
  facet normal  0.000000e+00  0.000000e+00 -1.000000e+00
    outer loop
      vertex -1.657980e+01 -9.396926e+00  1.000000e+01
      vertex -2.342020e+01 -9.396926e+00  1.000000e+01
      vertex -1.577382e+01 -9.063078e+00  1.000000e+01
    endloop
  endfacet
  facet normal  -0.000000e+00  0.000000e+00 -1.000000e+00
    outer loop
      vertex -1.577382e+01 -9.063078e+00  1.000000e+01
      vertex -2.342020e+01 -9.396926e+00  1.000000e+01
      vertex -2.422618e+01 -9.063078e+00  1.000000e+01
    endloop
  endfacet
  facet normal  0.000000e+00  0.000000e+00 -9.999999e-01
    outer loop
      vertex -1.577382e+01 -9.063078e+00  1.000000e+01
      vertex -2.422618e+01 -9.063078e+00  1.000000e+01
      vertex -1.500000e+01 -8.660254e+00  1.000000e+01
    endloop
  endfacet
  facet normal  -0.000000e+00  0.000000e+00 -1.000000e+00
    outer loop
      vertex -1.500000e+01 -8.660254e+00  1.000000e+01
      vertex -2.422618e+01 -9.063078e+00  1.000000e+01
      vertex -2.500000e+01 -8.660254e+00  1.000000e+01
    endloop
  endfacet
  facet normal  0.000000e+00  0.000000e+00 -1.000000e+00
    outer loop
      vertex -1.500000e+01 -8.660254e+00  1.000000e+01
      vertex -2.500000e+01 -8.660254e+00  1.000000e+01
      vertex -1.426424e+01 -8.191521e+00  1.000000e+01
    endloop
  endfacet
  facet normal  -0.000000e+00  0.000000e+00 -1.000000e+00
    outer loop
      vertex -1.426424e+01 -8.191521e+00  1.000000e+01
      vertex -2.500000e+01 -8.660254e+00  1.000000e+01
      vertex -2.573576e+01 -8.191521e+00  1.000000e+01
    endloop
  endfacet
  facet normal  0.000000e+00  0.000000e+00 -1.000000e+00
    outer loop
      vertex -1.426424e+01 -8.191521e+00  1.000000e+01
      vertex -2.573576e+01 -8.191521e+00  1.000000e+01
      vertex -1.357212e+01 -7.660444e+00  1.000000e+01
    endloop
  endfacet
  facet normal  -0.000000e+00  0.000000e+00 -1.000000e+00
    outer loop
      vertex -1.357212e+01 -7.660444e+00  1.000000e+01
      vertex -2.573576e+01 -8.191521e+00  1.000000e+01
      vertex -2.642788e+01 -7.660444e+00  1.000000e+01
    endloop
  endfacet
  facet normal  0.000000e+00  0.000000e+00 -1.000000e+00
    outer loop
      vertex -1.357212e+01 -7.660444e+00  1.000000e+01
      vertex -2.642788e+01 -7.660444e+00  1.000000e+01
      vertex -1.292893e+01 -7.071068e+00  1.000000e+01
    endloop
  endfacet
  facet normal  -0.000000e+00  0.000000e+00 -1.000000e+00
    outer loop
      vertex -1.292893e+01 -7.071068e+00  1.000000e+01
      vertex -2.642788e+01 -7.660444e+00  1.000000e+01
      vertex -2.707107e+01 -7.071068e+00  1.000000e+01
    endloop
  endfacet
  facet normal  0.000000e+00  0.000000e+00 -1.000000e+00
    outer loop
      vertex -1.292893e+01 -7.071068e+00  1.000000e+01
      vertex -2.707107e+01 -7.071068e+00  1.000000e+01
      vertex -1.233956e+01 -6.427876e+00  1.000000e+01
    endloop
  endfacet
  facet normal  -0.000000e+00  0.000000e+00 -1.000000e+00
    outer loop
      vertex -1.233956e+01 -6.427876e+00  1.000000e+01
      vertex -2.707107e+01 -7.071068e+00  1.000000e+01
      vertex -2.766044e+01 -6.427876e+00  1.000000e+01
    endloop
  endfacet
  facet normal  0.000000e+00  0.000000e+00 -1.000000e+00
    outer loop
      vertex -1.233956e+01 -6.427876e+00  1.000000e+01
      vertex -2.766044e+01 -6.427876e+00  1.000000e+01
      vertex -1.180848e+01 -5.735765e+00  1.000000e+01
    endloop
  endfacet
  facet normal  -0.000000e+00  0.000000e+00 -1.000000e+00
    outer loop
      vertex -1.180848e+01 -5.735765e+00  1.000000e+01
      vertex -2.766044e+01 -6.427876e+00  1.000000e+01
      vertex -2.819152e+01 -5.735765e+00  1.000000e+01
    endloop
  endfacet
  facet normal  0.000000e+00  0.000000e+00 -1.000000e+00
    outer loop
      vertex -1.180848e+01 -5.735765e+00  1.000000e+01
      vertex -2.819152e+01 -5.735765e+00  1.000000e+01
      vertex -1.133975e+01 -5.000000e+00  1.000000e+01
    endloop
  endfacet
  facet normal  -0.000000e+00  0.000000e+00 -1.000000e+00
    outer loop
      vertex -1.133975e+01 -5.000000e+00  1.000000e+01
      vertex -2.819152e+01 -5.735765e+00  1.000000e+01
      vertex -2.866025e+01 -5.000000e+00  1.000000e+01
    endloop
  endfacet
  facet normal  0.000000e+00  0.000000e+00 -1.000000e+00
    outer loop
      vertex -1.133975e+01 -5.000000e+00  1.000000e+01
      vertex -2.866025e+01 -5.000000e+00  1.000000e+01
      vertex -1.093692e+01 -4.226182e+00  1.000000e+01
    endloop
  endfacet
  facet normal  -0.000000e+00  0.000000e+00 -1.000000e+00
    outer loop
      vertex -1.093692e+01 -4.226182e+00  1.000000e+01
      vertex -2.866025e+01 -5.000000e+00  1.000000e+01
      vertex -2.906308e+01 -4.226182e+00  1.000000e+01
    endloop
  endfacet
  facet normal  0.000000e+00  0.000000e+00 -9.999999e-01
    outer loop
      vertex -1.093692e+01 -4.226182e+00  1.000000e+01
      vertex -2.906308e+01 -4.226182e+00  1.000000e+01
      vertex -1.060307e+01 -3.420202e+00  1.000000e+01
    endloop
  endfacet
  facet normal  -0.000000e+00  0.000000e+00 -9.999999e-01
    outer loop
      vertex -1.060307e+01 -3.420202e+00  1.000000e+01
      vertex -2.906308e+01 -4.226182e+00  1.000000e+01
      vertex -2.939693e+01 -3.420202e+00  1.000000e+01
    endloop
  endfacet
  facet normal  0.000000e+00  0.000000e+00 -1.000000e+00
    outer loop
      vertex -1.060307e+01 -3.420202e+00  1.000000e+01
      vertex -2.939693e+01 -3.420202e+00  1.000000e+01
      vertex -1.034074e+01 -2.588191e+00  1.000000e+01
    endloop
  endfacet
  facet normal  -0.000000e+00  0.000000e+00 -1.000000e+00
    outer loop
      vertex -1.034074e+01 -2.588191e+00  1.000000e+01
      vertex -2.939693e+01 -3.420202e+00  1.000000e+01
      vertex -2.965926e+01 -2.588191e+00  1.000000e+01
    endloop
  endfacet
  facet normal  0.000000e+00  0.000000e+00 -1.000000e+00
    outer loop
      vertex -1.034074e+01 -2.588191e+00  1.000000e+01
      vertex -2.965926e+01 -2.588191e+00  1.000000e+01
      vertex -1.015192e+01 -1.736482e+00  1.000000e+01
    endloop
  endfacet
  facet normal  -0.000000e+00  0.000000e+00 -1.000000e+00
    outer loop
      vertex -1.015192e+01 -1.736482e+00  1.000000e+01
      vertex -2.965926e+01 -2.588191e+00  1.000000e+01
      vertex -2.984808e+01 -1.736482e+00  1.000000e+01
    endloop
  endfacet
  facet normal  0.000000e+00  0.000000e+00 -1.000000e+00
    outer loop
      vertex -1.015192e+01 -1.736482e+00  1.000000e+01
      vertex -2.984808e+01 -1.736482e+00  1.000000e+01
      vertex -1.003805e+01 -8.715574e-01  1.000000e+01
    endloop
  endfacet
  facet normal  -0.000000e+00  0.000000e+00 -1.000000e+00
    outer loop
      vertex -1.003805e+01 -8.715574e-01  1.000000e+01
      vertex -2.984808e+01 -1.736482e+00  1.000000e+01
      vertex -2.996195e+01 -8.715574e-01  1.000000e+01
    endloop
  endfacet
  facet normal  0.000000e+00  0.000000e+00 -1.000000e+00
    outer loop
      vertex -1.003805e+01 -8.715574e-01  1.000000e+01
      vertex -2.996195e+01 -8.715574e-01  1.000000e+01
      vertex -1.000000e+01 -1.531427e-14  1.000000e+01
    endloop
  endfacet
  facet normal  -0.000000e+00  0.000000e+00 -1.000000e+00
    outer loop
      vertex -1.000000e+01 -1.531427e-14  1.000000e+01
      vertex -2.996195e+01 -8.715574e-01  1.000000e+01
      vertex -3.000000e+01  2.097981e-14  1.000000e+01
    endloop
  endfacet
  facet normal  0.000000e+00  0.000000e+00 -1.000000e+00
    outer loop
      vertex -1.000000e+01 -1.531427e-14  1.000000e+01
      vertex -3.000000e+01  2.097981e-14  1.000000e+01
      vertex -1.003805e+01  8.715574e-01  1.000000e+01
    endloop
  endfacet
  facet normal  -0.000000e+00  0.000000e+00 -1.000000e+00
    outer loop
      vertex -1.003805e+01  8.715574e-01  1.000000e+01
      vertex -3.000000e+01  2.097981e-14  1.000000e+01
      vertex -2.996195e+01  8.715574e-01  1.000000e+01
    endloop
  endfacet
  facet normal  0.000000e+00  0.000000e+00 -1.000000e+00
    outer loop
      vertex -1.003805e+01  8.715574e-01  1.000000e+01
      vertex -2.996195e+01  8.715574e-01  1.000000e+01
      vertex -1.015192e+01  1.736482e+00  1.000000e+01
    endloop
  endfacet
  facet normal  -0.000000e+00  0.000000e+00 -1.000000e+00
    outer loop
      vertex -1.015192e+01  1.736482e+00  1.000000e+01
      vertex -2.996195e+01  8.715574e-01  1.000000e+01
      vertex -2.984808e+01  1.736482e+00  1.000000e+01
    endloop
  endfacet
  facet normal  0.000000e+00  0.000000e+00 -1.000000e+00
    outer loop
      vertex -1.015192e+01  1.736482e+00  1.000000e+01
      vertex -2.984808e+01  1.736482e+00  1.000000e+01
      vertex -1.034074e+01  2.588191e+00  1.000000e+01
    endloop
  endfacet
  facet normal  -0.000000e+00  0.000000e+00 -1.000000e+00
    outer loop
      vertex -1.034074e+01  2.588191e+00  1.000000e+01
      vertex -2.984808e+01  1.736482e+00  1.000000e+01
      vertex -2.965926e+01  2.588191e+00  1.000000e+01
    endloop
  endfacet
  facet normal  0.000000e+00  0.000000e+00 -1.000000e+00
    outer loop
      vertex -1.034074e+01  2.588191e+00  1.000000e+01
      vertex -2.965926e+01  2.588191e+00  1.000000e+01
      vertex -1.060307e+01  3.420202e+00  1.000000e+01
    endloop
  endfacet
  facet normal  -0.000000e+00  0.000000e+00 -1.000000e+00
    outer loop
      vertex -1.060307e+01  3.420202e+00  1.000000e+01
      vertex -2.965926e+01  2.588191e+00  1.000000e+01
      vertex -2.939693e+01  3.420202e+00  1.000000e+01
    endloop
  endfacet
  facet normal  0.000000e+00  0.000000e+00 -9.999999e-01
    outer loop
      vertex -1.060307e+01  3.420202e+00  1.000000e+01
      vertex -2.939693e+01  3.420202e+00  1.000000e+01
      vertex -1.093692e+01  4.226182e+00  1.000000e+01
    endloop
  endfacet
  facet normal  -0.000000e+00  0.000000e+00 -9.999999e-01
    outer loop
      vertex -1.093692e+01  4.226182e+00  1.000000e+01
      vertex -2.939693e+01  3.420202e+00  1.000000e+01
      vertex -2.906308e+01  4.226182e+00  1.000000e+01
    endloop
  endfacet
  facet normal  0.000000e+00  0.000000e+00 -1.000000e+00
    outer loop
      vertex -1.093692e+01  4.226182e+00  1.000000e+01
      vertex -2.906308e+01  4.226182e+00  1.000000e+01
      vertex -1.133975e+01  5.000000e+00  1.000000e+01
    endloop
  endfacet
  facet normal  -0.000000e+00  0.000000e+00 -1.000000e+00
    outer loop
      vertex -1.133975e+01  5.000000e+00  1.000000e+01
      vertex -2.906308e+01  4.226182e+00  1.000000e+01
      vertex -2.866025e+01  5.000000e+00  1.000000e+01
    endloop
  endfacet
  facet normal  0.000000e+00  0.000000e+00 -1.000000e+00
    outer loop
      vertex -1.133975e+01  5.000000e+00  1.000000e+01
      vertex -2.866025e+01  5.000000e+00  1.000000e+01
      vertex -1.180848e+01  5.735765e+00  1.000000e+01
    endloop
  endfacet
  facet normal  -0.000000e+00  0.000000e+00 -1.000000e+00
    outer loop
      vertex -1.180848e+01  5.735765e+00  1.000000e+01
      vertex -2.866025e+01  5.000000e+00  1.000000e+01
      vertex -2.819152e+01  5.735765e+00  1.000000e+01
    endloop
  endfacet
  facet normal  0.000000e+00  0.000000e+00 -1.000000e+00
    outer loop
      vertex -1.180848e+01  5.735765e+00  1.000000e+01
      vertex -2.819152e+01  5.735765e+00  1.000000e+01
      vertex -1.233956e+01  6.427876e+00  1.000000e+01
    endloop
  endfacet
  facet normal  -0.000000e+00  0.000000e+00 -1.000000e+00
    outer loop
      vertex -1.233956e+01  6.427876e+00  1.000000e+01
      vertex -2.819152e+01  5.735765e+00  1.000000e+01
      vertex -2.766044e+01  6.427876e+00  1.000000e+01
    endloop
  endfacet
  facet normal  0.000000e+00  0.000000e+00 -1.000000e+00
    outer loop
      vertex -1.233956e+01  6.427876e+00  1.000000e+01
      vertex -2.766044e+01  6.427876e+00  1.000000e+01
      vertex -1.292893e+01  7.071068e+00  1.000000e+01
    endloop
  endfacet
  facet normal  -0.000000e+00  0.000000e+00 -1.000000e+00
    outer loop
      vertex -1.292893e+01  7.071068e+00  1.000000e+01
      vertex -2.766044e+01  6.427876e+00  1.000000e+01
      vertex -2.707107e+01  7.071068e+00  1.000000e+01
    endloop
  endfacet
  facet normal  0.000000e+00  0.000000e+00 -1.000000e+00
    outer loop
      vertex -1.292893e+01  7.071068e+00  1.000000e+01
      vertex -2.707107e+01  7.071068e+00  1.000000e+01
      vertex -1.357212e+01  7.660444e+00  1.000000e+01
    endloop
  endfacet
  facet normal  -0.000000e+00  0.000000e+00 -1.000000e+00
    outer loop
      vertex -1.357212e+01  7.660444e+00  1.000000e+01
      vertex -2.707107e+01  7.071068e+00  1.000000e+01
      vertex -2.642788e+01  7.660444e+00  1.000000e+01
    endloop
  endfacet
  facet normal  0.000000e+00  0.000000e+00 -1.000000e+00
    outer loop
      vertex -1.357212e+01  7.660444e+00  1.000000e+01
      vertex -2.642788e+01  7.660444e+00  1.000000e+01
      vertex -1.426424e+01  8.191521e+00  1.000000e+01
    endloop
  endfacet
  facet normal  -0.000000e+00  0.000000e+00 -1.000000e+00
    outer loop
      vertex -1.426424e+01  8.191521e+00  1.000000e+01
      vertex -2.642788e+01  7.660444e+00  1.000000e+01
      vertex -2.573576e+01  8.191521e+00  1.000000e+01
    endloop
  endfacet
  facet normal  0.000000e+00  0.000000e+00 -1.000000e+00
    outer loop
      vertex -1.426424e+01  8.191521e+00  1.000000e+01
      vertex -2.573576e+01  8.191521e+00  1.000000e+01
      vertex -1.500000e+01  8.660254e+00  1.000000e+01
    endloop
  endfacet
  facet normal  -0.000000e+00  0.000000e+00 -1.000000e+00
    outer loop
      vertex -1.500000e+01  8.660254e+00  1.000000e+01
      vertex -2.573576e+01  8.191521e+00  1.000000e+01
      vertex -2.500000e+01  8.660254e+00  1.000000e+01
    endloop
  endfacet
  facet normal  0.000000e+00  0.000000e+00 -1.000000e+00
    outer loop
      vertex -1.500000e+01  8.660254e+00  1.000000e+01
      vertex -2.500000e+01  8.660254e+00  1.000000e+01
      vertex -1.577382e+01  9.063078e+00  1.000000e+01
    endloop
  endfacet
  facet normal  -0.000000e+00  0.000000e+00 -9.999999e-01
    outer loop
      vertex -1.577382e+01  9.063078e+00  1.000000e+01
      vertex -2.500000e+01  8.660254e+00  1.000000e+01
      vertex -2.422618e+01  9.063078e+00  1.000000e+01
    endloop
  endfacet
  facet normal  0.000000e+00  0.000000e+00 -1.000000e+00
    outer loop
      vertex -1.577382e+01  9.063078e+00  1.000000e+01
      vertex -2.422618e+01  9.063078e+00  1.000000e+01
      vertex -1.657980e+01  9.396926e+00  1.000000e+01
    endloop
  endfacet
  facet normal  -0.000000e+00  0.000000e+00 -1.000000e+00
    outer loop
      vertex -1.657980e+01  9.396926e+00  1.000000e+01
      vertex -2.422618e+01  9.063078e+00  1.000000e+01
      vertex -2.342020e+01  9.396926e+00  1.000000e+01
    endloop
  endfacet
  facet normal  0.000000e+00  0.000000e+00 -1.000000e+00
    outer loop
      vertex -1.657980e+01  9.396926e+00  1.000000e+01
      vertex -2.342020e+01  9.396926e+00  1.000000e+01
      vertex -1.741181e+01  9.659258e+00  1.000000e+01
    endloop
  endfacet
  facet normal  -0.000000e+00  0.000000e+00 -1.000000e+00
    outer loop
      vertex -1.741181e+01  9.659258e+00  1.000000e+01
      vertex -2.342020e+01  9.396926e+00  1.000000e+01
      vertex -2.258819e+01  9.659258e+00  1.000000e+01
    endloop
  endfacet
  facet normal  0.000000e+00  0.000000e+00 -1.000000e+00
    outer loop
      vertex -1.741181e+01  9.659258e+00  1.000000e+01
      vertex -2.258819e+01  9.659258e+00  1.000000e+01
      vertex -1.826352e+01  9.848078e+00  1.000000e+01
    endloop
  endfacet
  facet normal  -0.000000e+00  0.000000e+00 -1.000000e+00
    outer loop
      vertex -1.826352e+01  9.848078e+00  1.000000e+01
      vertex -2.258819e+01  9.659258e+00  1.000000e+01
      vertex -2.173648e+01  9.848078e+00  1.000000e+01
    endloop
  endfacet
  facet normal  0.000000e+00  0.000000e+00 -1.000000e+00
    outer loop
      vertex -1.826352e+01  9.848078e+00  1.000000e+01
      vertex -2.173648e+01  9.848078e+00  1.000000e+01
      vertex -1.912844e+01  9.961947e+00  1.000000e+01
    endloop
  endfacet
  facet normal  -0.000000e+00  0.000000e+00 -1.000000e+00
    outer loop
      vertex -1.912844e+01  9.961947e+00  1.000000e+01
      vertex -2.173648e+01  9.848078e+00  1.000000e+01
      vertex -2.087156e+01  9.961947e+00  1.000000e+01
    endloop
  endfacet
  facet normal  0.000000e+00  0.000000e+00 -9.999999e-01
    outer loop
      vertex -1.912844e+01  9.961947e+00  1.000000e+01
      vertex -2.087156e+01  9.961947e+00  1.000000e+01
      vertex -2.000000e+01  1.000000e+01  1.000000e+01
    endloop
  endfacet
endsolid CATIA STL
