solid CATIA STL
  facet normal  0.000000e+00  0.000000e+00  1.000000e+00
    outer loop
      vertex -1.450000e+02 -1.450000e+02  1.000000e+01
      vertex  1.450000e+02 -1.450000e+02  1.000000e+01
      vertex -1.450000e+02  1.450000e+02  1.000000e+01
    endloop
  endfacet
  facet normal  -0.000000e+00  0.000000e+00  1.000000e+00
    outer loop
      vertex -1.450000e+02  1.450000e+02  1.000000e+01
      vertex  1.450000e+02 -1.450000e+02  1.000000e+01
      vertex  1.450000e+02  1.450000e+02  1.000000e+01
    endloop
  endfacet
  facet normal  0.000000e+00 -1.000000e+00  0.000000e+00
    outer loop
      vertex  1.500000e+02 -1.500000e+02  5.000000e+00
      vertex -1.500000e+02 -1.500000e+02  5.000000e+00
      vertex  1.500000e+02 -1.500000e+02  0.000000e+00
    endloop
  endfacet
  facet normal  0.000000e+00 -1.000000e+00  0.000000e+00
    outer loop
      vertex  1.500000e+02 -1.500000e+02  0.000000e+00
      vertex -1.500000e+02 -1.500000e+02  5.000000e+00
      vertex -1.500000e+02 -1.500000e+02  0.000000e+00
    endloop
  endfacet
  facet normal  1.000000e+00  -0.000000e+00  0.000000e+00
    outer loop
      vertex  1.500000e+02  1.500000e+02  5.000000e+00
      vertex  1.500000e+02 -1.500000e+02  5.000000e+00
      vertex  1.500000e+02  1.500000e+02  0.000000e+00
    endloop
  endfacet
  facet normal  1.000000e+00  0.000000e+00  0.000000e+00
    outer loop
      vertex  1.500000e+02  1.500000e+02  0.000000e+00
      vertex  1.500000e+02 -1.500000e+02  5.000000e+00
      vertex  1.500000e+02 -1.500000e+02  0.000000e+00
    endloop
  endfacet
  facet normal  0.000000e+00  1.000000e+00  0.000000e+00
    outer loop
      vertex -1.500000e+02  1.500000e+02  5.000000e+00
      vertex  1.500000e+02  1.500000e+02  5.000000e+00
      vertex -1.500000e+02  1.500000e+02  0.000000e+00
    endloop
  endfacet
  facet normal  0.000000e+00  1.000000e+00  0.000000e+00
    outer loop
      vertex -1.500000e+02  1.500000e+02  0.000000e+00
      vertex  1.500000e+02  1.500000e+02  5.000000e+00
      vertex  1.500000e+02  1.500000e+02  0.000000e+00
    endloop
  endfacet
  facet normal -1.000000e+00  -0.000000e+00  0.000000e+00
    outer loop
      vertex -1.500000e+02 -1.500000e+02  5.000000e+00
      vertex -1.500000e+02  1.500000e+02  5.000000e+00
      vertex -1.500000e+02 -1.500000e+02  0.000000e+00
    endloop
  endfacet
  facet normal -1.000000e+00  0.000000e+00  0.000000e+00
    outer loop
      vertex -1.500000e+02 -1.500000e+02  0.000000e+00
      vertex -1.500000e+02  1.500000e+02  5.000000e+00
      vertex -1.500000e+02  1.500000e+02  0.000000e+00
    endloop
  endfacet
  facet normal -1.450420e-03  0.000000e+00  9.999990e-01
    outer loop
      vertex -1.450000e+02 -1.450000e+02  1.000000e+01
      vertex -1.450000e+02  1.450000e+02  1.000000e+01
      vertex -1.450145e+02  1.450145e+02  9.999979e+00
    endloop
  endfacet
  facet normal -9.992633e-01  0.000000e+00  3.838005e-02
    outer loop
      vertex -1.500000e+02  1.500000e+02  5.000000e+00
      vertex -1.500000e+02 -1.500000e+02  5.000000e+00
      vertex -1.499853e+02  1.499853e+02  5.383373e+00
    endloop
  endfacet
  facet normal -9.992632e-01  0.000000e+00  3.838005e-02
    outer loop
      vertex -1.499853e+02  1.499853e+02  5.383373e+00
      vertex -1.500000e+02 -1.500000e+02  5.000000e+00
      vertex -1.499853e+02 -1.499853e+02  5.383373e+00
    endloop
  endfacet
  facet normal -9.934083e-01  0.000000e+00  1.146298e-01
    outer loop
      vertex -1.499853e+02  1.499853e+02  5.383373e+00
      vertex -1.499853e+02 -1.499853e+02  5.383373e+00
      vertex -1.499416e+02  1.499416e+02  5.762230e+00
    endloop
  endfacet
  facet normal -9.934083e-01  0.000000e+00  1.146298e-01
    outer loop
      vertex -1.499416e+02  1.499416e+02  5.762230e+00
      vertex -1.499853e+02 -1.499853e+02  5.383373e+00
      vertex -1.499416e+02 -1.499416e+02  5.762230e+00
    endloop
  endfacet
  facet normal -9.818627e-01  0.000000e+00  1.895938e-01
    outer loop
      vertex -1.499416e+02  1.499416e+02  5.762230e+00
      vertex -1.499416e+02 -1.499416e+02  5.762230e+00
      vertex -1.498701e+02  1.498700e+02  6.132526e+00
    endloop
  endfacet
  facet normal -9.818551e-01 -4.998303e-08  1.896328e-01
    outer loop
      vertex -1.498701e+02  1.498700e+02  6.132526e+00
      vertex -1.499416e+02 -1.499416e+02  5.762230e+00
      vertex -1.498700e+02 -1.498701e+02  6.132526e+00
    endloop
  endfacet
  facet normal -9.673004e-01 -4.924210e-08  2.536334e-01
    outer loop
      vertex -1.498701e+02  1.498700e+02  6.132526e+00
      vertex -1.498700e+02 -1.498701e+02  6.132526e+00
      vertex -1.497993e+02  1.497993e+02  6.402544e+00
    endloop
  endfacet
  facet normal -9.673138e-01  0.000000e+00  2.535823e-01
    outer loop
      vertex -1.497993e+02  1.497993e+02  6.402544e+00
      vertex -1.498700e+02 -1.498701e+02  6.132526e+00
      vertex -1.497993e+02 -1.497993e+02  6.402544e+00
    endloop
  endfacet
  facet normal -9.517619e-01  0.000000e+00  3.068375e-01
    outer loop
      vertex -1.497993e+02  1.497993e+02  6.402544e+00
      vertex -1.497993e+02 -1.497993e+02  6.402544e+00
      vertex -1.497148e+02  1.497148e+02  6.664612e+00
    endloop
  endfacet
  facet normal -9.517619e-01  0.000000e+00  3.068375e-01
    outer loop
      vertex -1.497148e+02  1.497148e+02  6.664612e+00
      vertex -1.497993e+02 -1.497993e+02  6.402544e+00
      vertex -1.497148e+02 -1.497148e+02  6.664612e+00
    endloop
  endfacet
  facet normal -9.335905e-01  0.000000e+00  3.583418e-01
    outer loop
      vertex -1.497148e+02  1.497148e+02  6.664612e+00
      vertex -1.497148e+02 -1.497148e+02  6.664612e+00
      vertex -1.496176e+02  1.496176e+02  6.917765e+00
    endloop
  endfacet
  facet normal -9.335904e-01  0.000000e+00  3.583418e-01
    outer loop
      vertex -1.496176e+02  1.496176e+02  6.917765e+00
      vertex -1.497148e+02 -1.497148e+02  6.664612e+00
      vertex -1.496176e+02 -1.496176e+02  6.917765e+00
    endloop
  endfacet
  facet normal -9.129478e-01  0.000000e+00  4.080763e-01
    outer loop
      vertex -1.496176e+02  1.496176e+02  6.917765e+00
      vertex -1.496176e+02 -1.496176e+02  6.917765e+00
      vertex -1.495088e+02  1.495088e+02  7.161263e+00
    endloop
  endfacet
  facet normal -9.129478e-01  0.000000e+00  4.080763e-01
    outer loop
      vertex -1.495088e+02  1.495088e+02  7.161263e+00
      vertex -1.496176e+02 -1.496176e+02  6.917765e+00
      vertex -1.495088e+02 -1.495088e+02  7.161263e+00
    endloop
  endfacet
  facet normal -8.821850e-01  0.000000e+00  4.709031e-01
    outer loop
      vertex -1.495088e+02  1.495088e+02  7.161263e+00
      vertex -1.495088e+02 -1.495088e+02  7.161263e+00
      vertex -1.493047e+02  1.493047e+02  7.543482e+00
    endloop
  endfacet
  facet normal -8.821850e-01  0.000000e+00  4.709031e-01
    outer loop
      vertex -1.493047e+02  1.493047e+02  7.543482e+00
      vertex -1.495088e+02 -1.495088e+02  7.161263e+00
      vertex -1.493047e+02 -1.493047e+02  7.543482e+00
    endloop
  endfacet
  facet normal -8.387690e-01  0.000000e+00  5.444874e-01
    outer loop
      vertex -1.493047e+02  1.493047e+02  7.543482e+00
      vertex -1.493047e+02 -1.493047e+02  7.543482e+00
      vertex -1.490755e+02  1.490755e+02  7.896563e+00
    endloop
  endfacet
  facet normal -8.387690e-01  0.000000e+00  5.444874e-01
    outer loop
      vertex -1.490755e+02  1.490755e+02  7.896563e+00
      vertex -1.493047e+02 -1.493047e+02  7.543482e+00
      vertex -1.490755e+02 -1.490755e+02  7.896563e+00
    endloop
  endfacet
  facet normal -7.907138e-01  0.000000e+00  6.121860e-01
    outer loop
      vertex -1.490755e+02  1.490755e+02  7.896563e+00
      vertex -1.490755e+02 -1.490755e+02  7.896563e+00
      vertex -1.488251e+02  1.488251e+02  8.220020e+00
    endloop
  endfacet
  facet normal -7.907138e-01  0.000000e+00  6.121860e-01
    outer loop
      vertex -1.488251e+02  1.488251e+02  8.220020e+00
      vertex -1.490755e+02 -1.490755e+02  7.896563e+00
      vertex -1.488251e+02 -1.488251e+02  8.220020e+00
    endloop
  endfacet
  facet normal -7.454163e-01  0.000000e+00  6.665992e-01
    outer loop
      vertex -1.488251e+02  1.488251e+02  8.220020e+00
      vertex -1.488251e+02 -1.488251e+02  8.220020e+00
      vertex -1.486255e+02  1.486255e+02  8.443170e+00
    endloop
  endfacet
  facet normal -7.454163e-01  0.000000e+00  6.665992e-01
    outer loop
      vertex -1.486255e+02  1.486255e+02  8.443170e+00
      vertex -1.488251e+02 -1.488251e+02  8.220020e+00
      vertex -1.486255e+02 -1.486255e+02  8.443170e+00
    endloop
  endfacet
  facet normal -7.046036e-01  0.000000e+00  7.096011e-01
    outer loop
      vertex -1.486255e+02  1.486255e+02  8.443170e+00
      vertex -1.486255e+02 -1.486255e+02  8.443170e+00
      vertex -1.484174e+02  1.484174e+02  8.649834e+00
    endloop
  endfacet
  facet normal -7.046036e-01  0.000000e+00  7.096012e-01
    outer loop
      vertex -1.484174e+02  1.484174e+02  8.649834e+00
      vertex -1.486255e+02 -1.486255e+02  8.443170e+00
      vertex -1.484174e+02 -1.484174e+02  8.649834e+00
    endloop
  endfacet
  facet normal -6.407639e-01  0.000000e+00  7.677379e-01
    outer loop
      vertex -1.484174e+02  1.484174e+02  8.649834e+00
      vertex -1.484174e+02 -1.484174e+02  8.649834e+00
      vertex -1.479799e+02  1.479799e+02  9.015002e+00
    endloop
  endfacet
  facet normal -6.407639e-01  0.000000e+00  7.677379e-01
    outer loop
      vertex -1.479799e+02  1.479799e+02  9.015002e+00
      vertex -1.484174e+02 -1.484174e+02  8.649834e+00
      vertex -1.479799e+02 -1.479799e+02  9.015002e+00
    endloop
  endfacet
  facet normal -5.595180e-01  0.000000e+00  8.288181e-01
    outer loop
      vertex -1.479799e+02  1.479799e+02  9.015002e+00
      vertex -1.479799e+02 -1.479799e+02  9.015002e+00
      vertex -1.476097e+02  1.476097e+02  9.264892e+00
    endloop
  endfacet
  facet normal -5.595180e-01  0.000000e+00  8.288182e-01
    outer loop
      vertex -1.476097e+02  1.476097e+02  9.264892e+00
      vertex -1.479799e+02 -1.479799e+02  9.015002e+00
      vertex -1.476097e+02 -1.476097e+02  9.264892e+00
    endloop
  endfacet
  facet normal -4.842383e-01  0.000000e+00  8.749363e-01
    outer loop
      vertex -1.476097e+02  1.476097e+02  9.264892e+00
      vertex -1.476097e+02 -1.476097e+02  9.264892e+00
      vertex -1.472279e+02  1.472279e+02  9.476204e+00
    endloop
  endfacet
  facet normal -4.842382e-01  0.000000e+00  8.749363e-01
    outer loop
      vertex -1.472279e+02  1.472279e+02  9.476204e+00
      vertex -1.476097e+02 -1.476097e+02  9.264892e+00
      vertex -1.472279e+02 -1.472279e+02  9.476204e+00
    endloop
  endfacet
  facet normal -4.068559e-01  0.000000e+00  9.134923e-01
    outer loop
      vertex -1.472279e+02  1.472279e+02  9.476204e+00
      vertex -1.472279e+02 -1.472279e+02  9.476204e+00
      vertex -1.468370e+02  1.468370e+02  9.650305e+00
    endloop
  endfacet
  facet normal -4.068559e-01  0.000000e+00  9.134924e-01
    outer loop
      vertex -1.468370e+02  1.468370e+02  9.650305e+00
      vertex -1.472279e+02 -1.472279e+02  9.476204e+00
      vertex -1.468370e+02 -1.468370e+02  9.650305e+00
    endloop
  endfacet
  facet normal -3.377957e-01  0.000000e+00  9.412195e-01
    outer loop
      vertex -1.468370e+02  1.468370e+02  9.650305e+00
      vertex -1.468370e+02 -1.468370e+02  9.650305e+00
      vertex -1.465392e+02  1.465392e+02  9.757201e+00
    endloop
  endfacet
  facet normal -3.377957e-01  0.000000e+00  9.412194e-01
    outer loop
      vertex -1.465392e+02  1.465392e+02  9.757201e+00
      vertex -1.468370e+02 -1.468370e+02  9.650305e+00
      vertex -1.465392e+02 -1.465392e+02  9.757201e+00
    endloop
  endfacet
  facet normal -2.778670e-01  0.000000e+00  9.606195e-01
    outer loop
      vertex -1.465392e+02  1.465392e+02  9.757201e+00
      vertex -1.465392e+02 -1.465392e+02  9.757201e+00
      vertex -1.462381e+02  1.462381e+02  9.844284e+00
    endloop
  endfacet
  facet normal -2.778540e-01 -1.449593e-08  9.606233e-01
    outer loop
      vertex -1.462381e+02  1.462381e+02  9.844284e+00
      vertex -1.465392e+02 -1.465392e+02  9.757201e+00
      vertex -1.462381e+02 -1.462381e+02  9.844284e+00
    endloop
  endfacet
  facet normal -1.870646e-01 -9.759353e-09  9.823476e-01
    outer loop
      vertex -1.462381e+02  1.462381e+02  9.844284e+00
      vertex -1.462381e+02 -1.462381e+02  9.844284e+00
      vertex -1.456290e+02  1.456290e+02  9.960284e+00
    endloop
  endfacet
  facet normal -1.870691e-01  0.000000e+00  9.823468e-01
    outer loop
      vertex -1.456290e+02  1.456290e+02  9.960284e+00
      vertex -1.462381e+02 -1.462381e+02  9.844284e+00
      vertex -1.456290e+02 -1.456290e+02  9.960284e+00
    endloop
  endfacet
  facet normal -6.446392e-02  0.000000e+00  9.979200e-01
    outer loop
      vertex -1.456290e+02  1.456290e+02  9.960284e+00
      vertex -1.456290e+02 -1.456290e+02  9.960284e+00
      vertex -1.450145e+02  1.450145e+02  9.999979e+00
    endloop
  endfacet
  facet normal -6.446392e-02  0.000000e+00  9.979200e-01
    outer loop
      vertex -1.450145e+02  1.450145e+02  9.999979e+00
      vertex -1.456290e+02 -1.456290e+02  9.960284e+00
      vertex -1.450145e+02 -1.450145e+02  9.999979e+00
    endloop
  endfacet
  facet normal -1.450420e-03  0.000000e+00  9.999989e-01
    outer loop
      vertex -1.450145e+02  1.450145e+02  9.999979e+00
      vertex -1.450145e+02 -1.450145e+02  9.999979e+00
      vertex -1.450000e+02 -1.450000e+02  1.000000e+01
    endloop
  endfacet
  facet normal  0.000000e+00 -1.450420e-03  9.999990e-01
    outer loop
      vertex  1.450000e+02 -1.450000e+02  1.000000e+01
      vertex -1.450000e+02 -1.450000e+02  1.000000e+01
      vertex -1.450145e+02 -1.450145e+02  9.999979e+00
    endloop
  endfacet
  facet normal  0.000000e+00 -9.992633e-01  3.838005e-02
    outer loop
      vertex -1.500000e+02 -1.500000e+02  5.000000e+00
      vertex  1.500000e+02 -1.500000e+02  5.000000e+00
      vertex -1.499853e+02 -1.499853e+02  5.383373e+00
    endloop
  endfacet
  facet normal  0.000000e+00 -9.992632e-01  3.838005e-02
    outer loop
      vertex -1.499853e+02 -1.499853e+02  5.383373e+00
      vertex  1.500000e+02 -1.500000e+02  5.000000e+00
      vertex  1.499853e+02 -1.499853e+02  5.383373e+00
    endloop
  endfacet
  facet normal  0.000000e+00 -9.934083e-01  1.146298e-01
    outer loop
      vertex -1.499853e+02 -1.499853e+02  5.383373e+00
      vertex  1.499853e+02 -1.499853e+02  5.383373e+00
      vertex -1.499416e+02 -1.499416e+02  5.762230e+00
    endloop
  endfacet
  facet normal  0.000000e+00 -9.934083e-01  1.146298e-01
    outer loop
      vertex -1.499416e+02 -1.499416e+02  5.762230e+00
      vertex  1.499853e+02 -1.499853e+02  5.383373e+00
      vertex  1.499416e+02 -1.499416e+02  5.762230e+00
    endloop
  endfacet
  facet normal  0.000000e+00 -9.818627e-01  1.895938e-01
    outer loop
      vertex -1.499416e+02 -1.499416e+02  5.762230e+00
      vertex  1.499416e+02 -1.499416e+02  5.762230e+00
      vertex -1.498700e+02 -1.498701e+02  6.132526e+00
    endloop
  endfacet
  facet normal  4.998303e-08 -9.818551e-01  1.896328e-01
    outer loop
      vertex -1.498700e+02 -1.498701e+02  6.132526e+00
      vertex  1.499416e+02 -1.499416e+02  5.762230e+00
      vertex  1.498701e+02 -1.498700e+02  6.132526e+00
    endloop
  endfacet
  facet normal  4.924210e-08 -9.673004e-01  2.536334e-01
    outer loop
      vertex -1.498700e+02 -1.498701e+02  6.132526e+00
      vertex  1.498701e+02 -1.498700e+02  6.132526e+00
      vertex -1.497993e+02 -1.497993e+02  6.402544e+00
    endloop
  endfacet
  facet normal  0.000000e+00 -9.673138e-01  2.535823e-01
    outer loop
      vertex -1.497993e+02 -1.497993e+02  6.402544e+00
      vertex  1.498701e+02 -1.498700e+02  6.132526e+00
      vertex  1.497993e+02 -1.497993e+02  6.402544e+00
    endloop
  endfacet
  facet normal  0.000000e+00 -9.517619e-01  3.068375e-01
    outer loop
      vertex -1.497993e+02 -1.497993e+02  6.402544e+00
      vertex  1.497993e+02 -1.497993e+02  6.402544e+00
      vertex -1.497148e+02 -1.497148e+02  6.664612e+00
    endloop
  endfacet
  facet normal  0.000000e+00 -9.517619e-01  3.068375e-01
    outer loop
      vertex -1.497148e+02 -1.497148e+02  6.664612e+00
      vertex  1.497993e+02 -1.497993e+02  6.402544e+00
      vertex  1.497148e+02 -1.497148e+02  6.664612e+00
    endloop
  endfacet
  facet normal  0.000000e+00 -9.335905e-01  3.583418e-01
    outer loop
      vertex -1.497148e+02 -1.497148e+02  6.664612e+00
      vertex  1.497148e+02 -1.497148e+02  6.664612e+00
      vertex -1.496176e+02 -1.496176e+02  6.917765e+00
    endloop
  endfacet
  facet normal  0.000000e+00 -9.335904e-01  3.583418e-01
    outer loop
      vertex -1.496176e+02 -1.496176e+02  6.917765e+00
      vertex  1.497148e+02 -1.497148e+02  6.664612e+00
      vertex  1.496176e+02 -1.496176e+02  6.917765e+00
    endloop
  endfacet
  facet normal  0.000000e+00 -9.129478e-01  4.080763e-01
    outer loop
      vertex -1.496176e+02 -1.496176e+02  6.917765e+00
      vertex  1.496176e+02 -1.496176e+02  6.917765e+00
      vertex -1.495088e+02 -1.495088e+02  7.161263e+00
    endloop
  endfacet
  facet normal  0.000000e+00 -9.129478e-01  4.080763e-01
    outer loop
      vertex -1.495088e+02 -1.495088e+02  7.161263e+00
      vertex  1.496176e+02 -1.496176e+02  6.917765e+00
      vertex  1.495088e+02 -1.495088e+02  7.161263e+00
    endloop
  endfacet
  facet normal  0.000000e+00 -8.821850e-01  4.709031e-01
    outer loop
      vertex -1.495088e+02 -1.495088e+02  7.161263e+00
      vertex  1.495088e+02 -1.495088e+02  7.161263e+00
      vertex -1.493047e+02 -1.493047e+02  7.543482e+00
    endloop
  endfacet
  facet normal  0.000000e+00 -8.821850e-01  4.709031e-01
    outer loop
      vertex -1.493047e+02 -1.493047e+02  7.543482e+00
      vertex  1.495088e+02 -1.495088e+02  7.161263e+00
      vertex  1.493047e+02 -1.493047e+02  7.543482e+00
    endloop
  endfacet
  facet normal  0.000000e+00 -8.387690e-01  5.444874e-01
    outer loop
      vertex -1.493047e+02 -1.493047e+02  7.543482e+00
      vertex  1.493047e+02 -1.493047e+02  7.543482e+00
      vertex -1.490755e+02 -1.490755e+02  7.896563e+00
    endloop
  endfacet
  facet normal  0.000000e+00 -8.387690e-01  5.444874e-01
    outer loop
      vertex -1.490755e+02 -1.490755e+02  7.896563e+00
      vertex  1.493047e+02 -1.493047e+02  7.543482e+00
      vertex  1.490755e+02 -1.490755e+02  7.896563e+00
    endloop
  endfacet
  facet normal  0.000000e+00 -7.907138e-01  6.121860e-01
    outer loop
      vertex -1.490755e+02 -1.490755e+02  7.896563e+00
      vertex  1.490755e+02 -1.490755e+02  7.896563e+00
      vertex -1.488251e+02 -1.488251e+02  8.220020e+00
    endloop
  endfacet
  facet normal  0.000000e+00 -7.907138e-01  6.121860e-01
    outer loop
      vertex -1.488251e+02 -1.488251e+02  8.220020e+00
      vertex  1.490755e+02 -1.490755e+02  7.896563e+00
      vertex  1.488251e+02 -1.488251e+02  8.220020e+00
    endloop
  endfacet
  facet normal  0.000000e+00 -7.454163e-01  6.665992e-01
    outer loop
      vertex -1.488251e+02 -1.488251e+02  8.220020e+00
      vertex  1.488251e+02 -1.488251e+02  8.220020e+00
      vertex -1.486255e+02 -1.486255e+02  8.443170e+00
    endloop
  endfacet
  facet normal  0.000000e+00 -7.454163e-01  6.665992e-01
    outer loop
      vertex -1.486255e+02 -1.486255e+02  8.443170e+00
      vertex  1.488251e+02 -1.488251e+02  8.220020e+00
      vertex  1.486255e+02 -1.486255e+02  8.443170e+00
    endloop
  endfacet
  facet normal  0.000000e+00 -7.046036e-01  7.096011e-01
    outer loop
      vertex -1.486255e+02 -1.486255e+02  8.443170e+00
      vertex  1.486255e+02 -1.486255e+02  8.443170e+00
      vertex -1.484174e+02 -1.484174e+02  8.649834e+00
    endloop
  endfacet
  facet normal  0.000000e+00 -7.046036e-01  7.096012e-01
    outer loop
      vertex -1.484174e+02 -1.484174e+02  8.649834e+00
      vertex  1.486255e+02 -1.486255e+02  8.443170e+00
      vertex  1.484174e+02 -1.484174e+02  8.649834e+00
    endloop
  endfacet
  facet normal  0.000000e+00 -6.407639e-01  7.677379e-01
    outer loop
      vertex -1.484174e+02 -1.484174e+02  8.649834e+00
      vertex  1.484174e+02 -1.484174e+02  8.649834e+00
      vertex -1.479799e+02 -1.479799e+02  9.015002e+00
    endloop
  endfacet
  facet normal  0.000000e+00 -6.407639e-01  7.677379e-01
    outer loop
      vertex -1.479799e+02 -1.479799e+02  9.015002e+00
      vertex  1.484174e+02 -1.484174e+02  8.649834e+00
      vertex  1.479799e+02 -1.479799e+02  9.015002e+00
    endloop
  endfacet
  facet normal  0.000000e+00 -5.595180e-01  8.288181e-01
    outer loop
      vertex -1.479799e+02 -1.479799e+02  9.015002e+00
      vertex  1.479799e+02 -1.479799e+02  9.015002e+00
      vertex -1.476097e+02 -1.476097e+02  9.264892e+00
    endloop
  endfacet
  facet normal  0.000000e+00 -5.595180e-01  8.288182e-01
    outer loop
      vertex -1.476097e+02 -1.476097e+02  9.264892e+00
      vertex  1.479799e+02 -1.479799e+02  9.015002e+00
      vertex  1.476097e+02 -1.476097e+02  9.264892e+00
    endloop
  endfacet
  facet normal  0.000000e+00 -4.842383e-01  8.749363e-01
    outer loop
      vertex -1.476097e+02 -1.476097e+02  9.264892e+00
      vertex  1.476097e+02 -1.476097e+02  9.264892e+00
      vertex -1.472279e+02 -1.472279e+02  9.476204e+00
    endloop
  endfacet
  facet normal  0.000000e+00 -4.842382e-01  8.749363e-01
    outer loop
      vertex -1.472279e+02 -1.472279e+02  9.476204e+00
      vertex  1.476097e+02 -1.476097e+02  9.264892e+00
      vertex  1.472279e+02 -1.472279e+02  9.476204e+00
    endloop
  endfacet
  facet normal  0.000000e+00 -4.068559e-01  9.134923e-01
    outer loop
      vertex -1.472279e+02 -1.472279e+02  9.476204e+00
      vertex  1.472279e+02 -1.472279e+02  9.476204e+00
      vertex -1.468370e+02 -1.468370e+02  9.650305e+00
    endloop
  endfacet
  facet normal  0.000000e+00 -4.068559e-01  9.134924e-01
    outer loop
      vertex -1.468370e+02 -1.468370e+02  9.650305e+00
      vertex  1.472279e+02 -1.472279e+02  9.476204e+00
      vertex  1.468370e+02 -1.468370e+02  9.650305e+00
    endloop
  endfacet
  facet normal  0.000000e+00 -3.377957e-01  9.412195e-01
    outer loop
      vertex -1.468370e+02 -1.468370e+02  9.650305e+00
      vertex  1.468370e+02 -1.468370e+02  9.650305e+00
      vertex -1.465392e+02 -1.465392e+02  9.757201e+00
    endloop
  endfacet
  facet normal  0.000000e+00 -3.377957e-01  9.412194e-01
    outer loop
      vertex -1.465392e+02 -1.465392e+02  9.757201e+00
      vertex  1.468370e+02 -1.468370e+02  9.650305e+00
      vertex  1.465392e+02 -1.465392e+02  9.757201e+00
    endloop
  endfacet
  facet normal  0.000000e+00 -2.778670e-01  9.606195e-01
    outer loop
      vertex -1.465392e+02 -1.465392e+02  9.757201e+00
      vertex  1.465392e+02 -1.465392e+02  9.757201e+00
      vertex -1.462381e+02 -1.462381e+02  9.844284e+00
    endloop
  endfacet
  facet normal  1.449593e-08 -2.778540e-01  9.606233e-01
    outer loop
      vertex -1.462381e+02 -1.462381e+02  9.844284e+00
      vertex  1.465392e+02 -1.465392e+02  9.757201e+00
      vertex  1.462381e+02 -1.462381e+02  9.844284e+00
    endloop
  endfacet
  facet normal  9.759353e-09 -1.870646e-01  9.823476e-01
    outer loop
      vertex -1.462381e+02 -1.462381e+02  9.844284e+00
      vertex  1.462381e+02 -1.462381e+02  9.844284e+00
      vertex -1.456290e+02 -1.456290e+02  9.960284e+00
    endloop
  endfacet
  facet normal  0.000000e+00 -1.870691e-01  9.823468e-01
    outer loop
      vertex -1.456290e+02 -1.456290e+02  9.960284e+00
      vertex  1.462381e+02 -1.462381e+02  9.844284e+00
      vertex  1.456290e+02 -1.456290e+02  9.960284e+00
    endloop
  endfacet
  facet normal  0.000000e+00 -6.446392e-02  9.979200e-01
    outer loop
      vertex -1.456290e+02 -1.456290e+02  9.960284e+00
      vertex  1.456290e+02 -1.456290e+02  9.960284e+00
      vertex -1.450145e+02 -1.450145e+02  9.999979e+00
    endloop
  endfacet
  facet normal  0.000000e+00 -6.446392e-02  9.979200e-01
    outer loop
      vertex -1.450145e+02 -1.450145e+02  9.999979e+00
      vertex  1.456290e+02 -1.456290e+02  9.960284e+00
      vertex  1.450145e+02 -1.450145e+02  9.999979e+00
    endloop
  endfacet
  facet normal  0.000000e+00 -1.450420e-03  9.999989e-01
    outer loop
      vertex -1.450145e+02 -1.450145e+02  9.999979e+00
      vertex  1.450145e+02 -1.450145e+02  9.999979e+00
      vertex  1.450000e+02 -1.450000e+02  1.000000e+01
    endloop
  endfacet
  facet normal  1.450420e-03  -0.000000e+00  9.999990e-01
    outer loop
      vertex  1.450000e+02  1.450000e+02  1.000000e+01
      vertex  1.450000e+02 -1.450000e+02  1.000000e+01
      vertex  1.450145e+02 -1.450145e+02  9.999979e+00
    endloop
  endfacet
  facet normal  9.992633e-01  0.000000e+00  3.838005e-02
    outer loop
      vertex  1.500000e+02 -1.500000e+02  5.000000e+00
      vertex  1.500000e+02  1.500000e+02  5.000000e+00
      vertex  1.499853e+02 -1.499853e+02  5.383373e+00
    endloop
  endfacet
  facet normal  9.992632e-01  -0.000000e+00  3.838005e-02
    outer loop
      vertex  1.499853e+02 -1.499853e+02  5.383373e+00
      vertex  1.500000e+02  1.500000e+02  5.000000e+00
      vertex  1.499853e+02  1.499853e+02  5.383373e+00
    endloop
  endfacet
  facet normal  9.934083e-01  0.000000e+00  1.146298e-01
    outer loop
      vertex  1.499853e+02 -1.499853e+02  5.383373e+00
      vertex  1.499853e+02  1.499853e+02  5.383373e+00
      vertex  1.499416e+02 -1.499416e+02  5.762230e+00
    endloop
  endfacet
  facet normal  9.934083e-01  -0.000000e+00  1.146298e-01
    outer loop
      vertex  1.499416e+02 -1.499416e+02  5.762230e+00
      vertex  1.499853e+02  1.499853e+02  5.383373e+00
      vertex  1.499416e+02  1.499416e+02  5.762230e+00
    endloop
  endfacet
  facet normal  9.818627e-01  0.000000e+00  1.895938e-01
    outer loop
      vertex  1.499416e+02 -1.499416e+02  5.762230e+00
      vertex  1.499416e+02  1.499416e+02  5.762230e+00
      vertex  1.498701e+02 -1.498700e+02  6.132526e+00
    endloop
  endfacet
  facet normal  9.818551e-01  4.998303e-08  1.896328e-01
    outer loop
      vertex  1.498701e+02 -1.498700e+02  6.132526e+00
      vertex  1.499416e+02  1.499416e+02  5.762230e+00
      vertex  1.498700e+02  1.498701e+02  6.132526e+00
    endloop
  endfacet
  facet normal  9.673004e-01  4.924210e-08  2.536334e-01
    outer loop
      vertex  1.498701e+02 -1.498700e+02  6.132526e+00
      vertex  1.498700e+02  1.498701e+02  6.132526e+00
      vertex  1.497993e+02 -1.497993e+02  6.402544e+00
    endloop
  endfacet
  facet normal  9.673138e-01  -0.000000e+00  2.535823e-01
    outer loop
      vertex  1.497993e+02 -1.497993e+02  6.402544e+00
      vertex  1.498700e+02  1.498701e+02  6.132526e+00
      vertex  1.497993e+02  1.497993e+02  6.402544e+00
    endloop
  endfacet
  facet normal  9.517619e-01  0.000000e+00  3.068375e-01
    outer loop
      vertex  1.497993e+02 -1.497993e+02  6.402544e+00
      vertex  1.497993e+02  1.497993e+02  6.402544e+00
      vertex  1.497148e+02 -1.497148e+02  6.664612e+00
    endloop
  endfacet
  facet normal  9.517619e-01  -0.000000e+00  3.068375e-01
    outer loop
      vertex  1.497148e+02 -1.497148e+02  6.664612e+00
      vertex  1.497993e+02  1.497993e+02  6.402544e+00
      vertex  1.497148e+02  1.497148e+02  6.664612e+00
    endloop
  endfacet
  facet normal  9.335905e-01  0.000000e+00  3.583418e-01
    outer loop
      vertex  1.497148e+02 -1.497148e+02  6.664612e+00
      vertex  1.497148e+02  1.497148e+02  6.664612e+00
      vertex  1.496176e+02 -1.496176e+02  6.917765e+00
    endloop
  endfacet
  facet normal  9.335904e-01  -0.000000e+00  3.583418e-01
    outer loop
      vertex  1.496176e+02 -1.496176e+02  6.917765e+00
      vertex  1.497148e+02  1.497148e+02  6.664612e+00
      vertex  1.496176e+02  1.496176e+02  6.917765e+00
    endloop
  endfacet
  facet normal  9.129478e-01  0.000000e+00  4.080763e-01
    outer loop
      vertex  1.496176e+02 -1.496176e+02  6.917765e+00
      vertex  1.496176e+02  1.496176e+02  6.917765e+00
      vertex  1.495088e+02 -1.495088e+02  7.161263e+00
    endloop
  endfacet
  facet normal  9.129478e-01  -0.000000e+00  4.080763e-01
    outer loop
      vertex  1.495088e+02 -1.495088e+02  7.161263e+00
      vertex  1.496176e+02  1.496176e+02  6.917765e+00
      vertex  1.495088e+02  1.495088e+02  7.161263e+00
    endloop
  endfacet
  facet normal  8.821850e-01  0.000000e+00  4.709031e-01
    outer loop
      vertex  1.495088e+02 -1.495088e+02  7.161263e+00
      vertex  1.495088e+02  1.495088e+02  7.161263e+00
      vertex  1.493047e+02 -1.493047e+02  7.543482e+00
    endloop
  endfacet
  facet normal  8.821850e-01  -0.000000e+00  4.709031e-01
    outer loop
      vertex  1.493047e+02 -1.493047e+02  7.543482e+00
      vertex  1.495088e+02  1.495088e+02  7.161263e+00
      vertex  1.493047e+02  1.493047e+02  7.543482e+00
    endloop
  endfacet
  facet normal  8.387690e-01  0.000000e+00  5.444874e-01
    outer loop
      vertex  1.493047e+02 -1.493047e+02  7.543482e+00
      vertex  1.493047e+02  1.493047e+02  7.543482e+00
      vertex  1.490755e+02 -1.490755e+02  7.896563e+00
    endloop
  endfacet
  facet normal  8.387690e-01  -0.000000e+00  5.444874e-01
    outer loop
      vertex  1.490755e+02 -1.490755e+02  7.896563e+00
      vertex  1.493047e+02  1.493047e+02  7.543482e+00
      vertex  1.490755e+02  1.490755e+02  7.896563e+00
    endloop
  endfacet
  facet normal  7.907138e-01  0.000000e+00  6.121860e-01
    outer loop
      vertex  1.490755e+02 -1.490755e+02  7.896563e+00
      vertex  1.490755e+02  1.490755e+02  7.896563e+00
      vertex  1.488251e+02 -1.488251e+02  8.220020e+00
    endloop
  endfacet
  facet normal  7.907138e-01  -0.000000e+00  6.121860e-01
    outer loop
      vertex  1.488251e+02 -1.488251e+02  8.220020e+00
      vertex  1.490755e+02  1.490755e+02  7.896563e+00
      vertex  1.488251e+02  1.488251e+02  8.220020e+00
    endloop
  endfacet
  facet normal  7.454163e-01  0.000000e+00  6.665992e-01
    outer loop
      vertex  1.488251e+02 -1.488251e+02  8.220020e+00
      vertex  1.488251e+02  1.488251e+02  8.220020e+00
      vertex  1.486255e+02 -1.486255e+02  8.443170e+00
    endloop
  endfacet
  facet normal  7.454163e-01  -0.000000e+00  6.665992e-01
    outer loop
      vertex  1.486255e+02 -1.486255e+02  8.443170e+00
      vertex  1.488251e+02  1.488251e+02  8.220020e+00
      vertex  1.486255e+02  1.486255e+02  8.443170e+00
    endloop
  endfacet
  facet normal  7.046036e-01  0.000000e+00  7.096011e-01
    outer loop
      vertex  1.486255e+02 -1.486255e+02  8.443170e+00
      vertex  1.486255e+02  1.486255e+02  8.443170e+00
      vertex  1.484174e+02 -1.484174e+02  8.649834e+00
    endloop
  endfacet
  facet normal  7.046036e-01  -0.000000e+00  7.096012e-01
    outer loop
      vertex  1.484174e+02 -1.484174e+02  8.649834e+00
      vertex  1.486255e+02  1.486255e+02  8.443170e+00
      vertex  1.484174e+02  1.484174e+02  8.649834e+00
    endloop
  endfacet
  facet normal  6.407639e-01  0.000000e+00  7.677379e-01
    outer loop
      vertex  1.484174e+02 -1.484174e+02  8.649834e+00
      vertex  1.484174e+02  1.484174e+02  8.649834e+00
      vertex  1.479799e+02 -1.479799e+02  9.015002e+00
    endloop
  endfacet
  facet normal  6.407639e-01  -0.000000e+00  7.677379e-01
    outer loop
      vertex  1.479799e+02 -1.479799e+02  9.015002e+00
      vertex  1.484174e+02  1.484174e+02  8.649834e+00
      vertex  1.479799e+02  1.479799e+02  9.015002e+00
    endloop
  endfacet
  facet normal  5.595180e-01  0.000000e+00  8.288181e-01
    outer loop
      vertex  1.479799e+02 -1.479799e+02  9.015002e+00
      vertex  1.479799e+02  1.479799e+02  9.015002e+00
      vertex  1.476097e+02 -1.476097e+02  9.264892e+00
    endloop
  endfacet
  facet normal  5.595180e-01  -0.000000e+00  8.288182e-01
    outer loop
      vertex  1.476097e+02 -1.476097e+02  9.264892e+00
      vertex  1.479799e+02  1.479799e+02  9.015002e+00
      vertex  1.476097e+02  1.476097e+02  9.264892e+00
    endloop
  endfacet
  facet normal  4.842383e-01  0.000000e+00  8.749363e-01
    outer loop
      vertex  1.476097e+02 -1.476097e+02  9.264892e+00
      vertex  1.476097e+02  1.476097e+02  9.264892e+00
      vertex  1.472279e+02 -1.472279e+02  9.476204e+00
    endloop
  endfacet
  facet normal  4.842382e-01  -0.000000e+00  8.749363e-01
    outer loop
      vertex  1.472279e+02 -1.472279e+02  9.476204e+00
      vertex  1.476097e+02  1.476097e+02  9.264892e+00
      vertex  1.472279e+02  1.472279e+02  9.476204e+00
    endloop
  endfacet
  facet normal  4.068559e-01  0.000000e+00  9.134923e-01
    outer loop
      vertex  1.472279e+02 -1.472279e+02  9.476204e+00
      vertex  1.472279e+02  1.472279e+02  9.476204e+00
      vertex  1.468370e+02 -1.468370e+02  9.650305e+00
    endloop
  endfacet
  facet normal  4.068559e-01  -0.000000e+00  9.134924e-01
    outer loop
      vertex  1.468370e+02 -1.468370e+02  9.650305e+00
      vertex  1.472279e+02  1.472279e+02  9.476204e+00
      vertex  1.468370e+02  1.468370e+02  9.650305e+00
    endloop
  endfacet
  facet normal  3.377957e-01  0.000000e+00  9.412195e-01
    outer loop
      vertex  1.468370e+02 -1.468370e+02  9.650305e+00
      vertex  1.468370e+02  1.468370e+02  9.650305e+00
      vertex  1.465392e+02 -1.465392e+02  9.757201e+00
    endloop
  endfacet
  facet normal  3.377957e-01  -0.000000e+00  9.412194e-01
    outer loop
      vertex  1.465392e+02 -1.465392e+02  9.757201e+00
      vertex  1.468370e+02  1.468370e+02  9.650305e+00
      vertex  1.465392e+02  1.465392e+02  9.757201e+00
    endloop
  endfacet
  facet normal  2.778670e-01  0.000000e+00  9.606195e-01
    outer loop
      vertex  1.465392e+02 -1.465392e+02  9.757201e+00
      vertex  1.465392e+02  1.465392e+02  9.757201e+00
      vertex  1.462381e+02 -1.462381e+02  9.844284e+00
    endloop
  endfacet
  facet normal  2.778540e-01  1.449593e-08  9.606233e-01
    outer loop
      vertex  1.462381e+02 -1.462381e+02  9.844284e+00
      vertex  1.465392e+02  1.465392e+02  9.757201e+00
      vertex  1.462381e+02  1.462381e+02  9.844284e+00
    endloop
  endfacet
  facet normal  1.870646e-01  9.759353e-09  9.823476e-01
    outer loop
      vertex  1.462381e+02 -1.462381e+02  9.844284e+00
      vertex  1.462381e+02  1.462381e+02  9.844284e+00
      vertex  1.456290e+02 -1.456290e+02  9.960284e+00
    endloop
  endfacet
  facet normal  1.870691e-01  -0.000000e+00  9.823468e-01
    outer loop
      vertex  1.456290e+02 -1.456290e+02  9.960284e+00
      vertex  1.462381e+02  1.462381e+02  9.844284e+00
      vertex  1.456290e+02  1.456290e+02  9.960284e+00
    endloop
  endfacet
  facet normal  6.446392e-02  0.000000e+00  9.979200e-01
    outer loop
      vertex  1.456290e+02 -1.456290e+02  9.960284e+00
      vertex  1.456290e+02  1.456290e+02  9.960284e+00
      vertex  1.450145e+02 -1.450145e+02  9.999979e+00
    endloop
  endfacet
  facet normal  6.446392e-02  -0.000000e+00  9.979200e-01
    outer loop
      vertex  1.450145e+02 -1.450145e+02  9.999979e+00
      vertex  1.456290e+02  1.456290e+02  9.960284e+00
      vertex  1.450145e+02  1.450145e+02  9.999979e+00
    endloop
  endfacet
  facet normal  1.450420e-03  0.000000e+00  9.999989e-01
    outer loop
      vertex  1.450145e+02 -1.450145e+02  9.999979e+00
      vertex  1.450145e+02  1.450145e+02  9.999979e+00
      vertex  1.450000e+02  1.450000e+02  1.000000e+01
    endloop
  endfacet
  facet normal  0.000000e+00  1.450420e-03  9.999990e-01
    outer loop
      vertex -1.450000e+02  1.450000e+02  1.000000e+01
      vertex  1.450000e+02  1.450000e+02  1.000000e+01
      vertex  1.450145e+02  1.450145e+02  9.999979e+00
    endloop
  endfacet
  facet normal  -0.000000e+00  9.992633e-01  3.838005e-02
    outer loop
      vertex  1.500000e+02  1.500000e+02  5.000000e+00
      vertex -1.500000e+02  1.500000e+02  5.000000e+00
      vertex  1.499853e+02  1.499853e+02  5.383373e+00
    endloop
  endfacet
  facet normal  0.000000e+00  9.992632e-01  3.838005e-02
    outer loop
      vertex  1.499853e+02  1.499853e+02  5.383373e+00
      vertex -1.500000e+02  1.500000e+02  5.000000e+00
      vertex -1.499853e+02  1.499853e+02  5.383373e+00
    endloop
  endfacet
  facet normal  -0.000000e+00  9.934083e-01  1.146298e-01
    outer loop
      vertex  1.499853e+02  1.499853e+02  5.383373e+00
      vertex -1.499853e+02  1.499853e+02  5.383373e+00
      vertex  1.499416e+02  1.499416e+02  5.762230e+00
    endloop
  endfacet
  facet normal  0.000000e+00  9.934083e-01  1.146298e-01
    outer loop
      vertex  1.499416e+02  1.499416e+02  5.762230e+00
      vertex -1.499853e+02  1.499853e+02  5.383373e+00
      vertex -1.499416e+02  1.499416e+02  5.762230e+00
    endloop
  endfacet
  facet normal  -0.000000e+00  9.818627e-01  1.895938e-01
    outer loop
      vertex  1.499416e+02  1.499416e+02  5.762230e+00
      vertex -1.499416e+02  1.499416e+02  5.762230e+00
      vertex  1.498700e+02  1.498701e+02  6.132526e+00
    endloop
  endfacet
  facet normal -4.998303e-08  9.818551e-01  1.896328e-01
    outer loop
      vertex  1.498700e+02  1.498701e+02  6.132526e+00
      vertex -1.499416e+02  1.499416e+02  5.762230e+00
      vertex -1.498701e+02  1.498700e+02  6.132526e+00
    endloop
  endfacet
  facet normal -4.924210e-08  9.673004e-01  2.536334e-01
    outer loop
      vertex  1.498700e+02  1.498701e+02  6.132526e+00
      vertex -1.498701e+02  1.498700e+02  6.132526e+00
      vertex  1.497993e+02  1.497993e+02  6.402544e+00
    endloop
  endfacet
  facet normal  0.000000e+00  9.673138e-01  2.535823e-01
    outer loop
      vertex  1.497993e+02  1.497993e+02  6.402544e+00
      vertex -1.498701e+02  1.498700e+02  6.132526e+00
      vertex -1.497993e+02  1.497993e+02  6.402544e+00
    endloop
  endfacet
  facet normal  -0.000000e+00  9.517619e-01  3.068375e-01
    outer loop
      vertex  1.497993e+02  1.497993e+02  6.402544e+00
      vertex -1.497993e+02  1.497993e+02  6.402544e+00
      vertex  1.497148e+02  1.497148e+02  6.664612e+00
    endloop
  endfacet
  facet normal  0.000000e+00  9.517619e-01  3.068375e-01
    outer loop
      vertex  1.497148e+02  1.497148e+02  6.664612e+00
      vertex -1.497993e+02  1.497993e+02  6.402544e+00
      vertex -1.497148e+02  1.497148e+02  6.664612e+00
    endloop
  endfacet
  facet normal  -0.000000e+00  9.335905e-01  3.583418e-01
    outer loop
      vertex  1.497148e+02  1.497148e+02  6.664612e+00
      vertex -1.497148e+02  1.497148e+02  6.664612e+00
      vertex  1.496176e+02  1.496176e+02  6.917765e+00
    endloop
  endfacet
  facet normal  0.000000e+00  9.335904e-01  3.583418e-01
    outer loop
      vertex  1.496176e+02  1.496176e+02  6.917765e+00
      vertex -1.497148e+02  1.497148e+02  6.664612e+00
      vertex -1.496176e+02  1.496176e+02  6.917765e+00
    endloop
  endfacet
  facet normal  -0.000000e+00  9.129478e-01  4.080763e-01
    outer loop
      vertex  1.496176e+02  1.496176e+02  6.917765e+00
      vertex -1.496176e+02  1.496176e+02  6.917765e+00
      vertex  1.495088e+02  1.495088e+02  7.161263e+00
    endloop
  endfacet
  facet normal  0.000000e+00  9.129478e-01  4.080763e-01
    outer loop
      vertex  1.495088e+02  1.495088e+02  7.161263e+00
      vertex -1.496176e+02  1.496176e+02  6.917765e+00
      vertex -1.495088e+02  1.495088e+02  7.161263e+00
    endloop
  endfacet
  facet normal  -0.000000e+00  8.821850e-01  4.709031e-01
    outer loop
      vertex  1.495088e+02  1.495088e+02  7.161263e+00
      vertex -1.495088e+02  1.495088e+02  7.161263e+00
      vertex  1.493047e+02  1.493047e+02  7.543482e+00
    endloop
  endfacet
  facet normal  0.000000e+00  8.821850e-01  4.709031e-01
    outer loop
      vertex  1.493047e+02  1.493047e+02  7.543482e+00
      vertex -1.495088e+02  1.495088e+02  7.161263e+00
      vertex -1.493047e+02  1.493047e+02  7.543482e+00
    endloop
  endfacet
  facet normal  -0.000000e+00  8.387690e-01  5.444874e-01
    outer loop
      vertex  1.493047e+02  1.493047e+02  7.543482e+00
      vertex -1.493047e+02  1.493047e+02  7.543482e+00
      vertex  1.490755e+02  1.490755e+02  7.896563e+00
    endloop
  endfacet
  facet normal  0.000000e+00  8.387690e-01  5.444874e-01
    outer loop
      vertex  1.490755e+02  1.490755e+02  7.896563e+00
      vertex -1.493047e+02  1.493047e+02  7.543482e+00
      vertex -1.490755e+02  1.490755e+02  7.896563e+00
    endloop
  endfacet
  facet normal  -0.000000e+00  7.907138e-01  6.121860e-01
    outer loop
      vertex  1.490755e+02  1.490755e+02  7.896563e+00
      vertex -1.490755e+02  1.490755e+02  7.896563e+00
      vertex  1.488251e+02  1.488251e+02  8.220020e+00
    endloop
  endfacet
  facet normal  0.000000e+00  7.907138e-01  6.121860e-01
    outer loop
      vertex  1.488251e+02  1.488251e+02  8.220020e+00
      vertex -1.490755e+02  1.490755e+02  7.896563e+00
      vertex -1.488251e+02  1.488251e+02  8.220020e+00
    endloop
  endfacet
  facet normal  -0.000000e+00  7.454163e-01  6.665992e-01
    outer loop
      vertex  1.488251e+02  1.488251e+02  8.220020e+00
      vertex -1.488251e+02  1.488251e+02  8.220020e+00
      vertex  1.486255e+02  1.486255e+02  8.443170e+00
    endloop
  endfacet
  facet normal  0.000000e+00  7.454163e-01  6.665992e-01
    outer loop
      vertex  1.486255e+02  1.486255e+02  8.443170e+00
      vertex -1.488251e+02  1.488251e+02  8.220020e+00
      vertex -1.486255e+02  1.486255e+02  8.443170e+00
    endloop
  endfacet
  facet normal  -0.000000e+00  7.046036e-01  7.096011e-01
    outer loop
      vertex  1.486255e+02  1.486255e+02  8.443170e+00
      vertex -1.486255e+02  1.486255e+02  8.443170e+00
      vertex  1.484174e+02  1.484174e+02  8.649834e+00
    endloop
  endfacet
  facet normal  0.000000e+00  7.046036e-01  7.096012e-01
    outer loop
      vertex  1.484174e+02  1.484174e+02  8.649834e+00
      vertex -1.486255e+02  1.486255e+02  8.443170e+00
      vertex -1.484174e+02  1.484174e+02  8.649834e+00
    endloop
  endfacet
  facet normal  -0.000000e+00  6.407639e-01  7.677379e-01
    outer loop
      vertex  1.484174e+02  1.484174e+02  8.649834e+00
      vertex -1.484174e+02  1.484174e+02  8.649834e+00
      vertex  1.479799e+02  1.479799e+02  9.015002e+00
    endloop
  endfacet
  facet normal  0.000000e+00  6.407639e-01  7.677379e-01
    outer loop
      vertex  1.479799e+02  1.479799e+02  9.015002e+00
      vertex -1.484174e+02  1.484174e+02  8.649834e+00
      vertex -1.479799e+02  1.479799e+02  9.015002e+00
    endloop
  endfacet
  facet normal  -0.000000e+00  5.595180e-01  8.288181e-01
    outer loop
      vertex  1.479799e+02  1.479799e+02  9.015002e+00
      vertex -1.479799e+02  1.479799e+02  9.015002e+00
      vertex  1.476097e+02  1.476097e+02  9.264892e+00
    endloop
  endfacet
  facet normal  0.000000e+00  5.595180e-01  8.288182e-01
    outer loop
      vertex  1.476097e+02  1.476097e+02  9.264892e+00
      vertex -1.479799e+02  1.479799e+02  9.015002e+00
      vertex -1.476097e+02  1.476097e+02  9.264892e+00
    endloop
  endfacet
  facet normal  -0.000000e+00  4.842383e-01  8.749363e-01
    outer loop
      vertex  1.476097e+02  1.476097e+02  9.264892e+00
      vertex -1.476097e+02  1.476097e+02  9.264892e+00
      vertex  1.472279e+02  1.472279e+02  9.476204e+00
    endloop
  endfacet
  facet normal  0.000000e+00  4.842382e-01  8.749363e-01
    outer loop
      vertex  1.472279e+02  1.472279e+02  9.476204e+00
      vertex -1.476097e+02  1.476097e+02  9.264892e+00
      vertex -1.472279e+02  1.472279e+02  9.476204e+00
    endloop
  endfacet
  facet normal  -0.000000e+00  4.068559e-01  9.134923e-01
    outer loop
      vertex  1.472279e+02  1.472279e+02  9.476204e+00
      vertex -1.472279e+02  1.472279e+02  9.476204e+00
      vertex  1.468370e+02  1.468370e+02  9.650305e+00
    endloop
  endfacet
  facet normal  0.000000e+00  4.068559e-01  9.134924e-01
    outer loop
      vertex  1.468370e+02  1.468370e+02  9.650305e+00
      vertex -1.472279e+02  1.472279e+02  9.476204e+00
      vertex -1.468370e+02  1.468370e+02  9.650305e+00
    endloop
  endfacet
  facet normal  -0.000000e+00  3.377957e-01  9.412195e-01
    outer loop
      vertex  1.468370e+02  1.468370e+02  9.650305e+00
      vertex -1.468370e+02  1.468370e+02  9.650305e+00
      vertex  1.465392e+02  1.465392e+02  9.757201e+00
    endloop
  endfacet
  facet normal  0.000000e+00  3.377957e-01  9.412194e-01
    outer loop
      vertex  1.465392e+02  1.465392e+02  9.757201e+00
      vertex -1.468370e+02  1.468370e+02  9.650305e+00
      vertex -1.465392e+02  1.465392e+02  9.757201e+00
    endloop
  endfacet
  facet normal  -0.000000e+00  2.778670e-01  9.606195e-01
    outer loop
      vertex  1.465392e+02  1.465392e+02  9.757201e+00
      vertex -1.465392e+02  1.465392e+02  9.757201e+00
      vertex  1.462381e+02  1.462381e+02  9.844284e+00
    endloop
  endfacet
  facet normal -1.449593e-08  2.778540e-01  9.606233e-01
    outer loop
      vertex  1.462381e+02  1.462381e+02  9.844284e+00
      vertex -1.465392e+02  1.465392e+02  9.757201e+00
      vertex -1.462381e+02  1.462381e+02  9.844284e+00
    endloop
  endfacet
  facet normal -9.759353e-09  1.870646e-01  9.823476e-01
    outer loop
      vertex  1.462381e+02  1.462381e+02  9.844284e+00
      vertex -1.462381e+02  1.462381e+02  9.844284e+00
      vertex  1.456290e+02  1.456290e+02  9.960284e+00
    endloop
  endfacet
  facet normal  0.000000e+00  1.870691e-01  9.823468e-01
    outer loop
      vertex  1.456290e+02  1.456290e+02  9.960284e+00
      vertex -1.462381e+02  1.462381e+02  9.844284e+00
      vertex -1.456290e+02  1.456290e+02  9.960284e+00
    endloop
  endfacet
  facet normal  -0.000000e+00  6.446392e-02  9.979200e-01
    outer loop
      vertex  1.456290e+02  1.456290e+02  9.960284e+00
      vertex -1.456290e+02  1.456290e+02  9.960284e+00
      vertex  1.450145e+02  1.450145e+02  9.999979e+00
    endloop
  endfacet
  facet normal  0.000000e+00  6.446392e-02  9.979200e-01
    outer loop
      vertex  1.450145e+02  1.450145e+02  9.999979e+00
      vertex -1.456290e+02  1.456290e+02  9.960284e+00
      vertex -1.450145e+02  1.450145e+02  9.999979e+00
    endloop
  endfacet
  facet normal  -0.000000e+00  1.450420e-03  9.999989e-01
    outer loop
      vertex  1.450145e+02  1.450145e+02  9.999979e+00
      vertex -1.450145e+02  1.450145e+02  9.999979e+00
      vertex -1.450000e+02  1.450000e+02  1.000000e+01
    endloop
  endfacet
  facet normal  -0.000000e+00  0.000000e+00 -1.000000e+00
    outer loop
      vertex -1.500000e+02  1.500000e+02  0.000000e+00
      vertex  1.500000e+02  1.500000e+02  0.000000e+00
      vertex -1.500000e+02 -1.500000e+02  0.000000e+00
    endloop
  endfacet
  facet normal  0.000000e+00  0.000000e+00 -1.000000e+00
    outer loop
      vertex -1.500000e+02 -1.500000e+02  0.000000e+00
      vertex  1.500000e+02  1.500000e+02  0.000000e+00
      vertex  1.500000e+02 -1.500000e+02  0.000000e+00
    endloop
  endfacet
endsolid CATIA STL
