solid CATIA STL
  facet normal  0.000000e+00  0.000000e+00  1.000000e+00
    outer loop
      vertex -4.500000e+01 -9.500000e+01  1.000000e+01
      vertex  4.500000e+01 -9.500000e+01  1.000000e+01
      vertex -4.500000e+01  9.500000e+01  1.000000e+01
    endloop
  endfacet
  facet normal  -0.000000e+00  0.000000e+00  1.000000e+00
    outer loop
      vertex -4.500000e+01  9.500000e+01  1.000000e+01
      vertex  4.500000e+01 -9.500000e+01  1.000000e+01
      vertex  4.500000e+01  9.500000e+01  1.000000e+01
    endloop
  endfacet
  facet normal  0.000000e+00 -1.000000e+00  0.000000e+00
    outer loop
      vertex  5.000000e+01 -1.000000e+02  5.000000e+00
      vertex -5.000000e+01 -1.000000e+02  5.000000e+00
      vertex  5.000000e+01 -1.000000e+02  0.000000e+00
    endloop
  endfacet
  facet normal  0.000000e+00 -1.000000e+00  0.000000e+00
    outer loop
      vertex  5.000000e+01 -1.000000e+02  0.000000e+00
      vertex -5.000000e+01 -1.000000e+02  5.000000e+00
      vertex -5.000000e+01 -1.000000e+02  0.000000e+00
    endloop
  endfacet
  facet normal  1.000000e+00  -0.000000e+00  0.000000e+00
    outer loop
      vertex  5.000000e+01  1.000000e+02  5.000000e+00
      vertex  5.000000e+01 -1.000000e+02  5.000000e+00
      vertex  5.000000e+01  1.000000e+02  0.000000e+00
    endloop
  endfacet
  facet normal  1.000000e+00  0.000000e+00  0.000000e+00
    outer loop
      vertex  5.000000e+01  1.000000e+02  0.000000e+00
      vertex  5.000000e+01 -1.000000e+02  5.000000e+00
      vertex  5.000000e+01 -1.000000e+02  0.000000e+00
    endloop
  endfacet
  facet normal  0.000000e+00  1.000000e+00  0.000000e+00
    outer loop
      vertex -5.000000e+01  1.000000e+02  5.000000e+00
      vertex  5.000000e+01  1.000000e+02  5.000000e+00
      vertex -5.000000e+01  1.000000e+02  0.000000e+00
    endloop
  endfacet
  facet normal  0.000000e+00  1.000000e+00  0.000000e+00
    outer loop
      vertex -5.000000e+01  1.000000e+02  0.000000e+00
      vertex  5.000000e+01  1.000000e+02  5.000000e+00
      vertex  5.000000e+01  1.000000e+02  0.000000e+00
    endloop
  endfacet
  facet normal -1.000000e+00  -0.000000e+00  0.000000e+00
    outer loop
      vertex -5.000000e+01 -1.000000e+02  5.000000e+00
      vertex -5.000000e+01  1.000000e+02  5.000000e+00
      vertex -5.000000e+01 -1.000000e+02  0.000000e+00
    endloop
  endfacet
  facet normal -1.000000e+00  0.000000e+00  0.000000e+00
    outer loop
      vertex -5.000000e+01 -1.000000e+02  0.000000e+00
      vertex -5.000000e+01  1.000000e+02  5.000000e+00
      vertex -5.000000e+01  1.000000e+02  0.000000e+00
    endloop
  endfacet
  facet normal -1.450420e-03  0.000000e+00  9.999989e-01
    outer loop
      vertex -4.500000e+01 -9.500000e+01  1.000000e+01
      vertex -4.500000e+01  9.500000e+01  1.000000e+01
      vertex -4.501447e+01 -9.501447e+01  9.999979e+00
    endloop
  endfacet
  facet normal -1.450421e-03  0.000000e+00  9.999990e-01
    outer loop
      vertex -4.501447e+01 -9.501447e+01  9.999979e+00
      vertex -4.500000e+01  9.500000e+01  1.000000e+01
      vertex -4.501447e+01  9.501447e+01  9.999979e+00
    endloop
  endfacet
  facet normal -6.446432e-02  0.000000e+00  9.979200e-01
    outer loop
      vertex -4.501447e+01 -9.501447e+01  9.999979e+00
      vertex -4.501447e+01  9.501447e+01  9.999979e+00
      vertex -4.562895e+01 -9.562895e+01  9.960284e+00
    endloop
  endfacet
  facet normal -6.446393e-02 -1.285753e-09  9.979200e-01
    outer loop
      vertex -4.562895e+01 -9.562895e+01  9.960284e+00
      vertex -4.501447e+01  9.501447e+01  9.999979e+00
      vertex -4.562895e+01  9.562894e+01  9.960284e+00
    endloop
  endfacet
  facet normal -1.870657e-01 -3.731082e-09  9.823474e-01
    outer loop
      vertex -4.562895e+01 -9.562895e+01  9.960284e+00
      vertex -4.562895e+01  9.562894e+01  9.960284e+00
      vertex -4.623811e+01 -9.623811e+01  9.844284e+00
    endloop
  endfacet
  facet normal -1.870657e-01 -3.707466e-09  9.823474e-01
    outer loop
      vertex -4.623811e+01 -9.623811e+01  9.844284e+00
      vertex -4.562895e+01  9.562894e+01  9.960284e+00
      vertex -4.623811e+01  9.623811e+01  9.844284e+00
    endloop
  endfacet
  facet normal -2.778637e-01 -5.506997e-09  9.606205e-01
    outer loop
      vertex -4.623811e+01 -9.623811e+01  9.844284e+00
      vertex -4.623811e+01  9.623811e+01  9.844284e+00
      vertex -4.653917e+01 -9.653917e+01  9.757201e+00
    endloop
  endfacet
  facet normal -2.778670e-01  0.000000e+00  9.606195e-01
    outer loop
      vertex -4.653917e+01 -9.653917e+01  9.757201e+00
      vertex -4.623811e+01  9.623811e+01  9.844284e+00
      vertex -4.653917e+01  9.653917e+01  9.757201e+00
    endloop
  endfacet
  facet normal -3.377842e-01  0.000000e+00  9.412236e-01
    outer loop
      vertex -4.653917e+01 -9.653917e+01  9.757201e+00
      vertex -4.653917e+01  9.653917e+01  9.757201e+00
      vertex -4.683703e+01 -9.683703e+01  9.650305e+00
    endloop
  endfacet
  facet normal -3.377880e-01  6.653235e-09  9.412222e-01
    outer loop
      vertex -4.683703e+01 -9.683703e+01  9.650305e+00
      vertex -4.653917e+01  9.653917e+01  9.757201e+00
      vertex -4.683702e+01  9.683703e+01  9.650305e+00
    endloop
  endfacet
  facet normal -4.068658e-01  8.013825e-09  9.134879e-01
    outer loop
      vertex -4.683703e+01 -9.683703e+01  9.650305e+00
      vertex -4.683702e+01  9.683703e+01  9.650305e+00
      vertex -4.722792e+01 -9.722791e+01  9.476204e+00
    endloop
  endfacet
  facet normal -4.068658e-01  7.981606e-09  9.134880e-01
    outer loop
      vertex -4.722792e+01 -9.722791e+01  9.476204e+00
      vertex -4.683702e+01  9.683703e+01  9.650305e+00
      vertex -4.722791e+01  9.722792e+01  9.476204e+00
    endloop
  endfacet
  facet normal -4.842271e-01  9.499225e-09  8.749423e-01
    outer loop
      vertex -4.722792e+01 -9.722791e+01  9.476204e+00
      vertex -4.722791e+01  9.722792e+01  9.476204e+00
      vertex -4.760973e+01 -9.760973e+01  9.264892e+00
    endloop
  endfacet
  facet normal -4.842271e-01  9.462068e-09  8.749424e-01
    outer loop
      vertex -4.760973e+01 -9.760973e+01  9.264892e+00
      vertex -4.722791e+01  9.722792e+01  9.476204e+00
      vertex -4.760973e+01  9.760973e+01  9.264892e+00
    endloop
  endfacet
  facet normal -5.595220e-01  1.093337e-08  8.288155e-01
    outer loop
      vertex -4.760973e+01 -9.760973e+01  9.264892e+00
      vertex -4.760973e+01  9.760973e+01  9.264892e+00
      vertex -4.797989e+01 -9.797989e+01  9.015002e+00
    endloop
  endfacet
  facet normal -5.595180e-01  0.000000e+00  8.288182e-01
    outer loop
      vertex -4.797989e+01 -9.797989e+01  9.015002e+00
      vertex -4.760973e+01  9.760973e+01  9.264892e+00
      vertex -4.797989e+01  9.797989e+01  9.015002e+00
    endloop
  endfacet
  facet normal -6.407706e-01  0.000000e+00  7.677325e-01
    outer loop
      vertex -4.797989e+01 -9.797989e+01  9.015002e+00
      vertex -4.797989e+01  9.797989e+01  9.015002e+00
      vertex -4.841742e+01 -9.841741e+01  8.649834e+00
    endloop
  endfacet
  facet normal -6.407738e-01  1.241832e-08  7.677297e-01
    outer loop
      vertex -4.841742e+01 -9.841741e+01  8.649834e+00
      vertex -4.797989e+01  9.797989e+01  9.015002e+00
      vertex -4.841741e+01  9.841741e+01  8.649834e+00
    endloop
  endfacet
  facet normal -7.046036e-01  1.365536e-08  7.096011e-01
    outer loop
      vertex -4.841742e+01 -9.841741e+01  8.649834e+00
      vertex -4.841741e+01  9.841741e+01  8.649834e+00
      vertex -4.862555e+01 -9.862555e+01  8.443170e+00
    endloop
  endfacet
  facet normal -7.045971e-01  0.000000e+00  7.096076e-01
    outer loop
      vertex -4.862555e+01 -9.862555e+01  8.443170e+00
      vertex -4.841741e+01  9.841741e+01  8.649834e+00
      vertex -4.862555e+01  9.862555e+01  8.443170e+00
    endloop
  endfacet
  facet normal -7.453973e-01  0.000000e+00  6.666204e-01
    outer loop
      vertex -4.862555e+01 -9.862555e+01  8.443170e+00
      vertex -4.862555e+01  9.862555e+01  8.443170e+00
      vertex -4.882511e+01 -9.882511e+01  8.220020e+00
    endloop
  endfacet
  facet normal -7.453973e-01  0.000000e+00  6.666204e-01
    outer loop
      vertex -4.882511e+01 -9.882511e+01  8.220020e+00
      vertex -4.862555e+01  9.862555e+01  8.443170e+00
      vertex -4.882511e+01  9.882511e+01  8.220020e+00
    endloop
  endfacet
  facet normal -7.907273e-01  0.000000e+00  6.121684e-01
    outer loop
      vertex -4.882511e+01 -9.882511e+01  8.220020e+00
      vertex -4.882511e+01  9.882511e+01  8.220020e+00
      vertex -4.907553e+01 -9.907553e+01  7.896563e+00
    endloop
  endfacet
  facet normal -7.907273e-01  0.000000e+00  6.121684e-01
    outer loop
      vertex -4.907553e+01 -9.907553e+01  7.896563e+00
      vertex -4.882511e+01  9.882511e+01  8.220020e+00
      vertex -4.907553e+01  9.907552e+01  7.896563e+00
    endloop
  endfacet
  facet normal -8.387690e-01  0.000000e+00  5.444874e-01
    outer loop
      vertex -4.907553e+01 -9.907553e+01  7.896563e+00
      vertex -4.907553e+01  9.907552e+01  7.896563e+00
      vertex -4.930473e+01 -9.930473e+01  7.543482e+00
    endloop
  endfacet
  facet normal -8.387691e-01  0.000000e+00  5.444874e-01
    outer loop
      vertex -4.930473e+01 -9.930473e+01  7.543482e+00
      vertex -4.907553e+01  9.907552e+01  7.896563e+00
      vertex -4.930473e+01  9.930473e+01  7.543482e+00
    endloop
  endfacet
  facet normal -8.821777e-01  0.000000e+00  4.709168e-01
    outer loop
      vertex -4.930473e+01 -9.930473e+01  7.543482e+00
      vertex -4.930473e+01  9.930473e+01  7.543482e+00
      vertex -4.950876e+01 -9.950877e+01  7.161263e+00
    endloop
  endfacet
  facet normal -8.821777e-01  0.000000e+00  4.709168e-01
    outer loop
      vertex -4.950876e+01 -9.950877e+01  7.161263e+00
      vertex -4.930473e+01  9.930473e+01  7.543482e+00
      vertex -4.950876e+01  9.950877e+01  7.161263e+00
    endloop
  endfacet
  facet normal -9.129584e-01  0.000000e+00  4.080525e-01
    outer loop
      vertex -4.950876e+01 -9.950877e+01  7.161263e+00
      vertex -4.950876e+01  9.950877e+01  7.161263e+00
      vertex -4.961760e+01 -9.961759e+01  6.917765e+00
    endloop
  endfacet
  facet normal -9.129584e-01  0.000000e+00  4.080525e-01
    outer loop
      vertex -4.961760e+01 -9.961759e+01  6.917765e+00
      vertex -4.950876e+01  9.950877e+01  7.161263e+00
      vertex -4.961760e+01  9.961759e+01  6.917765e+00
    endloop
  endfacet
  facet normal -9.335811e-01  0.000000e+00  3.583664e-01
    outer loop
      vertex -4.961760e+01 -9.961759e+01  6.917765e+00
      vertex -4.961760e+01  9.961759e+01  6.917765e+00
      vertex -4.971477e+01 -9.971477e+01  6.664612e+00
    endloop
  endfacet
  facet normal -9.335810e-01  0.000000e+00  3.583663e-01
    outer loop
      vertex -4.971477e+01 -9.971477e+01  6.664612e+00
      vertex -4.961760e+01  9.961759e+01  6.917765e+00
      vertex -4.971477e+01  9.971477e+01  6.664612e+00
    endloop
  endfacet
  facet normal -9.517659e-01  0.000000e+00  3.068250e-01
    outer loop
      vertex -4.971477e+01 -9.971477e+01  6.664612e+00
      vertex -4.971477e+01  9.971477e+01  6.664612e+00
      vertex -4.979926e+01 -9.979926e+01  6.402544e+00
    endloop
  endfacet
  facet normal -9.517620e-01 -1.818993e-08  3.068375e-01
    outer loop
      vertex -4.979926e+01 -9.979926e+01  6.402544e+00
      vertex -4.971477e+01  9.971477e+01  6.664612e+00
      vertex -4.979926e+01  9.979926e+01  6.402544e+00
    endloop
  endfacet
  facet normal -9.673104e-01 -1.848709e-08  2.535951e-01
    outer loop
      vertex -4.979926e+01 -9.979926e+01  6.402544e+00
      vertex -4.979926e+01  9.979926e+01  6.402544e+00
      vertex -4.987004e+01 -9.987005e+01  6.132526e+00
    endloop
  endfacet
  facet normal -9.673104e-01 -1.847399e-08  2.535951e-01
    outer loop
      vertex -4.987004e+01 -9.987005e+01  6.132526e+00
      vertex -4.979926e+01  9.979926e+01  6.402544e+00
      vertex -4.987005e+01  9.987005e+01  6.132526e+00
    endloop
  endfacet
  facet normal -9.818588e-01 -1.875184e-08  1.896133e-01
    outer loop
      vertex -4.987004e+01 -9.987005e+01  6.132526e+00
      vertex -4.987005e+01  9.987005e+01  6.132526e+00
      vertex -4.994156e+01 -9.994156e+01  5.762230e+00
    endloop
  endfacet
  facet normal -9.818588e-01 -1.873842e-08  1.896133e-01
    outer loop
      vertex -4.994156e+01 -9.994156e+01  5.762230e+00
      vertex -4.987005e+01  9.987005e+01  6.132526e+00
      vertex -4.994156e+01  9.994155e+01  5.762230e+00
    endloop
  endfacet
  facet normal -9.934060e-01 -1.895880e-08  1.146495e-01
    outer loop
      vertex -4.994156e+01 -9.994156e+01  5.762230e+00
      vertex -4.994156e+01  9.994155e+01  5.762230e+00
      vertex -4.998528e+01 -9.998528e+01  5.383373e+00
    endloop
  endfacet
  facet normal -9.934071e-01  0.000000e+00  1.146397e-01
    outer loop
      vertex -4.998528e+01 -9.998528e+01  5.383373e+00
      vertex -4.994156e+01  9.994155e+01  5.762230e+00
      vertex -4.998528e+01  9.998528e+01  5.383373e+00
    endloop
  endfacet
  facet normal -9.992636e-01  0.000000e+00  3.837012e-02
    outer loop
      vertex -4.998528e+01 -9.998528e+01  5.383373e+00
      vertex -4.998528e+01  9.998528e+01  5.383373e+00
      vertex -5.000000e+01 -1.000000e+02  5.000000e+00
    endloop
  endfacet
  facet normal -9.992635e-01  0.000000e+00  3.837011e-02
    outer loop
      vertex -5.000000e+01 -1.000000e+02  5.000000e+00
      vertex -4.998528e+01  9.998528e+01  5.383373e+00
      vertex -5.000000e+01  1.000000e+02  5.000000e+00
    endloop
  endfacet
  facet normal  0.000000e+00 -1.450420e-03  9.999989e-01
    outer loop
      vertex  4.500000e+01 -9.500000e+01  1.000000e+01
      vertex -4.500000e+01 -9.500000e+01  1.000000e+01
      vertex  4.501447e+01 -9.501447e+01  9.999979e+00
    endloop
  endfacet
  facet normal  0.000000e+00 -1.450420e-03  9.999990e-01
    outer loop
      vertex  4.501447e+01 -9.501447e+01  9.999979e+00
      vertex -4.500000e+01 -9.500000e+01  1.000000e+01
      vertex -4.501447e+01 -9.501447e+01  9.999979e+00
    endloop
  endfacet
  facet normal  0.000000e+00 -6.446473e-02  9.979200e-01
    outer loop
      vertex  4.501447e+01 -9.501447e+01  9.999979e+00
      vertex -4.501447e+01 -9.501447e+01  9.999979e+00
      vertex  4.562895e+01 -9.562894e+01  9.960284e+00
    endloop
  endfacet
  facet normal  5.389349e-09 -6.446392e-02  9.979200e-01
    outer loop
      vertex  4.562895e+01 -9.562894e+01  9.960284e+00
      vertex -4.501447e+01 -9.501447e+01  9.999979e+00
      vertex -4.562895e+01 -9.562895e+01  9.960284e+00
    endloop
  endfacet
  facet normal  1.563907e-08 -1.870645e-01  9.823476e-01
    outer loop
      vertex  4.562895e+01 -9.562894e+01  9.960284e+00
      vertex -4.562895e+01 -9.562895e+01  9.960284e+00
      vertex  4.623811e+01 -9.623811e+01  9.844284e+00
    endloop
  endfacet
  facet normal  0.000000e+00 -1.870668e-01  9.823472e-01
    outer loop
      vertex  4.623811e+01 -9.623811e+01  9.844284e+00
      vertex -4.562895e+01 -9.562895e+01  9.960284e+00
      vertex -4.623811e+01 -9.623811e+01  9.844284e+00
    endloop
  endfacet
  facet normal  0.000000e+00 -2.778605e-01  9.606215e-01
    outer loop
      vertex  4.623811e+01 -9.623811e+01  9.844284e+00
      vertex -4.623811e+01 -9.623811e+01  9.844284e+00
      vertex  4.653917e+01 -9.653917e+01  9.757201e+00
    endloop
  endfacet
  facet normal  0.000000e+00 -2.778605e-01  9.606215e-01
    outer loop
      vertex  4.653917e+01 -9.653917e+01  9.757201e+00
      vertex -4.623811e+01 -9.623811e+01  9.844284e+00
      vertex -4.653917e+01 -9.653917e+01  9.757201e+00
    endloop
  endfacet
  facet normal  0.000000e+00 -3.377880e-01  9.412223e-01
    outer loop
      vertex  4.653917e+01 -9.653917e+01  9.757201e+00
      vertex -4.653917e+01 -9.653917e+01  9.757201e+00
      vertex  4.683702e+01 -9.683703e+01  9.650305e+00
    endloop
  endfacet
  facet normal  0.000000e+00 -3.377880e-01  9.412223e-01
    outer loop
      vertex  4.683702e+01 -9.683703e+01  9.650305e+00
      vertex -4.653917e+01 -9.653917e+01  9.757201e+00
      vertex -4.683703e+01 -9.683703e+01  9.650305e+00
    endloop
  endfacet
  facet normal  0.000000e+00 -4.068625e-01  9.134895e-01
    outer loop
      vertex  4.683702e+01 -9.683703e+01  9.650305e+00
      vertex -4.683703e+01 -9.683703e+01  9.650305e+00
      vertex  4.722791e+01 -9.722792e+01  9.476204e+00
    endloop
  endfacet
  facet normal -3.286367e-08 -4.068691e-01  9.134865e-01
    outer loop
      vertex  4.722791e+01 -9.722792e+01  9.476204e+00
      vertex -4.683703e+01 -9.683703e+01  9.650305e+00
      vertex -4.722792e+01 -9.722791e+01  9.476204e+00
    endloop
  endfacet
  facet normal -3.911234e-08 -4.842308e-01  8.749403e-01
    outer loop
      vertex  4.722791e+01 -9.722792e+01  9.476204e+00
      vertex -4.722792e+01 -9.722791e+01  9.476204e+00
      vertex  4.760973e+01 -9.760973e+01  9.264892e+00
    endloop
  endfacet
  facet normal  0.000000e+00 -4.842234e-01  8.749444e-01
    outer loop
      vertex  4.760973e+01 -9.760973e+01  9.264892e+00
      vertex -4.722792e+01 -9.722791e+01  9.476204e+00
      vertex -4.760973e+01 -9.760973e+01  9.264892e+00
    endloop
  endfacet
  facet normal  0.000000e+00 -5.595259e-01  8.288128e-01
    outer loop
      vertex  4.760973e+01 -9.760973e+01  9.264892e+00
      vertex -4.760973e+01 -9.760973e+01  9.264892e+00
      vertex  4.797989e+01 -9.797989e+01  9.015002e+00
    endloop
  endfacet
  facet normal  0.000000e+00 -5.595259e-01  8.288128e-01
    outer loop
      vertex  4.797989e+01 -9.797989e+01  9.015002e+00
      vertex -4.760973e+01 -9.760973e+01  9.264892e+00
      vertex -4.797989e+01 -9.797989e+01  9.015002e+00
    endloop
  endfacet
  facet normal  0.000000e+00 -6.407706e-01  7.677326e-01
    outer loop
      vertex  4.797989e+01 -9.797989e+01  9.015002e+00
      vertex -4.797989e+01 -9.797989e+01  9.015002e+00
      vertex  4.841741e+01 -9.841741e+01  8.649834e+00
    endloop
  endfacet
  facet normal  0.000000e+00 -6.407706e-01  7.677324e-01
    outer loop
      vertex  4.841741e+01 -9.841741e+01  8.649834e+00
      vertex -4.797989e+01 -9.797989e+01  9.015002e+00
      vertex -4.841742e+01 -9.841741e+01  8.649834e+00
    endloop
  endfacet
  facet normal  0.000000e+00 -7.045906e-01  7.096140e-01
    outer loop
      vertex  4.841741e+01 -9.841741e+01  8.649834e+00
      vertex -4.841742e+01 -9.841741e+01  8.649834e+00
      vertex  4.862555e+01 -9.862555e+01  8.443170e+00
    endloop
  endfacet
  facet normal  0.000000e+00 -7.045906e-01  7.096140e-01
    outer loop
      vertex  4.862555e+01 -9.862555e+01  8.443170e+00
      vertex -4.841742e+01 -9.841741e+01  8.649834e+00
      vertex -4.862555e+01 -9.862555e+01  8.443170e+00
    endloop
  endfacet
  facet normal  0.000000e+00 -7.454036e-01  6.666133e-01
    outer loop
      vertex  4.862555e+01 -9.862555e+01  8.443170e+00
      vertex -4.862555e+01 -9.862555e+01  8.443170e+00
      vertex  4.882511e+01 -9.882511e+01  8.220020e+00
    endloop
  endfacet
  facet normal  0.000000e+00 -7.454036e-01  6.666134e-01
    outer loop
      vertex  4.882511e+01 -9.882511e+01  8.220020e+00
      vertex -4.862555e+01 -9.862555e+01  8.443170e+00
      vertex -4.882511e+01 -9.882511e+01  8.220020e+00
    endloop
  endfacet
  facet normal  0.000000e+00 -7.907318e-01  6.121626e-01
    outer loop
      vertex  4.882511e+01 -9.882511e+01  8.220020e+00
      vertex -4.882511e+01 -9.882511e+01  8.220020e+00
      vertex  4.907553e+01 -9.907552e+01  7.896563e+00
    endloop
  endfacet
  facet normal  6.146379e-08 -7.907228e-01  6.121743e-01
    outer loop
      vertex  4.907553e+01 -9.907552e+01  7.896563e+00
      vertex -4.882511e+01 -9.882511e+01  8.220020e+00
      vertex -4.907553e+01 -9.907553e+01  7.896563e+00
    endloop
  endfacet
  facet normal  6.519848e-08 -8.387690e-01  5.444875e-01
    outer loop
      vertex  4.907553e+01 -9.907552e+01  7.896563e+00
      vertex -4.907553e+01 -9.907553e+01  7.896563e+00
      vertex  4.930473e+01 -9.930473e+01  7.543482e+00
    endloop
  endfacet
  facet normal  6.489540e-08 -8.387690e-01  5.444874e-01
    outer loop
      vertex  4.930473e+01 -9.930473e+01  7.543482e+00
      vertex -4.907553e+01 -9.907553e+01  7.896563e+00
      vertex -4.930473e+01 -9.930473e+01  7.543482e+00
    endloop
  endfacet
  facet normal  6.825335e-08 -8.821703e-01  4.709305e-01
    outer loop
      vertex  4.930473e+01 -9.930473e+01  7.543482e+00
      vertex -4.930473e+01 -9.930473e+01  7.543482e+00
      vertex  4.950876e+01 -9.950877e+01  7.161263e+00
    endloop
  endfacet
  facet normal  0.000000e+00 -8.821776e-01  4.709167e-01
    outer loop
      vertex  4.950876e+01 -9.950877e+01  7.161263e+00
      vertex -4.930473e+01 -9.930473e+01  7.543482e+00
      vertex -4.950876e+01 -9.950877e+01  7.161263e+00
    endloop
  endfacet
  facet normal  0.000000e+00 -9.129692e-01  4.080287e-01
    outer loop
      vertex  4.950876e+01 -9.950877e+01  7.161263e+00
      vertex -4.950876e+01 -9.950877e+01  7.161263e+00
      vertex  4.961760e+01 -9.961759e+01  6.917765e+00
    endloop
  endfacet
  facet normal  0.000000e+00 -9.129691e-01  4.080286e-01
    outer loop
      vertex  4.961760e+01 -9.961759e+01  6.917765e+00
      vertex -4.950876e+01 -9.950877e+01  7.161263e+00
      vertex -4.961760e+01 -9.961759e+01  6.917765e+00
    endloop
  endfacet
  facet normal  0.000000e+00 -9.335811e-01  3.583664e-01
    outer loop
      vertex  4.961760e+01 -9.961759e+01  6.917765e+00
      vertex -4.961760e+01 -9.961759e+01  6.917765e+00
      vertex  4.971477e+01 -9.971477e+01  6.664612e+00
    endloop
  endfacet
  facet normal  0.000000e+00 -9.335811e-01  3.583664e-01
    outer loop
      vertex  4.971477e+01 -9.971477e+01  6.664612e+00
      vertex -4.961760e+01 -9.961759e+01  6.917765e+00
      vertex -4.971477e+01 -9.971477e+01  6.664612e+00
    endloop
  endfacet
  facet normal  0.000000e+00 -9.517619e-01  3.068375e-01
    outer loop
      vertex  4.971477e+01 -9.971477e+01  6.664612e+00
      vertex -4.971477e+01 -9.971477e+01  6.664612e+00
      vertex  4.979926e+01 -9.979926e+01  6.402544e+00
    endloop
  endfacet
  facet normal  0.000000e+00 -9.517619e-01  3.068375e-01
    outer loop
      vertex  4.979926e+01 -9.979926e+01  6.402544e+00
      vertex -4.971477e+01 -9.971477e+01  6.664612e+00
      vertex -4.979926e+01 -9.979926e+01  6.402544e+00
    endloop
  endfacet
  facet normal  0.000000e+00 -9.673071e-01  2.536079e-01
    outer loop
      vertex  4.979926e+01 -9.979926e+01  6.402544e+00
      vertex -4.979926e+01 -9.979926e+01  6.402544e+00
      vertex  4.987005e+01 -9.987005e+01  6.132526e+00
    endloop
  endfacet
  facet normal  0.000000e+00 -9.673071e-01  2.536079e-01
    outer loop
      vertex  4.987005e+01 -9.987005e+01  6.132526e+00
      vertex -4.979926e+01 -9.979926e+01  6.402544e+00
      vertex -4.987004e+01 -9.987005e+01  6.132526e+00
    endloop
  endfacet
  facet normal  0.000000e+00 -9.818626e-01  1.895938e-01
    outer loop
      vertex  4.987005e+01 -9.987005e+01  6.132526e+00
      vertex -4.987004e+01 -9.987005e+01  6.132526e+00
      vertex  4.994156e+01 -9.994155e+01  5.762230e+00
    endloop
  endfacet
  facet normal  7.499754e-08 -9.818588e-01  1.896132e-01
    outer loop
      vertex  4.994156e+01 -9.994155e+01  5.762230e+00
      vertex -4.987004e+01 -9.987005e+01  6.132526e+00
      vertex -4.994156e+01 -9.994156e+01  5.762230e+00
    endloop
  endfacet
  facet normal  7.587938e-08 -9.934037e-01  1.146693e-01
    outer loop
      vertex  4.994156e+01 -9.994155e+01  5.762230e+00
      vertex -4.994156e+01 -9.994156e+01  5.762230e+00
      vertex  4.998528e+01 -9.998528e+01  5.383373e+00
    endloop
  endfacet
  facet normal  0.000000e+00 -9.934060e-01  1.146495e-01
    outer loop
      vertex  4.998528e+01 -9.998528e+01  5.383373e+00
      vertex -4.994156e+01 -9.994156e+01  5.762230e+00
      vertex -4.998528e+01 -9.998528e+01  5.383373e+00
    endloop
  endfacet
  facet normal  0.000000e+00 -9.992640e-01  3.836019e-02
    outer loop
      vertex  4.998528e+01 -9.998528e+01  5.383373e+00
      vertex -4.998528e+01 -9.998528e+01  5.383373e+00
      vertex  5.000000e+01 -1.000000e+02  5.000000e+00
    endloop
  endfacet
  facet normal  0.000000e+00 -9.992640e-01  3.836019e-02
    outer loop
      vertex  5.000000e+01 -1.000000e+02  5.000000e+00
      vertex -4.998528e+01 -9.998528e+01  5.383373e+00
      vertex -5.000000e+01 -1.000000e+02  5.000000e+00
    endloop
  endfacet
  facet normal  1.450420e-03  -0.000000e+00  9.999989e-01
    outer loop
      vertex  4.500000e+01  9.500000e+01  1.000000e+01
      vertex  4.500000e+01 -9.500000e+01  1.000000e+01
      vertex  4.501447e+01  9.501447e+01  9.999979e+00
    endloop
  endfacet
  facet normal  1.450421e-03  0.000000e+00  9.999990e-01
    outer loop
      vertex  4.501447e+01  9.501447e+01  9.999979e+00
      vertex  4.500000e+01 -9.500000e+01  1.000000e+01
      vertex  4.501447e+01 -9.501447e+01  9.999979e+00
    endloop
  endfacet
  facet normal  6.446432e-02  -0.000000e+00  9.979200e-01
    outer loop
      vertex  4.501447e+01  9.501447e+01  9.999979e+00
      vertex  4.501447e+01 -9.501447e+01  9.999979e+00
      vertex  4.562895e+01  9.562895e+01  9.960284e+00
    endloop
  endfacet
  facet normal  6.446393e-02  1.285753e-09  9.979200e-01
    outer loop
      vertex  4.562895e+01  9.562895e+01  9.960284e+00
      vertex  4.501447e+01 -9.501447e+01  9.999979e+00
      vertex  4.562895e+01 -9.562894e+01  9.960284e+00
    endloop
  endfacet
  facet normal  1.870657e-01  3.731082e-09  9.823474e-01
    outer loop
      vertex  4.562895e+01  9.562895e+01  9.960284e+00
      vertex  4.562895e+01 -9.562894e+01  9.960284e+00
      vertex  4.623811e+01  9.623811e+01  9.844284e+00
    endloop
  endfacet
  facet normal  1.870657e-01  3.707466e-09  9.823474e-01
    outer loop
      vertex  4.623811e+01  9.623811e+01  9.844284e+00
      vertex  4.562895e+01 -9.562894e+01  9.960284e+00
      vertex  4.623811e+01 -9.623811e+01  9.844284e+00
    endloop
  endfacet
  facet normal  2.778637e-01  5.506997e-09  9.606205e-01
    outer loop
      vertex  4.623811e+01  9.623811e+01  9.844284e+00
      vertex  4.623811e+01 -9.623811e+01  9.844284e+00
      vertex  4.653917e+01  9.653917e+01  9.757201e+00
    endloop
  endfacet
  facet normal  2.778670e-01  0.000000e+00  9.606195e-01
    outer loop
      vertex  4.653917e+01  9.653917e+01  9.757201e+00
      vertex  4.623811e+01 -9.623811e+01  9.844284e+00
      vertex  4.653917e+01 -9.653917e+01  9.757201e+00
    endloop
  endfacet
  facet normal  3.377842e-01  -0.000000e+00  9.412236e-01
    outer loop
      vertex  4.653917e+01  9.653917e+01  9.757201e+00
      vertex  4.653917e+01 -9.653917e+01  9.757201e+00
      vertex  4.683703e+01  9.683703e+01  9.650305e+00
    endloop
  endfacet
  facet normal  3.377880e-01 -6.653235e-09  9.412222e-01
    outer loop
      vertex  4.683703e+01  9.683703e+01  9.650305e+00
      vertex  4.653917e+01 -9.653917e+01  9.757201e+00
      vertex  4.683702e+01 -9.683703e+01  9.650305e+00
    endloop
  endfacet
  facet normal  4.068658e-01 -8.013825e-09  9.134879e-01
    outer loop
      vertex  4.683703e+01  9.683703e+01  9.650305e+00
      vertex  4.683702e+01 -9.683703e+01  9.650305e+00
      vertex  4.722792e+01  9.722791e+01  9.476204e+00
    endloop
  endfacet
  facet normal  4.068658e-01 -7.981606e-09  9.134880e-01
    outer loop
      vertex  4.722792e+01  9.722791e+01  9.476204e+00
      vertex  4.683702e+01 -9.683703e+01  9.650305e+00
      vertex  4.722791e+01 -9.722792e+01  9.476204e+00
    endloop
  endfacet
  facet normal  4.842271e-01 -9.499225e-09  8.749423e-01
    outer loop
      vertex  4.722792e+01  9.722791e+01  9.476204e+00
      vertex  4.722791e+01 -9.722792e+01  9.476204e+00
      vertex  4.760973e+01  9.760973e+01  9.264892e+00
    endloop
  endfacet
  facet normal  4.842271e-01 -9.462068e-09  8.749424e-01
    outer loop
      vertex  4.760973e+01  9.760973e+01  9.264892e+00
      vertex  4.722791e+01 -9.722792e+01  9.476204e+00
      vertex  4.760973e+01 -9.760973e+01  9.264892e+00
    endloop
  endfacet
  facet normal  5.595220e-01 -1.093337e-08  8.288155e-01
    outer loop
      vertex  4.760973e+01  9.760973e+01  9.264892e+00
      vertex  4.760973e+01 -9.760973e+01  9.264892e+00
      vertex  4.797989e+01  9.797989e+01  9.015002e+00
    endloop
  endfacet
  facet normal  5.595180e-01  0.000000e+00  8.288182e-01
    outer loop
      vertex  4.797989e+01  9.797989e+01  9.015002e+00
      vertex  4.760973e+01 -9.760973e+01  9.264892e+00
      vertex  4.797989e+01 -9.797989e+01  9.015002e+00
    endloop
  endfacet
  facet normal  6.407706e-01  -0.000000e+00  7.677325e-01
    outer loop
      vertex  4.797989e+01  9.797989e+01  9.015002e+00
      vertex  4.797989e+01 -9.797989e+01  9.015002e+00
      vertex  4.841742e+01  9.841741e+01  8.649834e+00
    endloop
  endfacet
  facet normal  6.407738e-01 -1.241832e-08  7.677297e-01
    outer loop
      vertex  4.841742e+01  9.841741e+01  8.649834e+00
      vertex  4.797989e+01 -9.797989e+01  9.015002e+00
      vertex  4.841741e+01 -9.841741e+01  8.649834e+00
    endloop
  endfacet
  facet normal  7.046036e-01 -1.365536e-08  7.096011e-01
    outer loop
      vertex  4.841742e+01  9.841741e+01  8.649834e+00
      vertex  4.841741e+01 -9.841741e+01  8.649834e+00
      vertex  4.862555e+01  9.862555e+01  8.443170e+00
    endloop
  endfacet
  facet normal  7.045971e-01  0.000000e+00  7.096076e-01
    outer loop
      vertex  4.862555e+01  9.862555e+01  8.443170e+00
      vertex  4.841741e+01 -9.841741e+01  8.649834e+00
      vertex  4.862555e+01 -9.862555e+01  8.443170e+00
    endloop
  endfacet
  facet normal  7.453973e-01  -0.000000e+00  6.666204e-01
    outer loop
      vertex  4.862555e+01  9.862555e+01  8.443170e+00
      vertex  4.862555e+01 -9.862555e+01  8.443170e+00
      vertex  4.882511e+01  9.882511e+01  8.220020e+00
    endloop
  endfacet
  facet normal  7.453973e-01  0.000000e+00  6.666204e-01
    outer loop
      vertex  4.882511e+01  9.882511e+01  8.220020e+00
      vertex  4.862555e+01 -9.862555e+01  8.443170e+00
      vertex  4.882511e+01 -9.882511e+01  8.220020e+00
    endloop
  endfacet
  facet normal  7.907273e-01  -0.000000e+00  6.121684e-01
    outer loop
      vertex  4.882511e+01  9.882511e+01  8.220020e+00
      vertex  4.882511e+01 -9.882511e+01  8.220020e+00
      vertex  4.907553e+01  9.907553e+01  7.896563e+00
    endloop
  endfacet
  facet normal  7.907273e-01  0.000000e+00  6.121684e-01
    outer loop
      vertex  4.907553e+01  9.907553e+01  7.896563e+00
      vertex  4.882511e+01 -9.882511e+01  8.220020e+00
      vertex  4.907553e+01 -9.907552e+01  7.896563e+00
    endloop
  endfacet
  facet normal  8.387690e-01  -0.000000e+00  5.444874e-01
    outer loop
      vertex  4.907553e+01  9.907553e+01  7.896563e+00
      vertex  4.907553e+01 -9.907552e+01  7.896563e+00
      vertex  4.930473e+01  9.930473e+01  7.543482e+00
    endloop
  endfacet
  facet normal  8.387691e-01  0.000000e+00  5.444874e-01
    outer loop
      vertex  4.930473e+01  9.930473e+01  7.543482e+00
      vertex  4.907553e+01 -9.907552e+01  7.896563e+00
      vertex  4.930473e+01 -9.930473e+01  7.543482e+00
    endloop
  endfacet
  facet normal  8.821777e-01  -0.000000e+00  4.709168e-01
    outer loop
      vertex  4.930473e+01  9.930473e+01  7.543482e+00
      vertex  4.930473e+01 -9.930473e+01  7.543482e+00
      vertex  4.950876e+01  9.950877e+01  7.161263e+00
    endloop
  endfacet
  facet normal  8.821777e-01  0.000000e+00  4.709168e-01
    outer loop
      vertex  4.950876e+01  9.950877e+01  7.161263e+00
      vertex  4.930473e+01 -9.930473e+01  7.543482e+00
      vertex  4.950876e+01 -9.950877e+01  7.161263e+00
    endloop
  endfacet
  facet normal  9.129584e-01  -0.000000e+00  4.080525e-01
    outer loop
      vertex  4.950876e+01  9.950877e+01  7.161263e+00
      vertex  4.950876e+01 -9.950877e+01  7.161263e+00
      vertex  4.961760e+01  9.961759e+01  6.917765e+00
    endloop
  endfacet
  facet normal  9.129584e-01  0.000000e+00  4.080525e-01
    outer loop
      vertex  4.961760e+01  9.961759e+01  6.917765e+00
      vertex  4.950876e+01 -9.950877e+01  7.161263e+00
      vertex  4.961760e+01 -9.961759e+01  6.917765e+00
    endloop
  endfacet
  facet normal  9.335811e-01  -0.000000e+00  3.583664e-01
    outer loop
      vertex  4.961760e+01  9.961759e+01  6.917765e+00
      vertex  4.961760e+01 -9.961759e+01  6.917765e+00
      vertex  4.971477e+01  9.971477e+01  6.664612e+00
    endloop
  endfacet
  facet normal  9.335810e-01  0.000000e+00  3.583663e-01
    outer loop
      vertex  4.971477e+01  9.971477e+01  6.664612e+00
      vertex  4.961760e+01 -9.961759e+01  6.917765e+00
      vertex  4.971477e+01 -9.971477e+01  6.664612e+00
    endloop
  endfacet
  facet normal  9.517659e-01  -0.000000e+00  3.068250e-01
    outer loop
      vertex  4.971477e+01  9.971477e+01  6.664612e+00
      vertex  4.971477e+01 -9.971477e+01  6.664612e+00
      vertex  4.979926e+01  9.979926e+01  6.402544e+00
    endloop
  endfacet
  facet normal  9.517620e-01  1.818993e-08  3.068375e-01
    outer loop
      vertex  4.979926e+01  9.979926e+01  6.402544e+00
      vertex  4.971477e+01 -9.971477e+01  6.664612e+00
      vertex  4.979926e+01 -9.979926e+01  6.402544e+00
    endloop
  endfacet
  facet normal  9.673104e-01  1.848709e-08  2.535951e-01
    outer loop
      vertex  4.979926e+01  9.979926e+01  6.402544e+00
      vertex  4.979926e+01 -9.979926e+01  6.402544e+00
      vertex  4.987004e+01  9.987005e+01  6.132526e+00
    endloop
  endfacet
  facet normal  9.673104e-01  1.847399e-08  2.535951e-01
    outer loop
      vertex  4.987004e+01  9.987005e+01  6.132526e+00
      vertex  4.979926e+01 -9.979926e+01  6.402544e+00
      vertex  4.987005e+01 -9.987005e+01  6.132526e+00
    endloop
  endfacet
  facet normal  9.818588e-01  1.875184e-08  1.896133e-01
    outer loop
      vertex  4.987004e+01  9.987005e+01  6.132526e+00
      vertex  4.987005e+01 -9.987005e+01  6.132526e+00
      vertex  4.994156e+01  9.994156e+01  5.762230e+00
    endloop
  endfacet
  facet normal  9.818588e-01  1.873842e-08  1.896133e-01
    outer loop
      vertex  4.994156e+01  9.994156e+01  5.762230e+00
      vertex  4.987005e+01 -9.987005e+01  6.132526e+00
      vertex  4.994156e+01 -9.994155e+01  5.762230e+00
    endloop
  endfacet
  facet normal  9.934060e-01  1.895880e-08  1.146495e-01
    outer loop
      vertex  4.994156e+01  9.994156e+01  5.762230e+00
      vertex  4.994156e+01 -9.994155e+01  5.762230e+00
      vertex  4.998528e+01  9.998528e+01  5.383373e+00
    endloop
  endfacet
  facet normal  9.934071e-01  0.000000e+00  1.146397e-01
    outer loop
      vertex  4.998528e+01  9.998528e+01  5.383373e+00
      vertex  4.994156e+01 -9.994155e+01  5.762230e+00
      vertex  4.998528e+01 -9.998528e+01  5.383373e+00
    endloop
  endfacet
  facet normal  9.992636e-01  -0.000000e+00  3.837012e-02
    outer loop
      vertex  4.998528e+01  9.998528e+01  5.383373e+00
      vertex  4.998528e+01 -9.998528e+01  5.383373e+00
      vertex  5.000000e+01  1.000000e+02  5.000000e+00
    endloop
  endfacet
  facet normal  9.992635e-01  0.000000e+00  3.837011e-02
    outer loop
      vertex  5.000000e+01  1.000000e+02  5.000000e+00
      vertex  4.998528e+01 -9.998528e+01  5.383373e+00
      vertex  5.000000e+01 -1.000000e+02  5.000000e+00
    endloop
  endfacet
  facet normal  0.000000e+00  1.450420e-03  9.999989e-01
    outer loop
      vertex -4.500000e+01  9.500000e+01  1.000000e+01
      vertex  4.500000e+01  9.500000e+01  1.000000e+01
      vertex -4.501447e+01  9.501447e+01  9.999979e+00
    endloop
  endfacet
  facet normal  -0.000000e+00  1.450420e-03  9.999990e-01
    outer loop
      vertex -4.501447e+01  9.501447e+01  9.999979e+00
      vertex  4.500000e+01  9.500000e+01  1.000000e+01
      vertex  4.501447e+01  9.501447e+01  9.999979e+00
    endloop
  endfacet
  facet normal  0.000000e+00  6.446473e-02  9.979200e-01
    outer loop
      vertex -4.501447e+01  9.501447e+01  9.999979e+00
      vertex  4.501447e+01  9.501447e+01  9.999979e+00
      vertex -4.562895e+01  9.562894e+01  9.960284e+00
    endloop
  endfacet
  facet normal -5.389349e-09  6.446392e-02  9.979200e-01
    outer loop
      vertex -4.562895e+01  9.562894e+01  9.960284e+00
      vertex  4.501447e+01  9.501447e+01  9.999979e+00
      vertex  4.562895e+01  9.562895e+01  9.960284e+00
    endloop
  endfacet
  facet normal -1.563907e-08  1.870645e-01  9.823476e-01
    outer loop
      vertex -4.562895e+01  9.562894e+01  9.960284e+00
      vertex  4.562895e+01  9.562895e+01  9.960284e+00
      vertex -4.623811e+01  9.623811e+01  9.844284e+00
    endloop
  endfacet
  facet normal  -0.000000e+00  1.870668e-01  9.823472e-01
    outer loop
      vertex -4.623811e+01  9.623811e+01  9.844284e+00
      vertex  4.562895e+01  9.562895e+01  9.960284e+00
      vertex  4.623811e+01  9.623811e+01  9.844284e+00
    endloop
  endfacet
  facet normal  0.000000e+00  2.778605e-01  9.606215e-01
    outer loop
      vertex -4.623811e+01  9.623811e+01  9.844284e+00
      vertex  4.623811e+01  9.623811e+01  9.844284e+00
      vertex -4.653917e+01  9.653917e+01  9.757201e+00
    endloop
  endfacet
  facet normal  -0.000000e+00  2.778605e-01  9.606215e-01
    outer loop
      vertex -4.653917e+01  9.653917e+01  9.757201e+00
      vertex  4.623811e+01  9.623811e+01  9.844284e+00
      vertex  4.653917e+01  9.653917e+01  9.757201e+00
    endloop
  endfacet
  facet normal  0.000000e+00  3.377880e-01  9.412223e-01
    outer loop
      vertex -4.653917e+01  9.653917e+01  9.757201e+00
      vertex  4.653917e+01  9.653917e+01  9.757201e+00
      vertex -4.683702e+01  9.683703e+01  9.650305e+00
    endloop
  endfacet
  facet normal  -0.000000e+00  3.377880e-01  9.412223e-01
    outer loop
      vertex -4.683702e+01  9.683703e+01  9.650305e+00
      vertex  4.653917e+01  9.653917e+01  9.757201e+00
      vertex  4.683703e+01  9.683703e+01  9.650305e+00
    endloop
  endfacet
  facet normal  0.000000e+00  4.068625e-01  9.134895e-01
    outer loop
      vertex -4.683702e+01  9.683703e+01  9.650305e+00
      vertex  4.683703e+01  9.683703e+01  9.650305e+00
      vertex -4.722791e+01  9.722792e+01  9.476204e+00
    endloop
  endfacet
  facet normal  3.286367e-08  4.068691e-01  9.134865e-01
    outer loop
      vertex -4.722791e+01  9.722792e+01  9.476204e+00
      vertex  4.683703e+01  9.683703e+01  9.650305e+00
      vertex  4.722792e+01  9.722791e+01  9.476204e+00
    endloop
  endfacet
  facet normal  3.911234e-08  4.842308e-01  8.749403e-01
    outer loop
      vertex -4.722791e+01  9.722792e+01  9.476204e+00
      vertex  4.722792e+01  9.722791e+01  9.476204e+00
      vertex -4.760973e+01  9.760973e+01  9.264892e+00
    endloop
  endfacet
  facet normal  -0.000000e+00  4.842234e-01  8.749444e-01
    outer loop
      vertex -4.760973e+01  9.760973e+01  9.264892e+00
      vertex  4.722792e+01  9.722791e+01  9.476204e+00
      vertex  4.760973e+01  9.760973e+01  9.264892e+00
    endloop
  endfacet
  facet normal  0.000000e+00  5.595259e-01  8.288128e-01
    outer loop
      vertex -4.760973e+01  9.760973e+01  9.264892e+00
      vertex  4.760973e+01  9.760973e+01  9.264892e+00
      vertex -4.797989e+01  9.797989e+01  9.015002e+00
    endloop
  endfacet
  facet normal  -0.000000e+00  5.595259e-01  8.288128e-01
    outer loop
      vertex -4.797989e+01  9.797989e+01  9.015002e+00
      vertex  4.760973e+01  9.760973e+01  9.264892e+00
      vertex  4.797989e+01  9.797989e+01  9.015002e+00
    endloop
  endfacet
  facet normal  0.000000e+00  6.407706e-01  7.677326e-01
    outer loop
      vertex -4.797989e+01  9.797989e+01  9.015002e+00
      vertex  4.797989e+01  9.797989e+01  9.015002e+00
      vertex -4.841741e+01  9.841741e+01  8.649834e+00
    endloop
  endfacet
  facet normal  -0.000000e+00  6.407706e-01  7.677324e-01
    outer loop
      vertex -4.841741e+01  9.841741e+01  8.649834e+00
      vertex  4.797989e+01  9.797989e+01  9.015002e+00
      vertex  4.841742e+01  9.841741e+01  8.649834e+00
    endloop
  endfacet
  facet normal  0.000000e+00  7.045906e-01  7.096140e-01
    outer loop
      vertex -4.841741e+01  9.841741e+01  8.649834e+00
      vertex  4.841742e+01  9.841741e+01  8.649834e+00
      vertex -4.862555e+01  9.862555e+01  8.443170e+00
    endloop
  endfacet
  facet normal  -0.000000e+00  7.045906e-01  7.096140e-01
    outer loop
      vertex -4.862555e+01  9.862555e+01  8.443170e+00
      vertex  4.841742e+01  9.841741e+01  8.649834e+00
      vertex  4.862555e+01  9.862555e+01  8.443170e+00
    endloop
  endfacet
  facet normal  0.000000e+00  7.454036e-01  6.666133e-01
    outer loop
      vertex -4.862555e+01  9.862555e+01  8.443170e+00
      vertex  4.862555e+01  9.862555e+01  8.443170e+00
      vertex -4.882511e+01  9.882511e+01  8.220020e+00
    endloop
  endfacet
  facet normal  -0.000000e+00  7.454036e-01  6.666134e-01
    outer loop
      vertex -4.882511e+01  9.882511e+01  8.220020e+00
      vertex  4.862555e+01  9.862555e+01  8.443170e+00
      vertex  4.882511e+01  9.882511e+01  8.220020e+00
    endloop
  endfacet
  facet normal  0.000000e+00  7.907318e-01  6.121626e-01
    outer loop
      vertex -4.882511e+01  9.882511e+01  8.220020e+00
      vertex  4.882511e+01  9.882511e+01  8.220020e+00
      vertex -4.907553e+01  9.907552e+01  7.896563e+00
    endloop
  endfacet
  facet normal -6.146379e-08  7.907228e-01  6.121743e-01
    outer loop
      vertex -4.907553e+01  9.907552e+01  7.896563e+00
      vertex  4.882511e+01  9.882511e+01  8.220020e+00
      vertex  4.907553e+01  9.907553e+01  7.896563e+00
    endloop
  endfacet
  facet normal -6.519848e-08  8.387690e-01  5.444875e-01
    outer loop
      vertex -4.907553e+01  9.907552e+01  7.896563e+00
      vertex  4.907553e+01  9.907553e+01  7.896563e+00
      vertex -4.930473e+01  9.930473e+01  7.543482e+00
    endloop
  endfacet
  facet normal -6.489540e-08  8.387690e-01  5.444874e-01
    outer loop
      vertex -4.930473e+01  9.930473e+01  7.543482e+00
      vertex  4.907553e+01  9.907553e+01  7.896563e+00
      vertex  4.930473e+01  9.930473e+01  7.543482e+00
    endloop
  endfacet
  facet normal -6.825335e-08  8.821703e-01  4.709305e-01
    outer loop
      vertex -4.930473e+01  9.930473e+01  7.543482e+00
      vertex  4.930473e+01  9.930473e+01  7.543482e+00
      vertex -4.950876e+01  9.950877e+01  7.161263e+00
    endloop
  endfacet
  facet normal  -0.000000e+00  8.821776e-01  4.709167e-01
    outer loop
      vertex -4.950876e+01  9.950877e+01  7.161263e+00
      vertex  4.930473e+01  9.930473e+01  7.543482e+00
      vertex  4.950876e+01  9.950877e+01  7.161263e+00
    endloop
  endfacet
  facet normal  0.000000e+00  9.129692e-01  4.080287e-01
    outer loop
      vertex -4.950876e+01  9.950877e+01  7.161263e+00
      vertex  4.950876e+01  9.950877e+01  7.161263e+00
      vertex -4.961760e+01  9.961759e+01  6.917765e+00
    endloop
  endfacet
  facet normal  -0.000000e+00  9.129691e-01  4.080286e-01
    outer loop
      vertex -4.961760e+01  9.961759e+01  6.917765e+00
      vertex  4.950876e+01  9.950877e+01  7.161263e+00
      vertex  4.961760e+01  9.961759e+01  6.917765e+00
    endloop
  endfacet
  facet normal  0.000000e+00  9.335811e-01  3.583664e-01
    outer loop
      vertex -4.961760e+01  9.961759e+01  6.917765e+00
      vertex  4.961760e+01  9.961759e+01  6.917765e+00
      vertex -4.971477e+01  9.971477e+01  6.664612e+00
    endloop
  endfacet
  facet normal  -0.000000e+00  9.335811e-01  3.583664e-01
    outer loop
      vertex -4.971477e+01  9.971477e+01  6.664612e+00
      vertex  4.961760e+01  9.961759e+01  6.917765e+00
      vertex  4.971477e+01  9.971477e+01  6.664612e+00
    endloop
  endfacet
  facet normal  0.000000e+00  9.517619e-01  3.068375e-01
    outer loop
      vertex -4.971477e+01  9.971477e+01  6.664612e+00
      vertex  4.971477e+01  9.971477e+01  6.664612e+00
      vertex -4.979926e+01  9.979926e+01  6.402544e+00
    endloop
  endfacet
  facet normal  -0.000000e+00  9.517619e-01  3.068375e-01
    outer loop
      vertex -4.979926e+01  9.979926e+01  6.402544e+00
      vertex  4.971477e+01  9.971477e+01  6.664612e+00
      vertex  4.979926e+01  9.979926e+01  6.402544e+00
    endloop
  endfacet
  facet normal  0.000000e+00  9.673071e-01  2.536079e-01
    outer loop
      vertex -4.979926e+01  9.979926e+01  6.402544e+00
      vertex  4.979926e+01  9.979926e+01  6.402544e+00
      vertex -4.987005e+01  9.987005e+01  6.132526e+00
    endloop
  endfacet
  facet normal  -0.000000e+00  9.673071e-01  2.536079e-01
    outer loop
      vertex -4.987005e+01  9.987005e+01  6.132526e+00
      vertex  4.979926e+01  9.979926e+01  6.402544e+00
      vertex  4.987004e+01  9.987005e+01  6.132526e+00
    endloop
  endfacet
  facet normal  0.000000e+00  9.818626e-01  1.895938e-01
    outer loop
      vertex -4.987005e+01  9.987005e+01  6.132526e+00
      vertex  4.987004e+01  9.987005e+01  6.132526e+00
      vertex -4.994156e+01  9.994155e+01  5.762230e+00
    endloop
  endfacet
  facet normal -7.499754e-08  9.818588e-01  1.896132e-01
    outer loop
      vertex -4.994156e+01  9.994155e+01  5.762230e+00
      vertex  4.987004e+01  9.987005e+01  6.132526e+00
      vertex  4.994156e+01  9.994156e+01  5.762230e+00
    endloop
  endfacet
  facet normal -7.587938e-08  9.934037e-01  1.146693e-01
    outer loop
      vertex -4.994156e+01  9.994155e+01  5.762230e+00
      vertex  4.994156e+01  9.994156e+01  5.762230e+00
      vertex -4.998528e+01  9.998528e+01  5.383373e+00
    endloop
  endfacet
  facet normal  -0.000000e+00  9.934060e-01  1.146495e-01
    outer loop
      vertex -4.998528e+01  9.998528e+01  5.383373e+00
      vertex  4.994156e+01  9.994156e+01  5.762230e+00
      vertex  4.998528e+01  9.998528e+01  5.383373e+00
    endloop
  endfacet
  facet normal  0.000000e+00  9.992640e-01  3.836019e-02
    outer loop
      vertex -4.998528e+01  9.998528e+01  5.383373e+00
      vertex  4.998528e+01  9.998528e+01  5.383373e+00
      vertex -5.000000e+01  1.000000e+02  5.000000e+00
    endloop
  endfacet
  facet normal  -0.000000e+00  9.992640e-01  3.836019e-02
    outer loop
      vertex -5.000000e+01  1.000000e+02  5.000000e+00
      vertex  4.998528e+01  9.998528e+01  5.383373e+00
      vertex  5.000000e+01  1.000000e+02  5.000000e+00
    endloop
  endfacet
  facet normal  -0.000000e+00  0.000000e+00 -1.000000e+00
    outer loop
      vertex -5.000000e+01  1.000000e+02  0.000000e+00
      vertex  5.000000e+01  1.000000e+02  0.000000e+00
      vertex -5.000000e+01 -1.000000e+02  0.000000e+00
    endloop
  endfacet
  facet normal  0.000000e+00  0.000000e+00 -1.000000e+00
    outer loop
      vertex -5.000000e+01 -1.000000e+02  0.000000e+00
      vertex  5.000000e+01  1.000000e+02  0.000000e+00
      vertex  5.000000e+01 -1.000000e+02  0.000000e+00
    endloop
  endfacet
endsolid CATIA STL
