solid CATIA STL
  facet normal  0.000000e+00  0.000000e+00  1.000000e+00
    outer loop
      vertex -4.500000e+01 -4.500000e+01  1.000000e+01
      vertex  4.500000e+01 -4.500000e+01  1.000000e+01
      vertex -4.500000e+01  4.500000e+01  1.000000e+01
    endloop
  endfacet
  facet normal  -0.000000e+00  0.000000e+00  1.000000e+00
    outer loop
      vertex -4.500000e+01  4.500000e+01  1.000000e+01
      vertex  4.500000e+01 -4.500000e+01  1.000000e+01
      vertex  4.500000e+01  4.500000e+01  1.000000e+01
    endloop
  endfacet
  facet normal  0.000000e+00 -1.000000e+00  0.000000e+00
    outer loop
      vertex  5.000000e+01 -5.000000e+01  5.000000e+00
      vertex -5.000000e+01 -5.000000e+01  5.000000e+00
      vertex  5.000000e+01 -5.000000e+01  0.000000e+00
    endloop
  endfacet
  facet normal  0.000000e+00 -1.000000e+00  0.000000e+00
    outer loop
      vertex  5.000000e+01 -5.000000e+01  0.000000e+00
      vertex -5.000000e+01 -5.000000e+01  5.000000e+00
      vertex -5.000000e+01 -5.000000e+01  0.000000e+00
    endloop
  endfacet
  facet normal  1.000000e+00  -0.000000e+00  0.000000e+00
    outer loop
      vertex  5.000000e+01  5.000000e+01  5.000000e+00
      vertex  5.000000e+01 -5.000000e+01  5.000000e+00
      vertex  5.000000e+01  5.000000e+01  0.000000e+00
    endloop
  endfacet
  facet normal  1.000000e+00  0.000000e+00  0.000000e+00
    outer loop
      vertex  5.000000e+01  5.000000e+01  0.000000e+00
      vertex  5.000000e+01 -5.000000e+01  5.000000e+00
      vertex  5.000000e+01 -5.000000e+01  0.000000e+00
    endloop
  endfacet
  facet normal  0.000000e+00  1.000000e+00  0.000000e+00
    outer loop
      vertex -5.000000e+01  5.000000e+01  5.000000e+00
      vertex  5.000000e+01  5.000000e+01  5.000000e+00
      vertex -5.000000e+01  5.000000e+01  0.000000e+00
    endloop
  endfacet
  facet normal  0.000000e+00  1.000000e+00  0.000000e+00
    outer loop
      vertex -5.000000e+01  5.000000e+01  0.000000e+00
      vertex  5.000000e+01  5.000000e+01  5.000000e+00
      vertex  5.000000e+01  5.000000e+01  0.000000e+00
    endloop
  endfacet
  facet normal -1.000000e+00  -0.000000e+00  0.000000e+00
    outer loop
      vertex -5.000000e+01 -5.000000e+01  5.000000e+00
      vertex -5.000000e+01  5.000000e+01  5.000000e+00
      vertex -5.000000e+01 -5.000000e+01  0.000000e+00
    endloop
  endfacet
  facet normal -1.000000e+00  0.000000e+00  0.000000e+00
    outer loop
      vertex -5.000000e+01 -5.000000e+01  0.000000e+00
      vertex -5.000000e+01  5.000000e+01  5.000000e+00
      vertex -5.000000e+01  5.000000e+01  0.000000e+00
    endloop
  endfacet
  facet normal -1.450420e-03  0.000000e+00  9.999989e-01
    outer loop
      vertex -4.500000e+01 -4.500000e+01  1.000000e+01
      vertex -4.500000e+01  4.500000e+01  1.000000e+01
      vertex -4.501447e+01 -4.501447e+01  9.999979e+00
    endloop
  endfacet
  facet normal -1.450420e-03  0.000000e+00  9.999990e-01
    outer loop
      vertex -4.501447e+01 -4.501447e+01  9.999979e+00
      vertex -4.500000e+01  4.500000e+01  1.000000e+01
      vertex -4.501447e+01  4.501447e+01  9.999979e+00
    endloop
  endfacet
  facet normal -6.446432e-02  0.000000e+00  9.979200e-01
    outer loop
      vertex -4.501447e+01 -4.501447e+01  9.999979e+00
      vertex -4.501447e+01  4.501447e+01  9.999979e+00
      vertex -4.562895e+01 -4.562895e+01  9.960284e+00
    endloop
  endfacet
  facet normal -6.446392e-02 -2.694674e-09  9.979200e-01
    outer loop
      vertex -4.562895e+01 -4.562895e+01  9.960284e+00
      vertex -4.501447e+01  4.501447e+01  9.999979e+00
      vertex -4.562895e+01  4.562895e+01  9.960284e+00
    endloop
  endfacet
  facet normal -1.870657e-01 -7.819584e-09  9.823474e-01
    outer loop
      vertex -4.562895e+01 -4.562895e+01  9.960284e+00
      vertex -4.562895e+01  4.562895e+01  9.960284e+00
      vertex -4.623811e+01 -4.623811e+01  9.844284e+00
    endloop
  endfacet
  facet normal -1.870657e-01 -7.716569e-09  9.823475e-01
    outer loop
      vertex -4.623811e+01 -4.623811e+01  9.844284e+00
      vertex -4.562895e+01  4.562895e+01  9.960284e+00
      vertex -4.623811e+01  4.623811e+01  9.844284e+00
    endloop
  endfacet
  facet normal -2.778637e-01 -1.146204e-08  9.606206e-01
    outer loop
      vertex -4.623811e+01 -4.623811e+01  9.844284e+00
      vertex -4.623811e+01  4.623811e+01  9.844284e+00
      vertex -4.653917e+01 -4.653917e+01  9.757201e+00
    endloop
  endfacet
  facet normal -2.778670e-01  0.000000e+00  9.606195e-01
    outer loop
      vertex -4.653917e+01 -4.653917e+01  9.757201e+00
      vertex -4.623811e+01  4.623811e+01  9.844284e+00
      vertex -4.653917e+01  4.653917e+01  9.757201e+00
    endloop
  endfacet
  facet normal -3.377842e-01  0.000000e+00  9.412236e-01
    outer loop
      vertex -4.653917e+01 -4.653917e+01  9.757201e+00
      vertex -4.653917e+01  4.653917e+01  9.757201e+00
      vertex -4.683703e+01 -4.683702e+01  9.650305e+00
    endloop
  endfacet
  facet normal -3.377880e-01  1.375577e-08  9.412223e-01
    outer loop
      vertex -4.683703e+01 -4.683702e+01  9.650305e+00
      vertex -4.653917e+01  4.653917e+01  9.757201e+00
      vertex -4.683702e+01  4.683703e+01  9.650305e+00
    endloop
  endfacet
  facet normal -4.068658e-01  1.656883e-08  9.134879e-01
    outer loop
      vertex -4.683703e+01 -4.683702e+01  9.650305e+00
      vertex -4.683702e+01  4.683703e+01  9.650305e+00
      vertex -4.722792e+01 -4.722791e+01  9.476204e+00
    endloop
  endfacet
  facet normal -4.068658e-01  1.643170e-08  9.134879e-01
    outer loop
      vertex -4.722792e+01 -4.722791e+01  9.476204e+00
      vertex -4.683702e+01  4.683703e+01  9.650305e+00
      vertex -4.722791e+01  4.722792e+01  9.476204e+00
    endloop
  endfacet
  facet normal -4.842271e-01  1.955602e-08  8.749424e-01
    outer loop
      vertex -4.722792e+01 -4.722791e+01  9.476204e+00
      vertex -4.722791e+01  4.722792e+01  9.476204e+00
      vertex -4.760973e+01 -4.760973e+01  9.264892e+00
    endloop
  endfacet
  facet normal -4.842271e-01  1.939918e-08  8.749423e-01
    outer loop
      vertex -4.760973e+01 -4.760973e+01  9.264892e+00
      vertex -4.722791e+01  4.722792e+01  9.476204e+00
      vertex -4.760973e+01  4.760973e+01  9.264892e+00
    endloop
  endfacet
  facet normal -5.595220e-01  2.241566e-08  8.288155e-01
    outer loop
      vertex -4.760973e+01 -4.760973e+01  9.264892e+00
      vertex -4.760973e+01  4.760973e+01  9.264892e+00
      vertex -4.797989e+01 -4.797989e+01  9.015002e+00
    endloop
  endfacet
  facet normal -5.595180e-01  0.000000e+00  8.288181e-01
    outer loop
      vertex -4.797989e+01 -4.797989e+01  9.015002e+00
      vertex -4.760973e+01  4.760973e+01  9.264892e+00
      vertex -4.797989e+01  4.797989e+01  9.015002e+00
    endloop
  endfacet
  facet normal -6.407706e-01  0.000000e+00  7.677326e-01
    outer loop
      vertex -4.797989e+01 -4.797989e+01  9.015002e+00
      vertex -4.797989e+01  4.797989e+01  9.015002e+00
      vertex -4.841742e+01 -4.841741e+01  8.649834e+00
    endloop
  endfacet
  facet normal -6.407738e-01  2.524255e-08  7.677298e-01
    outer loop
      vertex -4.841742e+01 -4.841741e+01  8.649834e+00
      vertex -4.797989e+01  4.797989e+01  9.015002e+00
      vertex -4.841741e+01  4.841742e+01  8.649834e+00
    endloop
  endfacet
  facet normal -7.046036e-01  2.775706e-08  7.096012e-01
    outer loop
      vertex -4.841742e+01 -4.841741e+01  8.649834e+00
      vertex -4.841741e+01  4.841742e+01  8.649834e+00
      vertex -4.862555e+01 -4.862555e+01  8.443170e+00
    endloop
  endfacet
  facet normal -7.045971e-01  0.000000e+00  7.096076e-01
    outer loop
      vertex -4.862555e+01 -4.862555e+01  8.443170e+00
      vertex -4.841741e+01  4.841742e+01  8.649834e+00
      vertex -4.862555e+01  4.862555e+01  8.443170e+00
    endloop
  endfacet
  facet normal -7.453973e-01  0.000000e+00  6.666204e-01
    outer loop
      vertex -4.862555e+01 -4.862555e+01  8.443170e+00
      vertex -4.862555e+01  4.862555e+01  8.443170e+00
      vertex -4.882511e+01 -4.882511e+01  8.220020e+00
    endloop
  endfacet
  facet normal -7.453973e-01  0.000000e+00  6.666204e-01
    outer loop
      vertex -4.882511e+01 -4.882511e+01  8.220020e+00
      vertex -4.862555e+01  4.862555e+01  8.443170e+00
      vertex -4.882511e+01  4.882511e+01  8.220020e+00
    endloop
  endfacet
  facet normal -7.907273e-01  0.000000e+00  6.121685e-01
    outer loop
      vertex -4.882511e+01 -4.882511e+01  8.220020e+00
      vertex -4.882511e+01  4.882511e+01  8.220020e+00
      vertex -4.907553e+01 -4.907553e+01  7.896563e+00
    endloop
  endfacet
  facet normal -7.907274e-01  0.000000e+00  6.121685e-01
    outer loop
      vertex -4.907553e+01 -4.907553e+01  7.896563e+00
      vertex -4.882511e+01  4.882511e+01  8.220020e+00
      vertex -4.907553e+01  4.907553e+01  7.896563e+00
    endloop
  endfacet
  facet normal -8.387690e-01  0.000000e+00  5.444874e-01
    outer loop
      vertex -4.907553e+01 -4.907553e+01  7.896563e+00
      vertex -4.907553e+01  4.907553e+01  7.896563e+00
      vertex -4.930473e+01 -4.930473e+01  7.543482e+00
    endloop
  endfacet
  facet normal -8.387690e-01  0.000000e+00  5.444874e-01
    outer loop
      vertex -4.930473e+01 -4.930473e+01  7.543482e+00
      vertex -4.907553e+01  4.907553e+01  7.896563e+00
      vertex -4.930473e+01  4.930473e+01  7.543482e+00
    endloop
  endfacet
  facet normal -8.821776e-01  0.000000e+00  4.709168e-01
    outer loop
      vertex -4.930473e+01 -4.930473e+01  7.543482e+00
      vertex -4.930473e+01  4.930473e+01  7.543482e+00
      vertex -4.950876e+01 -4.950876e+01  7.161263e+00
    endloop
  endfacet
  facet normal -8.821776e-01  0.000000e+00  4.709167e-01
    outer loop
      vertex -4.950876e+01 -4.950876e+01  7.161263e+00
      vertex -4.930473e+01  4.930473e+01  7.543482e+00
      vertex -4.950876e+01  4.950876e+01  7.161263e+00
    endloop
  endfacet
  facet normal -9.129585e-01  0.000000e+00  4.080525e-01
    outer loop
      vertex -4.950876e+01 -4.950876e+01  7.161263e+00
      vertex -4.950876e+01  4.950876e+01  7.161263e+00
      vertex -4.961760e+01 -4.961760e+01  6.917765e+00
    endloop
  endfacet
  facet normal -9.129585e-01  0.000000e+00  4.080525e-01
    outer loop
      vertex -4.961760e+01 -4.961760e+01  6.917765e+00
      vertex -4.950876e+01  4.950876e+01  7.161263e+00
      vertex -4.961760e+01  4.961760e+01  6.917765e+00
    endloop
  endfacet
  facet normal -9.335811e-01  0.000000e+00  3.583664e-01
    outer loop
      vertex -4.961760e+01 -4.961760e+01  6.917765e+00
      vertex -4.961760e+01  4.961760e+01  6.917765e+00
      vertex -4.971477e+01 -4.971477e+01  6.664612e+00
    endloop
  endfacet
  facet normal -9.335811e-01  0.000000e+00  3.583664e-01
    outer loop
      vertex -4.971477e+01 -4.971477e+01  6.664612e+00
      vertex -4.961760e+01  4.961760e+01  6.917765e+00
      vertex -4.971477e+01  4.971477e+01  6.664612e+00
    endloop
  endfacet
  facet normal -9.517660e-01  0.000000e+00  3.068250e-01
    outer loop
      vertex -4.971477e+01 -4.971477e+01  6.664612e+00
      vertex -4.971477e+01  4.971477e+01  6.664612e+00
      vertex -4.979926e+01 -4.979926e+01  6.402544e+00
    endloop
  endfacet
  facet normal -9.517619e-01 -3.645319e-08  3.068375e-01
    outer loop
      vertex -4.979926e+01 -4.979926e+01  6.402544e+00
      vertex -4.971477e+01  4.971477e+01  6.664612e+00
      vertex -4.979926e+01  4.979926e+01  6.402544e+00
    endloop
  endfacet
  facet normal -9.673105e-01 -3.704871e-08  2.535951e-01
    outer loop
      vertex -4.979926e+01 -4.979926e+01  6.402544e+00
      vertex -4.979926e+01  4.979926e+01  6.402544e+00
      vertex -4.987004e+01 -4.987005e+01  6.132526e+00
    endloop
  endfacet
  facet normal -9.673105e-01 -3.699612e-08  2.535951e-01
    outer loop
      vertex -4.987004e+01 -4.987005e+01  6.132526e+00
      vertex -4.979926e+01  4.979926e+01  6.402544e+00
      vertex -4.987005e+01  4.987004e+01  6.132526e+00
    endloop
  endfacet
  facet normal -9.818588e-01 -3.755255e-08  1.896133e-01
    outer loop
      vertex -4.987004e+01 -4.987005e+01  6.132526e+00
      vertex -4.987005e+01  4.987004e+01  6.132526e+00
      vertex -4.994156e+01 -4.994156e+01  5.762230e+00
    endloop
  endfacet
  facet normal -9.818588e-01 -3.749877e-08  1.896132e-01
    outer loop
      vertex -4.994156e+01 -4.994156e+01  5.762230e+00
      vertex -4.987005e+01  4.987004e+01  6.132526e+00
      vertex -4.994156e+01  4.994156e+01  5.762230e+00
    endloop
  endfacet
  facet normal -9.934059e-01 -3.793977e-08  1.146495e-01
    outer loop
      vertex -4.994156e+01 -4.994156e+01  5.762230e+00
      vertex -4.994156e+01  4.994156e+01  5.762230e+00
      vertex -4.998528e+01 -4.998528e+01  5.383373e+00
    endloop
  endfacet
  facet normal -9.934072e-01  0.000000e+00  1.146397e-01
    outer loop
      vertex -4.998528e+01 -4.998528e+01  5.383373e+00
      vertex -4.994156e+01  4.994156e+01  5.762230e+00
      vertex -4.998528e+01  4.998528e+01  5.383373e+00
    endloop
  endfacet
  facet normal -9.992636e-01  0.000000e+00  3.837011e-02
    outer loop
      vertex -4.998528e+01 -4.998528e+01  5.383373e+00
      vertex -4.998528e+01  4.998528e+01  5.383373e+00
      vertex -5.000000e+01 -5.000000e+01  5.000000e+00
    endloop
  endfacet
  facet normal -9.992635e-01  0.000000e+00  3.837011e-02
    outer loop
      vertex -5.000000e+01 -5.000000e+01  5.000000e+00
      vertex -4.998528e+01  4.998528e+01  5.383373e+00
      vertex -5.000000e+01  5.000000e+01  5.000000e+00
    endloop
  endfacet
  facet normal  0.000000e+00 -1.450420e-03  9.999989e-01
    outer loop
      vertex  4.500000e+01 -4.500000e+01  1.000000e+01
      vertex -4.500000e+01 -4.500000e+01  1.000000e+01
      vertex  4.501447e+01 -4.501447e+01  9.999979e+00
    endloop
  endfacet
  facet normal  0.000000e+00 -1.450420e-03  9.999990e-01
    outer loop
      vertex  4.501447e+01 -4.501447e+01  9.999979e+00
      vertex -4.500000e+01 -4.500000e+01  1.000000e+01
      vertex -4.501447e+01 -4.501447e+01  9.999979e+00
    endloop
  endfacet
  facet normal  0.000000e+00 -6.446432e-02  9.979200e-01
    outer loop
      vertex  4.501447e+01 -4.501447e+01  9.999979e+00
      vertex -4.501447e+01 -4.501447e+01  9.999979e+00
      vertex  4.562895e+01 -4.562895e+01  9.960284e+00
    endloop
  endfacet
  facet normal  2.694674e-09 -6.446392e-02  9.979200e-01
    outer loop
      vertex  4.562895e+01 -4.562895e+01  9.960284e+00
      vertex -4.501447e+01 -4.501447e+01  9.999979e+00
      vertex -4.562895e+01 -4.562895e+01  9.960284e+00
    endloop
  endfacet
  facet normal  7.819584e-09 -1.870657e-01  9.823474e-01
    outer loop
      vertex  4.562895e+01 -4.562895e+01  9.960284e+00
      vertex -4.562895e+01 -4.562895e+01  9.960284e+00
      vertex  4.623811e+01 -4.623811e+01  9.844284e+00
    endloop
  endfacet
  facet normal  7.716569e-09 -1.870657e-01  9.823475e-01
    outer loop
      vertex  4.623811e+01 -4.623811e+01  9.844284e+00
      vertex -4.562895e+01 -4.562895e+01  9.960284e+00
      vertex -4.623811e+01 -4.623811e+01  9.844284e+00
    endloop
  endfacet
  facet normal  1.146204e-08 -2.778637e-01  9.606206e-01
    outer loop
      vertex  4.623811e+01 -4.623811e+01  9.844284e+00
      vertex -4.623811e+01 -4.623811e+01  9.844284e+00
      vertex  4.653917e+01 -4.653917e+01  9.757201e+00
    endloop
  endfacet
  facet normal  0.000000e+00 -2.778670e-01  9.606195e-01
    outer loop
      vertex  4.653917e+01 -4.653917e+01  9.757201e+00
      vertex -4.623811e+01 -4.623811e+01  9.844284e+00
      vertex -4.653917e+01 -4.653917e+01  9.757201e+00
    endloop
  endfacet
  facet normal  0.000000e+00 -3.377842e-01  9.412236e-01
    outer loop
      vertex  4.653917e+01 -4.653917e+01  9.757201e+00
      vertex -4.653917e+01 -4.653917e+01  9.757201e+00
      vertex  4.683702e+01 -4.683703e+01  9.650305e+00
    endloop
  endfacet
  facet normal -1.375577e-08 -3.377880e-01  9.412223e-01
    outer loop
      vertex  4.683702e+01 -4.683703e+01  9.650305e+00
      vertex -4.653917e+01 -4.653917e+01  9.757201e+00
      vertex -4.683703e+01 -4.683702e+01  9.650305e+00
    endloop
  endfacet
  facet normal -1.656883e-08 -4.068658e-01  9.134879e-01
    outer loop
      vertex  4.683702e+01 -4.683703e+01  9.650305e+00
      vertex -4.683703e+01 -4.683702e+01  9.650305e+00
      vertex  4.722791e+01 -4.722792e+01  9.476204e+00
    endloop
  endfacet
  facet normal -1.643170e-08 -4.068658e-01  9.134879e-01
    outer loop
      vertex  4.722791e+01 -4.722792e+01  9.476204e+00
      vertex -4.683703e+01 -4.683702e+01  9.650305e+00
      vertex -4.722792e+01 -4.722791e+01  9.476204e+00
    endloop
  endfacet
  facet normal -1.955602e-08 -4.842271e-01  8.749424e-01
    outer loop
      vertex  4.722791e+01 -4.722792e+01  9.476204e+00
      vertex -4.722792e+01 -4.722791e+01  9.476204e+00
      vertex  4.760973e+01 -4.760973e+01  9.264892e+00
    endloop
  endfacet
  facet normal -1.939918e-08 -4.842271e-01  8.749423e-01
    outer loop
      vertex  4.760973e+01 -4.760973e+01  9.264892e+00
      vertex -4.722792e+01 -4.722791e+01  9.476204e+00
      vertex -4.760973e+01 -4.760973e+01  9.264892e+00
    endloop
  endfacet
  facet normal -2.241566e-08 -5.595220e-01  8.288155e-01
    outer loop
      vertex  4.760973e+01 -4.760973e+01  9.264892e+00
      vertex -4.760973e+01 -4.760973e+01  9.264892e+00
      vertex  4.797989e+01 -4.797989e+01  9.015002e+00
    endloop
  endfacet
  facet normal  0.000000e+00 -5.595180e-01  8.288181e-01
    outer loop
      vertex  4.797989e+01 -4.797989e+01  9.015002e+00
      vertex -4.760973e+01 -4.760973e+01  9.264892e+00
      vertex -4.797989e+01 -4.797989e+01  9.015002e+00
    endloop
  endfacet
  facet normal  0.000000e+00 -6.407706e-01  7.677326e-01
    outer loop
      vertex  4.797989e+01 -4.797989e+01  9.015002e+00
      vertex -4.797989e+01 -4.797989e+01  9.015002e+00
      vertex  4.841741e+01 -4.841742e+01  8.649834e+00
    endloop
  endfacet
  facet normal -2.524255e-08 -6.407738e-01  7.677298e-01
    outer loop
      vertex  4.841741e+01 -4.841742e+01  8.649834e+00
      vertex -4.797989e+01 -4.797989e+01  9.015002e+00
      vertex -4.841742e+01 -4.841741e+01  8.649834e+00
    endloop
  endfacet
  facet normal -2.775706e-08 -7.046036e-01  7.096012e-01
    outer loop
      vertex  4.841741e+01 -4.841742e+01  8.649834e+00
      vertex -4.841742e+01 -4.841741e+01  8.649834e+00
      vertex  4.862555e+01 -4.862555e+01  8.443170e+00
    endloop
  endfacet
  facet normal  0.000000e+00 -7.045971e-01  7.096076e-01
    outer loop
      vertex  4.862555e+01 -4.862555e+01  8.443170e+00
      vertex -4.841742e+01 -4.841741e+01  8.649834e+00
      vertex -4.862555e+01 -4.862555e+01  8.443170e+00
    endloop
  endfacet
  facet normal  0.000000e+00 -7.453973e-01  6.666204e-01
    outer loop
      vertex  4.862555e+01 -4.862555e+01  8.443170e+00
      vertex -4.862555e+01 -4.862555e+01  8.443170e+00
      vertex  4.882511e+01 -4.882511e+01  8.220020e+00
    endloop
  endfacet
  facet normal  0.000000e+00 -7.453973e-01  6.666204e-01
    outer loop
      vertex  4.882511e+01 -4.882511e+01  8.220020e+00
      vertex -4.862555e+01 -4.862555e+01  8.443170e+00
      vertex -4.882511e+01 -4.882511e+01  8.220020e+00
    endloop
  endfacet
  facet normal  0.000000e+00 -7.907273e-01  6.121685e-01
    outer loop
      vertex  4.882511e+01 -4.882511e+01  8.220020e+00
      vertex -4.882511e+01 -4.882511e+01  8.220020e+00
      vertex  4.907553e+01 -4.907553e+01  7.896563e+00
    endloop
  endfacet
  facet normal  0.000000e+00 -7.907274e-01  6.121685e-01
    outer loop
      vertex  4.907553e+01 -4.907553e+01  7.896563e+00
      vertex -4.882511e+01 -4.882511e+01  8.220020e+00
      vertex -4.907553e+01 -4.907553e+01  7.896563e+00
    endloop
  endfacet
  facet normal  0.000000e+00 -8.387690e-01  5.444874e-01
    outer loop
      vertex  4.907553e+01 -4.907553e+01  7.896563e+00
      vertex -4.907553e+01 -4.907553e+01  7.896563e+00
      vertex  4.930473e+01 -4.930473e+01  7.543482e+00
    endloop
  endfacet
  facet normal  0.000000e+00 -8.387690e-01  5.444874e-01
    outer loop
      vertex  4.930473e+01 -4.930473e+01  7.543482e+00
      vertex -4.907553e+01 -4.907553e+01  7.896563e+00
      vertex -4.930473e+01 -4.930473e+01  7.543482e+00
    endloop
  endfacet
  facet normal  0.000000e+00 -8.821776e-01  4.709168e-01
    outer loop
      vertex  4.930473e+01 -4.930473e+01  7.543482e+00
      vertex -4.930473e+01 -4.930473e+01  7.543482e+00
      vertex  4.950876e+01 -4.950876e+01  7.161263e+00
    endloop
  endfacet
  facet normal  0.000000e+00 -8.821776e-01  4.709167e-01
    outer loop
      vertex  4.950876e+01 -4.950876e+01  7.161263e+00
      vertex -4.930473e+01 -4.930473e+01  7.543482e+00
      vertex -4.950876e+01 -4.950876e+01  7.161263e+00
    endloop
  endfacet
  facet normal  0.000000e+00 -9.129585e-01  4.080525e-01
    outer loop
      vertex  4.950876e+01 -4.950876e+01  7.161263e+00
      vertex -4.950876e+01 -4.950876e+01  7.161263e+00
      vertex  4.961760e+01 -4.961760e+01  6.917765e+00
    endloop
  endfacet
  facet normal  0.000000e+00 -9.129585e-01  4.080525e-01
    outer loop
      vertex  4.961760e+01 -4.961760e+01  6.917765e+00
      vertex -4.950876e+01 -4.950876e+01  7.161263e+00
      vertex -4.961760e+01 -4.961760e+01  6.917765e+00
    endloop
  endfacet
  facet normal  0.000000e+00 -9.335811e-01  3.583664e-01
    outer loop
      vertex  4.961760e+01 -4.961760e+01  6.917765e+00
      vertex -4.961760e+01 -4.961760e+01  6.917765e+00
      vertex  4.971477e+01 -4.971477e+01  6.664612e+00
    endloop
  endfacet
  facet normal  0.000000e+00 -9.335811e-01  3.583664e-01
    outer loop
      vertex  4.971477e+01 -4.971477e+01  6.664612e+00
      vertex -4.961760e+01 -4.961760e+01  6.917765e+00
      vertex -4.971477e+01 -4.971477e+01  6.664612e+00
    endloop
  endfacet
  facet normal  0.000000e+00 -9.517660e-01  3.068250e-01
    outer loop
      vertex  4.971477e+01 -4.971477e+01  6.664612e+00
      vertex -4.971477e+01 -4.971477e+01  6.664612e+00
      vertex  4.979926e+01 -4.979926e+01  6.402544e+00
    endloop
  endfacet
  facet normal  3.645319e-08 -9.517619e-01  3.068375e-01
    outer loop
      vertex  4.979926e+01 -4.979926e+01  6.402544e+00
      vertex -4.971477e+01 -4.971477e+01  6.664612e+00
      vertex -4.979926e+01 -4.979926e+01  6.402544e+00
    endloop
  endfacet
  facet normal  3.704871e-08 -9.673105e-01  2.535951e-01
    outer loop
      vertex  4.979926e+01 -4.979926e+01  6.402544e+00
      vertex -4.979926e+01 -4.979926e+01  6.402544e+00
      vertex  4.987005e+01 -4.987004e+01  6.132526e+00
    endloop
  endfacet
  facet normal  3.699612e-08 -9.673105e-01  2.535951e-01
    outer loop
      vertex  4.987005e+01 -4.987004e+01  6.132526e+00
      vertex -4.979926e+01 -4.979926e+01  6.402544e+00
      vertex -4.987004e+01 -4.987005e+01  6.132526e+00
    endloop
  endfacet
  facet normal  3.755255e-08 -9.818588e-01  1.896133e-01
    outer loop
      vertex  4.987005e+01 -4.987004e+01  6.132526e+00
      vertex -4.987004e+01 -4.987005e+01  6.132526e+00
      vertex  4.994156e+01 -4.994156e+01  5.762230e+00
    endloop
  endfacet
  facet normal  3.749877e-08 -9.818588e-01  1.896132e-01
    outer loop
      vertex  4.994156e+01 -4.994156e+01  5.762230e+00
      vertex -4.987004e+01 -4.987005e+01  6.132526e+00
      vertex -4.994156e+01 -4.994156e+01  5.762230e+00
    endloop
  endfacet
  facet normal  3.793977e-08 -9.934059e-01  1.146495e-01
    outer loop
      vertex  4.994156e+01 -4.994156e+01  5.762230e+00
      vertex -4.994156e+01 -4.994156e+01  5.762230e+00
      vertex  4.998528e+01 -4.998528e+01  5.383373e+00
    endloop
  endfacet
  facet normal  0.000000e+00 -9.934072e-01  1.146397e-01
    outer loop
      vertex  4.998528e+01 -4.998528e+01  5.383373e+00
      vertex -4.994156e+01 -4.994156e+01  5.762230e+00
      vertex -4.998528e+01 -4.998528e+01  5.383373e+00
    endloop
  endfacet
  facet normal  0.000000e+00 -9.992636e-01  3.837011e-02
    outer loop
      vertex  4.998528e+01 -4.998528e+01  5.383373e+00
      vertex -4.998528e+01 -4.998528e+01  5.383373e+00
      vertex  5.000000e+01 -5.000000e+01  5.000000e+00
    endloop
  endfacet
  facet normal  0.000000e+00 -9.992635e-01  3.837011e-02
    outer loop
      vertex  5.000000e+01 -5.000000e+01  5.000000e+00
      vertex -4.998528e+01 -4.998528e+01  5.383373e+00
      vertex -5.000000e+01 -5.000000e+01  5.000000e+00
    endloop
  endfacet
  facet normal  1.450420e-03  -0.000000e+00  9.999989e-01
    outer loop
      vertex  4.500000e+01  4.500000e+01  1.000000e+01
      vertex  4.500000e+01 -4.500000e+01  1.000000e+01
      vertex  4.501447e+01  4.501447e+01  9.999979e+00
    endloop
  endfacet
  facet normal  1.450420e-03  0.000000e+00  9.999990e-01
    outer loop
      vertex  4.501447e+01  4.501447e+01  9.999979e+00
      vertex  4.500000e+01 -4.500000e+01  1.000000e+01
      vertex  4.501447e+01 -4.501447e+01  9.999979e+00
    endloop
  endfacet
  facet normal  6.446432e-02  -0.000000e+00  9.979200e-01
    outer loop
      vertex  4.501447e+01  4.501447e+01  9.999979e+00
      vertex  4.501447e+01 -4.501447e+01  9.999979e+00
      vertex  4.562895e+01  4.562895e+01  9.960284e+00
    endloop
  endfacet
  facet normal  6.446392e-02  2.694674e-09  9.979200e-01
    outer loop
      vertex  4.562895e+01  4.562895e+01  9.960284e+00
      vertex  4.501447e+01 -4.501447e+01  9.999979e+00
      vertex  4.562895e+01 -4.562895e+01  9.960284e+00
    endloop
  endfacet
  facet normal  1.870657e-01  7.819584e-09  9.823474e-01
    outer loop
      vertex  4.562895e+01  4.562895e+01  9.960284e+00
      vertex  4.562895e+01 -4.562895e+01  9.960284e+00
      vertex  4.623811e+01  4.623811e+01  9.844284e+00
    endloop
  endfacet
  facet normal  1.870657e-01  7.716569e-09  9.823475e-01
    outer loop
      vertex  4.623811e+01  4.623811e+01  9.844284e+00
      vertex  4.562895e+01 -4.562895e+01  9.960284e+00
      vertex  4.623811e+01 -4.623811e+01  9.844284e+00
    endloop
  endfacet
  facet normal  2.778637e-01  1.146204e-08  9.606206e-01
    outer loop
      vertex  4.623811e+01  4.623811e+01  9.844284e+00
      vertex  4.623811e+01 -4.623811e+01  9.844284e+00
      vertex  4.653917e+01  4.653917e+01  9.757201e+00
    endloop
  endfacet
  facet normal  2.778670e-01  0.000000e+00  9.606195e-01
    outer loop
      vertex  4.653917e+01  4.653917e+01  9.757201e+00
      vertex  4.623811e+01 -4.623811e+01  9.844284e+00
      vertex  4.653917e+01 -4.653917e+01  9.757201e+00
    endloop
  endfacet
  facet normal  3.377842e-01  -0.000000e+00  9.412236e-01
    outer loop
      vertex  4.653917e+01  4.653917e+01  9.757201e+00
      vertex  4.653917e+01 -4.653917e+01  9.757201e+00
      vertex  4.683703e+01  4.683702e+01  9.650305e+00
    endloop
  endfacet
  facet normal  3.377880e-01 -1.375577e-08  9.412223e-01
    outer loop
      vertex  4.683703e+01  4.683702e+01  9.650305e+00
      vertex  4.653917e+01 -4.653917e+01  9.757201e+00
      vertex  4.683702e+01 -4.683703e+01  9.650305e+00
    endloop
  endfacet
  facet normal  4.068658e-01 -1.656883e-08  9.134879e-01
    outer loop
      vertex  4.683703e+01  4.683702e+01  9.650305e+00
      vertex  4.683702e+01 -4.683703e+01  9.650305e+00
      vertex  4.722792e+01  4.722791e+01  9.476204e+00
    endloop
  endfacet
  facet normal  4.068658e-01 -1.643170e-08  9.134879e-01
    outer loop
      vertex  4.722792e+01  4.722791e+01  9.476204e+00
      vertex  4.683702e+01 -4.683703e+01  9.650305e+00
      vertex  4.722791e+01 -4.722792e+01  9.476204e+00
    endloop
  endfacet
  facet normal  4.842271e-01 -1.955602e-08  8.749424e-01
    outer loop
      vertex  4.722792e+01  4.722791e+01  9.476204e+00
      vertex  4.722791e+01 -4.722792e+01  9.476204e+00
      vertex  4.760973e+01  4.760973e+01  9.264892e+00
    endloop
  endfacet
  facet normal  4.842271e-01 -1.939918e-08  8.749423e-01
    outer loop
      vertex  4.760973e+01  4.760973e+01  9.264892e+00
      vertex  4.722791e+01 -4.722792e+01  9.476204e+00
      vertex  4.760973e+01 -4.760973e+01  9.264892e+00
    endloop
  endfacet
  facet normal  5.595220e-01 -2.241566e-08  8.288155e-01
    outer loop
      vertex  4.760973e+01  4.760973e+01  9.264892e+00
      vertex  4.760973e+01 -4.760973e+01  9.264892e+00
      vertex  4.797989e+01  4.797989e+01  9.015002e+00
    endloop
  endfacet
  facet normal  5.595180e-01  0.000000e+00  8.288181e-01
    outer loop
      vertex  4.797989e+01  4.797989e+01  9.015002e+00
      vertex  4.760973e+01 -4.760973e+01  9.264892e+00
      vertex  4.797989e+01 -4.797989e+01  9.015002e+00
    endloop
  endfacet
  facet normal  6.407706e-01  -0.000000e+00  7.677326e-01
    outer loop
      vertex  4.797989e+01  4.797989e+01  9.015002e+00
      vertex  4.797989e+01 -4.797989e+01  9.015002e+00
      vertex  4.841742e+01  4.841741e+01  8.649834e+00
    endloop
  endfacet
  facet normal  6.407738e-01 -2.524255e-08  7.677298e-01
    outer loop
      vertex  4.841742e+01  4.841741e+01  8.649834e+00
      vertex  4.797989e+01 -4.797989e+01  9.015002e+00
      vertex  4.841741e+01 -4.841742e+01  8.649834e+00
    endloop
  endfacet
  facet normal  7.046036e-01 -2.775706e-08  7.096012e-01
    outer loop
      vertex  4.841742e+01  4.841741e+01  8.649834e+00
      vertex  4.841741e+01 -4.841742e+01  8.649834e+00
      vertex  4.862555e+01  4.862555e+01  8.443170e+00
    endloop
  endfacet
  facet normal  7.045971e-01  0.000000e+00  7.096076e-01
    outer loop
      vertex  4.862555e+01  4.862555e+01  8.443170e+00
      vertex  4.841741e+01 -4.841742e+01  8.649834e+00
      vertex  4.862555e+01 -4.862555e+01  8.443170e+00
    endloop
  endfacet
  facet normal  7.453973e-01  -0.000000e+00  6.666204e-01
    outer loop
      vertex  4.862555e+01  4.862555e+01  8.443170e+00
      vertex  4.862555e+01 -4.862555e+01  8.443170e+00
      vertex  4.882511e+01  4.882511e+01  8.220020e+00
    endloop
  endfacet
  facet normal  7.453973e-01  0.000000e+00  6.666204e-01
    outer loop
      vertex  4.882511e+01  4.882511e+01  8.220020e+00
      vertex  4.862555e+01 -4.862555e+01  8.443170e+00
      vertex  4.882511e+01 -4.882511e+01  8.220020e+00
    endloop
  endfacet
  facet normal  7.907273e-01  -0.000000e+00  6.121685e-01
    outer loop
      vertex  4.882511e+01  4.882511e+01  8.220020e+00
      vertex  4.882511e+01 -4.882511e+01  8.220020e+00
      vertex  4.907553e+01  4.907553e+01  7.896563e+00
    endloop
  endfacet
  facet normal  7.907274e-01  0.000000e+00  6.121685e-01
    outer loop
      vertex  4.907553e+01  4.907553e+01  7.896563e+00
      vertex  4.882511e+01 -4.882511e+01  8.220020e+00
      vertex  4.907553e+01 -4.907553e+01  7.896563e+00
    endloop
  endfacet
  facet normal  8.387690e-01  -0.000000e+00  5.444874e-01
    outer loop
      vertex  4.907553e+01  4.907553e+01  7.896563e+00
      vertex  4.907553e+01 -4.907553e+01  7.896563e+00
      vertex  4.930473e+01  4.930473e+01  7.543482e+00
    endloop
  endfacet
  facet normal  8.387690e-01  0.000000e+00  5.444874e-01
    outer loop
      vertex  4.930473e+01  4.930473e+01  7.543482e+00
      vertex  4.907553e+01 -4.907553e+01  7.896563e+00
      vertex  4.930473e+01 -4.930473e+01  7.543482e+00
    endloop
  endfacet
  facet normal  8.821776e-01  -0.000000e+00  4.709168e-01
    outer loop
      vertex  4.930473e+01  4.930473e+01  7.543482e+00
      vertex  4.930473e+01 -4.930473e+01  7.543482e+00
      vertex  4.950876e+01  4.950876e+01  7.161263e+00
    endloop
  endfacet
  facet normal  8.821776e-01  0.000000e+00  4.709167e-01
    outer loop
      vertex  4.950876e+01  4.950876e+01  7.161263e+00
      vertex  4.930473e+01 -4.930473e+01  7.543482e+00
      vertex  4.950876e+01 -4.950876e+01  7.161263e+00
    endloop
  endfacet
  facet normal  9.129585e-01  -0.000000e+00  4.080525e-01
    outer loop
      vertex  4.950876e+01  4.950876e+01  7.161263e+00
      vertex  4.950876e+01 -4.950876e+01  7.161263e+00
      vertex  4.961760e+01  4.961760e+01  6.917765e+00
    endloop
  endfacet
  facet normal  9.129585e-01  0.000000e+00  4.080525e-01
    outer loop
      vertex  4.961760e+01  4.961760e+01  6.917765e+00
      vertex  4.950876e+01 -4.950876e+01  7.161263e+00
      vertex  4.961760e+01 -4.961760e+01  6.917765e+00
    endloop
  endfacet
  facet normal  9.335811e-01  -0.000000e+00  3.583664e-01
    outer loop
      vertex  4.961760e+01  4.961760e+01  6.917765e+00
      vertex  4.961760e+01 -4.961760e+01  6.917765e+00
      vertex  4.971477e+01  4.971477e+01  6.664612e+00
    endloop
  endfacet
  facet normal  9.335811e-01  0.000000e+00  3.583664e-01
    outer loop
      vertex  4.971477e+01  4.971477e+01  6.664612e+00
      vertex  4.961760e+01 -4.961760e+01  6.917765e+00
      vertex  4.971477e+01 -4.971477e+01  6.664612e+00
    endloop
  endfacet
  facet normal  9.517660e-01  -0.000000e+00  3.068250e-01
    outer loop
      vertex  4.971477e+01  4.971477e+01  6.664612e+00
      vertex  4.971477e+01 -4.971477e+01  6.664612e+00
      vertex  4.979926e+01  4.979926e+01  6.402544e+00
    endloop
  endfacet
  facet normal  9.517619e-01  3.645319e-08  3.068375e-01
    outer loop
      vertex  4.979926e+01  4.979926e+01  6.402544e+00
      vertex  4.971477e+01 -4.971477e+01  6.664612e+00
      vertex  4.979926e+01 -4.979926e+01  6.402544e+00
    endloop
  endfacet
  facet normal  9.673105e-01  3.704871e-08  2.535951e-01
    outer loop
      vertex  4.979926e+01  4.979926e+01  6.402544e+00
      vertex  4.979926e+01 -4.979926e+01  6.402544e+00
      vertex  4.987004e+01  4.987005e+01  6.132526e+00
    endloop
  endfacet
  facet normal  9.673105e-01  3.699612e-08  2.535951e-01
    outer loop
      vertex  4.987004e+01  4.987005e+01  6.132526e+00
      vertex  4.979926e+01 -4.979926e+01  6.402544e+00
      vertex  4.987005e+01 -4.987004e+01  6.132526e+00
    endloop
  endfacet
  facet normal  9.818588e-01  3.755255e-08  1.896133e-01
    outer loop
      vertex  4.987004e+01  4.987005e+01  6.132526e+00
      vertex  4.987005e+01 -4.987004e+01  6.132526e+00
      vertex  4.994156e+01  4.994156e+01  5.762230e+00
    endloop
  endfacet
  facet normal  9.818588e-01  3.749877e-08  1.896132e-01
    outer loop
      vertex  4.994156e+01  4.994156e+01  5.762230e+00
      vertex  4.987005e+01 -4.987004e+01  6.132526e+00
      vertex  4.994156e+01 -4.994156e+01  5.762230e+00
    endloop
  endfacet
  facet normal  9.934059e-01  3.793977e-08  1.146495e-01
    outer loop
      vertex  4.994156e+01  4.994156e+01  5.762230e+00
      vertex  4.994156e+01 -4.994156e+01  5.762230e+00
      vertex  4.998528e+01  4.998528e+01  5.383373e+00
    endloop
  endfacet
  facet normal  9.934072e-01  0.000000e+00  1.146397e-01
    outer loop
      vertex  4.998528e+01  4.998528e+01  5.383373e+00
      vertex  4.994156e+01 -4.994156e+01  5.762230e+00
      vertex  4.998528e+01 -4.998528e+01  5.383373e+00
    endloop
  endfacet
  facet normal  9.992636e-01  -0.000000e+00  3.837011e-02
    outer loop
      vertex  4.998528e+01  4.998528e+01  5.383373e+00
      vertex  4.998528e+01 -4.998528e+01  5.383373e+00
      vertex  5.000000e+01  5.000000e+01  5.000000e+00
    endloop
  endfacet
  facet normal  9.992635e-01  0.000000e+00  3.837011e-02
    outer loop
      vertex  5.000000e+01  5.000000e+01  5.000000e+00
      vertex  4.998528e+01 -4.998528e+01  5.383373e+00
      vertex  5.000000e+01 -5.000000e+01  5.000000e+00
    endloop
  endfacet
  facet normal  0.000000e+00  1.450420e-03  9.999989e-01
    outer loop
      vertex -4.500000e+01  4.500000e+01  1.000000e+01
      vertex  4.500000e+01  4.500000e+01  1.000000e+01
      vertex -4.501447e+01  4.501447e+01  9.999979e+00
    endloop
  endfacet
  facet normal  -0.000000e+00  1.450420e-03  9.999990e-01
    outer loop
      vertex -4.501447e+01  4.501447e+01  9.999979e+00
      vertex  4.500000e+01  4.500000e+01  1.000000e+01
      vertex  4.501447e+01  4.501447e+01  9.999979e+00
    endloop
  endfacet
  facet normal  0.000000e+00  6.446432e-02  9.979200e-01
    outer loop
      vertex -4.501447e+01  4.501447e+01  9.999979e+00
      vertex  4.501447e+01  4.501447e+01  9.999979e+00
      vertex -4.562895e+01  4.562895e+01  9.960284e+00
    endloop
  endfacet
  facet normal -2.694674e-09  6.446392e-02  9.979200e-01
    outer loop
      vertex -4.562895e+01  4.562895e+01  9.960284e+00
      vertex  4.501447e+01  4.501447e+01  9.999979e+00
      vertex  4.562895e+01  4.562895e+01  9.960284e+00
    endloop
  endfacet
  facet normal -7.819584e-09  1.870657e-01  9.823474e-01
    outer loop
      vertex -4.562895e+01  4.562895e+01  9.960284e+00
      vertex  4.562895e+01  4.562895e+01  9.960284e+00
      vertex -4.623811e+01  4.623811e+01  9.844284e+00
    endloop
  endfacet
  facet normal -7.716569e-09  1.870657e-01  9.823475e-01
    outer loop
      vertex -4.623811e+01  4.623811e+01  9.844284e+00
      vertex  4.562895e+01  4.562895e+01  9.960284e+00
      vertex  4.623811e+01  4.623811e+01  9.844284e+00
    endloop
  endfacet
  facet normal -1.146204e-08  2.778637e-01  9.606206e-01
    outer loop
      vertex -4.623811e+01  4.623811e+01  9.844284e+00
      vertex  4.623811e+01  4.623811e+01  9.844284e+00
      vertex -4.653917e+01  4.653917e+01  9.757201e+00
    endloop
  endfacet
  facet normal  -0.000000e+00  2.778670e-01  9.606195e-01
    outer loop
      vertex -4.653917e+01  4.653917e+01  9.757201e+00
      vertex  4.623811e+01  4.623811e+01  9.844284e+00
      vertex  4.653917e+01  4.653917e+01  9.757201e+00
    endloop
  endfacet
  facet normal  0.000000e+00  3.377842e-01  9.412236e-01
    outer loop
      vertex -4.653917e+01  4.653917e+01  9.757201e+00
      vertex  4.653917e+01  4.653917e+01  9.757201e+00
      vertex -4.683702e+01  4.683703e+01  9.650305e+00
    endloop
  endfacet
  facet normal  1.375577e-08  3.377880e-01  9.412223e-01
    outer loop
      vertex -4.683702e+01  4.683703e+01  9.650305e+00
      vertex  4.653917e+01  4.653917e+01  9.757201e+00
      vertex  4.683703e+01  4.683702e+01  9.650305e+00
    endloop
  endfacet
  facet normal  1.656883e-08  4.068658e-01  9.134879e-01
    outer loop
      vertex -4.683702e+01  4.683703e+01  9.650305e+00
      vertex  4.683703e+01  4.683702e+01  9.650305e+00
      vertex -4.722791e+01  4.722792e+01  9.476204e+00
    endloop
  endfacet
  facet normal  1.643170e-08  4.068658e-01  9.134879e-01
    outer loop
      vertex -4.722791e+01  4.722792e+01  9.476204e+00
      vertex  4.683703e+01  4.683702e+01  9.650305e+00
      vertex  4.722792e+01  4.722791e+01  9.476204e+00
    endloop
  endfacet
  facet normal  1.955602e-08  4.842271e-01  8.749424e-01
    outer loop
      vertex -4.722791e+01  4.722792e+01  9.476204e+00
      vertex  4.722792e+01  4.722791e+01  9.476204e+00
      vertex -4.760973e+01  4.760973e+01  9.264892e+00
    endloop
  endfacet
  facet normal  1.939918e-08  4.842271e-01  8.749423e-01
    outer loop
      vertex -4.760973e+01  4.760973e+01  9.264892e+00
      vertex  4.722792e+01  4.722791e+01  9.476204e+00
      vertex  4.760973e+01  4.760973e+01  9.264892e+00
    endloop
  endfacet
  facet normal  2.241566e-08  5.595220e-01  8.288155e-01
    outer loop
      vertex -4.760973e+01  4.760973e+01  9.264892e+00
      vertex  4.760973e+01  4.760973e+01  9.264892e+00
      vertex -4.797989e+01  4.797989e+01  9.015002e+00
    endloop
  endfacet
  facet normal  -0.000000e+00  5.595180e-01  8.288181e-01
    outer loop
      vertex -4.797989e+01  4.797989e+01  9.015002e+00
      vertex  4.760973e+01  4.760973e+01  9.264892e+00
      vertex  4.797989e+01  4.797989e+01  9.015002e+00
    endloop
  endfacet
  facet normal  0.000000e+00  6.407706e-01  7.677326e-01
    outer loop
      vertex -4.797989e+01  4.797989e+01  9.015002e+00
      vertex  4.797989e+01  4.797989e+01  9.015002e+00
      vertex -4.841741e+01  4.841742e+01  8.649834e+00
    endloop
  endfacet
  facet normal  2.524255e-08  6.407738e-01  7.677298e-01
    outer loop
      vertex -4.841741e+01  4.841742e+01  8.649834e+00
      vertex  4.797989e+01  4.797989e+01  9.015002e+00
      vertex  4.841742e+01  4.841741e+01  8.649834e+00
    endloop
  endfacet
  facet normal  2.775706e-08  7.046036e-01  7.096012e-01
    outer loop
      vertex -4.841741e+01  4.841742e+01  8.649834e+00
      vertex  4.841742e+01  4.841741e+01  8.649834e+00
      vertex -4.862555e+01  4.862555e+01  8.443170e+00
    endloop
  endfacet
  facet normal  -0.000000e+00  7.045971e-01  7.096076e-01
    outer loop
      vertex -4.862555e+01  4.862555e+01  8.443170e+00
      vertex  4.841742e+01  4.841741e+01  8.649834e+00
      vertex  4.862555e+01  4.862555e+01  8.443170e+00
    endloop
  endfacet
  facet normal  0.000000e+00  7.453973e-01  6.666204e-01
    outer loop
      vertex -4.862555e+01  4.862555e+01  8.443170e+00
      vertex  4.862555e+01  4.862555e+01  8.443170e+00
      vertex -4.882511e+01  4.882511e+01  8.220020e+00
    endloop
  endfacet
  facet normal  -0.000000e+00  7.453973e-01  6.666204e-01
    outer loop
      vertex -4.882511e+01  4.882511e+01  8.220020e+00
      vertex  4.862555e+01  4.862555e+01  8.443170e+00
      vertex  4.882511e+01  4.882511e+01  8.220020e+00
    endloop
  endfacet
  facet normal  0.000000e+00  7.907273e-01  6.121685e-01
    outer loop
      vertex -4.882511e+01  4.882511e+01  8.220020e+00
      vertex  4.882511e+01  4.882511e+01  8.220020e+00
      vertex -4.907553e+01  4.907553e+01  7.896563e+00
    endloop
  endfacet
  facet normal  -0.000000e+00  7.907274e-01  6.121685e-01
    outer loop
      vertex -4.907553e+01  4.907553e+01  7.896563e+00
      vertex  4.882511e+01  4.882511e+01  8.220020e+00
      vertex  4.907553e+01  4.907553e+01  7.896563e+00
    endloop
  endfacet
  facet normal  0.000000e+00  8.387690e-01  5.444874e-01
    outer loop
      vertex -4.907553e+01  4.907553e+01  7.896563e+00
      vertex  4.907553e+01  4.907553e+01  7.896563e+00
      vertex -4.930473e+01  4.930473e+01  7.543482e+00
    endloop
  endfacet
  facet normal  -0.000000e+00  8.387690e-01  5.444874e-01
    outer loop
      vertex -4.930473e+01  4.930473e+01  7.543482e+00
      vertex  4.907553e+01  4.907553e+01  7.896563e+00
      vertex  4.930473e+01  4.930473e+01  7.543482e+00
    endloop
  endfacet
  facet normal  0.000000e+00  8.821776e-01  4.709168e-01
    outer loop
      vertex -4.930473e+01  4.930473e+01  7.543482e+00
      vertex  4.930473e+01  4.930473e+01  7.543482e+00
      vertex -4.950876e+01  4.950876e+01  7.161263e+00
    endloop
  endfacet
  facet normal  -0.000000e+00  8.821776e-01  4.709167e-01
    outer loop
      vertex -4.950876e+01  4.950876e+01  7.161263e+00
      vertex  4.930473e+01  4.930473e+01  7.543482e+00
      vertex  4.950876e+01  4.950876e+01  7.161263e+00
    endloop
  endfacet
  facet normal  0.000000e+00  9.129585e-01  4.080525e-01
    outer loop
      vertex -4.950876e+01  4.950876e+01  7.161263e+00
      vertex  4.950876e+01  4.950876e+01  7.161263e+00
      vertex -4.961760e+01  4.961760e+01  6.917765e+00
    endloop
  endfacet
  facet normal  -0.000000e+00  9.129585e-01  4.080525e-01
    outer loop
      vertex -4.961760e+01  4.961760e+01  6.917765e+00
      vertex  4.950876e+01  4.950876e+01  7.161263e+00
      vertex  4.961760e+01  4.961760e+01  6.917765e+00
    endloop
  endfacet
  facet normal  0.000000e+00  9.335811e-01  3.583664e-01
    outer loop
      vertex -4.961760e+01  4.961760e+01  6.917765e+00
      vertex  4.961760e+01  4.961760e+01  6.917765e+00
      vertex -4.971477e+01  4.971477e+01  6.664612e+00
    endloop
  endfacet
  facet normal  -0.000000e+00  9.335811e-01  3.583664e-01
    outer loop
      vertex -4.971477e+01  4.971477e+01  6.664612e+00
      vertex  4.961760e+01  4.961760e+01  6.917765e+00
      vertex  4.971477e+01  4.971477e+01  6.664612e+00
    endloop
  endfacet
  facet normal  0.000000e+00  9.517660e-01  3.068250e-01
    outer loop
      vertex -4.971477e+01  4.971477e+01  6.664612e+00
      vertex  4.971477e+01  4.971477e+01  6.664612e+00
      vertex -4.979926e+01  4.979926e+01  6.402544e+00
    endloop
  endfacet
  facet normal -3.645319e-08  9.517619e-01  3.068375e-01
    outer loop
      vertex -4.979926e+01  4.979926e+01  6.402544e+00
      vertex  4.971477e+01  4.971477e+01  6.664612e+00
      vertex  4.979926e+01  4.979926e+01  6.402544e+00
    endloop
  endfacet
  facet normal -3.704871e-08  9.673105e-01  2.535951e-01
    outer loop
      vertex -4.979926e+01  4.979926e+01  6.402544e+00
      vertex  4.979926e+01  4.979926e+01  6.402544e+00
      vertex -4.987005e+01  4.987004e+01  6.132526e+00
    endloop
  endfacet
  facet normal -3.699612e-08  9.673105e-01  2.535951e-01
    outer loop
      vertex -4.987005e+01  4.987004e+01  6.132526e+00
      vertex  4.979926e+01  4.979926e+01  6.402544e+00
      vertex  4.987004e+01  4.987005e+01  6.132526e+00
    endloop
  endfacet
  facet normal -3.755255e-08  9.818588e-01  1.896133e-01
    outer loop
      vertex -4.987005e+01  4.987004e+01  6.132526e+00
      vertex  4.987004e+01  4.987005e+01  6.132526e+00
      vertex -4.994156e+01  4.994156e+01  5.762230e+00
    endloop
  endfacet
  facet normal -3.749877e-08  9.818588e-01  1.896132e-01
    outer loop
      vertex -4.994156e+01  4.994156e+01  5.762230e+00
      vertex  4.987004e+01  4.987005e+01  6.132526e+00
      vertex  4.994156e+01  4.994156e+01  5.762230e+00
    endloop
  endfacet
  facet normal -3.793977e-08  9.934059e-01  1.146495e-01
    outer loop
      vertex -4.994156e+01  4.994156e+01  5.762230e+00
      vertex  4.994156e+01  4.994156e+01  5.762230e+00
      vertex -4.998528e+01  4.998528e+01  5.383373e+00
    endloop
  endfacet
  facet normal  -0.000000e+00  9.934072e-01  1.146397e-01
    outer loop
      vertex -4.998528e+01  4.998528e+01  5.383373e+00
      vertex  4.994156e+01  4.994156e+01  5.762230e+00
      vertex  4.998528e+01  4.998528e+01  5.383373e+00
    endloop
  endfacet
  facet normal  0.000000e+00  9.992636e-01  3.837011e-02
    outer loop
      vertex -4.998528e+01  4.998528e+01  5.383373e+00
      vertex  4.998528e+01  4.998528e+01  5.383373e+00
      vertex -5.000000e+01  5.000000e+01  5.000000e+00
    endloop
  endfacet
  facet normal  -0.000000e+00  9.992635e-01  3.837011e-02
    outer loop
      vertex -5.000000e+01  5.000000e+01  5.000000e+00
      vertex  4.998528e+01  4.998528e+01  5.383373e+00
      vertex  5.000000e+01  5.000000e+01  5.000000e+00
    endloop
  endfacet
  facet normal  -0.000000e+00  0.000000e+00 -1.000000e+00
    outer loop
      vertex -5.000000e+01  5.000000e+01  0.000000e+00
      vertex  5.000000e+01  5.000000e+01  0.000000e+00
      vertex -5.000000e+01 -5.000000e+01  0.000000e+00
    endloop
  endfacet
  facet normal  0.000000e+00  0.000000e+00 -1.000000e+00
    outer loop
      vertex -5.000000e+01 -5.000000e+01  0.000000e+00
      vertex  5.000000e+01  5.000000e+01  0.000000e+00
      vertex  5.000000e+01 -5.000000e+01  0.000000e+00
    endloop
  endfacet
endsolid CATIA STL
