solid CATIA STL
  facet normal  0.000000e+00  9.980268e-01 -6.279017e-02
    outer loop
      vertex -3.000000e+01  5.000000e+00  3.000000e+01
      vertex  3.000000e+01  5.000000e+00  3.000000e+01
      vertex -3.000000e+01  4.960574e+00  2.937333e+01
    endloop
  endfacet
  facet normal  0.000000e+00  9.980268e-01 -6.279017e-02
    outer loop
      vertex -3.000000e+01  4.960574e+00  2.937333e+01
      vertex  3.000000e+01  5.000000e+00  3.000000e+01
      vertex  3.000000e+01  4.960574e+00  2.937333e+01
    endloop
  endfacet
  facet normal  0.000000e+00  9.822872e-01 -1.873813e-01
    outer loop
      vertex -3.000000e+01  4.960574e+00  2.937333e+01
      vertex  3.000000e+01  4.960574e+00  2.937333e+01
      vertex -3.000000e+01  4.842916e+00  2.875655e+01
    endloop
  endfacet
  facet normal  0.000000e+00  9.822872e-01 -1.873813e-01
    outer loop
      vertex -3.000000e+01  4.842916e+00  2.875655e+01
      vertex  3.000000e+01  4.960574e+00  2.937333e+01
      vertex  3.000000e+01  4.842916e+00  2.875655e+01
    endloop
  endfacet
  facet normal  0.000000e+00  9.510561e-01 -3.090181e-01
    outer loop
      vertex -3.000000e+01  4.842916e+00  2.875655e+01
      vertex  3.000000e+01  4.842916e+00  2.875655e+01
      vertex -3.000000e+01  4.648882e+00  2.815938e+01
    endloop
  endfacet
  facet normal  0.000000e+00  9.510561e-01 -3.090181e-01
    outer loop
      vertex -3.000000e+01  4.648882e+00  2.815938e+01
      vertex  3.000000e+01  4.842916e+00  2.875655e+01
      vertex  3.000000e+01  4.648882e+00  2.815938e+01
    endloop
  endfacet
  facet normal  0.000000e+00  9.048272e-01 -4.257789e-01
    outer loop
      vertex -3.000000e+01  4.648882e+00  2.815938e+01
      vertex  3.000000e+01  4.648882e+00  2.815938e+01
      vertex -3.000000e+01  4.381534e+00  2.759123e+01
    endloop
  endfacet
  facet normal  0.000000e+00  9.048272e-01 -4.257789e-01
    outer loop
      vertex -3.000000e+01  4.381534e+00  2.759123e+01
      vertex  3.000000e+01  4.648882e+00  2.815938e+01
      vertex  3.000000e+01  4.381534e+00  2.759123e+01
    endloop
  endfacet
  facet normal  0.000000e+00  8.443283e-01 -5.358263e-01
    outer loop
      vertex -3.000000e+01  4.381534e+00  2.759123e+01
      vertex  3.000000e+01  4.381534e+00  2.759123e+01
      vertex -3.000000e+01  4.045085e+00  2.706107e+01
    endloop
  endfacet
  facet normal  0.000000e+00  8.443283e-01 -5.358263e-01
    outer loop
      vertex -3.000000e+01  4.045085e+00  2.706107e+01
      vertex  3.000000e+01  4.381534e+00  2.759123e+01
      vertex  3.000000e+01  4.045085e+00  2.706107e+01
    endloop
  endfacet
  facet normal  0.000000e+00  7.705127e-01 -6.374246e-01
    outer loop
      vertex -3.000000e+01  4.045085e+00  2.706107e+01
      vertex  3.000000e+01  4.045085e+00  2.706107e+01
      vertex -3.000000e+01  3.644843e+00  2.657726e+01
    endloop
  endfacet
  facet normal  0.000000e+00  7.705127e-01 -6.374246e-01
    outer loop
      vertex -3.000000e+01  3.644843e+00  2.657726e+01
      vertex  3.000000e+01  4.045085e+00  2.706107e+01
      vertex  3.000000e+01  3.644843e+00  2.657726e+01
    endloop
  endfacet
  facet normal  0.000000e+00  6.845470e-01 -7.289687e-01
    outer loop
      vertex -3.000000e+01  3.644843e+00  2.657726e+01
      vertex  3.000000e+01  3.644843e+00  2.657726e+01
      vertex -3.000000e+01  3.187120e+00  2.614743e+01
    endloop
  endfacet
  facet normal  0.000000e+00  6.845470e-01 -7.289687e-01
    outer loop
      vertex -3.000000e+01  3.187120e+00  2.614743e+01
      vertex  3.000000e+01  3.644843e+00  2.657726e+01
      vertex  3.000000e+01  3.187120e+00  2.614743e+01
    endloop
  endfacet
  facet normal  0.000000e+00  5.877857e-01 -8.090167e-01
    outer loop
      vertex -3.000000e+01  3.187120e+00  2.614743e+01
      vertex  3.000000e+01  3.187120e+00  2.614743e+01
      vertex -3.000000e+01  2.679134e+00  2.577836e+01
    endloop
  endfacet
  facet normal  0.000000e+00  5.877857e-01 -8.090167e-01
    outer loop
      vertex -3.000000e+01  2.679134e+00  2.577836e+01
      vertex  3.000000e+01  3.187120e+00  2.614743e+01
      vertex  3.000000e+01  2.679134e+00  2.577836e+01
    endloop
  endfacet
  facet normal  0.000000e+00  4.817541e-01 -8.763064e-01
    outer loop
      vertex -3.000000e+01  2.679134e+00  2.577836e+01
      vertex  3.000000e+01  2.679134e+00  2.577836e+01
      vertex -3.000000e+01  2.128896e+00  2.547586e+01
    endloop
  endfacet
  facet normal  0.000000e+00  4.817541e-01 -8.763064e-01
    outer loop
      vertex -3.000000e+01  2.128896e+00  2.547586e+01
      vertex  3.000000e+01  2.679134e+00  2.577836e+01
      vertex  3.000000e+01  2.128896e+00  2.547586e+01
    endloop
  endfacet
  facet normal  0.000000e+00  3.681251e-01 -9.297762e-01
    outer loop
      vertex -3.000000e+01  2.128896e+00  2.547586e+01
      vertex  3.000000e+01  2.128896e+00  2.547586e+01
      vertex -3.000000e+01  1.545085e+00  2.524472e+01
    endloop
  endfacet
  facet normal  0.000000e+00  3.681251e-01 -9.297762e-01
    outer loop
      vertex -3.000000e+01  1.545085e+00  2.524472e+01
      vertex  3.000000e+01  2.128896e+00  2.547586e+01
      vertex  3.000000e+01  1.545085e+00  2.524472e+01
    endloop
  endfacet
  facet normal  0.000000e+00  2.486885e-01 -9.685835e-01
    outer loop
      vertex -3.000000e+01  1.545085e+00  2.524472e+01
      vertex  3.000000e+01  1.545085e+00  2.524472e+01
      vertex -3.000000e+01  9.369066e-01  2.508856e+01
    endloop
  endfacet
  facet normal  0.000000e+00  2.486885e-01 -9.685835e-01
    outer loop
      vertex -3.000000e+01  9.369066e-01  2.508856e+01
      vertex  3.000000e+01  1.545085e+00  2.524472e+01
      vertex  3.000000e+01  9.369066e-01  2.508856e+01
    endloop
  endfacet
  facet normal  0.000000e+00  1.253330e-01 -9.921148e-01
    outer loop
      vertex -3.000000e+01  9.369066e-01  2.508856e+01
      vertex  3.000000e+01  9.369066e-01  2.508856e+01
      vertex -3.000000e+01  3.139526e-01  2.500987e+01
    endloop
  endfacet
  facet normal  0.000000e+00  1.253330e-01 -9.921148e-01
    outer loop
      vertex -3.000000e+01  3.139526e-01  2.500987e+01
      vertex  3.000000e+01  9.369066e-01  2.508856e+01
      vertex  3.000000e+01  3.139526e-01  2.500987e+01
    endloop
  endfacet
  facet normal  -0.000000e+00  0.000000e+00 -1.000000e+00
    outer loop
      vertex -3.000000e+01  3.139526e-01  2.500987e+01
      vertex  3.000000e+01  3.139526e-01  2.500987e+01
      vertex -3.000000e+01 -3.139526e-01  2.500987e+01
    endloop
  endfacet
  facet normal  0.000000e+00  0.000000e+00 -1.000000e+00
    outer loop
      vertex -3.000000e+01 -3.139526e-01  2.500987e+01
      vertex  3.000000e+01  3.139526e-01  2.500987e+01
      vertex  3.000000e+01 -3.139526e-01  2.500987e+01
    endloop
  endfacet
  facet normal  -0.000000e+00 -1.253330e-01 -9.921148e-01
    outer loop
      vertex -3.000000e+01 -3.139526e-01  2.500987e+01
      vertex  3.000000e+01 -3.139526e-01  2.500987e+01
      vertex -3.000000e+01 -9.369066e-01  2.508856e+01
    endloop
  endfacet
  facet normal  0.000000e+00 -1.253330e-01 -9.921148e-01
    outer loop
      vertex -3.000000e+01 -9.369066e-01  2.508856e+01
      vertex  3.000000e+01 -3.139526e-01  2.500987e+01
      vertex  3.000000e+01 -9.369066e-01  2.508856e+01
    endloop
  endfacet
  facet normal  -0.000000e+00 -2.486885e-01 -9.685835e-01
    outer loop
      vertex -3.000000e+01 -9.369066e-01  2.508856e+01
      vertex  3.000000e+01 -9.369066e-01  2.508856e+01
      vertex -3.000000e+01 -1.545085e+00  2.524472e+01
    endloop
  endfacet
  facet normal  0.000000e+00 -2.486885e-01 -9.685835e-01
    outer loop
      vertex -3.000000e+01 -1.545085e+00  2.524472e+01
      vertex  3.000000e+01 -9.369066e-01  2.508856e+01
      vertex  3.000000e+01 -1.545085e+00  2.524472e+01
    endloop
  endfacet
  facet normal  -0.000000e+00 -3.681251e-01 -9.297762e-01
    outer loop
      vertex -3.000000e+01 -1.545085e+00  2.524472e+01
      vertex  3.000000e+01 -1.545085e+00  2.524472e+01
      vertex -3.000000e+01 -2.128896e+00  2.547586e+01
    endloop
  endfacet
  facet normal  0.000000e+00 -3.681251e-01 -9.297762e-01
    outer loop
      vertex -3.000000e+01 -2.128896e+00  2.547586e+01
      vertex  3.000000e+01 -1.545085e+00  2.524472e+01
      vertex  3.000000e+01 -2.128896e+00  2.547586e+01
    endloop
  endfacet
  facet normal  -0.000000e+00 -4.817541e-01 -8.763064e-01
    outer loop
      vertex -3.000000e+01 -2.128896e+00  2.547586e+01
      vertex  3.000000e+01 -2.128896e+00  2.547586e+01
      vertex -3.000000e+01 -2.679134e+00  2.577836e+01
    endloop
  endfacet
  facet normal  0.000000e+00 -4.817541e-01 -8.763064e-01
    outer loop
      vertex -3.000000e+01 -2.679134e+00  2.577836e+01
      vertex  3.000000e+01 -2.128896e+00  2.547586e+01
      vertex  3.000000e+01 -2.679134e+00  2.577836e+01
    endloop
  endfacet
  facet normal  -0.000000e+00 -5.877857e-01 -8.090167e-01
    outer loop
      vertex -3.000000e+01 -2.679134e+00  2.577836e+01
      vertex  3.000000e+01 -2.679134e+00  2.577836e+01
      vertex -3.000000e+01 -3.187120e+00  2.614743e+01
    endloop
  endfacet
  facet normal  0.000000e+00 -5.877857e-01 -8.090167e-01
    outer loop
      vertex -3.000000e+01 -3.187120e+00  2.614743e+01
      vertex  3.000000e+01 -2.679134e+00  2.577836e+01
      vertex  3.000000e+01 -3.187120e+00  2.614743e+01
    endloop
  endfacet
  facet normal  -0.000000e+00 -6.845470e-01 -7.289687e-01
    outer loop
      vertex -3.000000e+01 -3.187120e+00  2.614743e+01
      vertex  3.000000e+01 -3.187120e+00  2.614743e+01
      vertex -3.000000e+01 -3.644843e+00  2.657726e+01
    endloop
  endfacet
  facet normal  0.000000e+00 -6.845470e-01 -7.289687e-01
    outer loop
      vertex -3.000000e+01 -3.644843e+00  2.657726e+01
      vertex  3.000000e+01 -3.187120e+00  2.614743e+01
      vertex  3.000000e+01 -3.644843e+00  2.657726e+01
    endloop
  endfacet
  facet normal  -0.000000e+00 -7.705127e-01 -6.374246e-01
    outer loop
      vertex -3.000000e+01 -3.644843e+00  2.657726e+01
      vertex  3.000000e+01 -3.644843e+00  2.657726e+01
      vertex -3.000000e+01 -4.045085e+00  2.706107e+01
    endloop
  endfacet
  facet normal  0.000000e+00 -7.705127e-01 -6.374246e-01
    outer loop
      vertex -3.000000e+01 -4.045085e+00  2.706107e+01
      vertex  3.000000e+01 -3.644843e+00  2.657726e+01
      vertex  3.000000e+01 -4.045085e+00  2.706107e+01
    endloop
  endfacet
  facet normal  -0.000000e+00 -8.443283e-01 -5.358263e-01
    outer loop
      vertex -3.000000e+01 -4.045085e+00  2.706107e+01
      vertex  3.000000e+01 -4.045085e+00  2.706107e+01
      vertex -3.000000e+01 -4.381534e+00  2.759123e+01
    endloop
  endfacet
  facet normal  0.000000e+00 -8.443283e-01 -5.358263e-01
    outer loop
      vertex -3.000000e+01 -4.381534e+00  2.759123e+01
      vertex  3.000000e+01 -4.045085e+00  2.706107e+01
      vertex  3.000000e+01 -4.381534e+00  2.759123e+01
    endloop
  endfacet
  facet normal  -0.000000e+00 -9.048272e-01 -4.257789e-01
    outer loop
      vertex -3.000000e+01 -4.381534e+00  2.759123e+01
      vertex  3.000000e+01 -4.381534e+00  2.759123e+01
      vertex -3.000000e+01 -4.648882e+00  2.815938e+01
    endloop
  endfacet
  facet normal  0.000000e+00 -9.048272e-01 -4.257789e-01
    outer loop
      vertex -3.000000e+01 -4.648882e+00  2.815938e+01
      vertex  3.000000e+01 -4.381534e+00  2.759123e+01
      vertex  3.000000e+01 -4.648882e+00  2.815938e+01
    endloop
  endfacet
  facet normal  -0.000000e+00 -9.510561e-01 -3.090181e-01
    outer loop
      vertex -3.000000e+01 -4.648882e+00  2.815938e+01
      vertex  3.000000e+01 -4.648882e+00  2.815938e+01
      vertex -3.000000e+01 -4.842916e+00  2.875655e+01
    endloop
  endfacet
  facet normal  0.000000e+00 -9.510561e-01 -3.090181e-01
    outer loop
      vertex -3.000000e+01 -4.842916e+00  2.875655e+01
      vertex  3.000000e+01 -4.648882e+00  2.815938e+01
      vertex  3.000000e+01 -4.842916e+00  2.875655e+01
    endloop
  endfacet
  facet normal  -0.000000e+00 -9.822872e-01 -1.873813e-01
    outer loop
      vertex -3.000000e+01 -4.842916e+00  2.875655e+01
      vertex  3.000000e+01 -4.842916e+00  2.875655e+01
      vertex -3.000000e+01 -4.960574e+00  2.937333e+01
    endloop
  endfacet
  facet normal  0.000000e+00 -9.822872e-01 -1.873813e-01
    outer loop
      vertex -3.000000e+01 -4.960574e+00  2.937333e+01
      vertex  3.000000e+01 -4.842916e+00  2.875655e+01
      vertex  3.000000e+01 -4.960574e+00  2.937333e+01
    endloop
  endfacet
  facet normal  -0.000000e+00 -9.980268e-01 -6.279017e-02
    outer loop
      vertex -3.000000e+01 -4.960574e+00  2.937333e+01
      vertex  3.000000e+01 -4.960574e+00  2.937333e+01
      vertex -3.000000e+01 -5.000000e+00  3.000000e+01
    endloop
  endfacet
  facet normal  0.000000e+00 -9.980268e-01 -6.279017e-02
    outer loop
      vertex -3.000000e+01 -5.000000e+00  3.000000e+01
      vertex  3.000000e+01 -4.960574e+00  2.937333e+01
      vertex  3.000000e+01 -5.000000e+00  3.000000e+01
    endloop
  endfacet
  facet normal  0.000000e+00 -9.980268e-01  6.279017e-02
    outer loop
      vertex -3.000000e+01 -5.000000e+00  3.000000e+01
      vertex  3.000000e+01 -5.000000e+00  3.000000e+01
      vertex -3.000000e+01 -4.960574e+00  3.062667e+01
    endloop
  endfacet
  facet normal  0.000000e+00 -9.980268e-01  6.279017e-02
    outer loop
      vertex -3.000000e+01 -4.960574e+00  3.062667e+01
      vertex  3.000000e+01 -5.000000e+00  3.000000e+01
      vertex  3.000000e+01 -4.960574e+00  3.062667e+01
    endloop
  endfacet
  facet normal  0.000000e+00 -9.822872e-01  1.873813e-01
    outer loop
      vertex -3.000000e+01 -4.960574e+00  3.062667e+01
      vertex  3.000000e+01 -4.960574e+00  3.062667e+01
      vertex -3.000000e+01 -4.842916e+00  3.124345e+01
    endloop
  endfacet
  facet normal  0.000000e+00 -9.822872e-01  1.873813e-01
    outer loop
      vertex -3.000000e+01 -4.842916e+00  3.124345e+01
      vertex  3.000000e+01 -4.960574e+00  3.062667e+01
      vertex  3.000000e+01 -4.842916e+00  3.124345e+01
    endloop
  endfacet
  facet normal  0.000000e+00 -9.510561e-01  3.090181e-01
    outer loop
      vertex -3.000000e+01 -4.842916e+00  3.124345e+01
      vertex  3.000000e+01 -4.842916e+00  3.124345e+01
      vertex -3.000000e+01 -4.648882e+00  3.184062e+01
    endloop
  endfacet
  facet normal  0.000000e+00 -9.510561e-01  3.090181e-01
    outer loop
      vertex -3.000000e+01 -4.648882e+00  3.184062e+01
      vertex  3.000000e+01 -4.842916e+00  3.124345e+01
      vertex  3.000000e+01 -4.648882e+00  3.184062e+01
    endloop
  endfacet
  facet normal  0.000000e+00 -9.048272e-01  4.257789e-01
    outer loop
      vertex -3.000000e+01 -4.648882e+00  3.184062e+01
      vertex  3.000000e+01 -4.648882e+00  3.184062e+01
      vertex -3.000000e+01 -4.381534e+00  3.240877e+01
    endloop
  endfacet
  facet normal  0.000000e+00 -9.048272e-01  4.257789e-01
    outer loop
      vertex -3.000000e+01 -4.381534e+00  3.240877e+01
      vertex  3.000000e+01 -4.648882e+00  3.184062e+01
      vertex  3.000000e+01 -4.381534e+00  3.240877e+01
    endloop
  endfacet
  facet normal  0.000000e+00 -8.443283e-01  5.358263e-01
    outer loop
      vertex -3.000000e+01 -4.381534e+00  3.240877e+01
      vertex  3.000000e+01 -4.381534e+00  3.240877e+01
      vertex -3.000000e+01 -4.045085e+00  3.293893e+01
    endloop
  endfacet
  facet normal  0.000000e+00 -8.443283e-01  5.358263e-01
    outer loop
      vertex -3.000000e+01 -4.045085e+00  3.293893e+01
      vertex  3.000000e+01 -4.381534e+00  3.240877e+01
      vertex  3.000000e+01 -4.045085e+00  3.293893e+01
    endloop
  endfacet
  facet normal  0.000000e+00 -7.705140e-01  6.374231e-01
    outer loop
      vertex -3.000000e+01 -4.045085e+00  3.293893e+01
      vertex  3.000000e+01 -4.045085e+00  3.293893e+01
      vertex -3.000000e+01 -3.644843e+00  3.342274e+01
    endloop
  endfacet
  facet normal  0.000000e+00 -7.705140e-01  6.374231e-01
    outer loop
      vertex -3.000000e+01 -3.644843e+00  3.342274e+01
      vertex  3.000000e+01 -4.045085e+00  3.293893e+01
      vertex  3.000000e+01 -3.644843e+00  3.342274e+01
    endloop
  endfacet
  facet normal  0.000000e+00 -6.845455e-01  7.289702e-01
    outer loop
      vertex -3.000000e+01 -3.644843e+00  3.342274e+01
      vertex  3.000000e+01 -3.644843e+00  3.342274e+01
      vertex -3.000000e+01 -3.187120e+00  3.385257e+01
    endloop
  endfacet
  facet normal  0.000000e+00 -6.845455e-01  7.289702e-01
    outer loop
      vertex -3.000000e+01 -3.187120e+00  3.385257e+01
      vertex  3.000000e+01 -3.644843e+00  3.342274e+01
      vertex  3.000000e+01 -3.187120e+00  3.385257e+01
    endloop
  endfacet
  facet normal  0.000000e+00 -5.877837e-01  8.090182e-01
    outer loop
      vertex -3.000000e+01 -3.187120e+00  3.385257e+01
      vertex  3.000000e+01 -3.187120e+00  3.385257e+01
      vertex -3.000000e+01 -2.679134e+00  3.422164e+01
    endloop
  endfacet
  facet normal  0.000000e+00 -5.877837e-01  8.090182e-01
    outer loop
      vertex -3.000000e+01 -2.679134e+00  3.422164e+01
      vertex  3.000000e+01 -3.187120e+00  3.385257e+01
      vertex  3.000000e+01 -2.679134e+00  3.422164e+01
    endloop
  endfacet
  facet normal  0.000000e+00 -4.817565e-01  8.763052e-01
    outer loop
      vertex -3.000000e+01 -2.679134e+00  3.422164e+01
      vertex  3.000000e+01 -2.679134e+00  3.422164e+01
      vertex -3.000000e+01 -2.128896e+00  3.452414e+01
    endloop
  endfacet
  facet normal  0.000000e+00 -4.817565e-01  8.763052e-01
    outer loop
      vertex -3.000000e+01 -2.128896e+00  3.452414e+01
      vertex  3.000000e+01 -2.679134e+00  3.422164e+01
      vertex  3.000000e+01 -2.128896e+00  3.452414e+01
    endloop
  endfacet
  facet normal  0.000000e+00 -3.681251e-01  9.297762e-01
    outer loop
      vertex -3.000000e+01 -2.128896e+00  3.452414e+01
      vertex  3.000000e+01 -2.128896e+00  3.452414e+01
      vertex -3.000000e+01 -1.545085e+00  3.475528e+01
    endloop
  endfacet
  facet normal  0.000000e+00 -3.681251e-01  9.297762e-01
    outer loop
      vertex -3.000000e+01 -1.545085e+00  3.475528e+01
      vertex  3.000000e+01 -2.128896e+00  3.452414e+01
      vertex  3.000000e+01 -1.545085e+00  3.475528e+01
    endloop
  endfacet
  facet normal  0.000000e+00 -2.486913e-01  9.685828e-01
    outer loop
      vertex -3.000000e+01 -1.545085e+00  3.475528e+01
      vertex  3.000000e+01 -1.545085e+00  3.475528e+01
      vertex -3.000000e+01 -9.369066e-01  3.491144e+01
    endloop
  endfacet
  facet normal  0.000000e+00 -2.486913e-01  9.685828e-01
    outer loop
      vertex -3.000000e+01 -9.369066e-01  3.491144e+01
      vertex  3.000000e+01 -1.545085e+00  3.475528e+01
      vertex  3.000000e+01 -9.369066e-01  3.491144e+01
    endloop
  endfacet
  facet normal  0.000000e+00 -1.253330e-01  9.921148e-01
    outer loop
      vertex -3.000000e+01 -9.369066e-01  3.491144e+01
      vertex  3.000000e+01 -9.369066e-01  3.491144e+01
      vertex -3.000000e+01 -3.139526e-01  3.499014e+01
    endloop
  endfacet
  facet normal  0.000000e+00 -1.253330e-01  9.921148e-01
    outer loop
      vertex -3.000000e+01 -3.139526e-01  3.499014e+01
      vertex  3.000000e+01 -9.369066e-01  3.491144e+01
      vertex  3.000000e+01 -3.139526e-01  3.499014e+01
    endloop
  endfacet
  facet normal  0.000000e+00  0.000000e+00  1.000000e+00
    outer loop
      vertex -3.000000e+01 -3.139526e-01  3.499014e+01
      vertex  3.000000e+01 -3.139526e-01  3.499014e+01
      vertex -3.000000e+01  3.139526e-01  3.499014e+01
    endloop
  endfacet
  facet normal  -0.000000e+00  0.000000e+00  1.000000e+00
    outer loop
      vertex -3.000000e+01  3.139526e-01  3.499014e+01
      vertex  3.000000e+01 -3.139526e-01  3.499014e+01
      vertex  3.000000e+01  3.139526e-01  3.499014e+01
    endloop
  endfacet
  facet normal  0.000000e+00  1.253330e-01  9.921148e-01
    outer loop
      vertex -3.000000e+01  3.139526e-01  3.499014e+01
      vertex  3.000000e+01  3.139526e-01  3.499014e+01
      vertex -3.000000e+01  9.369066e-01  3.491144e+01
    endloop
  endfacet
  facet normal  -0.000000e+00  1.253330e-01  9.921148e-01
    outer loop
      vertex -3.000000e+01  9.369066e-01  3.491144e+01
      vertex  3.000000e+01  3.139526e-01  3.499014e+01
      vertex  3.000000e+01  9.369066e-01  3.491144e+01
    endloop
  endfacet
  facet normal  0.000000e+00  2.486913e-01  9.685828e-01
    outer loop
      vertex -3.000000e+01  9.369066e-01  3.491144e+01
      vertex  3.000000e+01  9.369066e-01  3.491144e+01
      vertex -3.000000e+01  1.545085e+00  3.475528e+01
    endloop
  endfacet
  facet normal  -0.000000e+00  2.486913e-01  9.685828e-01
    outer loop
      vertex -3.000000e+01  1.545085e+00  3.475528e+01
      vertex  3.000000e+01  9.369066e-01  3.491144e+01
      vertex  3.000000e+01  1.545085e+00  3.475528e+01
    endloop
  endfacet
  facet normal  0.000000e+00  3.681251e-01  9.297762e-01
    outer loop
      vertex -3.000000e+01  1.545085e+00  3.475528e+01
      vertex  3.000000e+01  1.545085e+00  3.475528e+01
      vertex -3.000000e+01  2.128896e+00  3.452414e+01
    endloop
  endfacet
  facet normal  -0.000000e+00  3.681251e-01  9.297762e-01
    outer loop
      vertex -3.000000e+01  2.128896e+00  3.452414e+01
      vertex  3.000000e+01  1.545085e+00  3.475528e+01
      vertex  3.000000e+01  2.128896e+00  3.452414e+01
    endloop
  endfacet
  facet normal  0.000000e+00  4.817565e-01  8.763052e-01
    outer loop
      vertex -3.000000e+01  2.128896e+00  3.452414e+01
      vertex  3.000000e+01  2.128896e+00  3.452414e+01
      vertex -3.000000e+01  2.679134e+00  3.422164e+01
    endloop
  endfacet
  facet normal  -0.000000e+00  4.817565e-01  8.763052e-01
    outer loop
      vertex -3.000000e+01  2.679134e+00  3.422164e+01
      vertex  3.000000e+01  2.128896e+00  3.452414e+01
      vertex  3.000000e+01  2.679134e+00  3.422164e+01
    endloop
  endfacet
  facet normal  0.000000e+00  5.877837e-01  8.090182e-01
    outer loop
      vertex -3.000000e+01  2.679134e+00  3.422164e+01
      vertex  3.000000e+01  2.679134e+00  3.422164e+01
      vertex -3.000000e+01  3.187120e+00  3.385257e+01
    endloop
  endfacet
  facet normal  -0.000000e+00  5.877837e-01  8.090182e-01
    outer loop
      vertex -3.000000e+01  3.187120e+00  3.385257e+01
      vertex  3.000000e+01  2.679134e+00  3.422164e+01
      vertex  3.000000e+01  3.187120e+00  3.385257e+01
    endloop
  endfacet
  facet normal  0.000000e+00  6.845455e-01  7.289702e-01
    outer loop
      vertex -3.000000e+01  3.187120e+00  3.385257e+01
      vertex  3.000000e+01  3.187120e+00  3.385257e+01
      vertex -3.000000e+01  3.644843e+00  3.342274e+01
    endloop
  endfacet
  facet normal  -0.000000e+00  6.845455e-01  7.289702e-01
    outer loop
      vertex -3.000000e+01  3.644843e+00  3.342274e+01
      vertex  3.000000e+01  3.187120e+00  3.385257e+01
      vertex  3.000000e+01  3.644843e+00  3.342274e+01
    endloop
  endfacet
  facet normal  0.000000e+00  7.705140e-01  6.374231e-01
    outer loop
      vertex -3.000000e+01  3.644843e+00  3.342274e+01
      vertex  3.000000e+01  3.644843e+00  3.342274e+01
      vertex -3.000000e+01  4.045085e+00  3.293893e+01
    endloop
  endfacet
  facet normal  -0.000000e+00  7.705140e-01  6.374231e-01
    outer loop
      vertex -3.000000e+01  4.045085e+00  3.293893e+01
      vertex  3.000000e+01  3.644843e+00  3.342274e+01
      vertex  3.000000e+01  4.045085e+00  3.293893e+01
    endloop
  endfacet
  facet normal  0.000000e+00  8.443283e-01  5.358263e-01
    outer loop
      vertex -3.000000e+01  4.045085e+00  3.293893e+01
      vertex  3.000000e+01  4.045085e+00  3.293893e+01
      vertex -3.000000e+01  4.381534e+00  3.240877e+01
    endloop
  endfacet
  facet normal  -0.000000e+00  8.443283e-01  5.358263e-01
    outer loop
      vertex -3.000000e+01  4.381534e+00  3.240877e+01
      vertex  3.000000e+01  4.045085e+00  3.293893e+01
      vertex  3.000000e+01  4.381534e+00  3.240877e+01
    endloop
  endfacet
  facet normal  0.000000e+00  9.048272e-01  4.257789e-01
    outer loop
      vertex -3.000000e+01  4.381534e+00  3.240877e+01
      vertex  3.000000e+01  4.381534e+00  3.240877e+01
      vertex -3.000000e+01  4.648882e+00  3.184062e+01
    endloop
  endfacet
  facet normal  -0.000000e+00  9.048272e-01  4.257789e-01
    outer loop
      vertex -3.000000e+01  4.648882e+00  3.184062e+01
      vertex  3.000000e+01  4.381534e+00  3.240877e+01
      vertex  3.000000e+01  4.648882e+00  3.184062e+01
    endloop
  endfacet
  facet normal  0.000000e+00  9.510561e-01  3.090181e-01
    outer loop
      vertex -3.000000e+01  4.648882e+00  3.184062e+01
      vertex  3.000000e+01  4.648882e+00  3.184062e+01
      vertex -3.000000e+01  4.842916e+00  3.124345e+01
    endloop
  endfacet
  facet normal  -0.000000e+00  9.510561e-01  3.090181e-01
    outer loop
      vertex -3.000000e+01  4.842916e+00  3.124345e+01
      vertex  3.000000e+01  4.648882e+00  3.184062e+01
      vertex  3.000000e+01  4.842916e+00  3.124345e+01
    endloop
  endfacet
  facet normal  0.000000e+00  9.822872e-01  1.873813e-01
    outer loop
      vertex -3.000000e+01  4.842916e+00  3.124345e+01
      vertex  3.000000e+01  4.842916e+00  3.124345e+01
      vertex -3.000000e+01  4.960574e+00  3.062667e+01
    endloop
  endfacet
  facet normal  -0.000000e+00  9.822872e-01  1.873813e-01
    outer loop
      vertex -3.000000e+01  4.960574e+00  3.062667e+01
      vertex  3.000000e+01  4.842916e+00  3.124345e+01
      vertex  3.000000e+01  4.960574e+00  3.062667e+01
    endloop
  endfacet
  facet normal  0.000000e+00  9.980268e-01  6.279017e-02
    outer loop
      vertex -3.000000e+01  4.960574e+00  3.062667e+01
      vertex  3.000000e+01  4.960574e+00  3.062667e+01
      vertex -3.000000e+01  5.000000e+00  3.000000e+01
    endloop
  endfacet
  facet normal  -0.000000e+00  9.980268e-01  6.279017e-02
    outer loop
      vertex -3.000000e+01  5.000000e+00  3.000000e+01
      vertex  3.000000e+01  4.960574e+00  3.062667e+01
      vertex  3.000000e+01  5.000000e+00  3.000000e+01
    endloop
  endfacet
  facet normal -1.000000e+00  0.000000e+00  0.000000e+00
    outer loop
      vertex -3.000000e+01  5.000000e+00  3.000000e+01
      vertex -3.000000e+01 -4.960574e+00  3.062667e+01
      vertex -3.000000e+01  4.960574e+00  3.062667e+01
    endloop
  endfacet
  facet normal -1.000000e+00  0.000000e+00  0.000000e+00
    outer loop
      vertex -3.000000e+01  4.960574e+00  3.062667e+01
      vertex -3.000000e+01 -4.960574e+00  3.062667e+01
      vertex -3.000000e+01 -4.842916e+00  3.124345e+01
    endloop
  endfacet
  facet normal -1.000000e+00  0.000000e+00  0.000000e+00
    outer loop
      vertex -3.000000e+01  4.960574e+00  3.062667e+01
      vertex -3.000000e+01 -4.842916e+00  3.124345e+01
      vertex -3.000000e+01  4.842916e+00  3.124345e+01
    endloop
  endfacet
  facet normal -1.000000e+00  0.000000e+00  0.000000e+00
    outer loop
      vertex -3.000000e+01  4.842916e+00  3.124345e+01
      vertex -3.000000e+01 -4.842916e+00  3.124345e+01
      vertex -3.000000e+01 -4.648882e+00  3.184062e+01
    endloop
  endfacet
  facet normal -1.000000e+00  0.000000e+00  0.000000e+00
    outer loop
      vertex -3.000000e+01  4.842916e+00  3.124345e+01
      vertex -3.000000e+01 -4.648882e+00  3.184062e+01
      vertex -3.000000e+01  4.648882e+00  3.184062e+01
    endloop
  endfacet
  facet normal -1.000000e+00  0.000000e+00  0.000000e+00
    outer loop
      vertex -3.000000e+01  4.648882e+00  3.184062e+01
      vertex -3.000000e+01 -4.648882e+00  3.184062e+01
      vertex -3.000000e+01 -4.381534e+00  3.240877e+01
    endloop
  endfacet
  facet normal -1.000000e+00  0.000000e+00  0.000000e+00
    outer loop
      vertex -3.000000e+01  4.648882e+00  3.184062e+01
      vertex -3.000000e+01 -4.381534e+00  3.240877e+01
      vertex -3.000000e+01  4.381534e+00  3.240877e+01
    endloop
  endfacet
  facet normal -1.000000e+00  0.000000e+00  0.000000e+00
    outer loop
      vertex -3.000000e+01  4.381534e+00  3.240877e+01
      vertex -3.000000e+01 -4.381534e+00  3.240877e+01
      vertex -3.000000e+01 -4.045085e+00  3.293893e+01
    endloop
  endfacet
  facet normal -1.000000e+00  0.000000e+00  0.000000e+00
    outer loop
      vertex -3.000000e+01  4.381534e+00  3.240877e+01
      vertex -3.000000e+01 -4.045085e+00  3.293893e+01
      vertex -3.000000e+01  4.045085e+00  3.293893e+01
    endloop
  endfacet
  facet normal -1.000000e+00  0.000000e+00  0.000000e+00
    outer loop
      vertex -3.000000e+01  4.045085e+00  3.293893e+01
      vertex -3.000000e+01 -4.045085e+00  3.293893e+01
      vertex -3.000000e+01 -3.644843e+00  3.342274e+01
    endloop
  endfacet
  facet normal -1.000000e+00  0.000000e+00  0.000000e+00
    outer loop
      vertex -3.000000e+01  4.045085e+00  3.293893e+01
      vertex -3.000000e+01 -3.644843e+00  3.342274e+01
      vertex -3.000000e+01  3.644843e+00  3.342274e+01
    endloop
  endfacet
  facet normal -9.999999e-01  0.000000e+00  0.000000e+00
    outer loop
      vertex -3.000000e+01  3.644843e+00  3.342274e+01
      vertex -3.000000e+01 -3.644843e+00  3.342274e+01
      vertex -3.000000e+01 -3.187120e+00  3.385257e+01
    endloop
  endfacet
  facet normal -1.000000e+00  0.000000e+00  0.000000e+00
    outer loop
      vertex -3.000000e+01  3.644843e+00  3.342274e+01
      vertex -3.000000e+01 -3.187120e+00  3.385257e+01
      vertex -3.000000e+01  3.187120e+00  3.385257e+01
    endloop
  endfacet
  facet normal -1.000000e+00  0.000000e+00  0.000000e+00
    outer loop
      vertex -3.000000e+01  3.187120e+00  3.385257e+01
      vertex -3.000000e+01 -3.187120e+00  3.385257e+01
      vertex -3.000000e+01 -2.679134e+00  3.422164e+01
    endloop
  endfacet
  facet normal -1.000000e+00  0.000000e+00  0.000000e+00
    outer loop
      vertex -3.000000e+01  3.187120e+00  3.385257e+01
      vertex -3.000000e+01 -2.679134e+00  3.422164e+01
      vertex -3.000000e+01  2.679134e+00  3.422164e+01
    endloop
  endfacet
  facet normal -9.999999e-01  0.000000e+00  0.000000e+00
    outer loop
      vertex -3.000000e+01  2.679134e+00  3.422164e+01
      vertex -3.000000e+01 -2.679134e+00  3.422164e+01
      vertex -3.000000e+01 -2.128896e+00  3.452414e+01
    endloop
  endfacet
  facet normal -1.000000e+00  0.000000e+00  0.000000e+00
    outer loop
      vertex -3.000000e+01  2.679134e+00  3.422164e+01
      vertex -3.000000e+01 -2.128896e+00  3.452414e+01
      vertex -3.000000e+01  2.128896e+00  3.452414e+01
    endloop
  endfacet
  facet normal -1.000000e+00  0.000000e+00  0.000000e+00
    outer loop
      vertex -3.000000e+01  2.128896e+00  3.452414e+01
      vertex -3.000000e+01 -2.128896e+00  3.452414e+01
      vertex -3.000000e+01 -1.545085e+00  3.475528e+01
    endloop
  endfacet
  facet normal -1.000000e+00  0.000000e+00  0.000000e+00
    outer loop
      vertex -3.000000e+01  2.128896e+00  3.452414e+01
      vertex -3.000000e+01 -1.545085e+00  3.475528e+01
      vertex -3.000000e+01  1.545085e+00  3.475528e+01
    endloop
  endfacet
  facet normal -9.999999e-01  0.000000e+00  0.000000e+00
    outer loop
      vertex -3.000000e+01  1.545085e+00  3.475528e+01
      vertex -3.000000e+01 -1.545085e+00  3.475528e+01
      vertex -3.000000e+01 -9.369066e-01  3.491144e+01
    endloop
  endfacet
  facet normal -1.000000e+00  0.000000e+00  0.000000e+00
    outer loop
      vertex -3.000000e+01  1.545085e+00  3.475528e+01
      vertex -3.000000e+01 -9.369066e-01  3.491144e+01
      vertex -3.000000e+01  9.369066e-01  3.491144e+01
    endloop
  endfacet
  facet normal -1.000000e+00  0.000000e+00  0.000000e+00
    outer loop
      vertex -3.000000e+01  9.369066e-01  3.491144e+01
      vertex -3.000000e+01 -9.369066e-01  3.491144e+01
      vertex -3.000000e+01 -3.139526e-01  3.499014e+01
    endloop
  endfacet
  facet normal -1.000000e+00  0.000000e+00  0.000000e+00
    outer loop
      vertex -3.000000e+01  9.369066e-01  3.491144e+01
      vertex -3.000000e+01 -3.139526e-01  3.499014e+01
      vertex -3.000000e+01  3.139526e-01  3.499014e+01
    endloop
  endfacet
  facet normal -1.000000e+00  0.000000e+00  0.000000e+00
    outer loop
      vertex -3.000000e+01 -4.960574e+00  3.062667e+01
      vertex -3.000000e+01  5.000000e+00  3.000000e+01
      vertex -3.000000e+01 -5.000000e+00  3.000000e+01
    endloop
  endfacet
  facet normal -1.000000e+00  0.000000e+00  0.000000e+00
    outer loop
      vertex -3.000000e+01 -5.000000e+00  3.000000e+01
      vertex -3.000000e+01  5.000000e+00  3.000000e+01
      vertex -3.000000e+01  4.960574e+00  2.937333e+01
    endloop
  endfacet
  facet normal -1.000000e+00  0.000000e+00  0.000000e+00
    outer loop
      vertex -3.000000e+01 -5.000000e+00  3.000000e+01
      vertex -3.000000e+01  4.960574e+00  2.937333e+01
      vertex -3.000000e+01 -4.960574e+00  2.937333e+01
    endloop
  endfacet
  facet normal -1.000000e+00  0.000000e+00  0.000000e+00
    outer loop
      vertex -3.000000e+01 -4.960574e+00  2.937333e+01
      vertex -3.000000e+01  4.960574e+00  2.937333e+01
      vertex -3.000000e+01  4.842916e+00  2.875655e+01
    endloop
  endfacet
  facet normal -1.000000e+00  0.000000e+00  0.000000e+00
    outer loop
      vertex -3.000000e+01 -4.960574e+00  2.937333e+01
      vertex -3.000000e+01  4.842916e+00  2.875655e+01
      vertex -3.000000e+01 -4.842916e+00  2.875655e+01
    endloop
  endfacet
  facet normal -1.000000e+00  0.000000e+00  0.000000e+00
    outer loop
      vertex -3.000000e+01 -4.842916e+00  2.875655e+01
      vertex -3.000000e+01  4.842916e+00  2.875655e+01
      vertex -3.000000e+01  4.648882e+00  2.815938e+01
    endloop
  endfacet
  facet normal -1.000000e+00  0.000000e+00  0.000000e+00
    outer loop
      vertex -3.000000e+01 -4.842916e+00  2.875655e+01
      vertex -3.000000e+01  4.648882e+00  2.815938e+01
      vertex -3.000000e+01 -4.648882e+00  2.815938e+01
    endloop
  endfacet
  facet normal -1.000000e+00  0.000000e+00  0.000000e+00
    outer loop
      vertex -3.000000e+01 -4.648882e+00  2.815938e+01
      vertex -3.000000e+01  4.648882e+00  2.815938e+01
      vertex -3.000000e+01  4.381534e+00  2.759123e+01
    endloop
  endfacet
  facet normal -1.000000e+00  0.000000e+00  0.000000e+00
    outer loop
      vertex -3.000000e+01 -4.648882e+00  2.815938e+01
      vertex -3.000000e+01  4.381534e+00  2.759123e+01
      vertex -3.000000e+01 -4.381534e+00  2.759123e+01
    endloop
  endfacet
  facet normal -1.000000e+00  0.000000e+00  0.000000e+00
    outer loop
      vertex -3.000000e+01 -4.381534e+00  2.759123e+01
      vertex -3.000000e+01  4.381534e+00  2.759123e+01
      vertex -3.000000e+01  4.045085e+00  2.706107e+01
    endloop
  endfacet
  facet normal -1.000000e+00  0.000000e+00  0.000000e+00
    outer loop
      vertex -3.000000e+01 -4.381534e+00  2.759123e+01
      vertex -3.000000e+01  4.045085e+00  2.706107e+01
      vertex -3.000000e+01 -4.045085e+00  2.706107e+01
    endloop
  endfacet
  facet normal -1.000000e+00  0.000000e+00  0.000000e+00
    outer loop
      vertex -3.000000e+01 -4.045085e+00  2.706107e+01
      vertex -3.000000e+01  4.045085e+00  2.706107e+01
      vertex -3.000000e+01  3.644843e+00  2.657726e+01
    endloop
  endfacet
  facet normal -9.999999e-01  0.000000e+00  0.000000e+00
    outer loop
      vertex -3.000000e+01 -4.045085e+00  2.706107e+01
      vertex -3.000000e+01  3.644843e+00  2.657726e+01
      vertex -3.000000e+01 -3.644843e+00  2.657726e+01
    endloop
  endfacet
  facet normal -1.000000e+00  0.000000e+00  0.000000e+00
    outer loop
      vertex -3.000000e+01 -3.644843e+00  2.657726e+01
      vertex -3.000000e+01  3.644843e+00  2.657726e+01
      vertex -3.000000e+01  3.187120e+00  2.614743e+01
    endloop
  endfacet
  facet normal -1.000000e+00  0.000000e+00  0.000000e+00
    outer loop
      vertex -3.000000e+01 -3.644843e+00  2.657726e+01
      vertex -3.000000e+01  3.187120e+00  2.614743e+01
      vertex -3.000000e+01 -3.187120e+00  2.614743e+01
    endloop
  endfacet
  facet normal -1.000000e+00  0.000000e+00  0.000000e+00
    outer loop
      vertex -3.000000e+01 -3.187120e+00  2.614743e+01
      vertex -3.000000e+01  3.187120e+00  2.614743e+01
      vertex -3.000000e+01  2.679134e+00  2.577836e+01
    endloop
  endfacet
  facet normal -1.000000e+00  0.000000e+00  0.000000e+00
    outer loop
      vertex -3.000000e+01 -3.187120e+00  2.614743e+01
      vertex -3.000000e+01  2.679134e+00  2.577836e+01
      vertex -3.000000e+01 -2.679134e+00  2.577836e+01
    endloop
  endfacet
  facet normal -1.000000e+00  0.000000e+00  0.000000e+00
    outer loop
      vertex -3.000000e+01 -2.679134e+00  2.577836e+01
      vertex -3.000000e+01  2.679134e+00  2.577836e+01
      vertex -3.000000e+01  2.128896e+00  2.547586e+01
    endloop
  endfacet
  facet normal -1.000000e+00  0.000000e+00  0.000000e+00
    outer loop
      vertex -3.000000e+01 -2.679134e+00  2.577836e+01
      vertex -3.000000e+01  2.128896e+00  2.547586e+01
      vertex -3.000000e+01 -2.128896e+00  2.547586e+01
    endloop
  endfacet
  facet normal -1.000000e+00  0.000000e+00  0.000000e+00
    outer loop
      vertex -3.000000e+01 -2.128896e+00  2.547586e+01
      vertex -3.000000e+01  2.128896e+00  2.547586e+01
      vertex -3.000000e+01  1.545085e+00  2.524472e+01
    endloop
  endfacet
  facet normal -1.000000e+00  0.000000e+00  0.000000e+00
    outer loop
      vertex -3.000000e+01 -2.128896e+00  2.547586e+01
      vertex -3.000000e+01  1.545085e+00  2.524472e+01
      vertex -3.000000e+01 -1.545085e+00  2.524472e+01
    endloop
  endfacet
  facet normal -1.000000e+00  0.000000e+00  0.000000e+00
    outer loop
      vertex -3.000000e+01 -1.545085e+00  2.524472e+01
      vertex -3.000000e+01  1.545085e+00  2.524472e+01
      vertex -3.000000e+01  9.369066e-01  2.508856e+01
    endloop
  endfacet
  facet normal -1.000000e+00  0.000000e+00  0.000000e+00
    outer loop
      vertex -3.000000e+01 -1.545085e+00  2.524472e+01
      vertex -3.000000e+01  9.369066e-01  2.508856e+01
      vertex -3.000000e+01 -9.369066e-01  2.508856e+01
    endloop
  endfacet
  facet normal -1.000000e+00  0.000000e+00  0.000000e+00
    outer loop
      vertex -3.000000e+01 -9.369066e-01  2.508856e+01
      vertex -3.000000e+01  9.369066e-01  2.508856e+01
      vertex -3.000000e+01  3.139526e-01  2.500987e+01
    endloop
  endfacet
  facet normal -1.000000e+00  0.000000e+00  0.000000e+00
    outer loop
      vertex -3.000000e+01 -9.369066e-01  2.508856e+01
      vertex -3.000000e+01  3.139526e-01  2.500987e+01
      vertex -3.000000e+01 -3.139526e-01  2.500987e+01
    endloop
  endfacet
  facet normal  1.000000e+00  -0.000000e+00  0.000000e+00
    outer loop
      vertex  3.000000e+01  3.139526e-01  3.499014e+01
      vertex  3.000000e+01 -3.139526e-01  3.499014e+01
      vertex  3.000000e+01  9.369066e-01  3.491144e+01
    endloop
  endfacet
  facet normal  1.000000e+00  0.000000e+00  0.000000e+00
    outer loop
      vertex  3.000000e+01  9.369066e-01  3.491144e+01
      vertex  3.000000e+01 -3.139526e-01  3.499014e+01
      vertex  3.000000e+01 -9.369066e-01  3.491144e+01
    endloop
  endfacet
  facet normal  1.000000e+00  -0.000000e+00  0.000000e+00
    outer loop
      vertex  3.000000e+01  9.369066e-01  3.491144e+01
      vertex  3.000000e+01 -9.369066e-01  3.491144e+01
      vertex  3.000000e+01  1.545085e+00  3.475528e+01
    endloop
  endfacet
  facet normal  9.999999e-01  0.000000e+00  0.000000e+00
    outer loop
      vertex  3.000000e+01  1.545085e+00  3.475528e+01
      vertex  3.000000e+01 -9.369066e-01  3.491144e+01
      vertex  3.000000e+01 -1.545085e+00  3.475528e+01
    endloop
  endfacet
  facet normal  1.000000e+00  -0.000000e+00  0.000000e+00
    outer loop
      vertex  3.000000e+01  1.545085e+00  3.475528e+01
      vertex  3.000000e+01 -1.545085e+00  3.475528e+01
      vertex  3.000000e+01  2.128896e+00  3.452414e+01
    endloop
  endfacet
  facet normal  1.000000e+00  0.000000e+00  0.000000e+00
    outer loop
      vertex  3.000000e+01  2.128896e+00  3.452414e+01
      vertex  3.000000e+01 -1.545085e+00  3.475528e+01
      vertex  3.000000e+01 -2.128896e+00  3.452414e+01
    endloop
  endfacet
  facet normal  1.000000e+00  -0.000000e+00  0.000000e+00
    outer loop
      vertex  3.000000e+01  2.128896e+00  3.452414e+01
      vertex  3.000000e+01 -2.128896e+00  3.452414e+01
      vertex  3.000000e+01  2.679134e+00  3.422164e+01
    endloop
  endfacet
  facet normal  9.999999e-01  0.000000e+00  0.000000e+00
    outer loop
      vertex  3.000000e+01  2.679134e+00  3.422164e+01
      vertex  3.000000e+01 -2.128896e+00  3.452414e+01
      vertex  3.000000e+01 -2.679134e+00  3.422164e+01
    endloop
  endfacet
  facet normal  1.000000e+00  -0.000000e+00  0.000000e+00
    outer loop
      vertex  3.000000e+01  2.679134e+00  3.422164e+01
      vertex  3.000000e+01 -2.679134e+00  3.422164e+01
      vertex  3.000000e+01  3.187120e+00  3.385257e+01
    endloop
  endfacet
  facet normal  1.000000e+00  0.000000e+00  0.000000e+00
    outer loop
      vertex  3.000000e+01  3.187120e+00  3.385257e+01
      vertex  3.000000e+01 -2.679134e+00  3.422164e+01
      vertex  3.000000e+01 -3.187120e+00  3.385257e+01
    endloop
  endfacet
  facet normal  1.000000e+00  -0.000000e+00  0.000000e+00
    outer loop
      vertex  3.000000e+01  3.187120e+00  3.385257e+01
      vertex  3.000000e+01 -3.187120e+00  3.385257e+01
      vertex  3.000000e+01  3.644843e+00  3.342274e+01
    endloop
  endfacet
  facet normal  9.999999e-01  0.000000e+00  0.000000e+00
    outer loop
      vertex  3.000000e+01  3.644843e+00  3.342274e+01
      vertex  3.000000e+01 -3.187120e+00  3.385257e+01
      vertex  3.000000e+01 -3.644843e+00  3.342274e+01
    endloop
  endfacet
  facet normal  1.000000e+00  -0.000000e+00  0.000000e+00
    outer loop
      vertex  3.000000e+01  3.644843e+00  3.342274e+01
      vertex  3.000000e+01 -3.644843e+00  3.342274e+01
      vertex  3.000000e+01  4.045085e+00  3.293893e+01
    endloop
  endfacet
  facet normal  1.000000e+00  0.000000e+00  0.000000e+00
    outer loop
      vertex  3.000000e+01  4.045085e+00  3.293893e+01
      vertex  3.000000e+01 -3.644843e+00  3.342274e+01
      vertex  3.000000e+01 -4.045085e+00  3.293893e+01
    endloop
  endfacet
  facet normal  1.000000e+00  -0.000000e+00  0.000000e+00
    outer loop
      vertex  3.000000e+01  4.045085e+00  3.293893e+01
      vertex  3.000000e+01 -4.045085e+00  3.293893e+01
      vertex  3.000000e+01  4.381534e+00  3.240877e+01
    endloop
  endfacet
  facet normal  1.000000e+00  0.000000e+00  0.000000e+00
    outer loop
      vertex  3.000000e+01  4.381534e+00  3.240877e+01
      vertex  3.000000e+01 -4.045085e+00  3.293893e+01
      vertex  3.000000e+01 -4.381534e+00  3.240877e+01
    endloop
  endfacet
  facet normal  1.000000e+00  -0.000000e+00  0.000000e+00
    outer loop
      vertex  3.000000e+01  4.381534e+00  3.240877e+01
      vertex  3.000000e+01 -4.381534e+00  3.240877e+01
      vertex  3.000000e+01  4.648882e+00  3.184062e+01
    endloop
  endfacet
  facet normal  1.000000e+00  0.000000e+00  0.000000e+00
    outer loop
      vertex  3.000000e+01  4.648882e+00  3.184062e+01
      vertex  3.000000e+01 -4.381534e+00  3.240877e+01
      vertex  3.000000e+01 -4.648882e+00  3.184062e+01
    endloop
  endfacet
  facet normal  1.000000e+00  -0.000000e+00  0.000000e+00
    outer loop
      vertex  3.000000e+01  4.648882e+00  3.184062e+01
      vertex  3.000000e+01 -4.648882e+00  3.184062e+01
      vertex  3.000000e+01  4.842916e+00  3.124345e+01
    endloop
  endfacet
  facet normal  1.000000e+00  0.000000e+00  0.000000e+00
    outer loop
      vertex  3.000000e+01  4.842916e+00  3.124345e+01
      vertex  3.000000e+01 -4.648882e+00  3.184062e+01
      vertex  3.000000e+01 -4.842916e+00  3.124345e+01
    endloop
  endfacet
  facet normal  1.000000e+00  -0.000000e+00  0.000000e+00
    outer loop
      vertex  3.000000e+01  4.842916e+00  3.124345e+01
      vertex  3.000000e+01 -4.842916e+00  3.124345e+01
      vertex  3.000000e+01  4.960574e+00  3.062667e+01
    endloop
  endfacet
  facet normal  1.000000e+00  0.000000e+00  0.000000e+00
    outer loop
      vertex  3.000000e+01  4.960574e+00  3.062667e+01
      vertex  3.000000e+01 -4.842916e+00  3.124345e+01
      vertex  3.000000e+01 -4.960574e+00  3.062667e+01
    endloop
  endfacet
  facet normal  1.000000e+00  -0.000000e+00  0.000000e+00
    outer loop
      vertex  3.000000e+01  4.960574e+00  3.062667e+01
      vertex  3.000000e+01 -4.960574e+00  3.062667e+01
      vertex  3.000000e+01  5.000000e+00  3.000000e+01
    endloop
  endfacet
  facet normal  1.000000e+00  0.000000e+00  0.000000e+00
    outer loop
      vertex  3.000000e+01  5.000000e+00  3.000000e+01
      vertex  3.000000e+01 -4.960574e+00  3.062667e+01
      vertex  3.000000e+01 -5.000000e+00  3.000000e+01
    endloop
  endfacet
  facet normal  1.000000e+00  -0.000000e+00  0.000000e+00
    outer loop
      vertex  3.000000e+01  5.000000e+00  3.000000e+01
      vertex  3.000000e+01 -5.000000e+00  3.000000e+01
      vertex  3.000000e+01  4.960574e+00  2.937333e+01
    endloop
  endfacet
  facet normal  1.000000e+00  0.000000e+00  0.000000e+00
    outer loop
      vertex  3.000000e+01  4.960574e+00  2.937333e+01
      vertex  3.000000e+01 -5.000000e+00  3.000000e+01
      vertex  3.000000e+01 -4.960574e+00  2.937333e+01
    endloop
  endfacet
  facet normal  1.000000e+00  -0.000000e+00  0.000000e+00
    outer loop
      vertex  3.000000e+01  4.960574e+00  2.937333e+01
      vertex  3.000000e+01 -4.960574e+00  2.937333e+01
      vertex  3.000000e+01  4.842916e+00  2.875655e+01
    endloop
  endfacet
  facet normal  1.000000e+00  0.000000e+00  0.000000e+00
    outer loop
      vertex  3.000000e+01  4.842916e+00  2.875655e+01
      vertex  3.000000e+01 -4.960574e+00  2.937333e+01
      vertex  3.000000e+01 -4.842916e+00  2.875655e+01
    endloop
  endfacet
  facet normal  1.000000e+00  -0.000000e+00  0.000000e+00
    outer loop
      vertex  3.000000e+01  4.842916e+00  2.875655e+01
      vertex  3.000000e+01 -4.842916e+00  2.875655e+01
      vertex  3.000000e+01  4.648882e+00  2.815938e+01
    endloop
  endfacet
  facet normal  1.000000e+00  0.000000e+00  0.000000e+00
    outer loop
      vertex  3.000000e+01  4.648882e+00  2.815938e+01
      vertex  3.000000e+01 -4.842916e+00  2.875655e+01
      vertex  3.000000e+01 -4.648882e+00  2.815938e+01
    endloop
  endfacet
  facet normal  1.000000e+00  -0.000000e+00  0.000000e+00
    outer loop
      vertex  3.000000e+01  4.648882e+00  2.815938e+01
      vertex  3.000000e+01 -4.648882e+00  2.815938e+01
      vertex  3.000000e+01  4.381534e+00  2.759123e+01
    endloop
  endfacet
  facet normal  1.000000e+00  0.000000e+00  0.000000e+00
    outer loop
      vertex  3.000000e+01  4.381534e+00  2.759123e+01
      vertex  3.000000e+01 -4.648882e+00  2.815938e+01
      vertex  3.000000e+01 -4.381534e+00  2.759123e+01
    endloop
  endfacet
  facet normal  1.000000e+00  -0.000000e+00  0.000000e+00
    outer loop
      vertex  3.000000e+01  4.381534e+00  2.759123e+01
      vertex  3.000000e+01 -4.381534e+00  2.759123e+01
      vertex  3.000000e+01  4.045085e+00  2.706107e+01
    endloop
  endfacet
  facet normal  1.000000e+00  0.000000e+00  0.000000e+00
    outer loop
      vertex  3.000000e+01  4.045085e+00  2.706107e+01
      vertex  3.000000e+01 -4.381534e+00  2.759123e+01
      vertex  3.000000e+01 -4.045085e+00  2.706107e+01
    endloop
  endfacet
  facet normal  1.000000e+00  -0.000000e+00  0.000000e+00
    outer loop
      vertex  3.000000e+01  4.045085e+00  2.706107e+01
      vertex  3.000000e+01 -4.045085e+00  2.706107e+01
      vertex  3.000000e+01  3.644843e+00  2.657726e+01
    endloop
  endfacet
  facet normal  9.999999e-01  0.000000e+00  0.000000e+00
    outer loop
      vertex  3.000000e+01  3.644843e+00  2.657726e+01
      vertex  3.000000e+01 -4.045085e+00  2.706107e+01
      vertex  3.000000e+01 -3.644843e+00  2.657726e+01
    endloop
  endfacet
  facet normal  1.000000e+00  -0.000000e+00  0.000000e+00
    outer loop
      vertex  3.000000e+01  3.644843e+00  2.657726e+01
      vertex  3.000000e+01 -3.644843e+00  2.657726e+01
      vertex  3.000000e+01  3.187120e+00  2.614743e+01
    endloop
  endfacet
  facet normal  1.000000e+00  0.000000e+00  0.000000e+00
    outer loop
      vertex  3.000000e+01  3.187120e+00  2.614743e+01
      vertex  3.000000e+01 -3.644843e+00  2.657726e+01
      vertex  3.000000e+01 -3.187120e+00  2.614743e+01
    endloop
  endfacet
  facet normal  1.000000e+00  -0.000000e+00  0.000000e+00
    outer loop
      vertex  3.000000e+01  3.187120e+00  2.614743e+01
      vertex  3.000000e+01 -3.187120e+00  2.614743e+01
      vertex  3.000000e+01  2.679134e+00  2.577836e+01
    endloop
  endfacet
  facet normal  1.000000e+00  0.000000e+00  0.000000e+00
    outer loop
      vertex  3.000000e+01  2.679134e+00  2.577836e+01
      vertex  3.000000e+01 -3.187120e+00  2.614743e+01
      vertex  3.000000e+01 -2.679134e+00  2.577836e+01
    endloop
  endfacet
  facet normal  1.000000e+00  -0.000000e+00  0.000000e+00
    outer loop
      vertex  3.000000e+01  2.679134e+00  2.577836e+01
      vertex  3.000000e+01 -2.679134e+00  2.577836e+01
      vertex  3.000000e+01  2.128896e+00  2.547586e+01
    endloop
  endfacet
  facet normal  1.000000e+00  0.000000e+00  0.000000e+00
    outer loop
      vertex  3.000000e+01  2.128896e+00  2.547586e+01
      vertex  3.000000e+01 -2.679134e+00  2.577836e+01
      vertex  3.000000e+01 -2.128896e+00  2.547586e+01
    endloop
  endfacet
  facet normal  1.000000e+00  -0.000000e+00  0.000000e+00
    outer loop
      vertex  3.000000e+01  2.128896e+00  2.547586e+01
      vertex  3.000000e+01 -2.128896e+00  2.547586e+01
      vertex  3.000000e+01  1.545085e+00  2.524472e+01
    endloop
  endfacet
  facet normal  1.000000e+00  0.000000e+00  0.000000e+00
    outer loop
      vertex  3.000000e+01  1.545085e+00  2.524472e+01
      vertex  3.000000e+01 -2.128896e+00  2.547586e+01
      vertex  3.000000e+01 -1.545085e+00  2.524472e+01
    endloop
  endfacet
  facet normal  1.000000e+00  -0.000000e+00  0.000000e+00
    outer loop
      vertex  3.000000e+01  1.545085e+00  2.524472e+01
      vertex  3.000000e+01 -1.545085e+00  2.524472e+01
      vertex  3.000000e+01  9.369066e-01  2.508856e+01
    endloop
  endfacet
  facet normal  1.000000e+00  0.000000e+00  0.000000e+00
    outer loop
      vertex  3.000000e+01  9.369066e-01  2.508856e+01
      vertex  3.000000e+01 -1.545085e+00  2.524472e+01
      vertex  3.000000e+01 -9.369066e-01  2.508856e+01
    endloop
  endfacet
  facet normal  1.000000e+00  -0.000000e+00  0.000000e+00
    outer loop
      vertex  3.000000e+01  9.369066e-01  2.508856e+01
      vertex  3.000000e+01 -9.369066e-01  2.508856e+01
      vertex  3.000000e+01  3.139526e-01  2.500987e+01
    endloop
  endfacet
  facet normal  1.000000e+00  0.000000e+00  0.000000e+00
    outer loop
      vertex  3.000000e+01  3.139526e-01  2.500987e+01
      vertex  3.000000e+01 -9.369066e-01  2.508856e+01
      vertex  3.000000e+01 -3.139526e-01  2.500987e+01
    endloop
  endfacet
endsolid CATIA STL
