solid CATIA STL
  facet normal  0.000000e+00  9.980267e-01 -6.279055e-02
    outer loop
      vertex -3.000000e+01  5.000000e+00  1.300000e+02
      vertex  3.000000e+01  5.000000e+00  1.300000e+02
      vertex -3.000000e+01  4.960574e+00  1.293733e+02
    endloop
  endfacet
  facet normal  0.000000e+00  9.980267e-01 -6.279055e-02
    outer loop
      vertex -3.000000e+01  4.960574e+00  1.293733e+02
      vertex  3.000000e+01  5.000000e+00  1.300000e+02
      vertex  3.000000e+01  4.960574e+00  1.293733e+02
    endloop
  endfacet
  facet normal  0.000000e+00  9.822877e-01 -1.873791e-01
    outer loop
      vertex -3.000000e+01  4.960574e+00  1.293733e+02
      vertex  3.000000e+01  4.960574e+00  1.293733e+02
      vertex -3.000000e+01  4.842916e+00  1.287565e+02
    endloop
  endfacet
  facet normal  0.000000e+00  9.822877e-01 -1.873791e-01
    outer loop
      vertex -3.000000e+01  4.842916e+00  1.287565e+02
      vertex  3.000000e+01  4.960574e+00  1.293733e+02
      vertex  3.000000e+01  4.842916e+00  1.287565e+02
    endloop
  endfacet
  facet normal  0.000000e+00  9.510555e-01 -3.090198e-01
    outer loop
      vertex -3.000000e+01  4.842916e+00  1.287565e+02
      vertex  3.000000e+01  4.842916e+00  1.287565e+02
      vertex -3.000000e+01  4.648882e+00  1.281594e+02
    endloop
  endfacet
  facet normal  0.000000e+00  9.510555e-01 -3.090198e-01
    outer loop
      vertex -3.000000e+01  4.648882e+00  1.281594e+02
      vertex  3.000000e+01  4.842916e+00  1.287565e+02
      vertex  3.000000e+01  4.648882e+00  1.281594e+02
    endloop
  endfacet
  facet normal  0.000000e+00  9.048272e-01 -4.257789e-01
    outer loop
      vertex -3.000000e+01  4.648882e+00  1.281594e+02
      vertex  3.000000e+01  4.648882e+00  1.281594e+02
      vertex -3.000000e+01  4.381534e+00  1.275912e+02
    endloop
  endfacet
  facet normal  0.000000e+00  9.048272e-01 -4.257789e-01
    outer loop
      vertex -3.000000e+01  4.381534e+00  1.275912e+02
      vertex  3.000000e+01  4.648882e+00  1.281594e+02
      vertex  3.000000e+01  4.381534e+00  1.275912e+02
    endloop
  endfacet
  facet normal  0.000000e+00  8.443283e-01 -5.358263e-01
    outer loop
      vertex -3.000000e+01  4.381534e+00  1.275912e+02
      vertex  3.000000e+01  4.381534e+00  1.275912e+02
      vertex -3.000000e+01  4.045085e+00  1.270611e+02
    endloop
  endfacet
  facet normal  0.000000e+00  8.443283e-01 -5.358263e-01
    outer loop
      vertex -3.000000e+01  4.045085e+00  1.270611e+02
      vertex  3.000000e+01  4.381534e+00  1.275912e+02
      vertex  3.000000e+01  4.045085e+00  1.270611e+02
    endloop
  endfacet
  facet normal  0.000000e+00  7.705140e-01 -6.374231e-01
    outer loop
      vertex -3.000000e+01  4.045085e+00  1.270611e+02
      vertex  3.000000e+01  4.045085e+00  1.270611e+02
      vertex -3.000000e+01  3.644843e+00  1.265773e+02
    endloop
  endfacet
  facet normal  0.000000e+00  7.705140e-01 -6.374231e-01
    outer loop
      vertex -3.000000e+01  3.644843e+00  1.265773e+02
      vertex  3.000000e+01  4.045085e+00  1.270611e+02
      vertex  3.000000e+01  3.644843e+00  1.265773e+02
    endloop
  endfacet
  facet normal  0.000000e+00  6.845487e-01 -7.289672e-01
    outer loop
      vertex -3.000000e+01  3.644843e+00  1.265773e+02
      vertex  3.000000e+01  3.644843e+00  1.265773e+02
      vertex -3.000000e+01  3.187120e+00  1.261474e+02
    endloop
  endfacet
  facet normal  0.000000e+00  6.845487e-01 -7.289672e-01
    outer loop
      vertex -3.000000e+01  3.187120e+00  1.261474e+02
      vertex  3.000000e+01  3.644843e+00  1.265773e+02
      vertex  3.000000e+01  3.187120e+00  1.261474e+02
    endloop
  endfacet
  facet normal  0.000000e+00  5.877837e-01 -8.090182e-01
    outer loop
      vertex -3.000000e+01  3.187120e+00  1.261474e+02
      vertex  3.000000e+01  3.187120e+00  1.261474e+02
      vertex -3.000000e+01  2.679134e+00  1.257784e+02
    endloop
  endfacet
  facet normal  0.000000e+00  5.877837e-01 -8.090182e-01
    outer loop
      vertex -3.000000e+01  2.679134e+00  1.257784e+02
      vertex  3.000000e+01  3.187120e+00  1.261474e+02
      vertex  3.000000e+01  2.679134e+00  1.257784e+02
    endloop
  endfacet
  facet normal  0.000000e+00  4.817472e-01 -8.763103e-01
    outer loop
      vertex -3.000000e+01  2.679134e+00  1.257784e+02
      vertex  3.000000e+01  2.679134e+00  1.257784e+02
      vertex -3.000000e+01  2.128896e+00  1.254759e+02
    endloop
  endfacet
  facet normal  0.000000e+00  4.817472e-01 -8.763103e-01
    outer loop
      vertex -3.000000e+01  2.128896e+00  1.254759e+02
      vertex  3.000000e+01  2.679134e+00  1.257784e+02
      vertex  3.000000e+01  2.128896e+00  1.254759e+02
    endloop
  endfacet
  facet normal  0.000000e+00  3.681251e-01 -9.297762e-01
    outer loop
      vertex -3.000000e+01  2.128896e+00  1.254759e+02
      vertex  3.000000e+01  2.128896e+00  1.254759e+02
      vertex -3.000000e+01  1.545085e+00  1.252447e+02
    endloop
  endfacet
  facet normal  0.000000e+00  3.681251e-01 -9.297762e-01
    outer loop
      vertex -3.000000e+01  1.545085e+00  1.252447e+02
      vertex  3.000000e+01  2.128896e+00  1.254759e+02
      vertex  3.000000e+01  1.545085e+00  1.252447e+02
    endloop
  endfacet
  facet normal  0.000000e+00  2.486970e-01 -9.685813e-01
    outer loop
      vertex -3.000000e+01  1.545085e+00  1.252447e+02
      vertex  3.000000e+01  1.545085e+00  1.252447e+02
      vertex -3.000000e+01  9.369066e-01  1.250886e+02
    endloop
  endfacet
  facet normal  0.000000e+00  2.486970e-01 -9.685813e-01
    outer loop
      vertex -3.000000e+01  9.369066e-01  1.250886e+02
      vertex  3.000000e+01  1.545085e+00  1.252447e+02
      vertex  3.000000e+01  9.369066e-01  1.250886e+02
    endloop
  endfacet
  facet normal  0.000000e+00  1.253330e-01 -9.921148e-01
    outer loop
      vertex -3.000000e+01  9.369066e-01  1.250886e+02
      vertex  3.000000e+01  9.369066e-01  1.250886e+02
      vertex -3.000000e+01  3.139526e-01  1.250099e+02
    endloop
  endfacet
  facet normal  0.000000e+00  1.253330e-01 -9.921148e-01
    outer loop
      vertex -3.000000e+01  3.139526e-01  1.250099e+02
      vertex  3.000000e+01  9.369066e-01  1.250886e+02
      vertex  3.000000e+01  3.139526e-01  1.250099e+02
    endloop
  endfacet
  facet normal  -0.000000e+00  0.000000e+00 -1.000000e+00
    outer loop
      vertex -3.000000e+01  3.139526e-01  1.250099e+02
      vertex  3.000000e+01  3.139526e-01  1.250099e+02
      vertex -3.000000e+01 -3.139526e-01  1.250099e+02
    endloop
  endfacet
  facet normal  0.000000e+00  0.000000e+00 -1.000000e+00
    outer loop
      vertex -3.000000e+01 -3.139526e-01  1.250099e+02
      vertex  3.000000e+01  3.139526e-01  1.250099e+02
      vertex  3.000000e+01 -3.139526e-01  1.250099e+02
    endloop
  endfacet
  facet normal  -0.000000e+00 -1.253330e-01 -9.921148e-01
    outer loop
      vertex -3.000000e+01 -3.139526e-01  1.250099e+02
      vertex  3.000000e+01 -3.139526e-01  1.250099e+02
      vertex -3.000000e+01 -9.369066e-01  1.250886e+02
    endloop
  endfacet
  facet normal  0.000000e+00 -1.253330e-01 -9.921148e-01
    outer loop
      vertex -3.000000e+01 -9.369066e-01  1.250886e+02
      vertex  3.000000e+01 -3.139526e-01  1.250099e+02
      vertex  3.000000e+01 -9.369066e-01  1.250886e+02
    endloop
  endfacet
  facet normal  -0.000000e+00 -2.486970e-01 -9.685813e-01
    outer loop
      vertex -3.000000e+01 -9.369066e-01  1.250886e+02
      vertex  3.000000e+01 -9.369066e-01  1.250886e+02
      vertex -3.000000e+01 -1.545085e+00  1.252447e+02
    endloop
  endfacet
  facet normal  0.000000e+00 -2.486970e-01 -9.685813e-01
    outer loop
      vertex -3.000000e+01 -1.545085e+00  1.252447e+02
      vertex  3.000000e+01 -9.369066e-01  1.250886e+02
      vertex  3.000000e+01 -1.545085e+00  1.252447e+02
    endloop
  endfacet
  facet normal  -0.000000e+00 -3.681251e-01 -9.297762e-01
    outer loop
      vertex -3.000000e+01 -1.545085e+00  1.252447e+02
      vertex  3.000000e+01 -1.545085e+00  1.252447e+02
      vertex -3.000000e+01 -2.128896e+00  1.254759e+02
    endloop
  endfacet
  facet normal  0.000000e+00 -3.681251e-01 -9.297762e-01
    outer loop
      vertex -3.000000e+01 -2.128896e+00  1.254759e+02
      vertex  3.000000e+01 -1.545085e+00  1.252447e+02
      vertex  3.000000e+01 -2.128896e+00  1.254759e+02
    endloop
  endfacet
  facet normal  -0.000000e+00 -4.817472e-01 -8.763103e-01
    outer loop
      vertex -3.000000e+01 -2.128896e+00  1.254759e+02
      vertex  3.000000e+01 -2.128896e+00  1.254759e+02
      vertex -3.000000e+01 -2.679134e+00  1.257784e+02
    endloop
  endfacet
  facet normal  0.000000e+00 -4.817472e-01 -8.763103e-01
    outer loop
      vertex -3.000000e+01 -2.679134e+00  1.257784e+02
      vertex  3.000000e+01 -2.128896e+00  1.254759e+02
      vertex  3.000000e+01 -2.679134e+00  1.257784e+02
    endloop
  endfacet
  facet normal  -0.000000e+00 -5.877837e-01 -8.090182e-01
    outer loop
      vertex -3.000000e+01 -2.679134e+00  1.257784e+02
      vertex  3.000000e+01 -2.679134e+00  1.257784e+02
      vertex -3.000000e+01 -3.187120e+00  1.261474e+02
    endloop
  endfacet
  facet normal  0.000000e+00 -5.877837e-01 -8.090182e-01
    outer loop
      vertex -3.000000e+01 -3.187120e+00  1.261474e+02
      vertex  3.000000e+01 -2.679134e+00  1.257784e+02
      vertex  3.000000e+01 -3.187120e+00  1.261474e+02
    endloop
  endfacet
  facet normal  -0.000000e+00 -6.845487e-01 -7.289672e-01
    outer loop
      vertex -3.000000e+01 -3.187120e+00  1.261474e+02
      vertex  3.000000e+01 -3.187120e+00  1.261474e+02
      vertex -3.000000e+01 -3.644843e+00  1.265773e+02
    endloop
  endfacet
  facet normal  0.000000e+00 -6.845487e-01 -7.289672e-01
    outer loop
      vertex -3.000000e+01 -3.644843e+00  1.265773e+02
      vertex  3.000000e+01 -3.187120e+00  1.261474e+02
      vertex  3.000000e+01 -3.644843e+00  1.265773e+02
    endloop
  endfacet
  facet normal  -0.000000e+00 -7.705140e-01 -6.374231e-01
    outer loop
      vertex -3.000000e+01 -3.644843e+00  1.265773e+02
      vertex  3.000000e+01 -3.644843e+00  1.265773e+02
      vertex -3.000000e+01 -4.045085e+00  1.270611e+02
    endloop
  endfacet
  facet normal  0.000000e+00 -7.705140e-01 -6.374231e-01
    outer loop
      vertex -3.000000e+01 -4.045085e+00  1.270611e+02
      vertex  3.000000e+01 -3.644843e+00  1.265773e+02
      vertex  3.000000e+01 -4.045085e+00  1.270611e+02
    endloop
  endfacet
  facet normal  -0.000000e+00 -8.443283e-01 -5.358263e-01
    outer loop
      vertex -3.000000e+01 -4.045085e+00  1.270611e+02
      vertex  3.000000e+01 -4.045085e+00  1.270611e+02
      vertex -3.000000e+01 -4.381534e+00  1.275912e+02
    endloop
  endfacet
  facet normal  0.000000e+00 -8.443283e-01 -5.358263e-01
    outer loop
      vertex -3.000000e+01 -4.381534e+00  1.275912e+02
      vertex  3.000000e+01 -4.045085e+00  1.270611e+02
      vertex  3.000000e+01 -4.381534e+00  1.275912e+02
    endloop
  endfacet
  facet normal  -0.000000e+00 -9.048272e-01 -4.257789e-01
    outer loop
      vertex -3.000000e+01 -4.381534e+00  1.275912e+02
      vertex  3.000000e+01 -4.381534e+00  1.275912e+02
      vertex -3.000000e+01 -4.648882e+00  1.281594e+02
    endloop
  endfacet
  facet normal  0.000000e+00 -9.048272e-01 -4.257789e-01
    outer loop
      vertex -3.000000e+01 -4.648882e+00  1.281594e+02
      vertex  3.000000e+01 -4.381534e+00  1.275912e+02
      vertex  3.000000e+01 -4.648882e+00  1.281594e+02
    endloop
  endfacet
  facet normal  -0.000000e+00 -9.510555e-01 -3.090198e-01
    outer loop
      vertex -3.000000e+01 -4.648882e+00  1.281594e+02
      vertex  3.000000e+01 -4.648882e+00  1.281594e+02
      vertex -3.000000e+01 -4.842916e+00  1.287565e+02
    endloop
  endfacet
  facet normal  0.000000e+00 -9.510555e-01 -3.090198e-01
    outer loop
      vertex -3.000000e+01 -4.842916e+00  1.287565e+02
      vertex  3.000000e+01 -4.648882e+00  1.281594e+02
      vertex  3.000000e+01 -4.842916e+00  1.287565e+02
    endloop
  endfacet
  facet normal  -0.000000e+00 -9.822877e-01 -1.873791e-01
    outer loop
      vertex -3.000000e+01 -4.842916e+00  1.287565e+02
      vertex  3.000000e+01 -4.842916e+00  1.287565e+02
      vertex -3.000000e+01 -4.960574e+00  1.293733e+02
    endloop
  endfacet
  facet normal  0.000000e+00 -9.822877e-01 -1.873791e-01
    outer loop
      vertex -3.000000e+01 -4.960574e+00  1.293733e+02
      vertex  3.000000e+01 -4.842916e+00  1.287565e+02
      vertex  3.000000e+01 -4.960574e+00  1.293733e+02
    endloop
  endfacet
  facet normal  -0.000000e+00 -9.980267e-01 -6.279055e-02
    outer loop
      vertex -3.000000e+01 -4.960574e+00  1.293733e+02
      vertex  3.000000e+01 -4.960574e+00  1.293733e+02
      vertex -3.000000e+01 -5.000000e+00  1.300000e+02
    endloop
  endfacet
  facet normal  0.000000e+00 -9.980267e-01 -6.279055e-02
    outer loop
      vertex -3.000000e+01 -5.000000e+00  1.300000e+02
      vertex  3.000000e+01 -4.960574e+00  1.293733e+02
      vertex  3.000000e+01 -5.000000e+00  1.300000e+02
    endloop
  endfacet
  facet normal  0.000000e+00 -9.980267e-01  6.279055e-02
    outer loop
      vertex -3.000000e+01 -5.000000e+00  1.300000e+02
      vertex  3.000000e+01 -5.000000e+00  1.300000e+02
      vertex -3.000000e+01 -4.960574e+00  1.306267e+02
    endloop
  endfacet
  facet normal  0.000000e+00 -9.980267e-01  6.279055e-02
    outer loop
      vertex -3.000000e+01 -4.960574e+00  1.306267e+02
      vertex  3.000000e+01 -5.000000e+00  1.300000e+02
      vertex  3.000000e+01 -4.960574e+00  1.306267e+02
    endloop
  endfacet
  facet normal  0.000000e+00 -9.822877e-01  1.873791e-01
    outer loop
      vertex -3.000000e+01 -4.960574e+00  1.306267e+02
      vertex  3.000000e+01 -4.960574e+00  1.306267e+02
      vertex -3.000000e+01 -4.842916e+00  1.312435e+02
    endloop
  endfacet
  facet normal  0.000000e+00 -9.822877e-01  1.873791e-01
    outer loop
      vertex -3.000000e+01 -4.842916e+00  1.312435e+02
      vertex  3.000000e+01 -4.960574e+00  1.306267e+02
      vertex  3.000000e+01 -4.842916e+00  1.312435e+02
    endloop
  endfacet
  facet normal  0.000000e+00 -9.510555e-01  3.090198e-01
    outer loop
      vertex -3.000000e+01 -4.842916e+00  1.312435e+02
      vertex  3.000000e+01 -4.842916e+00  1.312435e+02
      vertex -3.000000e+01 -4.648882e+00  1.318406e+02
    endloop
  endfacet
  facet normal  0.000000e+00 -9.510555e-01  3.090198e-01
    outer loop
      vertex -3.000000e+01 -4.648882e+00  1.318406e+02
      vertex  3.000000e+01 -4.842916e+00  1.312435e+02
      vertex  3.000000e+01 -4.648882e+00  1.318406e+02
    endloop
  endfacet
  facet normal  0.000000e+00 -9.048272e-01  4.257789e-01
    outer loop
      vertex -3.000000e+01 -4.648882e+00  1.318406e+02
      vertex  3.000000e+01 -4.648882e+00  1.318406e+02
      vertex -3.000000e+01 -4.381534e+00  1.324088e+02
    endloop
  endfacet
  facet normal  0.000000e+00 -9.048272e-01  4.257789e-01
    outer loop
      vertex -3.000000e+01 -4.381534e+00  1.324088e+02
      vertex  3.000000e+01 -4.648882e+00  1.318406e+02
      vertex  3.000000e+01 -4.381534e+00  1.324088e+02
    endloop
  endfacet
  facet normal  0.000000e+00 -8.443248e-01  5.358317e-01
    outer loop
      vertex -3.000000e+01 -4.381534e+00  1.324088e+02
      vertex  3.000000e+01 -4.381534e+00  1.324088e+02
      vertex -3.000000e+01 -4.045085e+00  1.329389e+02
    endloop
  endfacet
  facet normal  0.000000e+00 -8.443248e-01  5.358317e-01
    outer loop
      vertex -3.000000e+01 -4.045085e+00  1.329389e+02
      vertex  3.000000e+01 -4.381534e+00  1.324088e+02
      vertex  3.000000e+01 -4.045085e+00  1.329389e+02
    endloop
  endfacet
  facet normal  0.000000e+00 -7.705140e-01  6.374231e-01
    outer loop
      vertex -3.000000e+01 -4.045085e+00  1.329389e+02
      vertex  3.000000e+01 -4.045085e+00  1.329389e+02
      vertex -3.000000e+01 -3.644843e+00  1.334227e+02
    endloop
  endfacet
  facet normal  0.000000e+00 -7.705140e-01  6.374231e-01
    outer loop
      vertex -3.000000e+01 -3.644843e+00  1.334227e+02
      vertex  3.000000e+01 -4.045085e+00  1.329389e+02
      vertex  3.000000e+01 -3.644843e+00  1.334227e+02
    endloop
  endfacet
  facet normal  0.000000e+00 -6.845551e-01  7.289611e-01
    outer loop
      vertex -3.000000e+01 -3.644843e+00  1.334227e+02
      vertex  3.000000e+01 -3.644843e+00  1.334227e+02
      vertex -3.000000e+01 -3.187120e+00  1.338526e+02
    endloop
  endfacet
  facet normal  0.000000e+00 -6.845551e-01  7.289611e-01
    outer loop
      vertex -3.000000e+01 -3.187120e+00  1.338526e+02
      vertex  3.000000e+01 -3.644843e+00  1.334227e+02
      vertex  3.000000e+01 -3.187120e+00  1.338526e+02
    endloop
  endfacet
  facet normal  0.000000e+00 -5.877757e-01  8.090239e-01
    outer loop
      vertex -3.000000e+01 -3.187120e+00  1.338526e+02
      vertex  3.000000e+01 -3.187120e+00  1.338526e+02
      vertex -3.000000e+01 -2.679134e+00  1.342216e+02
    endloop
  endfacet
  facet normal  0.000000e+00 -5.877757e-01  8.090239e-01
    outer loop
      vertex -3.000000e+01 -2.679134e+00  1.342216e+02
      vertex  3.000000e+01 -3.187120e+00  1.338526e+02
      vertex  3.000000e+01 -2.679134e+00  1.342216e+02
    endloop
  endfacet
  facet normal  0.000000e+00 -4.817658e-01  8.763000e-01
    outer loop
      vertex -3.000000e+01 -2.679134e+00  1.342216e+02
      vertex  3.000000e+01 -2.679134e+00  1.342216e+02
      vertex -3.000000e+01 -2.128896e+00  1.345241e+02
    endloop
  endfacet
  facet normal  0.000000e+00 -4.817658e-01  8.763000e-01
    outer loop
      vertex -3.000000e+01 -2.128896e+00  1.345241e+02
      vertex  3.000000e+01 -2.679134e+00  1.342216e+02
      vertex  3.000000e+01 -2.128896e+00  1.345241e+02
    endloop
  endfacet
  facet normal  0.000000e+00 -3.681147e-01  9.297804e-01
    outer loop
      vertex -3.000000e+01 -2.128896e+00  1.345241e+02
      vertex  3.000000e+01 -2.128896e+00  1.345241e+02
      vertex -3.000000e+01 -1.545085e+00  1.347553e+02
    endloop
  endfacet
  facet normal  0.000000e+00 -3.681147e-01  9.297804e-01
    outer loop
      vertex -3.000000e+01 -1.545085e+00  1.347553e+02
      vertex  3.000000e+01 -2.128896e+00  1.345241e+02
      vertex  3.000000e+01 -1.545085e+00  1.347553e+02
    endloop
  endfacet
  facet normal  0.000000e+00 -2.486970e-01  9.685813e-01
    outer loop
      vertex -3.000000e+01 -1.545085e+00  1.347553e+02
      vertex  3.000000e+01 -1.545085e+00  1.347553e+02
      vertex -3.000000e+01 -9.369066e-01  1.349114e+02
    endloop
  endfacet
  facet normal  0.000000e+00 -2.486970e-01  9.685813e-01
    outer loop
      vertex -3.000000e+01 -9.369066e-01  1.349114e+02
      vertex  3.000000e+01 -1.545085e+00  1.347553e+02
      vertex  3.000000e+01 -9.369066e-01  1.349114e+02
    endloop
  endfacet
  facet normal  0.000000e+00 -1.253210e-01  9.921163e-01
    outer loop
      vertex -3.000000e+01 -9.369066e-01  1.349114e+02
      vertex  3.000000e+01 -9.369066e-01  1.349114e+02
      vertex -3.000000e+01 -3.139526e-01  1.349901e+02
    endloop
  endfacet
  facet normal  0.000000e+00 -1.253210e-01  9.921163e-01
    outer loop
      vertex -3.000000e+01 -3.139526e-01  1.349901e+02
      vertex  3.000000e+01 -9.369066e-01  1.349114e+02
      vertex  3.000000e+01 -3.139526e-01  1.349901e+02
    endloop
  endfacet
  facet normal  0.000000e+00  0.000000e+00  1.000000e+00
    outer loop
      vertex -3.000000e+01 -3.139526e-01  1.349901e+02
      vertex  3.000000e+01 -3.139526e-01  1.349901e+02
      vertex -3.000000e+01  3.139526e-01  1.349901e+02
    endloop
  endfacet
  facet normal  -0.000000e+00  0.000000e+00  1.000000e+00
    outer loop
      vertex -3.000000e+01  3.139526e-01  1.349901e+02
      vertex  3.000000e+01 -3.139526e-01  1.349901e+02
      vertex  3.000000e+01  3.139526e-01  1.349901e+02
    endloop
  endfacet
  facet normal  0.000000e+00  1.253210e-01  9.921163e-01
    outer loop
      vertex -3.000000e+01  3.139526e-01  1.349901e+02
      vertex  3.000000e+01  3.139526e-01  1.349901e+02
      vertex -3.000000e+01  9.369066e-01  1.349114e+02
    endloop
  endfacet
  facet normal  -0.000000e+00  1.253210e-01  9.921163e-01
    outer loop
      vertex -3.000000e+01  9.369066e-01  1.349114e+02
      vertex  3.000000e+01  3.139526e-01  1.349901e+02
      vertex  3.000000e+01  9.369066e-01  1.349114e+02
    endloop
  endfacet
  facet normal  0.000000e+00  2.486970e-01  9.685813e-01
    outer loop
      vertex -3.000000e+01  9.369066e-01  1.349114e+02
      vertex  3.000000e+01  9.369066e-01  1.349114e+02
      vertex -3.000000e+01  1.545085e+00  1.347553e+02
    endloop
  endfacet
  facet normal  -0.000000e+00  2.486970e-01  9.685813e-01
    outer loop
      vertex -3.000000e+01  1.545085e+00  1.347553e+02
      vertex  3.000000e+01  9.369066e-01  1.349114e+02
      vertex  3.000000e+01  1.545085e+00  1.347553e+02
    endloop
  endfacet
  facet normal  0.000000e+00  3.681147e-01  9.297804e-01
    outer loop
      vertex -3.000000e+01  1.545085e+00  1.347553e+02
      vertex  3.000000e+01  1.545085e+00  1.347553e+02
      vertex -3.000000e+01  2.128896e+00  1.345241e+02
    endloop
  endfacet
  facet normal  -0.000000e+00  3.681147e-01  9.297804e-01
    outer loop
      vertex -3.000000e+01  2.128896e+00  1.345241e+02
      vertex  3.000000e+01  1.545085e+00  1.347553e+02
      vertex  3.000000e+01  2.128896e+00  1.345241e+02
    endloop
  endfacet
  facet normal  0.000000e+00  4.817658e-01  8.763000e-01
    outer loop
      vertex -3.000000e+01  2.128896e+00  1.345241e+02
      vertex  3.000000e+01  2.128896e+00  1.345241e+02
      vertex -3.000000e+01  2.679134e+00  1.342216e+02
    endloop
  endfacet
  facet normal  -0.000000e+00  4.817658e-01  8.763000e-01
    outer loop
      vertex -3.000000e+01  2.679134e+00  1.342216e+02
      vertex  3.000000e+01  2.128896e+00  1.345241e+02
      vertex  3.000000e+01  2.679134e+00  1.342216e+02
    endloop
  endfacet
  facet normal  0.000000e+00  5.877757e-01  8.090239e-01
    outer loop
      vertex -3.000000e+01  2.679134e+00  1.342216e+02
      vertex  3.000000e+01  2.679134e+00  1.342216e+02
      vertex -3.000000e+01  3.187120e+00  1.338526e+02
    endloop
  endfacet
  facet normal  -0.000000e+00  5.877757e-01  8.090239e-01
    outer loop
      vertex -3.000000e+01  3.187120e+00  1.338526e+02
      vertex  3.000000e+01  2.679134e+00  1.342216e+02
      vertex  3.000000e+01  3.187120e+00  1.338526e+02
    endloop
  endfacet
  facet normal  0.000000e+00  6.845551e-01  7.289611e-01
    outer loop
      vertex -3.000000e+01  3.187120e+00  1.338526e+02
      vertex  3.000000e+01  3.187120e+00  1.338526e+02
      vertex -3.000000e+01  3.644843e+00  1.334227e+02
    endloop
  endfacet
  facet normal  -0.000000e+00  6.845551e-01  7.289611e-01
    outer loop
      vertex -3.000000e+01  3.644843e+00  1.334227e+02
      vertex  3.000000e+01  3.187120e+00  1.338526e+02
      vertex  3.000000e+01  3.644843e+00  1.334227e+02
    endloop
  endfacet
  facet normal  0.000000e+00  7.705140e-01  6.374231e-01
    outer loop
      vertex -3.000000e+01  3.644843e+00  1.334227e+02
      vertex  3.000000e+01  3.644843e+00  1.334227e+02
      vertex -3.000000e+01  4.045085e+00  1.329389e+02
    endloop
  endfacet
  facet normal  -0.000000e+00  7.705140e-01  6.374231e-01
    outer loop
      vertex -3.000000e+01  4.045085e+00  1.329389e+02
      vertex  3.000000e+01  3.644843e+00  1.334227e+02
      vertex  3.000000e+01  4.045085e+00  1.329389e+02
    endloop
  endfacet
  facet normal  0.000000e+00  8.443248e-01  5.358317e-01
    outer loop
      vertex -3.000000e+01  4.045085e+00  1.329389e+02
      vertex  3.000000e+01  4.045085e+00  1.329389e+02
      vertex -3.000000e+01  4.381534e+00  1.324088e+02
    endloop
  endfacet
  facet normal  -0.000000e+00  8.443248e-01  5.358317e-01
    outer loop
      vertex -3.000000e+01  4.381534e+00  1.324088e+02
      vertex  3.000000e+01  4.045085e+00  1.329389e+02
      vertex  3.000000e+01  4.381534e+00  1.324088e+02
    endloop
  endfacet
  facet normal  0.000000e+00  9.048272e-01  4.257789e-01
    outer loop
      vertex -3.000000e+01  4.381534e+00  1.324088e+02
      vertex  3.000000e+01  4.381534e+00  1.324088e+02
      vertex -3.000000e+01  4.648882e+00  1.318406e+02
    endloop
  endfacet
  facet normal  -0.000000e+00  9.048272e-01  4.257789e-01
    outer loop
      vertex -3.000000e+01  4.648882e+00  1.318406e+02
      vertex  3.000000e+01  4.381534e+00  1.324088e+02
      vertex  3.000000e+01  4.648882e+00  1.318406e+02
    endloop
  endfacet
  facet normal  0.000000e+00  9.510555e-01  3.090198e-01
    outer loop
      vertex -3.000000e+01  4.648882e+00  1.318406e+02
      vertex  3.000000e+01  4.648882e+00  1.318406e+02
      vertex -3.000000e+01  4.842916e+00  1.312435e+02
    endloop
  endfacet
  facet normal  -0.000000e+00  9.510555e-01  3.090198e-01
    outer loop
      vertex -3.000000e+01  4.842916e+00  1.312435e+02
      vertex  3.000000e+01  4.648882e+00  1.318406e+02
      vertex  3.000000e+01  4.842916e+00  1.312435e+02
    endloop
  endfacet
  facet normal  0.000000e+00  9.822877e-01  1.873791e-01
    outer loop
      vertex -3.000000e+01  4.842916e+00  1.312435e+02
      vertex  3.000000e+01  4.842916e+00  1.312435e+02
      vertex -3.000000e+01  4.960574e+00  1.306267e+02
    endloop
  endfacet
  facet normal  -0.000000e+00  9.822877e-01  1.873791e-01
    outer loop
      vertex -3.000000e+01  4.960574e+00  1.306267e+02
      vertex  3.000000e+01  4.842916e+00  1.312435e+02
      vertex  3.000000e+01  4.960574e+00  1.306267e+02
    endloop
  endfacet
  facet normal  0.000000e+00  9.980267e-01  6.279055e-02
    outer loop
      vertex -3.000000e+01  4.960574e+00  1.306267e+02
      vertex  3.000000e+01  4.960574e+00  1.306267e+02
      vertex -3.000000e+01  5.000000e+00  1.300000e+02
    endloop
  endfacet
  facet normal  -0.000000e+00  9.980267e-01  6.279055e-02
    outer loop
      vertex -3.000000e+01  5.000000e+00  1.300000e+02
      vertex  3.000000e+01  4.960574e+00  1.306267e+02
      vertex  3.000000e+01  5.000000e+00  1.300000e+02
    endloop
  endfacet
  facet normal -9.999999e-01  0.000000e+00  0.000000e+00
    outer loop
      vertex -3.000000e+01  5.000000e+00  1.300000e+02
      vertex -3.000000e+01 -4.960574e+00  1.306267e+02
      vertex -3.000000e+01  4.960574e+00  1.306267e+02
    endloop
  endfacet
  facet normal -1.000000e+00  0.000000e+00  0.000000e+00
    outer loop
      vertex -3.000000e+01  4.960574e+00  1.306267e+02
      vertex -3.000000e+01 -4.960574e+00  1.306267e+02
      vertex -3.000000e+01 -4.842916e+00  1.312435e+02
    endloop
  endfacet
  facet normal -1.000000e+00  0.000000e+00  0.000000e+00
    outer loop
      vertex -3.000000e+01  4.960574e+00  1.306267e+02
      vertex -3.000000e+01 -4.842916e+00  1.312435e+02
      vertex -3.000000e+01  4.842916e+00  1.312435e+02
    endloop
  endfacet
  facet normal -1.000000e+00  0.000000e+00  0.000000e+00
    outer loop
      vertex -3.000000e+01  4.842916e+00  1.312435e+02
      vertex -3.000000e+01 -4.842916e+00  1.312435e+02
      vertex -3.000000e+01 -4.648882e+00  1.318406e+02
    endloop
  endfacet
  facet normal -1.000000e+00  0.000000e+00  0.000000e+00
    outer loop
      vertex -3.000000e+01  4.842916e+00  1.312435e+02
      vertex -3.000000e+01 -4.648882e+00  1.318406e+02
      vertex -3.000000e+01  4.648882e+00  1.318406e+02
    endloop
  endfacet
  facet normal -1.000000e+00  0.000000e+00  0.000000e+00
    outer loop
      vertex -3.000000e+01  4.648882e+00  1.318406e+02
      vertex -3.000000e+01 -4.648882e+00  1.318406e+02
      vertex -3.000000e+01 -4.381534e+00  1.324088e+02
    endloop
  endfacet
  facet normal -1.000000e+00  0.000000e+00  0.000000e+00
    outer loop
      vertex -3.000000e+01  4.648882e+00  1.318406e+02
      vertex -3.000000e+01 -4.381534e+00  1.324088e+02
      vertex -3.000000e+01  4.381534e+00  1.324088e+02
    endloop
  endfacet
  facet normal -1.000000e+00  0.000000e+00  0.000000e+00
    outer loop
      vertex -3.000000e+01  4.381534e+00  1.324088e+02
      vertex -3.000000e+01 -4.381534e+00  1.324088e+02
      vertex -3.000000e+01 -4.045085e+00  1.329389e+02
    endloop
  endfacet
  facet normal -1.000000e+00  0.000000e+00  0.000000e+00
    outer loop
      vertex -3.000000e+01  4.381534e+00  1.324088e+02
      vertex -3.000000e+01 -4.045085e+00  1.329389e+02
      vertex -3.000000e+01  4.045085e+00  1.329389e+02
    endloop
  endfacet
  facet normal -1.000000e+00  0.000000e+00  0.000000e+00
    outer loop
      vertex -3.000000e+01  4.045085e+00  1.329389e+02
      vertex -3.000000e+01 -4.045085e+00  1.329389e+02
      vertex -3.000000e+01 -3.644843e+00  1.334227e+02
    endloop
  endfacet
  facet normal -1.000000e+00  0.000000e+00  0.000000e+00
    outer loop
      vertex -3.000000e+01  4.045085e+00  1.329389e+02
      vertex -3.000000e+01 -3.644843e+00  1.334227e+02
      vertex -3.000000e+01  3.644843e+00  1.334227e+02
    endloop
  endfacet
  facet normal -1.000000e+00  0.000000e+00  0.000000e+00
    outer loop
      vertex -3.000000e+01  3.644843e+00  1.334227e+02
      vertex -3.000000e+01 -3.644843e+00  1.334227e+02
      vertex -3.000000e+01 -3.187120e+00  1.338526e+02
    endloop
  endfacet
  facet normal -9.999999e-01  0.000000e+00  0.000000e+00
    outer loop
      vertex -3.000000e+01  3.644843e+00  1.334227e+02
      vertex -3.000000e+01 -3.187120e+00  1.338526e+02
      vertex -3.000000e+01  3.187120e+00  1.338526e+02
    endloop
  endfacet
  facet normal -1.000000e+00  0.000000e+00  0.000000e+00
    outer loop
      vertex -3.000000e+01  3.187120e+00  1.338526e+02
      vertex -3.000000e+01 -3.187120e+00  1.338526e+02
      vertex -3.000000e+01 -2.679134e+00  1.342216e+02
    endloop
  endfacet
  facet normal -9.999999e-01  0.000000e+00  0.000000e+00
    outer loop
      vertex -3.000000e+01  3.187120e+00  1.338526e+02
      vertex -3.000000e+01 -2.679134e+00  1.342216e+02
      vertex -3.000000e+01  2.679134e+00  1.342216e+02
    endloop
  endfacet
  facet normal -9.999999e-01  0.000000e+00  0.000000e+00
    outer loop
      vertex -3.000000e+01  2.679134e+00  1.342216e+02
      vertex -3.000000e+01 -2.679134e+00  1.342216e+02
      vertex -3.000000e+01 -2.128896e+00  1.345241e+02
    endloop
  endfacet
  facet normal -1.000000e+00  0.000000e+00  0.000000e+00
    outer loop
      vertex -3.000000e+01  2.679134e+00  1.342216e+02
      vertex -3.000000e+01 -2.128896e+00  1.345241e+02
      vertex -3.000000e+01  2.128896e+00  1.345241e+02
    endloop
  endfacet
  facet normal -1.000000e+00  0.000000e+00  0.000000e+00
    outer loop
      vertex -3.000000e+01  2.128896e+00  1.345241e+02
      vertex -3.000000e+01 -2.128896e+00  1.345241e+02
      vertex -3.000000e+01 -1.545085e+00  1.347553e+02
    endloop
  endfacet
  facet normal -1.000000e+00  0.000000e+00  0.000000e+00
    outer loop
      vertex -3.000000e+01  2.128896e+00  1.345241e+02
      vertex -3.000000e+01 -1.545085e+00  1.347553e+02
      vertex -3.000000e+01  1.545085e+00  1.347553e+02
    endloop
  endfacet
  facet normal -1.000000e+00  0.000000e+00  0.000000e+00
    outer loop
      vertex -3.000000e+01  1.545085e+00  1.347553e+02
      vertex -3.000000e+01 -1.545085e+00  1.347553e+02
      vertex -3.000000e+01 -9.369066e-01  1.349114e+02
    endloop
  endfacet
  facet normal -1.000000e+00  0.000000e+00  0.000000e+00
    outer loop
      vertex -3.000000e+01  1.545085e+00  1.347553e+02
      vertex -3.000000e+01 -9.369066e-01  1.349114e+02
      vertex -3.000000e+01  9.369066e-01  1.349114e+02
    endloop
  endfacet
  facet normal -1.000000e+00  0.000000e+00  0.000000e+00
    outer loop
      vertex -3.000000e+01  9.369066e-01  1.349114e+02
      vertex -3.000000e+01 -9.369066e-01  1.349114e+02
      vertex -3.000000e+01 -3.139526e-01  1.349901e+02
    endloop
  endfacet
  facet normal -1.000000e+00  0.000000e+00  0.000000e+00
    outer loop
      vertex -3.000000e+01  9.369066e-01  1.349114e+02
      vertex -3.000000e+01 -3.139526e-01  1.349901e+02
      vertex -3.000000e+01  3.139526e-01  1.349901e+02
    endloop
  endfacet
  facet normal -9.999999e-01  0.000000e+00  0.000000e+00
    outer loop
      vertex -3.000000e+01 -4.960574e+00  1.306267e+02
      vertex -3.000000e+01  5.000000e+00  1.300000e+02
      vertex -3.000000e+01 -5.000000e+00  1.300000e+02
    endloop
  endfacet
  facet normal -9.999999e-01  0.000000e+00  0.000000e+00
    outer loop
      vertex -3.000000e+01 -5.000000e+00  1.300000e+02
      vertex -3.000000e+01  5.000000e+00  1.300000e+02
      vertex -3.000000e+01  4.960574e+00  1.293733e+02
    endloop
  endfacet
  facet normal -9.999999e-01  0.000000e+00  0.000000e+00
    outer loop
      vertex -3.000000e+01 -5.000000e+00  1.300000e+02
      vertex -3.000000e+01  4.960574e+00  1.293733e+02
      vertex -3.000000e+01 -4.960574e+00  1.293733e+02
    endloop
  endfacet
  facet normal -1.000000e+00  0.000000e+00  0.000000e+00
    outer loop
      vertex -3.000000e+01 -4.960574e+00  1.293733e+02
      vertex -3.000000e+01  4.960574e+00  1.293733e+02
      vertex -3.000000e+01  4.842916e+00  1.287565e+02
    endloop
  endfacet
  facet normal -1.000000e+00  0.000000e+00  0.000000e+00
    outer loop
      vertex -3.000000e+01 -4.960574e+00  1.293733e+02
      vertex -3.000000e+01  4.842916e+00  1.287565e+02
      vertex -3.000000e+01 -4.842916e+00  1.287565e+02
    endloop
  endfacet
  facet normal -1.000000e+00  0.000000e+00  0.000000e+00
    outer loop
      vertex -3.000000e+01 -4.842916e+00  1.287565e+02
      vertex -3.000000e+01  4.842916e+00  1.287565e+02
      vertex -3.000000e+01  4.648882e+00  1.281594e+02
    endloop
  endfacet
  facet normal -1.000000e+00  0.000000e+00  0.000000e+00
    outer loop
      vertex -3.000000e+01 -4.842916e+00  1.287565e+02
      vertex -3.000000e+01  4.648882e+00  1.281594e+02
      vertex -3.000000e+01 -4.648882e+00  1.281594e+02
    endloop
  endfacet
  facet normal -1.000000e+00  0.000000e+00  0.000000e+00
    outer loop
      vertex -3.000000e+01 -4.648882e+00  1.281594e+02
      vertex -3.000000e+01  4.648882e+00  1.281594e+02
      vertex -3.000000e+01  4.381534e+00  1.275912e+02
    endloop
  endfacet
  facet normal -1.000000e+00  0.000000e+00  0.000000e+00
    outer loop
      vertex -3.000000e+01 -4.648882e+00  1.281594e+02
      vertex -3.000000e+01  4.381534e+00  1.275912e+02
      vertex -3.000000e+01 -4.381534e+00  1.275912e+02
    endloop
  endfacet
  facet normal -1.000000e+00  0.000000e+00  0.000000e+00
    outer loop
      vertex -3.000000e+01 -4.381534e+00  1.275912e+02
      vertex -3.000000e+01  4.381534e+00  1.275912e+02
      vertex -3.000000e+01  4.045085e+00  1.270611e+02
    endloop
  endfacet
  facet normal -1.000000e+00  0.000000e+00  0.000000e+00
    outer loop
      vertex -3.000000e+01 -4.381534e+00  1.275912e+02
      vertex -3.000000e+01  4.045085e+00  1.270611e+02
      vertex -3.000000e+01 -4.045085e+00  1.270611e+02
    endloop
  endfacet
  facet normal -1.000000e+00  0.000000e+00  0.000000e+00
    outer loop
      vertex -3.000000e+01 -4.045085e+00  1.270611e+02
      vertex -3.000000e+01  4.045085e+00  1.270611e+02
      vertex -3.000000e+01  3.644843e+00  1.265773e+02
    endloop
  endfacet
  facet normal -1.000000e+00  0.000000e+00  0.000000e+00
    outer loop
      vertex -3.000000e+01 -4.045085e+00  1.270611e+02
      vertex -3.000000e+01  3.644843e+00  1.265773e+02
      vertex -3.000000e+01 -3.644843e+00  1.265773e+02
    endloop
  endfacet
  facet normal -1.000000e+00  0.000000e+00  0.000000e+00
    outer loop
      vertex -3.000000e+01 -3.644843e+00  1.265773e+02
      vertex -3.000000e+01  3.644843e+00  1.265773e+02
      vertex -3.000000e+01  3.187120e+00  1.261474e+02
    endloop
  endfacet
  facet normal -1.000000e+00  0.000000e+00  0.000000e+00
    outer loop
      vertex -3.000000e+01 -3.644843e+00  1.265773e+02
      vertex -3.000000e+01  3.187120e+00  1.261474e+02
      vertex -3.000000e+01 -3.187120e+00  1.261474e+02
    endloop
  endfacet
  facet normal -1.000000e+00  0.000000e+00  0.000000e+00
    outer loop
      vertex -3.000000e+01 -3.187120e+00  1.261474e+02
      vertex -3.000000e+01  3.187120e+00  1.261474e+02
      vertex -3.000000e+01  2.679134e+00  1.257784e+02
    endloop
  endfacet
  facet normal -1.000000e+00  0.000000e+00  0.000000e+00
    outer loop
      vertex -3.000000e+01 -3.187120e+00  1.261474e+02
      vertex -3.000000e+01  2.679134e+00  1.257784e+02
      vertex -3.000000e+01 -2.679134e+00  1.257784e+02
    endloop
  endfacet
  facet normal -1.000000e+00  0.000000e+00  0.000000e+00
    outer loop
      vertex -3.000000e+01 -2.679134e+00  1.257784e+02
      vertex -3.000000e+01  2.679134e+00  1.257784e+02
      vertex -3.000000e+01  2.128896e+00  1.254759e+02
    endloop
  endfacet
  facet normal -1.000000e+00  0.000000e+00  0.000000e+00
    outer loop
      vertex -3.000000e+01 -2.679134e+00  1.257784e+02
      vertex -3.000000e+01  2.128896e+00  1.254759e+02
      vertex -3.000000e+01 -2.128896e+00  1.254759e+02
    endloop
  endfacet
  facet normal -1.000000e+00  0.000000e+00  0.000000e+00
    outer loop
      vertex -3.000000e+01 -2.128896e+00  1.254759e+02
      vertex -3.000000e+01  2.128896e+00  1.254759e+02
      vertex -3.000000e+01  1.545085e+00  1.252447e+02
    endloop
  endfacet
  facet normal -1.000000e+00  0.000000e+00  0.000000e+00
    outer loop
      vertex -3.000000e+01 -2.128896e+00  1.254759e+02
      vertex -3.000000e+01  1.545085e+00  1.252447e+02
      vertex -3.000000e+01 -1.545085e+00  1.252447e+02
    endloop
  endfacet
  facet normal -1.000000e+00  0.000000e+00  0.000000e+00
    outer loop
      vertex -3.000000e+01 -1.545085e+00  1.252447e+02
      vertex -3.000000e+01  1.545085e+00  1.252447e+02
      vertex -3.000000e+01  9.369066e-01  1.250886e+02
    endloop
  endfacet
  facet normal -1.000000e+00  0.000000e+00  0.000000e+00
    outer loop
      vertex -3.000000e+01 -1.545085e+00  1.252447e+02
      vertex -3.000000e+01  9.369066e-01  1.250886e+02
      vertex -3.000000e+01 -9.369066e-01  1.250886e+02
    endloop
  endfacet
  facet normal -1.000000e+00  0.000000e+00  0.000000e+00
    outer loop
      vertex -3.000000e+01 -9.369066e-01  1.250886e+02
      vertex -3.000000e+01  9.369066e-01  1.250886e+02
      vertex -3.000000e+01  3.139526e-01  1.250099e+02
    endloop
  endfacet
  facet normal -1.000000e+00  0.000000e+00  0.000000e+00
    outer loop
      vertex -3.000000e+01 -9.369066e-01  1.250886e+02
      vertex -3.000000e+01  3.139526e-01  1.250099e+02
      vertex -3.000000e+01 -3.139526e-01  1.250099e+02
    endloop
  endfacet
  facet normal  1.000000e+00  -0.000000e+00  0.000000e+00
    outer loop
      vertex  3.000000e+01  3.139526e-01  1.349901e+02
      vertex  3.000000e+01 -3.139526e-01  1.349901e+02
      vertex  3.000000e+01  9.369066e-01  1.349114e+02
    endloop
  endfacet
  facet normal  1.000000e+00  0.000000e+00  0.000000e+00
    outer loop
      vertex  3.000000e+01  9.369066e-01  1.349114e+02
      vertex  3.000000e+01 -3.139526e-01  1.349901e+02
      vertex  3.000000e+01 -9.369066e-01  1.349114e+02
    endloop
  endfacet
  facet normal  1.000000e+00  -0.000000e+00  0.000000e+00
    outer loop
      vertex  3.000000e+01  9.369066e-01  1.349114e+02
      vertex  3.000000e+01 -9.369066e-01  1.349114e+02
      vertex  3.000000e+01  1.545085e+00  1.347553e+02
    endloop
  endfacet
  facet normal  1.000000e+00  0.000000e+00  0.000000e+00
    outer loop
      vertex  3.000000e+01  1.545085e+00  1.347553e+02
      vertex  3.000000e+01 -9.369066e-01  1.349114e+02
      vertex  3.000000e+01 -1.545085e+00  1.347553e+02
    endloop
  endfacet
  facet normal  1.000000e+00  -0.000000e+00  0.000000e+00
    outer loop
      vertex  3.000000e+01  1.545085e+00  1.347553e+02
      vertex  3.000000e+01 -1.545085e+00  1.347553e+02
      vertex  3.000000e+01  2.128896e+00  1.345241e+02
    endloop
  endfacet
  facet normal  1.000000e+00  0.000000e+00  0.000000e+00
    outer loop
      vertex  3.000000e+01  2.128896e+00  1.345241e+02
      vertex  3.000000e+01 -1.545085e+00  1.347553e+02
      vertex  3.000000e+01 -2.128896e+00  1.345241e+02
    endloop
  endfacet
  facet normal  1.000000e+00  -0.000000e+00  0.000000e+00
    outer loop
      vertex  3.000000e+01  2.128896e+00  1.345241e+02
      vertex  3.000000e+01 -2.128896e+00  1.345241e+02
      vertex  3.000000e+01  2.679134e+00  1.342216e+02
    endloop
  endfacet
  facet normal  9.999999e-01  0.000000e+00  0.000000e+00
    outer loop
      vertex  3.000000e+01  2.679134e+00  1.342216e+02
      vertex  3.000000e+01 -2.128896e+00  1.345241e+02
      vertex  3.000000e+01 -2.679134e+00  1.342216e+02
    endloop
  endfacet
  facet normal  9.999999e-01  -0.000000e+00  0.000000e+00
    outer loop
      vertex  3.000000e+01  2.679134e+00  1.342216e+02
      vertex  3.000000e+01 -2.679134e+00  1.342216e+02
      vertex  3.000000e+01  3.187120e+00  1.338526e+02
    endloop
  endfacet
  facet normal  1.000000e+00  0.000000e+00  0.000000e+00
    outer loop
      vertex  3.000000e+01  3.187120e+00  1.338526e+02
      vertex  3.000000e+01 -2.679134e+00  1.342216e+02
      vertex  3.000000e+01 -3.187120e+00  1.338526e+02
    endloop
  endfacet
  facet normal  9.999999e-01  -0.000000e+00  0.000000e+00
    outer loop
      vertex  3.000000e+01  3.187120e+00  1.338526e+02
      vertex  3.000000e+01 -3.187120e+00  1.338526e+02
      vertex  3.000000e+01  3.644843e+00  1.334227e+02
    endloop
  endfacet
  facet normal  1.000000e+00  0.000000e+00  0.000000e+00
    outer loop
      vertex  3.000000e+01  3.644843e+00  1.334227e+02
      vertex  3.000000e+01 -3.187120e+00  1.338526e+02
      vertex  3.000000e+01 -3.644843e+00  1.334227e+02
    endloop
  endfacet
  facet normal  1.000000e+00  -0.000000e+00  0.000000e+00
    outer loop
      vertex  3.000000e+01  3.644843e+00  1.334227e+02
      vertex  3.000000e+01 -3.644843e+00  1.334227e+02
      vertex  3.000000e+01  4.045085e+00  1.329389e+02
    endloop
  endfacet
  facet normal  1.000000e+00  0.000000e+00  0.000000e+00
    outer loop
      vertex  3.000000e+01  4.045085e+00  1.329389e+02
      vertex  3.000000e+01 -3.644843e+00  1.334227e+02
      vertex  3.000000e+01 -4.045085e+00  1.329389e+02
    endloop
  endfacet
  facet normal  1.000000e+00  -0.000000e+00  0.000000e+00
    outer loop
      vertex  3.000000e+01  4.045085e+00  1.329389e+02
      vertex  3.000000e+01 -4.045085e+00  1.329389e+02
      vertex  3.000000e+01  4.381534e+00  1.324088e+02
    endloop
  endfacet
  facet normal  1.000000e+00  0.000000e+00  0.000000e+00
    outer loop
      vertex  3.000000e+01  4.381534e+00  1.324088e+02
      vertex  3.000000e+01 -4.045085e+00  1.329389e+02
      vertex  3.000000e+01 -4.381534e+00  1.324088e+02
    endloop
  endfacet
  facet normal  1.000000e+00  -0.000000e+00  0.000000e+00
    outer loop
      vertex  3.000000e+01  4.381534e+00  1.324088e+02
      vertex  3.000000e+01 -4.381534e+00  1.324088e+02
      vertex  3.000000e+01  4.648882e+00  1.318406e+02
    endloop
  endfacet
  facet normal  1.000000e+00  0.000000e+00  0.000000e+00
    outer loop
      vertex  3.000000e+01  4.648882e+00  1.318406e+02
      vertex  3.000000e+01 -4.381534e+00  1.324088e+02
      vertex  3.000000e+01 -4.648882e+00  1.318406e+02
    endloop
  endfacet
  facet normal  1.000000e+00  -0.000000e+00  0.000000e+00
    outer loop
      vertex  3.000000e+01  4.648882e+00  1.318406e+02
      vertex  3.000000e+01 -4.648882e+00  1.318406e+02
      vertex  3.000000e+01  4.842916e+00  1.312435e+02
    endloop
  endfacet
  facet normal  1.000000e+00  0.000000e+00  0.000000e+00
    outer loop
      vertex  3.000000e+01  4.842916e+00  1.312435e+02
      vertex  3.000000e+01 -4.648882e+00  1.318406e+02
      vertex  3.000000e+01 -4.842916e+00  1.312435e+02
    endloop
  endfacet
  facet normal  1.000000e+00  -0.000000e+00  0.000000e+00
    outer loop
      vertex  3.000000e+01  4.842916e+00  1.312435e+02
      vertex  3.000000e+01 -4.842916e+00  1.312435e+02
      vertex  3.000000e+01  4.960574e+00  1.306267e+02
    endloop
  endfacet
  facet normal  1.000000e+00  0.000000e+00  0.000000e+00
    outer loop
      vertex  3.000000e+01  4.960574e+00  1.306267e+02
      vertex  3.000000e+01 -4.842916e+00  1.312435e+02
      vertex  3.000000e+01 -4.960574e+00  1.306267e+02
    endloop
  endfacet
  facet normal  9.999999e-01  -0.000000e+00  0.000000e+00
    outer loop
      vertex  3.000000e+01  4.960574e+00  1.306267e+02
      vertex  3.000000e+01 -4.960574e+00  1.306267e+02
      vertex  3.000000e+01  5.000000e+00  1.300000e+02
    endloop
  endfacet
  facet normal  9.999999e-01  0.000000e+00  0.000000e+00
    outer loop
      vertex  3.000000e+01  5.000000e+00  1.300000e+02
      vertex  3.000000e+01 -4.960574e+00  1.306267e+02
      vertex  3.000000e+01 -5.000000e+00  1.300000e+02
    endloop
  endfacet
  facet normal  9.999999e-01  -0.000000e+00  0.000000e+00
    outer loop
      vertex  3.000000e+01  5.000000e+00  1.300000e+02
      vertex  3.000000e+01 -5.000000e+00  1.300000e+02
      vertex  3.000000e+01  4.960574e+00  1.293733e+02
    endloop
  endfacet
  facet normal  9.999999e-01  0.000000e+00  0.000000e+00
    outer loop
      vertex  3.000000e+01  4.960574e+00  1.293733e+02
      vertex  3.000000e+01 -5.000000e+00  1.300000e+02
      vertex  3.000000e+01 -4.960574e+00  1.293733e+02
    endloop
  endfacet
  facet normal  1.000000e+00  -0.000000e+00  0.000000e+00
    outer loop
      vertex  3.000000e+01  4.960574e+00  1.293733e+02
      vertex  3.000000e+01 -4.960574e+00  1.293733e+02
      vertex  3.000000e+01  4.842916e+00  1.287565e+02
    endloop
  endfacet
  facet normal  1.000000e+00  0.000000e+00  0.000000e+00
    outer loop
      vertex  3.000000e+01  4.842916e+00  1.287565e+02
      vertex  3.000000e+01 -4.960574e+00  1.293733e+02
      vertex  3.000000e+01 -4.842916e+00  1.287565e+02
    endloop
  endfacet
  facet normal  1.000000e+00  -0.000000e+00  0.000000e+00
    outer loop
      vertex  3.000000e+01  4.842916e+00  1.287565e+02
      vertex  3.000000e+01 -4.842916e+00  1.287565e+02
      vertex  3.000000e+01  4.648882e+00  1.281594e+02
    endloop
  endfacet
  facet normal  1.000000e+00  0.000000e+00  0.000000e+00
    outer loop
      vertex  3.000000e+01  4.648882e+00  1.281594e+02
      vertex  3.000000e+01 -4.842916e+00  1.287565e+02
      vertex  3.000000e+01 -4.648882e+00  1.281594e+02
    endloop
  endfacet
  facet normal  1.000000e+00  -0.000000e+00  0.000000e+00
    outer loop
      vertex  3.000000e+01  4.648882e+00  1.281594e+02
      vertex  3.000000e+01 -4.648882e+00  1.281594e+02
      vertex  3.000000e+01  4.381534e+00  1.275912e+02
    endloop
  endfacet
  facet normal  1.000000e+00  0.000000e+00  0.000000e+00
    outer loop
      vertex  3.000000e+01  4.381534e+00  1.275912e+02
      vertex  3.000000e+01 -4.648882e+00  1.281594e+02
      vertex  3.000000e+01 -4.381534e+00  1.275912e+02
    endloop
  endfacet
  facet normal  1.000000e+00  -0.000000e+00  0.000000e+00
    outer loop
      vertex  3.000000e+01  4.381534e+00  1.275912e+02
      vertex  3.000000e+01 -4.381534e+00  1.275912e+02
      vertex  3.000000e+01  4.045085e+00  1.270611e+02
    endloop
  endfacet
  facet normal  1.000000e+00  0.000000e+00  0.000000e+00
    outer loop
      vertex  3.000000e+01  4.045085e+00  1.270611e+02
      vertex  3.000000e+01 -4.381534e+00  1.275912e+02
      vertex  3.000000e+01 -4.045085e+00  1.270611e+02
    endloop
  endfacet
  facet normal  1.000000e+00  -0.000000e+00  0.000000e+00
    outer loop
      vertex  3.000000e+01  4.045085e+00  1.270611e+02
      vertex  3.000000e+01 -4.045085e+00  1.270611e+02
      vertex  3.000000e+01  3.644843e+00  1.265773e+02
    endloop
  endfacet
  facet normal  1.000000e+00  0.000000e+00  0.000000e+00
    outer loop
      vertex  3.000000e+01  3.644843e+00  1.265773e+02
      vertex  3.000000e+01 -4.045085e+00  1.270611e+02
      vertex  3.000000e+01 -3.644843e+00  1.265773e+02
    endloop
  endfacet
  facet normal  1.000000e+00  -0.000000e+00  0.000000e+00
    outer loop
      vertex  3.000000e+01  3.644843e+00  1.265773e+02
      vertex  3.000000e+01 -3.644843e+00  1.265773e+02
      vertex  3.000000e+01  3.187120e+00  1.261474e+02
    endloop
  endfacet
  facet normal  1.000000e+00  0.000000e+00  0.000000e+00
    outer loop
      vertex  3.000000e+01  3.187120e+00  1.261474e+02
      vertex  3.000000e+01 -3.644843e+00  1.265773e+02
      vertex  3.000000e+01 -3.187120e+00  1.261474e+02
    endloop
  endfacet
  facet normal  1.000000e+00  -0.000000e+00  0.000000e+00
    outer loop
      vertex  3.000000e+01  3.187120e+00  1.261474e+02
      vertex  3.000000e+01 -3.187120e+00  1.261474e+02
      vertex  3.000000e+01  2.679134e+00  1.257784e+02
    endloop
  endfacet
  facet normal  1.000000e+00  0.000000e+00  0.000000e+00
    outer loop
      vertex  3.000000e+01  2.679134e+00  1.257784e+02
      vertex  3.000000e+01 -3.187120e+00  1.261474e+02
      vertex  3.000000e+01 -2.679134e+00  1.257784e+02
    endloop
  endfacet
  facet normal  1.000000e+00  -0.000000e+00  0.000000e+00
    outer loop
      vertex  3.000000e+01  2.679134e+00  1.257784e+02
      vertex  3.000000e+01 -2.679134e+00  1.257784e+02
      vertex  3.000000e+01  2.128896e+00  1.254759e+02
    endloop
  endfacet
  facet normal  1.000000e+00  0.000000e+00  0.000000e+00
    outer loop
      vertex  3.000000e+01  2.128896e+00  1.254759e+02
      vertex  3.000000e+01 -2.679134e+00  1.257784e+02
      vertex  3.000000e+01 -2.128896e+00  1.254759e+02
    endloop
  endfacet
  facet normal  1.000000e+00  -0.000000e+00  0.000000e+00
    outer loop
      vertex  3.000000e+01  2.128896e+00  1.254759e+02
      vertex  3.000000e+01 -2.128896e+00  1.254759e+02
      vertex  3.000000e+01  1.545085e+00  1.252447e+02
    endloop
  endfacet
  facet normal  1.000000e+00  0.000000e+00  0.000000e+00
    outer loop
      vertex  3.000000e+01  1.545085e+00  1.252447e+02
      vertex  3.000000e+01 -2.128896e+00  1.254759e+02
      vertex  3.000000e+01 -1.545085e+00  1.252447e+02
    endloop
  endfacet
  facet normal  1.000000e+00  -0.000000e+00  0.000000e+00
    outer loop
      vertex  3.000000e+01  1.545085e+00  1.252447e+02
      vertex  3.000000e+01 -1.545085e+00  1.252447e+02
      vertex  3.000000e+01  9.369066e-01  1.250886e+02
    endloop
  endfacet
  facet normal  1.000000e+00  0.000000e+00  0.000000e+00
    outer loop
      vertex  3.000000e+01  9.369066e-01  1.250886e+02
      vertex  3.000000e+01 -1.545085e+00  1.252447e+02
      vertex  3.000000e+01 -9.369066e-01  1.250886e+02
    endloop
  endfacet
  facet normal  1.000000e+00  -0.000000e+00  0.000000e+00
    outer loop
      vertex  3.000000e+01  9.369066e-01  1.250886e+02
      vertex  3.000000e+01 -9.369066e-01  1.250886e+02
      vertex  3.000000e+01  3.139526e-01  1.250099e+02
    endloop
  endfacet
  facet normal  1.000000e+00  0.000000e+00  0.000000e+00
    outer loop
      vertex  3.000000e+01  3.139526e-01  1.250099e+02
      vertex  3.000000e+01 -9.369066e-01  1.250886e+02
      vertex  3.000000e+01 -3.139526e-01  1.250099e+02
    endloop
  endfacet
endsolid CATIA STL
