solid CATIA STL
  facet normal  9.990482e-01  4.361886e-02  -0.000000e+00
    outer loop
      vertex  1.000000e+01  2.449294e-15  4.000000e+01
      vertex  1.000000e+01  2.449294e-15  1.000000e+01
      vertex  9.961947e+00  8.715574e-01  4.000000e+01
    endloop
  endfacet
  facet normal  9.990482e-01  4.361886e-02  0.000000e+00
    outer loop
      vertex  9.961947e+00  8.715574e-01  4.000000e+01
      vertex  1.000000e+01  2.449294e-15  1.000000e+01
      vertex  9.961947e+00  8.715574e-01  1.000000e+01
    endloop
  endfacet
  facet normal  9.914448e-01  1.305264e-01  -0.000000e+00
    outer loop
      vertex  9.961947e+00  8.715574e-01  4.000000e+01
      vertex  9.961947e+00  8.715574e-01  1.000000e+01
      vertex  9.848078e+00  1.736482e+00  4.000000e+01
    endloop
  endfacet
  facet normal  9.914448e-01  1.305264e-01  0.000000e+00
    outer loop
      vertex  9.848078e+00  1.736482e+00  4.000000e+01
      vertex  9.961947e+00  8.715574e-01  1.000000e+01
      vertex  9.848078e+00  1.736482e+00  1.000000e+01
    endloop
  endfacet
  facet normal  9.762958e-01  2.164402e-01  -0.000000e+00
    outer loop
      vertex  9.848078e+00  1.736482e+00  4.000000e+01
      vertex  9.848078e+00  1.736482e+00  1.000000e+01
      vertex  9.659258e+00  2.588191e+00  4.000000e+01
    endloop
  endfacet
  facet normal  9.762958e-01  2.164402e-01  0.000000e+00
    outer loop
      vertex  9.659258e+00  2.588191e+00  4.000000e+01
      vertex  9.848078e+00  1.736482e+00  1.000000e+01
      vertex  9.659258e+00  2.588191e+00  1.000000e+01
    endloop
  endfacet
  facet normal  9.537170e-01  3.007057e-01  -0.000000e+00
    outer loop
      vertex  9.659258e+00  2.588191e+00  4.000000e+01
      vertex  9.659258e+00  2.588191e+00  1.000000e+01
      vertex  9.396926e+00  3.420202e+00  4.000000e+01
    endloop
  endfacet
  facet normal  9.537170e-01  3.007057e-01  0.000000e+00
    outer loop
      vertex  9.396926e+00  3.420202e+00  4.000000e+01
      vertex  9.659258e+00  2.588191e+00  1.000000e+01
      vertex  9.396926e+00  3.420202e+00  1.000000e+01
    endloop
  endfacet
  facet normal  9.238797e-01  3.826832e-01  -0.000000e+00
    outer loop
      vertex  9.396926e+00  3.420202e+00  4.000000e+01
      vertex  9.396926e+00  3.420202e+00  1.000000e+01
      vertex  9.063078e+00  4.226182e+00  4.000000e+01
    endloop
  endfacet
  facet normal  9.238797e-01  3.826832e-01  0.000000e+00
    outer loop
      vertex  9.063078e+00  4.226182e+00  4.000000e+01
      vertex  9.396926e+00  3.420202e+00  1.000000e+01
      vertex  9.063078e+00  4.226182e+00  1.000000e+01
    endloop
  endfacet
  facet normal  8.870111e-01  4.617482e-01  -0.000000e+00
    outer loop
      vertex  9.063078e+00  4.226182e+00  4.000000e+01
      vertex  9.063078e+00  4.226182e+00  1.000000e+01
      vertex  8.660254e+00  5.000000e+00  4.000000e+01
    endloop
  endfacet
  facet normal  8.870111e-01  4.617482e-01  0.000000e+00
    outer loop
      vertex  8.660254e+00  5.000000e+00  4.000000e+01
      vertex  9.063078e+00  4.226182e+00  1.000000e+01
      vertex  8.660254e+00  5.000000e+00  1.000000e+01
    endloop
  endfacet
  facet normal  8.433913e-01  5.372996e-01  -0.000000e+00
    outer loop
      vertex  8.660254e+00  5.000000e+00  4.000000e+01
      vertex  8.660254e+00  5.000000e+00  1.000000e+01
      vertex  8.191521e+00  5.735765e+00  4.000000e+01
    endloop
  endfacet
  facet normal  8.433913e-01  5.372996e-01  0.000000e+00
    outer loop
      vertex  8.191521e+00  5.735765e+00  4.000000e+01
      vertex  8.660254e+00  5.000000e+00  1.000000e+01
      vertex  8.191521e+00  5.735765e+00  1.000000e+01
    endloop
  endfacet
  facet normal  7.933530e-01  6.087619e-01  -0.000000e+00
    outer loop
      vertex  8.191521e+00  5.735765e+00  4.000000e+01
      vertex  8.191521e+00  5.735765e+00  1.000000e+01
      vertex  7.660444e+00  6.427876e+00  4.000000e+01
    endloop
  endfacet
  facet normal  7.933530e-01  6.087619e-01  0.000000e+00
    outer loop
      vertex  7.660444e+00  6.427876e+00  4.000000e+01
      vertex  8.191521e+00  5.735765e+00  1.000000e+01
      vertex  7.660444e+00  6.427876e+00  1.000000e+01
    endloop
  endfacet
  facet normal  7.372774e-01  6.755900e-01  -0.000000e+00
    outer loop
      vertex  7.660444e+00  6.427876e+00  4.000000e+01
      vertex  7.660444e+00  6.427876e+00  1.000000e+01
      vertex  7.071068e+00  7.071068e+00  4.000000e+01
    endloop
  endfacet
  facet normal  7.372774e-01  6.755900e-01  0.000000e+00
    outer loop
      vertex  7.071068e+00  7.071068e+00  4.000000e+01
      vertex  7.660444e+00  6.427876e+00  1.000000e+01
      vertex  7.071068e+00  7.071068e+00  1.000000e+01
    endloop
  endfacet
  facet normal  6.755900e-01  7.372774e-01  -0.000000e+00
    outer loop
      vertex  7.071068e+00  7.071068e+00  4.000000e+01
      vertex  7.071068e+00  7.071068e+00  1.000000e+01
      vertex  6.427876e+00  7.660444e+00  4.000000e+01
    endloop
  endfacet
  facet normal  6.755900e-01  7.372774e-01  0.000000e+00
    outer loop
      vertex  6.427876e+00  7.660444e+00  4.000000e+01
      vertex  7.071068e+00  7.071068e+00  1.000000e+01
      vertex  6.427876e+00  7.660444e+00  1.000000e+01
    endloop
  endfacet
  facet normal  6.087619e-01  7.933530e-01  -0.000000e+00
    outer loop
      vertex  6.427876e+00  7.660444e+00  4.000000e+01
      vertex  6.427876e+00  7.660444e+00  1.000000e+01
      vertex  5.735765e+00  8.191521e+00  4.000000e+01
    endloop
  endfacet
  facet normal  6.087619e-01  7.933530e-01  0.000000e+00
    outer loop
      vertex  5.735765e+00  8.191521e+00  4.000000e+01
      vertex  6.427876e+00  7.660444e+00  1.000000e+01
      vertex  5.735765e+00  8.191521e+00  1.000000e+01
    endloop
  endfacet
  facet normal  5.372996e-01  8.433913e-01  -0.000000e+00
    outer loop
      vertex  5.735765e+00  8.191521e+00  4.000000e+01
      vertex  5.735765e+00  8.191521e+00  1.000000e+01
      vertex  5.000000e+00  8.660254e+00  4.000000e+01
    endloop
  endfacet
  facet normal  5.372996e-01  8.433913e-01  0.000000e+00
    outer loop
      vertex  5.000000e+00  8.660254e+00  4.000000e+01
      vertex  5.735765e+00  8.191521e+00  1.000000e+01
      vertex  5.000000e+00  8.660254e+00  1.000000e+01
    endloop
  endfacet
  facet normal  4.617482e-01  8.870111e-01  -0.000000e+00
    outer loop
      vertex  5.000000e+00  8.660254e+00  4.000000e+01
      vertex  5.000000e+00  8.660254e+00  1.000000e+01
      vertex  4.226182e+00  9.063078e+00  4.000000e+01
    endloop
  endfacet
  facet normal  4.617482e-01  8.870111e-01  0.000000e+00
    outer loop
      vertex  4.226182e+00  9.063078e+00  4.000000e+01
      vertex  5.000000e+00  8.660254e+00  1.000000e+01
      vertex  4.226182e+00  9.063078e+00  1.000000e+01
    endloop
  endfacet
  facet normal  3.826832e-01  9.238797e-01  -0.000000e+00
    outer loop
      vertex  4.226182e+00  9.063078e+00  4.000000e+01
      vertex  4.226182e+00  9.063078e+00  1.000000e+01
      vertex  3.420202e+00  9.396926e+00  4.000000e+01
    endloop
  endfacet
  facet normal  3.826832e-01  9.238797e-01  0.000000e+00
    outer loop
      vertex  3.420202e+00  9.396926e+00  4.000000e+01
      vertex  4.226182e+00  9.063078e+00  1.000000e+01
      vertex  3.420202e+00  9.396926e+00  1.000000e+01
    endloop
  endfacet
  facet normal  3.007057e-01  9.537170e-01  -0.000000e+00
    outer loop
      vertex  3.420202e+00  9.396926e+00  4.000000e+01
      vertex  3.420202e+00  9.396926e+00  1.000000e+01
      vertex  2.588191e+00  9.659258e+00  4.000000e+01
    endloop
  endfacet
  facet normal  3.007057e-01  9.537170e-01  0.000000e+00
    outer loop
      vertex  2.588191e+00  9.659258e+00  4.000000e+01
      vertex  3.420202e+00  9.396926e+00  1.000000e+01
      vertex  2.588191e+00  9.659258e+00  1.000000e+01
    endloop
  endfacet
  facet normal  2.164402e-01  9.762958e-01  -0.000000e+00
    outer loop
      vertex  2.588191e+00  9.659258e+00  4.000000e+01
      vertex  2.588191e+00  9.659258e+00  1.000000e+01
      vertex  1.736482e+00  9.848078e+00  4.000000e+01
    endloop
  endfacet
  facet normal  2.164402e-01  9.762958e-01  0.000000e+00
    outer loop
      vertex  1.736482e+00  9.848078e+00  4.000000e+01
      vertex  2.588191e+00  9.659258e+00  1.000000e+01
      vertex  1.736482e+00  9.848078e+00  1.000000e+01
    endloop
  endfacet
  facet normal  1.305264e-01  9.914448e-01  -0.000000e+00
    outer loop
      vertex  1.736482e+00  9.848078e+00  4.000000e+01
      vertex  1.736482e+00  9.848078e+00  1.000000e+01
      vertex  8.715574e-01  9.961947e+00  4.000000e+01
    endloop
  endfacet
  facet normal  1.305264e-01  9.914448e-01  0.000000e+00
    outer loop
      vertex  8.715574e-01  9.961947e+00  4.000000e+01
      vertex  1.736482e+00  9.848078e+00  1.000000e+01
      vertex  8.715574e-01  9.961947e+00  1.000000e+01
    endloop
  endfacet
  facet normal  4.361886e-02  9.990482e-01  -0.000000e+00
    outer loop
      vertex  8.715574e-01  9.961947e+00  4.000000e+01
      vertex  8.715574e-01  9.961947e+00  1.000000e+01
      vertex -1.836970e-15  1.000000e+01  4.000000e+01
    endloop
  endfacet
  facet normal  4.361886e-02  9.990482e-01  0.000000e+00
    outer loop
      vertex -1.836970e-15  1.000000e+01  4.000000e+01
      vertex  8.715574e-01  9.961947e+00  1.000000e+01
      vertex -1.836970e-15  1.000000e+01  1.000000e+01
    endloop
  endfacet
  facet normal -4.361886e-02  9.990482e-01  0.000000e+00
    outer loop
      vertex -1.836970e-15  1.000000e+01  4.000000e+01
      vertex -1.836970e-15  1.000000e+01  1.000000e+01
      vertex -8.715574e-01  9.961947e+00  4.000000e+01
    endloop
  endfacet
  facet normal -4.361886e-02  9.990482e-01  0.000000e+00
    outer loop
      vertex -8.715574e-01  9.961947e+00  4.000000e+01
      vertex -1.836970e-15  1.000000e+01  1.000000e+01
      vertex -8.715574e-01  9.961947e+00  1.000000e+01
    endloop
  endfacet
  facet normal -1.305264e-01  9.914448e-01  0.000000e+00
    outer loop
      vertex -8.715574e-01  9.961947e+00  4.000000e+01
      vertex -8.715574e-01  9.961947e+00  1.000000e+01
      vertex -1.736482e+00  9.848078e+00  4.000000e+01
    endloop
  endfacet
  facet normal -1.305264e-01  9.914448e-01  0.000000e+00
    outer loop
      vertex -1.736482e+00  9.848078e+00  4.000000e+01
      vertex -8.715574e-01  9.961947e+00  1.000000e+01
      vertex -1.736482e+00  9.848078e+00  1.000000e+01
    endloop
  endfacet
  facet normal -2.164402e-01  9.762958e-01  0.000000e+00
    outer loop
      vertex -1.736482e+00  9.848078e+00  4.000000e+01
      vertex -1.736482e+00  9.848078e+00  1.000000e+01
      vertex -2.588191e+00  9.659258e+00  4.000000e+01
    endloop
  endfacet
  facet normal -2.164402e-01  9.762958e-01  0.000000e+00
    outer loop
      vertex -2.588191e+00  9.659258e+00  4.000000e+01
      vertex -1.736482e+00  9.848078e+00  1.000000e+01
      vertex -2.588191e+00  9.659258e+00  1.000000e+01
    endloop
  endfacet
  facet normal -3.007057e-01  9.537170e-01  0.000000e+00
    outer loop
      vertex -2.588191e+00  9.659258e+00  4.000000e+01
      vertex -2.588191e+00  9.659258e+00  1.000000e+01
      vertex -3.420202e+00  9.396926e+00  4.000000e+01
    endloop
  endfacet
  facet normal -3.007057e-01  9.537170e-01  0.000000e+00
    outer loop
      vertex -3.420202e+00  9.396926e+00  4.000000e+01
      vertex -2.588191e+00  9.659258e+00  1.000000e+01
      vertex -3.420202e+00  9.396926e+00  1.000000e+01
    endloop
  endfacet
  facet normal -3.826832e-01  9.238797e-01  0.000000e+00
    outer loop
      vertex -3.420202e+00  9.396926e+00  4.000000e+01
      vertex -3.420202e+00  9.396926e+00  1.000000e+01
      vertex -4.226182e+00  9.063078e+00  4.000000e+01
    endloop
  endfacet
  facet normal -3.826832e-01  9.238797e-01  0.000000e+00
    outer loop
      vertex -4.226182e+00  9.063078e+00  4.000000e+01
      vertex -3.420202e+00  9.396926e+00  1.000000e+01
      vertex -4.226182e+00  9.063078e+00  1.000000e+01
    endloop
  endfacet
  facet normal -4.617482e-01  8.870111e-01  0.000000e+00
    outer loop
      vertex -4.226182e+00  9.063078e+00  4.000000e+01
      vertex -4.226182e+00  9.063078e+00  1.000000e+01
      vertex -5.000000e+00  8.660254e+00  4.000000e+01
    endloop
  endfacet
  facet normal -4.617482e-01  8.870111e-01  0.000000e+00
    outer loop
      vertex -5.000000e+00  8.660254e+00  4.000000e+01
      vertex -4.226182e+00  9.063078e+00  1.000000e+01
      vertex -5.000000e+00  8.660254e+00  1.000000e+01
    endloop
  endfacet
  facet normal -5.372996e-01  8.433913e-01  0.000000e+00
    outer loop
      vertex -5.000000e+00  8.660254e+00  4.000000e+01
      vertex -5.000000e+00  8.660254e+00  1.000000e+01
      vertex -5.735765e+00  8.191521e+00  4.000000e+01
    endloop
  endfacet
  facet normal -5.372996e-01  8.433913e-01  0.000000e+00
    outer loop
      vertex -5.735765e+00  8.191521e+00  4.000000e+01
      vertex -5.000000e+00  8.660254e+00  1.000000e+01
      vertex -5.735765e+00  8.191521e+00  1.000000e+01
    endloop
  endfacet
  facet normal -6.087619e-01  7.933530e-01  0.000000e+00
    outer loop
      vertex -5.735765e+00  8.191521e+00  4.000000e+01
      vertex -5.735765e+00  8.191521e+00  1.000000e+01
      vertex -6.427876e+00  7.660444e+00  4.000000e+01
    endloop
  endfacet
  facet normal -6.087619e-01  7.933530e-01  0.000000e+00
    outer loop
      vertex -6.427876e+00  7.660444e+00  4.000000e+01
      vertex -5.735765e+00  8.191521e+00  1.000000e+01
      vertex -6.427876e+00  7.660444e+00  1.000000e+01
    endloop
  endfacet
  facet normal -6.755900e-01  7.372774e-01  0.000000e+00
    outer loop
      vertex -6.427876e+00  7.660444e+00  4.000000e+01
      vertex -6.427876e+00  7.660444e+00  1.000000e+01
      vertex -7.071068e+00  7.071068e+00  4.000000e+01
    endloop
  endfacet
  facet normal -6.755900e-01  7.372774e-01  0.000000e+00
    outer loop
      vertex -7.071068e+00  7.071068e+00  4.000000e+01
      vertex -6.427876e+00  7.660444e+00  1.000000e+01
      vertex -7.071068e+00  7.071068e+00  1.000000e+01
    endloop
  endfacet
  facet normal -7.372774e-01  6.755900e-01  0.000000e+00
    outer loop
      vertex -7.071068e+00  7.071068e+00  4.000000e+01
      vertex -7.071068e+00  7.071068e+00  1.000000e+01
      vertex -7.660444e+00  6.427876e+00  4.000000e+01
    endloop
  endfacet
  facet normal -7.372774e-01  6.755900e-01  0.000000e+00
    outer loop
      vertex -7.660444e+00  6.427876e+00  4.000000e+01
      vertex -7.071068e+00  7.071068e+00  1.000000e+01
      vertex -7.660444e+00  6.427876e+00  1.000000e+01
    endloop
  endfacet
  facet normal -7.933530e-01  6.087619e-01  0.000000e+00
    outer loop
      vertex -7.660444e+00  6.427876e+00  4.000000e+01
      vertex -7.660444e+00  6.427876e+00  1.000000e+01
      vertex -8.191521e+00  5.735765e+00  4.000000e+01
    endloop
  endfacet
  facet normal -7.933530e-01  6.087619e-01  0.000000e+00
    outer loop
      vertex -8.191521e+00  5.735765e+00  4.000000e+01
      vertex -7.660444e+00  6.427876e+00  1.000000e+01
      vertex -8.191521e+00  5.735765e+00  1.000000e+01
    endloop
  endfacet
  facet normal -8.433913e-01  5.372996e-01  0.000000e+00
    outer loop
      vertex -8.191521e+00  5.735765e+00  4.000000e+01
      vertex -8.191521e+00  5.735765e+00  1.000000e+01
      vertex -8.660254e+00  5.000000e+00  4.000000e+01
    endloop
  endfacet
  facet normal -8.433913e-01  5.372996e-01  0.000000e+00
    outer loop
      vertex -8.660254e+00  5.000000e+00  4.000000e+01
      vertex -8.191521e+00  5.735765e+00  1.000000e+01
      vertex -8.660254e+00  5.000000e+00  1.000000e+01
    endloop
  endfacet
  facet normal -8.870111e-01  4.617482e-01  0.000000e+00
    outer loop
      vertex -8.660254e+00  5.000000e+00  4.000000e+01
      vertex -8.660254e+00  5.000000e+00  1.000000e+01
      vertex -9.063078e+00  4.226182e+00  4.000000e+01
    endloop
  endfacet
  facet normal -8.870111e-01  4.617482e-01  0.000000e+00
    outer loop
      vertex -9.063078e+00  4.226182e+00  4.000000e+01
      vertex -8.660254e+00  5.000000e+00  1.000000e+01
      vertex -9.063078e+00  4.226182e+00  1.000000e+01
    endloop
  endfacet
  facet normal -9.238797e-01  3.826832e-01  0.000000e+00
    outer loop
      vertex -9.063078e+00  4.226182e+00  4.000000e+01
      vertex -9.063078e+00  4.226182e+00  1.000000e+01
      vertex -9.396926e+00  3.420202e+00  4.000000e+01
    endloop
  endfacet
  facet normal -9.238797e-01  3.826832e-01  0.000000e+00
    outer loop
      vertex -9.396926e+00  3.420202e+00  4.000000e+01
      vertex -9.063078e+00  4.226182e+00  1.000000e+01
      vertex -9.396926e+00  3.420202e+00  1.000000e+01
    endloop
  endfacet
  facet normal -9.537170e-01  3.007057e-01  0.000000e+00
    outer loop
      vertex -9.396926e+00  3.420202e+00  4.000000e+01
      vertex -9.396926e+00  3.420202e+00  1.000000e+01
      vertex -9.659258e+00  2.588191e+00  4.000000e+01
    endloop
  endfacet
  facet normal -9.537170e-01  3.007057e-01  0.000000e+00
    outer loop
      vertex -9.659258e+00  2.588191e+00  4.000000e+01
      vertex -9.396926e+00  3.420202e+00  1.000000e+01
      vertex -9.659258e+00  2.588191e+00  1.000000e+01
    endloop
  endfacet
  facet normal -9.762958e-01  2.164402e-01  0.000000e+00
    outer loop
      vertex -9.659258e+00  2.588191e+00  4.000000e+01
      vertex -9.659258e+00  2.588191e+00  1.000000e+01
      vertex -9.848078e+00  1.736482e+00  4.000000e+01
    endloop
  endfacet
  facet normal -9.762958e-01  2.164402e-01  0.000000e+00
    outer loop
      vertex -9.848078e+00  1.736482e+00  4.000000e+01
      vertex -9.659258e+00  2.588191e+00  1.000000e+01
      vertex -9.848078e+00  1.736482e+00  1.000000e+01
    endloop
  endfacet
  facet normal -9.914448e-01  1.305264e-01  0.000000e+00
    outer loop
      vertex -9.848078e+00  1.736482e+00  4.000000e+01
      vertex -9.848078e+00  1.736482e+00  1.000000e+01
      vertex -9.961947e+00  8.715574e-01  4.000000e+01
    endloop
  endfacet
  facet normal -9.914448e-01  1.305264e-01  0.000000e+00
    outer loop
      vertex -9.961947e+00  8.715574e-01  4.000000e+01
      vertex -9.848078e+00  1.736482e+00  1.000000e+01
      vertex -9.961947e+00  8.715574e-01  1.000000e+01
    endloop
  endfacet
  facet normal -9.990482e-01  4.361886e-02  0.000000e+00
    outer loop
      vertex -9.961947e+00  8.715574e-01  4.000000e+01
      vertex -9.961947e+00  8.715574e-01  1.000000e+01
      vertex -1.000000e+01 -1.224647e-15  4.000000e+01
    endloop
  endfacet
  facet normal -9.990482e-01  4.361886e-02  0.000000e+00
    outer loop
      vertex -1.000000e+01 -1.224647e-15  4.000000e+01
      vertex -9.961947e+00  8.715574e-01  1.000000e+01
      vertex -1.000000e+01 -1.224647e-15  1.000000e+01
    endloop
  endfacet
  facet normal -9.990482e-01 -4.361886e-02  0.000000e+00
    outer loop
      vertex -1.000000e+01 -1.224647e-15  4.000000e+01
      vertex -1.000000e+01 -1.224647e-15  1.000000e+01
      vertex -9.961947e+00 -8.715574e-01  4.000000e+01
    endloop
  endfacet
  facet normal -9.990482e-01 -4.361886e-02  -0.000000e+00
    outer loop
      vertex -9.961947e+00 -8.715574e-01  4.000000e+01
      vertex -1.000000e+01 -1.224647e-15  1.000000e+01
      vertex -9.961947e+00 -8.715574e-01  1.000000e+01
    endloop
  endfacet
  facet normal -9.914448e-01 -1.305264e-01  0.000000e+00
    outer loop
      vertex -9.961947e+00 -8.715574e-01  4.000000e+01
      vertex -9.961947e+00 -8.715574e-01  1.000000e+01
      vertex -9.848078e+00 -1.736482e+00  4.000000e+01
    endloop
  endfacet
  facet normal -9.914448e-01 -1.305264e-01  -0.000000e+00
    outer loop
      vertex -9.848078e+00 -1.736482e+00  4.000000e+01
      vertex -9.961947e+00 -8.715574e-01  1.000000e+01
      vertex -9.848078e+00 -1.736482e+00  1.000000e+01
    endloop
  endfacet
  facet normal -9.762958e-01 -2.164402e-01  0.000000e+00
    outer loop
      vertex -9.848078e+00 -1.736482e+00  4.000000e+01
      vertex -9.848078e+00 -1.736482e+00  1.000000e+01
      vertex -9.659258e+00 -2.588191e+00  4.000000e+01
    endloop
  endfacet
  facet normal -9.762958e-01 -2.164402e-01  -0.000000e+00
    outer loop
      vertex -9.659258e+00 -2.588191e+00  4.000000e+01
      vertex -9.848078e+00 -1.736482e+00  1.000000e+01
      vertex -9.659258e+00 -2.588191e+00  1.000000e+01
    endloop
  endfacet
  facet normal -9.537170e-01 -3.007057e-01  0.000000e+00
    outer loop
      vertex -9.659258e+00 -2.588191e+00  4.000000e+01
      vertex -9.659258e+00 -2.588191e+00  1.000000e+01
      vertex -9.396926e+00 -3.420202e+00  4.000000e+01
    endloop
  endfacet
  facet normal -9.537170e-01 -3.007057e-01  -0.000000e+00
    outer loop
      vertex -9.396926e+00 -3.420202e+00  4.000000e+01
      vertex -9.659258e+00 -2.588191e+00  1.000000e+01
      vertex -9.396926e+00 -3.420202e+00  1.000000e+01
    endloop
  endfacet
  facet normal -9.238797e-01 -3.826832e-01  0.000000e+00
    outer loop
      vertex -9.396926e+00 -3.420202e+00  4.000000e+01
      vertex -9.396926e+00 -3.420202e+00  1.000000e+01
      vertex -9.063078e+00 -4.226182e+00  4.000000e+01
    endloop
  endfacet
  facet normal -9.238797e-01 -3.826832e-01  -0.000000e+00
    outer loop
      vertex -9.063078e+00 -4.226182e+00  4.000000e+01
      vertex -9.396926e+00 -3.420202e+00  1.000000e+01
      vertex -9.063078e+00 -4.226182e+00  1.000000e+01
    endloop
  endfacet
  facet normal -8.870111e-01 -4.617482e-01  0.000000e+00
    outer loop
      vertex -9.063078e+00 -4.226182e+00  4.000000e+01
      vertex -9.063078e+00 -4.226182e+00  1.000000e+01
      vertex -8.660254e+00 -5.000000e+00  4.000000e+01
    endloop
  endfacet
  facet normal -8.870111e-01 -4.617482e-01  -0.000000e+00
    outer loop
      vertex -8.660254e+00 -5.000000e+00  4.000000e+01
      vertex -9.063078e+00 -4.226182e+00  1.000000e+01
      vertex -8.660254e+00 -5.000000e+00  1.000000e+01
    endloop
  endfacet
  facet normal -8.433913e-01 -5.372996e-01  0.000000e+00
    outer loop
      vertex -8.660254e+00 -5.000000e+00  4.000000e+01
      vertex -8.660254e+00 -5.000000e+00  1.000000e+01
      vertex -8.191521e+00 -5.735765e+00  4.000000e+01
    endloop
  endfacet
  facet normal -8.433913e-01 -5.372996e-01  -0.000000e+00
    outer loop
      vertex -8.191521e+00 -5.735765e+00  4.000000e+01
      vertex -8.660254e+00 -5.000000e+00  1.000000e+01
      vertex -8.191521e+00 -5.735765e+00  1.000000e+01
    endloop
  endfacet
  facet normal -7.933530e-01 -6.087619e-01  0.000000e+00
    outer loop
      vertex -8.191521e+00 -5.735765e+00  4.000000e+01
      vertex -8.191521e+00 -5.735765e+00  1.000000e+01
      vertex -7.660444e+00 -6.427876e+00  4.000000e+01
    endloop
  endfacet
  facet normal -7.933530e-01 -6.087619e-01  -0.000000e+00
    outer loop
      vertex -7.660444e+00 -6.427876e+00  4.000000e+01
      vertex -8.191521e+00 -5.735765e+00  1.000000e+01
      vertex -7.660444e+00 -6.427876e+00  1.000000e+01
    endloop
  endfacet
  facet normal -7.372774e-01 -6.755900e-01  0.000000e+00
    outer loop
      vertex -7.660444e+00 -6.427876e+00  4.000000e+01
      vertex -7.660444e+00 -6.427876e+00  1.000000e+01
      vertex -7.071068e+00 -7.071068e+00  4.000000e+01
    endloop
  endfacet
  facet normal -7.372774e-01 -6.755900e-01  -0.000000e+00
    outer loop
      vertex -7.071068e+00 -7.071068e+00  4.000000e+01
      vertex -7.660444e+00 -6.427876e+00  1.000000e+01
      vertex -7.071068e+00 -7.071068e+00  1.000000e+01
    endloop
  endfacet
  facet normal -6.755900e-01 -7.372774e-01  0.000000e+00
    outer loop
      vertex -7.071068e+00 -7.071068e+00  4.000000e+01
      vertex -7.071068e+00 -7.071068e+00  1.000000e+01
      vertex -6.427876e+00 -7.660444e+00  4.000000e+01
    endloop
  endfacet
  facet normal -6.755900e-01 -7.372774e-01  -0.000000e+00
    outer loop
      vertex -6.427876e+00 -7.660444e+00  4.000000e+01
      vertex -7.071068e+00 -7.071068e+00  1.000000e+01
      vertex -6.427876e+00 -7.660444e+00  1.000000e+01
    endloop
  endfacet
  facet normal -6.087619e-01 -7.933530e-01  0.000000e+00
    outer loop
      vertex -6.427876e+00 -7.660444e+00  4.000000e+01
      vertex -6.427876e+00 -7.660444e+00  1.000000e+01
      vertex -5.735765e+00 -8.191521e+00  4.000000e+01
    endloop
  endfacet
  facet normal -6.087619e-01 -7.933530e-01  -0.000000e+00
    outer loop
      vertex -5.735765e+00 -8.191521e+00  4.000000e+01
      vertex -6.427876e+00 -7.660444e+00  1.000000e+01
      vertex -5.735765e+00 -8.191521e+00  1.000000e+01
    endloop
  endfacet
  facet normal -5.372996e-01 -8.433913e-01  0.000000e+00
    outer loop
      vertex -5.735765e+00 -8.191521e+00  4.000000e+01
      vertex -5.735765e+00 -8.191521e+00  1.000000e+01
      vertex -5.000000e+00 -8.660254e+00  4.000000e+01
    endloop
  endfacet
  facet normal -5.372996e-01 -8.433913e-01  -0.000000e+00
    outer loop
      vertex -5.000000e+00 -8.660254e+00  4.000000e+01
      vertex -5.735765e+00 -8.191521e+00  1.000000e+01
      vertex -5.000000e+00 -8.660254e+00  1.000000e+01
    endloop
  endfacet
  facet normal -4.617482e-01 -8.870111e-01  0.000000e+00
    outer loop
      vertex -5.000000e+00 -8.660254e+00  4.000000e+01
      vertex -5.000000e+00 -8.660254e+00  1.000000e+01
      vertex -4.226182e+00 -9.063078e+00  4.000000e+01
    endloop
  endfacet
  facet normal -4.617482e-01 -8.870111e-01  -0.000000e+00
    outer loop
      vertex -4.226182e+00 -9.063078e+00  4.000000e+01
      vertex -5.000000e+00 -8.660254e+00  1.000000e+01
      vertex -4.226182e+00 -9.063078e+00  1.000000e+01
    endloop
  endfacet
  facet normal -3.826832e-01 -9.238797e-01  0.000000e+00
    outer loop
      vertex -4.226182e+00 -9.063078e+00  4.000000e+01
      vertex -4.226182e+00 -9.063078e+00  1.000000e+01
      vertex -3.420202e+00 -9.396926e+00  4.000000e+01
    endloop
  endfacet
  facet normal -3.826832e-01 -9.238797e-01  -0.000000e+00
    outer loop
      vertex -3.420202e+00 -9.396926e+00  4.000000e+01
      vertex -4.226182e+00 -9.063078e+00  1.000000e+01
      vertex -3.420202e+00 -9.396926e+00  1.000000e+01
    endloop
  endfacet
  facet normal -3.007057e-01 -9.537170e-01  0.000000e+00
    outer loop
      vertex -3.420202e+00 -9.396926e+00  4.000000e+01
      vertex -3.420202e+00 -9.396926e+00  1.000000e+01
      vertex -2.588191e+00 -9.659258e+00  4.000000e+01
    endloop
  endfacet
  facet normal -3.007057e-01 -9.537170e-01  -0.000000e+00
    outer loop
      vertex -2.588191e+00 -9.659258e+00  4.000000e+01
      vertex -3.420202e+00 -9.396926e+00  1.000000e+01
      vertex -2.588191e+00 -9.659258e+00  1.000000e+01
    endloop
  endfacet
  facet normal -2.164402e-01 -9.762958e-01  0.000000e+00
    outer loop
      vertex -2.588191e+00 -9.659258e+00  4.000000e+01
      vertex -2.588191e+00 -9.659258e+00  1.000000e+01
      vertex -1.736482e+00 -9.848078e+00  4.000000e+01
    endloop
  endfacet
  facet normal -2.164402e-01 -9.762958e-01  -0.000000e+00
    outer loop
      vertex -1.736482e+00 -9.848078e+00  4.000000e+01
      vertex -2.588191e+00 -9.659258e+00  1.000000e+01
      vertex -1.736482e+00 -9.848078e+00  1.000000e+01
    endloop
  endfacet
  facet normal -1.305264e-01 -9.914448e-01  0.000000e+00
    outer loop
      vertex -1.736482e+00 -9.848078e+00  4.000000e+01
      vertex -1.736482e+00 -9.848078e+00  1.000000e+01
      vertex -8.715574e-01 -9.961947e+00  4.000000e+01
    endloop
  endfacet
  facet normal -1.305264e-01 -9.914448e-01  -0.000000e+00
    outer loop
      vertex -8.715574e-01 -9.961947e+00  4.000000e+01
      vertex -1.736482e+00 -9.848078e+00  1.000000e+01
      vertex -8.715574e-01 -9.961947e+00  1.000000e+01
    endloop
  endfacet
  facet normal -4.361886e-02 -9.990482e-01  0.000000e+00
    outer loop
      vertex -8.715574e-01 -9.961947e+00  4.000000e+01
      vertex -8.715574e-01 -9.961947e+00  1.000000e+01
      vertex  6.123234e-16 -1.000000e+01  4.000000e+01
    endloop
  endfacet
  facet normal -4.361886e-02 -9.990482e-01  -0.000000e+00
    outer loop
      vertex  6.123234e-16 -1.000000e+01  4.000000e+01
      vertex -8.715574e-01 -9.961947e+00  1.000000e+01
      vertex  6.123234e-16 -1.000000e+01  1.000000e+01
    endloop
  endfacet
  facet normal  4.361886e-02 -9.990482e-01  0.000000e+00
    outer loop
      vertex  6.123234e-16 -1.000000e+01  4.000000e+01
      vertex  6.123234e-16 -1.000000e+01  1.000000e+01
      vertex  8.715574e-01 -9.961947e+00  4.000000e+01
    endloop
  endfacet
  facet normal  4.361886e-02 -9.990482e-01  0.000000e+00
    outer loop
      vertex  8.715574e-01 -9.961947e+00  4.000000e+01
      vertex  6.123234e-16 -1.000000e+01  1.000000e+01
      vertex  8.715574e-01 -9.961947e+00  1.000000e+01
    endloop
  endfacet
  facet normal  1.305264e-01 -9.914448e-01  0.000000e+00
    outer loop
      vertex  8.715574e-01 -9.961947e+00  4.000000e+01
      vertex  8.715574e-01 -9.961947e+00  1.000000e+01
      vertex  1.736482e+00 -9.848078e+00  4.000000e+01
    endloop
  endfacet
  facet normal  1.305264e-01 -9.914448e-01  0.000000e+00
    outer loop
      vertex  1.736482e+00 -9.848078e+00  4.000000e+01
      vertex  8.715574e-01 -9.961947e+00  1.000000e+01
      vertex  1.736482e+00 -9.848078e+00  1.000000e+01
    endloop
  endfacet
  facet normal  2.164402e-01 -9.762958e-01  0.000000e+00
    outer loop
      vertex  1.736482e+00 -9.848078e+00  4.000000e+01
      vertex  1.736482e+00 -9.848078e+00  1.000000e+01
      vertex  2.588191e+00 -9.659258e+00  4.000000e+01
    endloop
  endfacet
  facet normal  2.164402e-01 -9.762958e-01  0.000000e+00
    outer loop
      vertex  2.588191e+00 -9.659258e+00  4.000000e+01
      vertex  1.736482e+00 -9.848078e+00  1.000000e+01
      vertex  2.588191e+00 -9.659258e+00  1.000000e+01
    endloop
  endfacet
  facet normal  3.007057e-01 -9.537170e-01  0.000000e+00
    outer loop
      vertex  2.588191e+00 -9.659258e+00  4.000000e+01
      vertex  2.588191e+00 -9.659258e+00  1.000000e+01
      vertex  3.420202e+00 -9.396926e+00  4.000000e+01
    endloop
  endfacet
  facet normal  3.007057e-01 -9.537170e-01  0.000000e+00
    outer loop
      vertex  3.420202e+00 -9.396926e+00  4.000000e+01
      vertex  2.588191e+00 -9.659258e+00  1.000000e+01
      vertex  3.420202e+00 -9.396926e+00  1.000000e+01
    endloop
  endfacet
  facet normal  3.826832e-01 -9.238797e-01  0.000000e+00
    outer loop
      vertex  3.420202e+00 -9.396926e+00  4.000000e+01
      vertex  3.420202e+00 -9.396926e+00  1.000000e+01
      vertex  4.226182e+00 -9.063078e+00  4.000000e+01
    endloop
  endfacet
  facet normal  3.826832e-01 -9.238797e-01  0.000000e+00
    outer loop
      vertex  4.226182e+00 -9.063078e+00  4.000000e+01
      vertex  3.420202e+00 -9.396926e+00  1.000000e+01
      vertex  4.226182e+00 -9.063078e+00  1.000000e+01
    endloop
  endfacet
  facet normal  4.617482e-01 -8.870111e-01  0.000000e+00
    outer loop
      vertex  4.226182e+00 -9.063078e+00  4.000000e+01
      vertex  4.226182e+00 -9.063078e+00  1.000000e+01
      vertex  5.000000e+00 -8.660254e+00  4.000000e+01
    endloop
  endfacet
  facet normal  4.617482e-01 -8.870111e-01  0.000000e+00
    outer loop
      vertex  5.000000e+00 -8.660254e+00  4.000000e+01
      vertex  4.226182e+00 -9.063078e+00  1.000000e+01
      vertex  5.000000e+00 -8.660254e+00  1.000000e+01
    endloop
  endfacet
  facet normal  5.372996e-01 -8.433913e-01  0.000000e+00
    outer loop
      vertex  5.000000e+00 -8.660254e+00  4.000000e+01
      vertex  5.000000e+00 -8.660254e+00  1.000000e+01
      vertex  5.735765e+00 -8.191521e+00  4.000000e+01
    endloop
  endfacet
  facet normal  5.372996e-01 -8.433913e-01  0.000000e+00
    outer loop
      vertex  5.735765e+00 -8.191521e+00  4.000000e+01
      vertex  5.000000e+00 -8.660254e+00  1.000000e+01
      vertex  5.735765e+00 -8.191521e+00  1.000000e+01
    endloop
  endfacet
  facet normal  6.087619e-01 -7.933530e-01  0.000000e+00
    outer loop
      vertex  5.735765e+00 -8.191521e+00  4.000000e+01
      vertex  5.735765e+00 -8.191521e+00  1.000000e+01
      vertex  6.427876e+00 -7.660444e+00  4.000000e+01
    endloop
  endfacet
  facet normal  6.087619e-01 -7.933530e-01  0.000000e+00
    outer loop
      vertex  6.427876e+00 -7.660444e+00  4.000000e+01
      vertex  5.735765e+00 -8.191521e+00  1.000000e+01
      vertex  6.427876e+00 -7.660444e+00  1.000000e+01
    endloop
  endfacet
  facet normal  6.755900e-01 -7.372774e-01  0.000000e+00
    outer loop
      vertex  6.427876e+00 -7.660444e+00  4.000000e+01
      vertex  6.427876e+00 -7.660444e+00  1.000000e+01
      vertex  7.071068e+00 -7.071068e+00  4.000000e+01
    endloop
  endfacet
  facet normal  6.755900e-01 -7.372774e-01  0.000000e+00
    outer loop
      vertex  7.071068e+00 -7.071068e+00  4.000000e+01
      vertex  6.427876e+00 -7.660444e+00  1.000000e+01
      vertex  7.071068e+00 -7.071068e+00  1.000000e+01
    endloop
  endfacet
  facet normal  7.372774e-01 -6.755900e-01  0.000000e+00
    outer loop
      vertex  7.071068e+00 -7.071068e+00  4.000000e+01
      vertex  7.071068e+00 -7.071068e+00  1.000000e+01
      vertex  7.660444e+00 -6.427876e+00  4.000000e+01
    endloop
  endfacet
  facet normal  7.372774e-01 -6.755900e-01  0.000000e+00
    outer loop
      vertex  7.660444e+00 -6.427876e+00  4.000000e+01
      vertex  7.071068e+00 -7.071068e+00  1.000000e+01
      vertex  7.660444e+00 -6.427876e+00  1.000000e+01
    endloop
  endfacet
  facet normal  7.933530e-01 -6.087619e-01  0.000000e+00
    outer loop
      vertex  7.660444e+00 -6.427876e+00  4.000000e+01
      vertex  7.660444e+00 -6.427876e+00  1.000000e+01
      vertex  8.191521e+00 -5.735765e+00  4.000000e+01
    endloop
  endfacet
  facet normal  7.933530e-01 -6.087619e-01  0.000000e+00
    outer loop
      vertex  8.191521e+00 -5.735765e+00  4.000000e+01
      vertex  7.660444e+00 -6.427876e+00  1.000000e+01
      vertex  8.191521e+00 -5.735765e+00  1.000000e+01
    endloop
  endfacet
  facet normal  8.433913e-01 -5.372996e-01  0.000000e+00
    outer loop
      vertex  8.191521e+00 -5.735765e+00  4.000000e+01
      vertex  8.191521e+00 -5.735765e+00  1.000000e+01
      vertex  8.660254e+00 -5.000000e+00  4.000000e+01
    endloop
  endfacet
  facet normal  8.433913e-01 -5.372996e-01  0.000000e+00
    outer loop
      vertex  8.660254e+00 -5.000000e+00  4.000000e+01
      vertex  8.191521e+00 -5.735765e+00  1.000000e+01
      vertex  8.660254e+00 -5.000000e+00  1.000000e+01
    endloop
  endfacet
  facet normal  8.870111e-01 -4.617482e-01  0.000000e+00
    outer loop
      vertex  8.660254e+00 -5.000000e+00  4.000000e+01
      vertex  8.660254e+00 -5.000000e+00  1.000000e+01
      vertex  9.063078e+00 -4.226182e+00  4.000000e+01
    endloop
  endfacet
  facet normal  8.870111e-01 -4.617482e-01  0.000000e+00
    outer loop
      vertex  9.063078e+00 -4.226182e+00  4.000000e+01
      vertex  8.660254e+00 -5.000000e+00  1.000000e+01
      vertex  9.063078e+00 -4.226182e+00  1.000000e+01
    endloop
  endfacet
  facet normal  9.238797e-01 -3.826832e-01  0.000000e+00
    outer loop
      vertex  9.063078e+00 -4.226182e+00  4.000000e+01
      vertex  9.063078e+00 -4.226182e+00  1.000000e+01
      vertex  9.396926e+00 -3.420202e+00  4.000000e+01
    endloop
  endfacet
  facet normal  9.238797e-01 -3.826832e-01  0.000000e+00
    outer loop
      vertex  9.396926e+00 -3.420202e+00  4.000000e+01
      vertex  9.063078e+00 -4.226182e+00  1.000000e+01
      vertex  9.396926e+00 -3.420202e+00  1.000000e+01
    endloop
  endfacet
  facet normal  9.537170e-01 -3.007057e-01  0.000000e+00
    outer loop
      vertex  9.396926e+00 -3.420202e+00  4.000000e+01
      vertex  9.396926e+00 -3.420202e+00  1.000000e+01
      vertex  9.659258e+00 -2.588191e+00  4.000000e+01
    endloop
  endfacet
  facet normal  9.537170e-01 -3.007057e-01  0.000000e+00
    outer loop
      vertex  9.659258e+00 -2.588191e+00  4.000000e+01
      vertex  9.396926e+00 -3.420202e+00  1.000000e+01
      vertex  9.659258e+00 -2.588191e+00  1.000000e+01
    endloop
  endfacet
  facet normal  9.762958e-01 -2.164402e-01  0.000000e+00
    outer loop
      vertex  9.659258e+00 -2.588191e+00  4.000000e+01
      vertex  9.659258e+00 -2.588191e+00  1.000000e+01
      vertex  9.848078e+00 -1.736482e+00  4.000000e+01
    endloop
  endfacet
  facet normal  9.762958e-01 -2.164402e-01  0.000000e+00
    outer loop
      vertex  9.848078e+00 -1.736482e+00  4.000000e+01
      vertex  9.659258e+00 -2.588191e+00  1.000000e+01
      vertex  9.848078e+00 -1.736482e+00  1.000000e+01
    endloop
  endfacet
  facet normal  9.914448e-01 -1.305264e-01  0.000000e+00
    outer loop
      vertex  9.848078e+00 -1.736482e+00  4.000000e+01
      vertex  9.848078e+00 -1.736482e+00  1.000000e+01
      vertex  9.961947e+00 -8.715574e-01  4.000000e+01
    endloop
  endfacet
  facet normal  9.914448e-01 -1.305264e-01  0.000000e+00
    outer loop
      vertex  9.961947e+00 -8.715574e-01  4.000000e+01
      vertex  9.848078e+00 -1.736482e+00  1.000000e+01
      vertex  9.961947e+00 -8.715574e-01  1.000000e+01
    endloop
  endfacet
  facet normal  9.990482e-01 -4.361886e-02  0.000000e+00
    outer loop
      vertex  9.961947e+00 -8.715574e-01  4.000000e+01
      vertex  9.961947e+00 -8.715574e-01  1.000000e+01
      vertex  1.000000e+01  2.449294e-15  4.000000e+01
    endloop
  endfacet
  facet normal  9.990482e-01 -4.361886e-02  0.000000e+00
    outer loop
      vertex  1.000000e+01  2.449294e-15  4.000000e+01
      vertex  9.961947e+00 -8.715574e-01  1.000000e+01
      vertex  1.000000e+01  2.449294e-15  1.000000e+01
    endloop
  endfacet
  facet normal  0.000000e+00  0.000000e+00  1.000000e+00
    outer loop
      vertex  6.123234e-16 -1.000000e+01  4.000000e+01
      vertex  8.715574e-01 -9.961947e+00  4.000000e+01
      vertex -8.715574e-01 -9.961947e+00  4.000000e+01
    endloop
  endfacet
  facet normal  0.000000e+00  0.000000e+00  1.000000e+00
    outer loop
      vertex -1.836970e-15  1.000000e+01  4.000000e+01
      vertex -8.715574e-01  9.961947e+00  4.000000e+01
      vertex  8.715574e-01  9.961947e+00  4.000000e+01
    endloop
  endfacet
  facet normal  0.000000e+00  0.000000e+00  1.000000e+00
    outer loop
      vertex  8.715574e-01  9.961947e+00  4.000000e+01
      vertex -8.715574e-01  9.961947e+00  4.000000e+01
      vertex -1.736482e+00  9.848078e+00  4.000000e+01
    endloop
  endfacet
  facet normal  0.000000e+00  0.000000e+00  9.999999e-01
    outer loop
      vertex  8.715574e-01  9.961947e+00  4.000000e+01
      vertex -1.736482e+00  9.848078e+00  4.000000e+01
      vertex  1.736482e+00  9.848078e+00  4.000000e+01
    endloop
  endfacet
  facet normal  0.000000e+00  0.000000e+00  1.000000e+00
    outer loop
      vertex  1.736482e+00  9.848078e+00  4.000000e+01
      vertex -1.736482e+00  9.848078e+00  4.000000e+01
      vertex -2.588191e+00  9.659258e+00  4.000000e+01
    endloop
  endfacet
  facet normal  0.000000e+00  0.000000e+00  1.000000e+00
    outer loop
      vertex  1.736482e+00  9.848078e+00  4.000000e+01
      vertex -2.588191e+00  9.659258e+00  4.000000e+01
      vertex  2.588191e+00  9.659258e+00  4.000000e+01
    endloop
  endfacet
  facet normal  0.000000e+00  0.000000e+00  1.000000e+00
    outer loop
      vertex  2.588191e+00  9.659258e+00  4.000000e+01
      vertex -2.588191e+00  9.659258e+00  4.000000e+01
      vertex -3.420202e+00  9.396926e+00  4.000000e+01
    endloop
  endfacet
  facet normal  0.000000e+00  0.000000e+00  1.000000e+00
    outer loop
      vertex  2.588191e+00  9.659258e+00  4.000000e+01
      vertex -3.420202e+00  9.396926e+00  4.000000e+01
      vertex  3.420202e+00  9.396926e+00  4.000000e+01
    endloop
  endfacet
  facet normal  0.000000e+00  0.000000e+00  1.000000e+00
    outer loop
      vertex  3.420202e+00  9.396926e+00  4.000000e+01
      vertex -3.420202e+00  9.396926e+00  4.000000e+01
      vertex -4.226182e+00  9.063078e+00  4.000000e+01
    endloop
  endfacet
  facet normal  0.000000e+00  0.000000e+00  1.000000e+00
    outer loop
      vertex  3.420202e+00  9.396926e+00  4.000000e+01
      vertex -4.226182e+00  9.063078e+00  4.000000e+01
      vertex  4.226182e+00  9.063078e+00  4.000000e+01
    endloop
  endfacet
  facet normal  0.000000e+00  0.000000e+00  1.000000e+00
    outer loop
      vertex  4.226182e+00  9.063078e+00  4.000000e+01
      vertex -4.226182e+00  9.063078e+00  4.000000e+01
      vertex -5.000000e+00  8.660254e+00  4.000000e+01
    endloop
  endfacet
  facet normal  0.000000e+00  0.000000e+00  1.000000e+00
    outer loop
      vertex  4.226182e+00  9.063078e+00  4.000000e+01
      vertex -5.000000e+00  8.660254e+00  4.000000e+01
      vertex  5.000000e+00  8.660254e+00  4.000000e+01
    endloop
  endfacet
  facet normal  0.000000e+00  0.000000e+00  1.000000e+00
    outer loop
      vertex  5.000000e+00  8.660254e+00  4.000000e+01
      vertex -5.000000e+00  8.660254e+00  4.000000e+01
      vertex -5.735765e+00  8.191521e+00  4.000000e+01
    endloop
  endfacet
  facet normal  0.000000e+00  0.000000e+00  9.999999e-01
    outer loop
      vertex  5.000000e+00  8.660254e+00  4.000000e+01
      vertex -5.735765e+00  8.191521e+00  4.000000e+01
      vertex  5.735765e+00  8.191521e+00  4.000000e+01
    endloop
  endfacet
  facet normal  0.000000e+00  0.000000e+00  1.000000e+00
    outer loop
      vertex  5.735765e+00  8.191521e+00  4.000000e+01
      vertex -5.735765e+00  8.191521e+00  4.000000e+01
      vertex -6.427876e+00  7.660444e+00  4.000000e+01
    endloop
  endfacet
  facet normal  0.000000e+00  0.000000e+00  1.000000e+00
    outer loop
      vertex  5.735765e+00  8.191521e+00  4.000000e+01
      vertex -6.427876e+00  7.660444e+00  4.000000e+01
      vertex  6.427876e+00  7.660444e+00  4.000000e+01
    endloop
  endfacet
  facet normal  0.000000e+00  0.000000e+00  1.000000e+00
    outer loop
      vertex  6.427876e+00  7.660444e+00  4.000000e+01
      vertex -6.427876e+00  7.660444e+00  4.000000e+01
      vertex -7.071068e+00  7.071068e+00  4.000000e+01
    endloop
  endfacet
  facet normal  0.000000e+00  0.000000e+00  1.000000e+00
    outer loop
      vertex  6.427876e+00  7.660444e+00  4.000000e+01
      vertex -7.071068e+00  7.071068e+00  4.000000e+01
      vertex  7.071068e+00  7.071068e+00  4.000000e+01
    endloop
  endfacet
  facet normal  0.000000e+00  0.000000e+00  1.000000e+00
    outer loop
      vertex  7.071068e+00  7.071068e+00  4.000000e+01
      vertex -7.071068e+00  7.071068e+00  4.000000e+01
      vertex -7.660444e+00  6.427876e+00  4.000000e+01
    endloop
  endfacet
  facet normal  0.000000e+00  0.000000e+00  1.000000e+00
    outer loop
      vertex  7.071068e+00  7.071068e+00  4.000000e+01
      vertex -7.660444e+00  6.427876e+00  4.000000e+01
      vertex  7.660444e+00  6.427876e+00  4.000000e+01
    endloop
  endfacet
  facet normal  0.000000e+00  0.000000e+00  1.000000e+00
    outer loop
      vertex  7.660444e+00  6.427876e+00  4.000000e+01
      vertex -7.660444e+00  6.427876e+00  4.000000e+01
      vertex -8.191521e+00  5.735765e+00  4.000000e+01
    endloop
  endfacet
  facet normal  0.000000e+00  0.000000e+00  1.000000e+00
    outer loop
      vertex  7.660444e+00  6.427876e+00  4.000000e+01
      vertex -8.191521e+00  5.735765e+00  4.000000e+01
      vertex  8.191521e+00  5.735765e+00  4.000000e+01
    endloop
  endfacet
  facet normal  0.000000e+00  0.000000e+00  1.000000e+00
    outer loop
      vertex  8.191521e+00  5.735765e+00  4.000000e+01
      vertex -8.191521e+00  5.735765e+00  4.000000e+01
      vertex -8.660254e+00  5.000000e+00  4.000000e+01
    endloop
  endfacet
  facet normal  0.000000e+00  0.000000e+00  9.999999e-01
    outer loop
      vertex  8.191521e+00  5.735765e+00  4.000000e+01
      vertex -8.660254e+00  5.000000e+00  4.000000e+01
      vertex  8.660254e+00  5.000000e+00  4.000000e+01
    endloop
  endfacet
  facet normal  0.000000e+00  0.000000e+00  1.000000e+00
    outer loop
      vertex  8.660254e+00  5.000000e+00  4.000000e+01
      vertex -8.660254e+00  5.000000e+00  4.000000e+01
      vertex -9.063078e+00  4.226182e+00  4.000000e+01
    endloop
  endfacet
  facet normal  0.000000e+00  0.000000e+00  1.000000e+00
    outer loop
      vertex  8.660254e+00  5.000000e+00  4.000000e+01
      vertex -9.063078e+00  4.226182e+00  4.000000e+01
      vertex  9.063078e+00  4.226182e+00  4.000000e+01
    endloop
  endfacet
  facet normal  0.000000e+00  0.000000e+00  9.999999e-01
    outer loop
      vertex  9.063078e+00  4.226182e+00  4.000000e+01
      vertex -9.063078e+00  4.226182e+00  4.000000e+01
      vertex -9.396926e+00  3.420202e+00  4.000000e+01
    endloop
  endfacet
  facet normal  0.000000e+00  0.000000e+00  9.999999e-01
    outer loop
      vertex  9.063078e+00  4.226182e+00  4.000000e+01
      vertex -9.396926e+00  3.420202e+00  4.000000e+01
      vertex  9.396926e+00  3.420202e+00  4.000000e+01
    endloop
  endfacet
  facet normal  0.000000e+00  0.000000e+00  1.000000e+00
    outer loop
      vertex  9.396926e+00  3.420202e+00  4.000000e+01
      vertex -9.396926e+00  3.420202e+00  4.000000e+01
      vertex -9.659258e+00  2.588191e+00  4.000000e+01
    endloop
  endfacet
  facet normal  0.000000e+00  0.000000e+00  1.000000e+00
    outer loop
      vertex  9.396926e+00  3.420202e+00  4.000000e+01
      vertex -9.659258e+00  2.588191e+00  4.000000e+01
      vertex  9.659258e+00  2.588191e+00  4.000000e+01
    endloop
  endfacet
  facet normal  0.000000e+00  0.000000e+00  1.000000e+00
    outer loop
      vertex  9.659258e+00  2.588191e+00  4.000000e+01
      vertex -9.659258e+00  2.588191e+00  4.000000e+01
      vertex -9.848078e+00  1.736482e+00  4.000000e+01
    endloop
  endfacet
  facet normal  0.000000e+00  0.000000e+00  1.000000e+00
    outer loop
      vertex  9.659258e+00  2.588191e+00  4.000000e+01
      vertex -9.848078e+00  1.736482e+00  4.000000e+01
      vertex  9.848078e+00  1.736482e+00  4.000000e+01
    endloop
  endfacet
  facet normal  0.000000e+00  0.000000e+00  1.000000e+00
    outer loop
      vertex  9.848078e+00  1.736482e+00  4.000000e+01
      vertex -9.848078e+00  1.736482e+00  4.000000e+01
      vertex -9.961947e+00  8.715574e-01  4.000000e+01
    endloop
  endfacet
  facet normal  0.000000e+00  0.000000e+00  1.000000e+00
    outer loop
      vertex  9.848078e+00  1.736482e+00  4.000000e+01
      vertex -9.961947e+00  8.715574e-01  4.000000e+01
      vertex  9.961947e+00  8.715574e-01  4.000000e+01
    endloop
  endfacet
  facet normal  0.000000e+00  0.000000e+00  1.000000e+00
    outer loop
      vertex  9.961947e+00  8.715574e-01  4.000000e+01
      vertex -9.961947e+00  8.715574e-01  4.000000e+01
      vertex -1.000000e+01 -1.224647e-15  4.000000e+01
    endloop
  endfacet
  facet normal  0.000000e+00  0.000000e+00  1.000000e+00
    outer loop
      vertex  9.961947e+00  8.715574e-01  4.000000e+01
      vertex -1.000000e+01 -1.224647e-15  4.000000e+01
      vertex  1.000000e+01  2.449294e-15  4.000000e+01
    endloop
  endfacet
  facet normal  0.000000e+00  0.000000e+00  1.000000e+00
    outer loop
      vertex  1.000000e+01  2.449294e-15  4.000000e+01
      vertex -1.000000e+01 -1.224647e-15  4.000000e+01
      vertex -9.961947e+00 -8.715574e-01  4.000000e+01
    endloop
  endfacet
  facet normal  0.000000e+00  0.000000e+00  1.000000e+00
    outer loop
      vertex  1.000000e+01  2.449294e-15  4.000000e+01
      vertex -9.961947e+00 -8.715574e-01  4.000000e+01
      vertex  9.961947e+00 -8.715574e-01  4.000000e+01
    endloop
  endfacet
  facet normal  0.000000e+00  0.000000e+00  1.000000e+00
    outer loop
      vertex  9.961947e+00 -8.715574e-01  4.000000e+01
      vertex -9.961947e+00 -8.715574e-01  4.000000e+01
      vertex -9.848078e+00 -1.736482e+00  4.000000e+01
    endloop
  endfacet
  facet normal  0.000000e+00  0.000000e+00  1.000000e+00
    outer loop
      vertex  9.961947e+00 -8.715574e-01  4.000000e+01
      vertex -9.848078e+00 -1.736482e+00  4.000000e+01
      vertex  9.848078e+00 -1.736482e+00  4.000000e+01
    endloop
  endfacet
  facet normal  0.000000e+00  0.000000e+00  1.000000e+00
    outer loop
      vertex  9.848078e+00 -1.736482e+00  4.000000e+01
      vertex -9.848078e+00 -1.736482e+00  4.000000e+01
      vertex -9.659258e+00 -2.588191e+00  4.000000e+01
    endloop
  endfacet
  facet normal  0.000000e+00  0.000000e+00  1.000000e+00
    outer loop
      vertex  9.848078e+00 -1.736482e+00  4.000000e+01
      vertex -9.659258e+00 -2.588191e+00  4.000000e+01
      vertex  9.659258e+00 -2.588191e+00  4.000000e+01
    endloop
  endfacet
  facet normal  0.000000e+00  0.000000e+00  1.000000e+00
    outer loop
      vertex  9.659258e+00 -2.588191e+00  4.000000e+01
      vertex -9.659258e+00 -2.588191e+00  4.000000e+01
      vertex -9.396926e+00 -3.420202e+00  4.000000e+01
    endloop
  endfacet
  facet normal  0.000000e+00  0.000000e+00  1.000000e+00
    outer loop
      vertex  9.659258e+00 -2.588191e+00  4.000000e+01
      vertex -9.396926e+00 -3.420202e+00  4.000000e+01
      vertex  9.396926e+00 -3.420202e+00  4.000000e+01
    endloop
  endfacet
  facet normal  0.000000e+00  0.000000e+00  9.999999e-01
    outer loop
      vertex  9.396926e+00 -3.420202e+00  4.000000e+01
      vertex -9.396926e+00 -3.420202e+00  4.000000e+01
      vertex -9.063078e+00 -4.226182e+00  4.000000e+01
    endloop
  endfacet
  facet normal  0.000000e+00  0.000000e+00  9.999999e-01
    outer loop
      vertex  9.396926e+00 -3.420202e+00  4.000000e+01
      vertex -9.063078e+00 -4.226182e+00  4.000000e+01
      vertex  9.063078e+00 -4.226182e+00  4.000000e+01
    endloop
  endfacet
  facet normal  0.000000e+00  0.000000e+00  1.000000e+00
    outer loop
      vertex  9.063078e+00 -4.226182e+00  4.000000e+01
      vertex -9.063078e+00 -4.226182e+00  4.000000e+01
      vertex -8.660254e+00 -5.000000e+00  4.000000e+01
    endloop
  endfacet
  facet normal  0.000000e+00  0.000000e+00  1.000000e+00
    outer loop
      vertex  9.063078e+00 -4.226182e+00  4.000000e+01
      vertex -8.660254e+00 -5.000000e+00  4.000000e+01
      vertex  8.660254e+00 -5.000000e+00  4.000000e+01
    endloop
  endfacet
  facet normal  0.000000e+00  0.000000e+00  9.999999e-01
    outer loop
      vertex  8.660254e+00 -5.000000e+00  4.000000e+01
      vertex -8.660254e+00 -5.000000e+00  4.000000e+01
      vertex -8.191521e+00 -5.735765e+00  4.000000e+01
    endloop
  endfacet
  facet normal  0.000000e+00  0.000000e+00  1.000000e+00
    outer loop
      vertex  8.660254e+00 -5.000000e+00  4.000000e+01
      vertex -8.191521e+00 -5.735765e+00  4.000000e+01
      vertex  8.191521e+00 -5.735765e+00  4.000000e+01
    endloop
  endfacet
  facet normal  0.000000e+00  0.000000e+00  1.000000e+00
    outer loop
      vertex  8.191521e+00 -5.735765e+00  4.000000e+01
      vertex -8.191521e+00 -5.735765e+00  4.000000e+01
      vertex -7.660444e+00 -6.427876e+00  4.000000e+01
    endloop
  endfacet
  facet normal  0.000000e+00  0.000000e+00  1.000000e+00
    outer loop
      vertex  8.191521e+00 -5.735765e+00  4.000000e+01
      vertex -7.660444e+00 -6.427876e+00  4.000000e+01
      vertex  7.660444e+00 -6.427876e+00  4.000000e+01
    endloop
  endfacet
  facet normal  0.000000e+00  0.000000e+00  1.000000e+00
    outer loop
      vertex  7.660444e+00 -6.427876e+00  4.000000e+01
      vertex -7.660444e+00 -6.427876e+00  4.000000e+01
      vertex -7.071068e+00 -7.071068e+00  4.000000e+01
    endloop
  endfacet
  facet normal  0.000000e+00  0.000000e+00  1.000000e+00
    outer loop
      vertex  7.660444e+00 -6.427876e+00  4.000000e+01
      vertex -7.071068e+00 -7.071068e+00  4.000000e+01
      vertex  7.071068e+00 -7.071068e+00  4.000000e+01
    endloop
  endfacet
  facet normal  0.000000e+00  0.000000e+00  1.000000e+00
    outer loop
      vertex  7.071068e+00 -7.071068e+00  4.000000e+01
      vertex -7.071068e+00 -7.071068e+00  4.000000e+01
      vertex -6.427876e+00 -7.660444e+00  4.000000e+01
    endloop
  endfacet
  facet normal  0.000000e+00  0.000000e+00  1.000000e+00
    outer loop
      vertex  7.071068e+00 -7.071068e+00  4.000000e+01
      vertex -6.427876e+00 -7.660444e+00  4.000000e+01
      vertex  6.427876e+00 -7.660444e+00  4.000000e+01
    endloop
  endfacet
  facet normal  0.000000e+00  0.000000e+00  1.000000e+00
    outer loop
      vertex  6.427876e+00 -7.660444e+00  4.000000e+01
      vertex -6.427876e+00 -7.660444e+00  4.000000e+01
      vertex -5.735765e+00 -8.191521e+00  4.000000e+01
    endloop
  endfacet
  facet normal  0.000000e+00  0.000000e+00  1.000000e+00
    outer loop
      vertex  6.427876e+00 -7.660444e+00  4.000000e+01
      vertex -5.735765e+00 -8.191521e+00  4.000000e+01
      vertex  5.735765e+00 -8.191521e+00  4.000000e+01
    endloop
  endfacet
  facet normal  0.000000e+00  0.000000e+00  9.999999e-01
    outer loop
      vertex  5.735765e+00 -8.191521e+00  4.000000e+01
      vertex -5.735765e+00 -8.191521e+00  4.000000e+01
      vertex -5.000000e+00 -8.660254e+00  4.000000e+01
    endloop
  endfacet
  facet normal  0.000000e+00  0.000000e+00  1.000000e+00
    outer loop
      vertex  5.735765e+00 -8.191521e+00  4.000000e+01
      vertex -5.000000e+00 -8.660254e+00  4.000000e+01
      vertex  5.000000e+00 -8.660254e+00  4.000000e+01
    endloop
  endfacet
  facet normal  0.000000e+00  0.000000e+00  1.000000e+00
    outer loop
      vertex  5.000000e+00 -8.660254e+00  4.000000e+01
      vertex -5.000000e+00 -8.660254e+00  4.000000e+01
      vertex -4.226182e+00 -9.063078e+00  4.000000e+01
    endloop
  endfacet
  facet normal  0.000000e+00  0.000000e+00  1.000000e+00
    outer loop
      vertex  5.000000e+00 -8.660254e+00  4.000000e+01
      vertex -4.226182e+00 -9.063078e+00  4.000000e+01
      vertex  4.226182e+00 -9.063078e+00  4.000000e+01
    endloop
  endfacet
  facet normal  0.000000e+00  0.000000e+00  1.000000e+00
    outer loop
      vertex  4.226182e+00 -9.063078e+00  4.000000e+01
      vertex -4.226182e+00 -9.063078e+00  4.000000e+01
      vertex -3.420202e+00 -9.396926e+00  4.000000e+01
    endloop
  endfacet
  facet normal  0.000000e+00  0.000000e+00  1.000000e+00
    outer loop
      vertex  4.226182e+00 -9.063078e+00  4.000000e+01
      vertex -3.420202e+00 -9.396926e+00  4.000000e+01
      vertex  3.420202e+00 -9.396926e+00  4.000000e+01
    endloop
  endfacet
  facet normal  0.000000e+00  0.000000e+00  1.000000e+00
    outer loop
      vertex  3.420202e+00 -9.396926e+00  4.000000e+01
      vertex -3.420202e+00 -9.396926e+00  4.000000e+01
      vertex -2.588191e+00 -9.659258e+00  4.000000e+01
    endloop
  endfacet
  facet normal  0.000000e+00  0.000000e+00  1.000000e+00
    outer loop
      vertex  3.420202e+00 -9.396926e+00  4.000000e+01
      vertex -2.588191e+00 -9.659258e+00  4.000000e+01
      vertex  2.588191e+00 -9.659258e+00  4.000000e+01
    endloop
  endfacet
  facet normal  0.000000e+00  0.000000e+00  1.000000e+00
    outer loop
      vertex  2.588191e+00 -9.659258e+00  4.000000e+01
      vertex -2.588191e+00 -9.659258e+00  4.000000e+01
      vertex -1.736482e+00 -9.848078e+00  4.000000e+01
    endloop
  endfacet
  facet normal  0.000000e+00  0.000000e+00  1.000000e+00
    outer loop
      vertex  2.588191e+00 -9.659258e+00  4.000000e+01
      vertex -1.736482e+00 -9.848078e+00  4.000000e+01
      vertex  1.736482e+00 -9.848078e+00  4.000000e+01
    endloop
  endfacet
  facet normal  0.000000e+00  0.000000e+00  9.999999e-01
    outer loop
      vertex  1.736482e+00 -9.848078e+00  4.000000e+01
      vertex -1.736482e+00 -9.848078e+00  4.000000e+01
      vertex -8.715574e-01 -9.961947e+00  4.000000e+01
    endloop
  endfacet
  facet normal  0.000000e+00  0.000000e+00  1.000000e+00
    outer loop
      vertex  1.736482e+00 -9.848078e+00  4.000000e+01
      vertex -8.715574e-01 -9.961947e+00  4.000000e+01
      vertex  8.715574e-01 -9.961947e+00  4.000000e+01
    endloop
  endfacet
  facet normal  -0.000000e+00  0.000000e+00 -1.000000e+00
    outer loop
      vertex -8.715574e-01 -9.961947e+00  1.000000e+01
      vertex  8.715574e-01 -9.961947e+00  1.000000e+01
      vertex  6.123234e-16 -1.000000e+01  1.000000e+01
    endloop
  endfacet
  facet normal  0.000000e+00  0.000000e+00 -1.000000e+00
    outer loop
      vertex  8.715574e-01 -9.961947e+00  1.000000e+01
      vertex -8.715574e-01 -9.961947e+00  1.000000e+01
      vertex  1.736482e+00 -9.848078e+00  1.000000e+01
    endloop
  endfacet
  facet normal  -0.000000e+00  0.000000e+00 -9.999999e-01
    outer loop
      vertex  1.736482e+00 -9.848078e+00  1.000000e+01
      vertex -8.715574e-01 -9.961947e+00  1.000000e+01
      vertex -1.736482e+00 -9.848078e+00  1.000000e+01
    endloop
  endfacet
  facet normal  0.000000e+00  0.000000e+00 -1.000000e+00
    outer loop
      vertex  1.736482e+00 -9.848078e+00  1.000000e+01
      vertex -1.736482e+00 -9.848078e+00  1.000000e+01
      vertex  2.588191e+00 -9.659258e+00  1.000000e+01
    endloop
  endfacet
  facet normal  -0.000000e+00  0.000000e+00 -1.000000e+00
    outer loop
      vertex  2.588191e+00 -9.659258e+00  1.000000e+01
      vertex -1.736482e+00 -9.848078e+00  1.000000e+01
      vertex -2.588191e+00 -9.659258e+00  1.000000e+01
    endloop
  endfacet
  facet normal  0.000000e+00  0.000000e+00 -1.000000e+00
    outer loop
      vertex  2.588191e+00 -9.659258e+00  1.000000e+01
      vertex -2.588191e+00 -9.659258e+00  1.000000e+01
      vertex  3.420202e+00 -9.396926e+00  1.000000e+01
    endloop
  endfacet
  facet normal  -0.000000e+00  0.000000e+00 -1.000000e+00
    outer loop
      vertex  3.420202e+00 -9.396926e+00  1.000000e+01
      vertex -2.588191e+00 -9.659258e+00  1.000000e+01
      vertex -3.420202e+00 -9.396926e+00  1.000000e+01
    endloop
  endfacet
  facet normal  0.000000e+00  0.000000e+00 -1.000000e+00
    outer loop
      vertex  3.420202e+00 -9.396926e+00  1.000000e+01
      vertex -3.420202e+00 -9.396926e+00  1.000000e+01
      vertex  4.226182e+00 -9.063078e+00  1.000000e+01
    endloop
  endfacet
  facet normal  -0.000000e+00  0.000000e+00 -1.000000e+00
    outer loop
      vertex  4.226182e+00 -9.063078e+00  1.000000e+01
      vertex -3.420202e+00 -9.396926e+00  1.000000e+01
      vertex -4.226182e+00 -9.063078e+00  1.000000e+01
    endloop
  endfacet
  facet normal  0.000000e+00  0.000000e+00 -1.000000e+00
    outer loop
      vertex  4.226182e+00 -9.063078e+00  1.000000e+01
      vertex -4.226182e+00 -9.063078e+00  1.000000e+01
      vertex  5.000000e+00 -8.660254e+00  1.000000e+01
    endloop
  endfacet
  facet normal  -0.000000e+00  0.000000e+00 -1.000000e+00
    outer loop
      vertex  5.000000e+00 -8.660254e+00  1.000000e+01
      vertex -4.226182e+00 -9.063078e+00  1.000000e+01
      vertex -5.000000e+00 -8.660254e+00  1.000000e+01
    endloop
  endfacet
  facet normal  0.000000e+00  0.000000e+00 -1.000000e+00
    outer loop
      vertex  5.000000e+00 -8.660254e+00  1.000000e+01
      vertex -5.000000e+00 -8.660254e+00  1.000000e+01
      vertex  5.735765e+00 -8.191521e+00  1.000000e+01
    endloop
  endfacet
  facet normal  -0.000000e+00  0.000000e+00 -9.999999e-01
    outer loop
      vertex  5.735765e+00 -8.191521e+00  1.000000e+01
      vertex -5.000000e+00 -8.660254e+00  1.000000e+01
      vertex -5.735765e+00 -8.191521e+00  1.000000e+01
    endloop
  endfacet
  facet normal  0.000000e+00  0.000000e+00 -1.000000e+00
    outer loop
      vertex  5.735765e+00 -8.191521e+00  1.000000e+01
      vertex -5.735765e+00 -8.191521e+00  1.000000e+01
      vertex  6.427876e+00 -7.660444e+00  1.000000e+01
    endloop
  endfacet
  facet normal  -0.000000e+00  0.000000e+00 -1.000000e+00
    outer loop
      vertex  6.427876e+00 -7.660444e+00  1.000000e+01
      vertex -5.735765e+00 -8.191521e+00  1.000000e+01
      vertex -6.427876e+00 -7.660444e+00  1.000000e+01
    endloop
  endfacet
  facet normal  0.000000e+00  0.000000e+00 -1.000000e+00
    outer loop
      vertex  6.427876e+00 -7.660444e+00  1.000000e+01
      vertex -6.427876e+00 -7.660444e+00  1.000000e+01
      vertex  7.071068e+00 -7.071068e+00  1.000000e+01
    endloop
  endfacet
  facet normal  -0.000000e+00  0.000000e+00 -1.000000e+00
    outer loop
      vertex  7.071068e+00 -7.071068e+00  1.000000e+01
      vertex -6.427876e+00 -7.660444e+00  1.000000e+01
      vertex -7.071068e+00 -7.071068e+00  1.000000e+01
    endloop
  endfacet
  facet normal  0.000000e+00  0.000000e+00 -1.000000e+00
    outer loop
      vertex  7.071068e+00 -7.071068e+00  1.000000e+01
      vertex -7.071068e+00 -7.071068e+00  1.000000e+01
      vertex  7.660444e+00 -6.427876e+00  1.000000e+01
    endloop
  endfacet
  facet normal  -0.000000e+00  0.000000e+00 -1.000000e+00
    outer loop
      vertex  7.660444e+00 -6.427876e+00  1.000000e+01
      vertex -7.071068e+00 -7.071068e+00  1.000000e+01
      vertex -7.660444e+00 -6.427876e+00  1.000000e+01
    endloop
  endfacet
  facet normal  0.000000e+00  0.000000e+00 -1.000000e+00
    outer loop
      vertex  7.660444e+00 -6.427876e+00  1.000000e+01
      vertex -7.660444e+00 -6.427876e+00  1.000000e+01
      vertex  8.191521e+00 -5.735765e+00  1.000000e+01
    endloop
  endfacet
  facet normal  -0.000000e+00  0.000000e+00 -1.000000e+00
    outer loop
      vertex  8.191521e+00 -5.735765e+00  1.000000e+01
      vertex -7.660444e+00 -6.427876e+00  1.000000e+01
      vertex -8.191521e+00 -5.735765e+00  1.000000e+01
    endloop
  endfacet
  facet normal  0.000000e+00  0.000000e+00 -1.000000e+00
    outer loop
      vertex  8.191521e+00 -5.735765e+00  1.000000e+01
      vertex -8.191521e+00 -5.735765e+00  1.000000e+01
      vertex  8.660254e+00 -5.000000e+00  1.000000e+01
    endloop
  endfacet
  facet normal  -0.000000e+00  0.000000e+00 -9.999999e-01
    outer loop
      vertex  8.660254e+00 -5.000000e+00  1.000000e+01
      vertex -8.191521e+00 -5.735765e+00  1.000000e+01
      vertex -8.660254e+00 -5.000000e+00  1.000000e+01
    endloop
  endfacet
  facet normal  0.000000e+00  0.000000e+00 -1.000000e+00
    outer loop
      vertex  8.660254e+00 -5.000000e+00  1.000000e+01
      vertex -8.660254e+00 -5.000000e+00  1.000000e+01
      vertex  9.063078e+00 -4.226182e+00  1.000000e+01
    endloop
  endfacet
  facet normal  -0.000000e+00  0.000000e+00 -1.000000e+00
    outer loop
      vertex  9.063078e+00 -4.226182e+00  1.000000e+01
      vertex -8.660254e+00 -5.000000e+00  1.000000e+01
      vertex -9.063078e+00 -4.226182e+00  1.000000e+01
    endloop
  endfacet
  facet normal  0.000000e+00  0.000000e+00 -9.999999e-01
    outer loop
      vertex  9.063078e+00 -4.226182e+00  1.000000e+01
      vertex -9.063078e+00 -4.226182e+00  1.000000e+01
      vertex  9.396926e+00 -3.420202e+00  1.000000e+01
    endloop
  endfacet
  facet normal  -0.000000e+00  0.000000e+00 -9.999999e-01
    outer loop
      vertex  9.396926e+00 -3.420202e+00  1.000000e+01
      vertex -9.063078e+00 -4.226182e+00  1.000000e+01
      vertex -9.396926e+00 -3.420202e+00  1.000000e+01
    endloop
  endfacet
  facet normal  0.000000e+00  0.000000e+00 -1.000000e+00
    outer loop
      vertex  9.396926e+00 -3.420202e+00  1.000000e+01
      vertex -9.396926e+00 -3.420202e+00  1.000000e+01
      vertex  9.659258e+00 -2.588191e+00  1.000000e+01
    endloop
  endfacet
  facet normal  -0.000000e+00  0.000000e+00 -1.000000e+00
    outer loop
      vertex  9.659258e+00 -2.588191e+00  1.000000e+01
      vertex -9.396926e+00 -3.420202e+00  1.000000e+01
      vertex -9.659258e+00 -2.588191e+00  1.000000e+01
    endloop
  endfacet
  facet normal  0.000000e+00  0.000000e+00 -1.000000e+00
    outer loop
      vertex  9.659258e+00 -2.588191e+00  1.000000e+01
      vertex -9.659258e+00 -2.588191e+00  1.000000e+01
      vertex  9.848078e+00 -1.736482e+00  1.000000e+01
    endloop
  endfacet
  facet normal  -0.000000e+00  0.000000e+00 -1.000000e+00
    outer loop
      vertex  9.848078e+00 -1.736482e+00  1.000000e+01
      vertex -9.659258e+00 -2.588191e+00  1.000000e+01
      vertex -9.848078e+00 -1.736482e+00  1.000000e+01
    endloop
  endfacet
  facet normal  0.000000e+00  0.000000e+00 -1.000000e+00
    outer loop
      vertex  9.848078e+00 -1.736482e+00  1.000000e+01
      vertex -9.848078e+00 -1.736482e+00  1.000000e+01
      vertex  9.961947e+00 -8.715574e-01  1.000000e+01
    endloop
  endfacet
  facet normal  -0.000000e+00  0.000000e+00 -1.000000e+00
    outer loop
      vertex  9.961947e+00 -8.715574e-01  1.000000e+01
      vertex -9.848078e+00 -1.736482e+00  1.000000e+01
      vertex -9.961947e+00 -8.715574e-01  1.000000e+01
    endloop
  endfacet
  facet normal  0.000000e+00  0.000000e+00 -1.000000e+00
    outer loop
      vertex  9.961947e+00 -8.715574e-01  1.000000e+01
      vertex -9.961947e+00 -8.715574e-01  1.000000e+01
      vertex  1.000000e+01  2.449294e-15  1.000000e+01
    endloop
  endfacet
  facet normal  0.000000e+00  0.000000e+00 -1.000000e+00
    outer loop
      vertex  1.000000e+01  2.449294e-15  1.000000e+01
      vertex -9.961947e+00 -8.715574e-01  1.000000e+01
      vertex -1.000000e+01 -1.224647e-15  1.000000e+01
    endloop
  endfacet
  facet normal  0.000000e+00  0.000000e+00 -1.000000e+00
    outer loop
      vertex  1.000000e+01  2.449294e-15  1.000000e+01
      vertex -1.000000e+01 -1.224647e-15  1.000000e+01
      vertex  9.961947e+00  8.715574e-01  1.000000e+01
    endloop
  endfacet
  facet normal  -0.000000e+00  0.000000e+00 -1.000000e+00
    outer loop
      vertex  9.961947e+00  8.715574e-01  1.000000e+01
      vertex -1.000000e+01 -1.224647e-15  1.000000e+01
      vertex -9.961947e+00  8.715574e-01  1.000000e+01
    endloop
  endfacet
  facet normal  0.000000e+00  0.000000e+00 -1.000000e+00
    outer loop
      vertex  9.961947e+00  8.715574e-01  1.000000e+01
      vertex -9.961947e+00  8.715574e-01  1.000000e+01
      vertex  9.848078e+00  1.736482e+00  1.000000e+01
    endloop
  endfacet
  facet normal  -0.000000e+00  0.000000e+00 -1.000000e+00
    outer loop
      vertex  9.848078e+00  1.736482e+00  1.000000e+01
      vertex -9.961947e+00  8.715574e-01  1.000000e+01
      vertex -9.848078e+00  1.736482e+00  1.000000e+01
    endloop
  endfacet
  facet normal  0.000000e+00  0.000000e+00 -1.000000e+00
    outer loop
      vertex  9.848078e+00  1.736482e+00  1.000000e+01
      vertex -9.848078e+00  1.736482e+00  1.000000e+01
      vertex  9.659258e+00  2.588191e+00  1.000000e+01
    endloop
  endfacet
  facet normal  -0.000000e+00  0.000000e+00 -1.000000e+00
    outer loop
      vertex  9.659258e+00  2.588191e+00  1.000000e+01
      vertex -9.848078e+00  1.736482e+00  1.000000e+01
      vertex -9.659258e+00  2.588191e+00  1.000000e+01
    endloop
  endfacet
  facet normal  0.000000e+00  0.000000e+00 -1.000000e+00
    outer loop
      vertex  9.659258e+00  2.588191e+00  1.000000e+01
      vertex -9.659258e+00  2.588191e+00  1.000000e+01
      vertex  9.396926e+00  3.420202e+00  1.000000e+01
    endloop
  endfacet
  facet normal  -0.000000e+00  0.000000e+00 -1.000000e+00
    outer loop
      vertex  9.396926e+00  3.420202e+00  1.000000e+01
      vertex -9.659258e+00  2.588191e+00  1.000000e+01
      vertex -9.396926e+00  3.420202e+00  1.000000e+01
    endloop
  endfacet
  facet normal  0.000000e+00  0.000000e+00 -9.999999e-01
    outer loop
      vertex  9.396926e+00  3.420202e+00  1.000000e+01
      vertex -9.396926e+00  3.420202e+00  1.000000e+01
      vertex  9.063078e+00  4.226182e+00  1.000000e+01
    endloop
  endfacet
  facet normal  -0.000000e+00  0.000000e+00 -9.999999e-01
    outer loop
      vertex  9.063078e+00  4.226182e+00  1.000000e+01
      vertex -9.396926e+00  3.420202e+00  1.000000e+01
      vertex -9.063078e+00  4.226182e+00  1.000000e+01
    endloop
  endfacet
  facet normal  0.000000e+00  0.000000e+00 -1.000000e+00
    outer loop
      vertex  9.063078e+00  4.226182e+00  1.000000e+01
      vertex -9.063078e+00  4.226182e+00  1.000000e+01
      vertex  8.660254e+00  5.000000e+00  1.000000e+01
    endloop
  endfacet
  facet normal  -0.000000e+00  0.000000e+00 -1.000000e+00
    outer loop
      vertex  8.660254e+00  5.000000e+00  1.000000e+01
      vertex -9.063078e+00  4.226182e+00  1.000000e+01
      vertex -8.660254e+00  5.000000e+00  1.000000e+01
    endloop
  endfacet
  facet normal  0.000000e+00  0.000000e+00 -9.999999e-01
    outer loop
      vertex  8.660254e+00  5.000000e+00  1.000000e+01
      vertex -8.660254e+00  5.000000e+00  1.000000e+01
      vertex  8.191521e+00  5.735765e+00  1.000000e+01
    endloop
  endfacet
  facet normal  -0.000000e+00  0.000000e+00 -1.000000e+00
    outer loop
      vertex  8.191521e+00  5.735765e+00  1.000000e+01
      vertex -8.660254e+00  5.000000e+00  1.000000e+01
      vertex -8.191521e+00  5.735765e+00  1.000000e+01
    endloop
  endfacet
  facet normal  0.000000e+00  0.000000e+00 -1.000000e+00
    outer loop
      vertex  8.191521e+00  5.735765e+00  1.000000e+01
      vertex -8.191521e+00  5.735765e+00  1.000000e+01
      vertex  7.660444e+00  6.427876e+00  1.000000e+01
    endloop
  endfacet
  facet normal  -0.000000e+00  0.000000e+00 -1.000000e+00
    outer loop
      vertex  7.660444e+00  6.427876e+00  1.000000e+01
      vertex -8.191521e+00  5.735765e+00  1.000000e+01
      vertex -7.660444e+00  6.427876e+00  1.000000e+01
    endloop
  endfacet
  facet normal  0.000000e+00  0.000000e+00 -1.000000e+00
    outer loop
      vertex  7.660444e+00  6.427876e+00  1.000000e+01
      vertex -7.660444e+00  6.427876e+00  1.000000e+01
      vertex  7.071068e+00  7.071068e+00  1.000000e+01
    endloop
  endfacet
  facet normal  -0.000000e+00  0.000000e+00 -1.000000e+00
    outer loop
      vertex  7.071068e+00  7.071068e+00  1.000000e+01
      vertex -7.660444e+00  6.427876e+00  1.000000e+01
      vertex -7.071068e+00  7.071068e+00  1.000000e+01
    endloop
  endfacet
  facet normal  0.000000e+00  0.000000e+00 -1.000000e+00
    outer loop
      vertex  7.071068e+00  7.071068e+00  1.000000e+01
      vertex -7.071068e+00  7.071068e+00  1.000000e+01
      vertex  6.427876e+00  7.660444e+00  1.000000e+01
    endloop
  endfacet
  facet normal  -0.000000e+00  0.000000e+00 -1.000000e+00
    outer loop
      vertex  6.427876e+00  7.660444e+00  1.000000e+01
      vertex -7.071068e+00  7.071068e+00  1.000000e+01
      vertex -6.427876e+00  7.660444e+00  1.000000e+01
    endloop
  endfacet
  facet normal  0.000000e+00  0.000000e+00 -1.000000e+00
    outer loop
      vertex  6.427876e+00  7.660444e+00  1.000000e+01
      vertex -6.427876e+00  7.660444e+00  1.000000e+01
      vertex  5.735765e+00  8.191521e+00  1.000000e+01
    endloop
  endfacet
  facet normal  -0.000000e+00  0.000000e+00 -1.000000e+00
    outer loop
      vertex  5.735765e+00  8.191521e+00  1.000000e+01
      vertex -6.427876e+00  7.660444e+00  1.000000e+01
      vertex -5.735765e+00  8.191521e+00  1.000000e+01
    endloop
  endfacet
  facet normal  0.000000e+00  0.000000e+00 -9.999999e-01
    outer loop
      vertex  5.735765e+00  8.191521e+00  1.000000e+01
      vertex -5.735765e+00  8.191521e+00  1.000000e+01
      vertex  5.000000e+00  8.660254e+00  1.000000e+01
    endloop
  endfacet
  facet normal  -0.000000e+00  0.000000e+00 -1.000000e+00
    outer loop
      vertex  5.000000e+00  8.660254e+00  1.000000e+01
      vertex -5.735765e+00  8.191521e+00  1.000000e+01
      vertex -5.000000e+00  8.660254e+00  1.000000e+01
    endloop
  endfacet
  facet normal  0.000000e+00  0.000000e+00 -1.000000e+00
    outer loop
      vertex  5.000000e+00  8.660254e+00  1.000000e+01
      vertex -5.000000e+00  8.660254e+00  1.000000e+01
      vertex  4.226182e+00  9.063078e+00  1.000000e+01
    endloop
  endfacet
  facet normal  -0.000000e+00  0.000000e+00 -1.000000e+00
    outer loop
      vertex  4.226182e+00  9.063078e+00  1.000000e+01
      vertex -5.000000e+00  8.660254e+00  1.000000e+01
      vertex -4.226182e+00  9.063078e+00  1.000000e+01
    endloop
  endfacet
  facet normal  0.000000e+00  0.000000e+00 -1.000000e+00
    outer loop
      vertex  4.226182e+00  9.063078e+00  1.000000e+01
      vertex -4.226182e+00  9.063078e+00  1.000000e+01
      vertex  3.420202e+00  9.396926e+00  1.000000e+01
    endloop
  endfacet
  facet normal  -0.000000e+00  0.000000e+00 -1.000000e+00
    outer loop
      vertex  3.420202e+00  9.396926e+00  1.000000e+01
      vertex -4.226182e+00  9.063078e+00  1.000000e+01
      vertex -3.420202e+00  9.396926e+00  1.000000e+01
    endloop
  endfacet
  facet normal  0.000000e+00  0.000000e+00 -1.000000e+00
    outer loop
      vertex  3.420202e+00  9.396926e+00  1.000000e+01
      vertex -3.420202e+00  9.396926e+00  1.000000e+01
      vertex  2.588191e+00  9.659258e+00  1.000000e+01
    endloop
  endfacet
  facet normal  -0.000000e+00  0.000000e+00 -1.000000e+00
    outer loop
      vertex  2.588191e+00  9.659258e+00  1.000000e+01
      vertex -3.420202e+00  9.396926e+00  1.000000e+01
      vertex -2.588191e+00  9.659258e+00  1.000000e+01
    endloop
  endfacet
  facet normal  0.000000e+00  0.000000e+00 -1.000000e+00
    outer loop
      vertex  2.588191e+00  9.659258e+00  1.000000e+01
      vertex -2.588191e+00  9.659258e+00  1.000000e+01
      vertex  1.736482e+00  9.848078e+00  1.000000e+01
    endloop
  endfacet
  facet normal  -0.000000e+00  0.000000e+00 -1.000000e+00
    outer loop
      vertex  1.736482e+00  9.848078e+00  1.000000e+01
      vertex -2.588191e+00  9.659258e+00  1.000000e+01
      vertex -1.736482e+00  9.848078e+00  1.000000e+01
    endloop
  endfacet
  facet normal  0.000000e+00  0.000000e+00 -9.999999e-01
    outer loop
      vertex  1.736482e+00  9.848078e+00  1.000000e+01
      vertex -1.736482e+00  9.848078e+00  1.000000e+01
      vertex  8.715574e-01  9.961947e+00  1.000000e+01
    endloop
  endfacet
  facet normal  -0.000000e+00  0.000000e+00 -1.000000e+00
    outer loop
      vertex  8.715574e-01  9.961947e+00  1.000000e+01
      vertex -1.736482e+00  9.848078e+00  1.000000e+01
      vertex -8.715574e-01  9.961947e+00  1.000000e+01
    endloop
  endfacet
  facet normal  0.000000e+00  0.000000e+00 -1.000000e+00
    outer loop
      vertex  8.715574e-01  9.961947e+00  1.000000e+01
      vertex -8.715574e-01  9.961947e+00  1.000000e+01
      vertex -1.836970e-15  1.000000e+01  1.000000e+01
    endloop
  endfacet
endsolid CATIA STL
